<?xml version="1.0" standalone="no"?>
<!DOCTYPE svg PUBLIC "-//W3C//DTD SVG 1.1//EN" "http://www.w3.org/Graphics/SVG/1.1/DTD/svg11.dtd" >
<svg xmlns="http://www.w3.org/2000/svg" xmlns:xlink="http://www.w3.org/1999/xlink" version="1.1">
<metadata></metadata>
<defs>
<font id="noto_serifbold" horiz-adv-x="1122" >
<font-face units-per-em="2048" ascent="1638" descent="-410" />
<missing-glyph horiz-adv-x="521" />
<glyph horiz-adv-x="0" />
<glyph horiz-adv-x="0" />
<glyph unicode="&#xd;" horiz-adv-x="1023" />
<glyph unicode=" "  horiz-adv-x="521" />
<glyph unicode="&#x09;" horiz-adv-x="521" />
<glyph unicode="&#xa0;" horiz-adv-x="521" />
<glyph unicode="!" horiz-adv-x="766" d="M209 1433h349l-118 -975h-113zM220 144q0 46 13 77t35 49.5t52.5 26.5t64.5 8q33 0 63 -8t52.5 -26.5t36 -49.5t13.5 -77q0 -45 -13.5 -75.5t-36 -49t-52.5 -27t-63 -8.5q-34 0 -64.5 8.5t-52.5 27t-35 49t-13 75.5z" />
<glyph unicode="&#x22;" horiz-adv-x="1019" d="M134 1433h314l-90 -552h-134zM572 1433h313l-71 -552h-132z" />
<glyph unicode="#" d="M56 402v138h227l70 364h-232v140h258l71 389h144l-73 -389h209l75 389h143l-75 -389h192v-140h-218l-68 -364h223v-138h-251l-75 -402h-142l75 402h-209l-77 -402h-143l77 402h-201zM425 540h211l71 364h-211z" />
<glyph unicode="$" d="M98 368q0 44 16 74t42.5 49.5t60.5 28t70 8.5q0 -75 16 -134t46 -100.5t72 -67t93 -33.5v433l-35 14q-96 39 -160 79.5t-104 86t-56.5 98t-16.5 117.5q0 73 27.5 133t76.5 105t117 74t151 38v154h112v-152q89 -3 154 -19.5t107 -43.5t62 -62.5t20 -75.5q0 -64 -55 -105 t-165 -41q0 29 -7 63.5t-21.5 66.5t-37.5 58t-57 40v-391q6 -3 22.5 -9t27.5 -11q92 -36 158 -74.5t107.5 -83.5t60.5 -97.5t19 -116.5q0 -76 -27 -141t-77.5 -115t-124 -82t-166.5 -43v-249h-112v245q-115 3 -194.5 29.5t-129 66.5t-71 89t-21.5 97zM377 1105 q0 -26 6 -50.5t21.5 -47.5t42 -45t67.5 -45v347q-59 -11 -98 -50.5t-39 -108.5zM626 197q76 17 116.5 67t40.5 117q0 64 -39 109t-118 86v-379z" />
<glyph unicode="%" horiz-adv-x="1817" d="M69 1009q0 101 20.5 183t64.5 140.5t112.5 89.5t164.5 31q90 0 158 -31t113 -89.5t67 -140.5t22 -183t-22.5 -183t-67 -141t-113 -91t-159.5 -32q-95 0 -163.5 32t-112 91t-64 141t-20.5 183zM295 1009q0 -82 7.5 -146t23 -108.5t41.5 -68.5t62 -24q38 0 63 24t41 68.5 t22.5 108.5t6.5 146q0 81 -6.5 144t-22 107t-40.5 67t-62 23t-63 -23t-42 -67t-23.5 -107t-7.5 -144zM482 0l692 1433h155l-691 -1433h-156zM1028 427q0 101 20.5 183t64.5 140t113 89.5t165 31.5q90 0 157.5 -31.5t112.5 -89.5t67 -140t22 -183t-22.5 -183t-67 -141 t-112.5 -91t-159 -32q-95 0 -164 32t-112.5 91t-64 141t-20.5 183zM1254 427q0 -82 7.5 -146t23 -109t41.5 -68.5t63 -23.5q38 0 63 23.5t40.5 68.5t22 109t6.5 146q0 81 -6.5 144t-21.5 107t-40 67t-62 23q-38 0 -64 -23t-42 -67t-23.5 -107t-7.5 -144z" />
<glyph unicode="&#x26;" horiz-adv-x="1607" d="M94 408q0 88 28 150t75 107.5t109 77.5t131 60q-39 47 -68 89.5t-47.5 84.5t-27.5 86t-9 95q0 67 25.5 121t76 93t126 60t175.5 21q97 0 169 -22.5t119.5 -61.5t71.5 -91t24 -110q0 -61 -18.5 -110t-56.5 -90.5t-95 -77.5t-136 -73q5 -8 15 -14l284 -299q13 69 17 137.5 t4 124.5v89h439v-106h-31q-34 0 -66 -4t-59 -18.5t-48.5 -41t-33.5 -73.5q-16 -55 -37 -118.5t-51 -127.5l199 -209q29 -31 70 -40.5t95 -9.5h19v-107h-398l-138 147q-38 -37 -83.5 -67.5t-100 -52.5t-119 -34.5t-139.5 -12.5q-124 0 -219 29t-159.5 84t-98 134.5 t-33.5 180.5zM389 398q0 -60 19 -111.5t53.5 -89.5t84 -60t109.5 -22q106 0 179.5 34.5t122.5 93.5l-429 458q-42 -31 -69 -64.5t-42.5 -71.5t-21.5 -79.5t-6 -87.5zM558 1164q0 -34 7.5 -65.5t23 -62.5t39 -62t54.5 -67q42 24 70.5 50.5t45 57.5t24 68t7.5 83 q0 35 -6.5 65.5t-22 53t-43 35.5t-69.5 13q-33 0 -58 -13t-41 -35.5t-23.5 -53.5t-7.5 -67z" />
<glyph unicode="'" horiz-adv-x="582" d="M134 1433h314l-90 -552h-134z" />
<glyph unicode="(" horiz-adv-x="802" d="M115 638q0 162 34.5 299.5t109.5 251t193.5 204t286.5 156.5v-126q-93 -62 -152 -147.5t-92 -187.5t-45.5 -216t-12.5 -234t12.5 -235t45.5 -217.5t92 -188.5t152 -148v-128q-168 67 -286.5 158t-193.5 205.5t-109.5 252.5t-34.5 301z" />
<glyph unicode=")" horiz-adv-x="802" d="M65 -151q93 62 151.5 148t91.5 188.5t45.5 217.5t12.5 235t-12.5 234t-45.5 216t-91.5 187.5t-151.5 147.5v126q167 -66 285.5 -156.5t193.5 -204t109.5 -251t34.5 -299.5q0 -163 -34.5 -301t-109.5 -252.5t-193.5 -205.5t-285.5 -158v128z" />
<glyph unicode="*" horiz-adv-x="1007" d="M71 1050l312 82l-312 80l90 203l299 -216l-67 326h225l-72 -323l301 209l90 -201l-313 -78l313 -80l-90 -199l-301 208l70 -324h-223l65 326l-297 -212z" />
<glyph unicode="+" d="M130 646v143h358v359h144v-359h360v-143h-360v-359h-144v359h-358z" />
<glyph unicode="," horiz-adv-x="589" d="M90 -205q44 16 77 31.5t55 33.5t33.5 40.5t11.5 51.5q0 19 -11 31t-27 23t-35.5 22t-35.5 28.5t-26.5 43.5t-10.5 67q0 67 41 102.5t103 35.5q85 0 135 -59t50 -162q0 -63 -19.5 -123t-63 -111t-111.5 -91.5t-166 -67.5v104z" />
<glyph unicode="-" horiz-adv-x="622" d="M50 442v211h522v-211h-522z" />
<glyph unicode="." horiz-adv-x="589" d="M130 144q0 46 13 77t35 49.5t52.5 26.5t64.5 8q33 0 63 -8t52.5 -26.5t36 -49.5t13.5 -77q0 -45 -13.5 -75.5t-36 -49t-52.5 -27t-63 -8.5q-34 0 -64.5 8.5t-52.5 27t-35 49t-13 75.5z" />
<glyph unicode="/" horiz-adv-x="578" d="M0 -243l437 1768h141l-434 -1770z" />
<glyph unicode="0" d="M69 720q0 167 25.5 302t83.5 231t152.5 148t233.5 52q130 0 223 -52t152.5 -148t87 -231.5t27.5 -303.5q0 -165 -27.5 -301.5t-87.5 -233.5t-153 -150t-224 -53q-138 0 -232 53t-152 150t-83.5 234t-25.5 303zM379 718q0 -144 8 -256.5t28 -190.5t55.5 -119t91.5 -41 q55 0 90.5 41t55.5 119t27.5 190.5t7.5 256.5t-7.5 256.5t-27 190t-55 118t-89.5 40.5q-56 0 -92 -40.5t-56.5 -118t-28.5 -190t-8 -256.5z" />
<glyph unicode="1" d="M84 1182q31 8 64 19t71 29.5t81 44t93 62.5l141 104h225v-1204q0 -31 4 -55.5t15.5 -41.5t31.5 -25t51 -8h162v-107h-828v107h165q25 0 43.5 6.5t31.5 21t19 39.5t6 63v1006q-39 -47 -72.5 -85.5t-65 -66t-61.5 -42.5t-60 -15q-25 0 -46 10t-36.5 30t-25 47.5t-9.5 60.5z " />
<glyph unicode="2" d="M71 0v207l297 303q93 95 152.5 171.5t94 146t48 137.5t13.5 145q0 115 -41.5 168t-115.5 53q-102 0 -143 -88t-41 -259q-57 0 -104.5 10.5t-81 34.5t-52.5 61.5t-19 91.5q0 55 28 104t83 86t138 59t192 22q113 0 199 -23t144 -66t87.5 -104.5t29.5 -139.5 q0 -47 -10.5 -91t-34.5 -91t-63 -99.5t-97 -115.5t-134.5 -139.5t-177.5 -171.5l-201 -192h467q62 0 105.5 36t61.5 104l16 61h119l-11 -421h-948z" />
<glyph unicode="3" d="M56 220q0 39 13.5 68.5t37 49.5t54.5 29.5t65 9.5q0 -63 18.5 -111t50.5 -80.5t77.5 -48.5t100.5 -16q49 0 94 13.5t79 47t54 90.5t20 144q0 57 -20 105t-59.5 83t-97.5 54.5t-133 19.5h-125v125h132q65 0 113 21t79.5 60t47 93.5t15.5 120.5q0 109 -42 171t-124 62 q-54 0 -88 -26.5t-52.5 -70.5t-25.5 -100t-7 -115q-125 0 -192.5 43.5t-67.5 136.5q0 52 27.5 99t83.5 81.5t139 54t192 19.5q107 0 193 -21.5t146 -63.5t92.5 -103t32.5 -139q0 -68 -23.5 -124.5t-64.5 -101.5t-97 -79t-122 -57q61 -10 124 -34t115 -65.5t85.5 -103 t33.5 -147.5q0 -123 -45.5 -206.5t-121.5 -133.5t-173.5 -72t-201.5 -22q-114 0 -195.5 20t-134 53t-77.5 76.5t-25 90.5z" />
<glyph unicode="4" d="M26 373v123l570 937h279v-927h209v-133h-209v-122q0 -47 13.5 -75.5t35.5 -43.5t52 -20t64 -5h25v-107h-703v107h55q35 0 65 5t52 20t35 43.5t13 75.5v122h-556zM167 506h415v351q0 88 3 190t11 196q-10 -24 -31.5 -65t-46 -84.5t-47 -82.5t-34.5 -57z" />
<glyph unicode="5" d="M80 222q0 71 44 105.5t117 34.5q0 -44 11.5 -87t37.5 -77t68 -55.5t104 -21.5q50 0 94.5 15.5t78 52t54 99t20.5 154.5q0 150 -72 223.5t-202 73.5q-38 0 -69 -3t-57.5 -8.5t-50 -11.5t-45.5 -13l-92 36l63 694h760l10 -365h-115l-16 68q-5 17 -10.5 31.5t-16 24t-26 15 t-40.5 5.5h-417q0 -1 -1.5 -17t-3.5 -42.5t-5 -60t-6 -67.5l-16 -184q16 6 41 11.5t54.5 9.5t62 6.5t63.5 2.5q116 0 211 -27t162 -80.5t103.5 -133.5t36.5 -188q0 -130 -47.5 -219t-123 -143t-168.5 -77t-184 -23q-113 0 -191.5 20.5t-127.5 54t-71 77t-22 90.5z" />
<glyph unicode="6" d="M90 662q0 166 35 310t106 251t178.5 168.5t252.5 61.5q98 0 165.5 -18.5t109.5 -49.5t61 -70.5t19 -82.5q0 -31 -12.5 -59t-41 -49.5t-74 -34.5t-112.5 -13q0 45 -6 91t-20.5 83.5t-40.5 61t-66 23.5q-59 0 -106.5 -35.5t-82.5 -103t-55.5 -166t-26.5 -225.5 q21 13 47.5 26.5t60 24t76.5 17t94 6.5q91 0 165 -28.5t126.5 -82t81 -130t28.5 -174.5q0 -108 -29.5 -197t-88 -152.5t-145 -99t-201.5 -35.5q-112 0 -203.5 41t-156.5 125t-101.5 212.5t-36.5 303.5zM373 661q1 -145 18.5 -248.5t47 -170.5t69.5 -98t86 -31 q77 0 121.5 78.5t44.5 252.5q0 163 -49 238t-135 75q-27 0 -57.5 -8.5t-58.5 -22.5t-51 -31t-36 -34z" />
<glyph unicode="7" d="M88 1011l10 422h957v-98l-553 -1335h-171l534 1214h-528q-55 0 -83 -26t-34 -76l-11 -101h-121z" />
<glyph unicode="8" d="M60 366q0 64 21 116t60 94.5t93.5 78.5t120.5 69q-120 70 -184 158t-64 206q0 69 24 135.5t79 117.5t144 81.5t218 30.5q106 0 186 -26.5t134 -73.5t81 -111t27 -140q0 -60 -19.5 -106t-54.5 -84t-85 -70.5t-113 -64.5q90 -44 154 -88.5t103.5 -93t57.5 -102t18 -114.5 q0 -95 -34.5 -169t-101 -125t-161.5 -78t-216 -27q-126 0 -218 30.5t-152 82.5t-89 122.5t-29 150.5zM331 358q0 -59 16.5 -107.5t46 -83.5t71.5 -54t93 -19q52 0 93.5 18.5t71 52t45 79.5t15.5 101q0 49 -16.5 88.5t-52.5 74.5t-91.5 68t-132.5 68q-33 -22 -62.5 -50 t-50.5 -62.5t-33.5 -77.5t-12.5 -96zM389 1112q0 -52 14 -91t41.5 -70.5t68 -56.5t93.5 -49q37 21 63.5 45.5t43.5 56t25.5 70t8.5 88.5q0 44 -12.5 85.5t-36 74t-58 52.5t-80.5 20q-42 0 -73.5 -17.5t-53 -47t-33 -71t-11.5 -89.5z" />
<glyph unicode="9" d="M71 967q0 109 31 198t90.5 153.5t144.5 99.5t193 35q109 0 201 -39t159 -121.5t104.5 -209.5t37.5 -304q0 -166 -32.5 -311.5t-101.5 -253.5t-178 -171t-264 -63q-91 0 -154 19.5t-102 51t-56.5 72.5t-17.5 84q0 44 23.5 74t74.5 40q15 -45 35.5 -84t49.5 -68t68 -45.5 t89 -16.5q135 0 208 146t83 435q-24 -29 -53 -53.5t-65 -43.5t-80 -29t-95 -10q-87 0 -159 27t-124.5 79t-81 130t-28.5 179zM362 979q0 -139 47 -210.5t141 -71.5q72 0 124 36.5t83 97.5q-1 128 -17.5 220.5t-44.5 151.5t-67 87.5t-86 28.5q-86 0 -133 -84.5t-47 -255.5z " />
<glyph unicode=":" horiz-adv-x="610" d="M140 144q0 46 13 77t35 49.5t52 26.5t65 8q33 0 63 -8t52.5 -26.5t35.5 -49.5t13 -77q0 -45 -13 -75.5t-35.5 -49t-52.5 -27t-63 -8.5q-35 0 -65 8.5t-52 27t-35 49t-13 75.5zM140 933q0 46 13 77t35 49.5t52 26.5t65 8q33 0 63 -8t52.5 -26.5t35.5 -49.5t13 -77 q0 -45 -13 -76t-35.5 -49.5t-52.5 -27t-63 -8.5q-35 0 -65 8.5t-52 27t-35 49.5t-13 76z" />
<glyph unicode=";" horiz-adv-x="610" d="M90 -205q44 16 77 31.5t55 33.5t33.5 40.5t11.5 51.5q0 19 -11 31t-27 23t-35.5 22t-35.5 28.5t-26.5 43.5t-10.5 67q0 67 41 102.5t103 35.5q85 0 135 -59t50 -162q0 -63 -19.5 -123t-63 -111t-111.5 -91.5t-166 -67.5v104zM140 933q0 46 13 77t35 49.5t52 26.5t65 8 q33 0 63 -8t52.5 -26.5t35.5 -49.5t13 -77q0 -45 -13 -76t-35.5 -49.5t-52.5 -27t-63 -8.5q-35 0 -65 8.5t-52 27t-35 49.5t-13 76z" />
<glyph unicode="&#x3c;" d="M130 676v83l862 469v-158l-647 -354l647 -348v-159z" />
<glyph unicode="=" d="M126 452v140h870v-140h-870zM126 841v140h870v-140h-870z" />
<glyph unicode="&#x3e;" d="M130 209v159l647 348l-647 354v158l862 -469v-83z" />
<glyph unicode="?" horiz-adv-x="1103" d="M74 1220q0 49 25.5 91.5t78 74t133 49.5t191.5 18q106 0 196 -25t155.5 -72.5t103 -116t37.5 -155.5q0 -80 -25 -144t-75 -117t-125 -97.5t-175 -85.5l-40 -182h-123l-40 247q86 34 141 80.5t87 100t43.5 112t11.5 118.5q0 48 -8.5 88t-28 68.5t-49 44.5t-71.5 16 q-45 0 -75 -20.5t-49 -55t-27 -80.5t-8 -97q-62 0 -114 9t-89.5 26t-59 43.5t-21.5 61.5zM325 144q0 46 13 77t35 49.5t52.5 26.5t64.5 8q33 0 63 -8t52.5 -26.5t36 -49.5t13.5 -77q0 -45 -13.5 -75.5t-36 -49t-52.5 -27t-63 -8.5q-34 0 -64.5 8.5t-52.5 27t-35 49t-13 75.5 z" />
<glyph unicode="@" horiz-adv-x="1848" d="M102 490q0 134 33 256.5t93 227t146.5 189.5t193 145t231.5 92.5t264 32.5q175 0 307 -50t221 -137t134 -205t45 -254q0 -150 -36.5 -267.5t-95 -198.5t-132.5 -123.5t-150 -42.5q-89 0 -150.5 43.5t-95.5 144.5h-12q-21 -39 -47.5 -73.5t-60 -60t-75 -40t-94.5 -14.5 q-62 0 -119.5 20.5t-101 62.5t-69 107t-25.5 153q0 54 12.5 116.5t40.5 125t70.5 120.5t103 102.5t138.5 71.5t175 27q69 0 119 -17.5t82 -41.5l84 42h48l-84 -502q-2 -12 -4.5 -30.5t-4.5 -38t-3.5 -38t-1.5 -29.5q0 -41 8.5 -67.5t22.5 -42t31 -21t34 -5.5q40 0 80.5 33.5 t74 98t54.5 159.5t21 218q0 137 -41.5 240.5t-115.5 172.5t-176.5 104t-223.5 35q-95 0 -188 -26.5t-176.5 -77.5t-154 -125t-122.5 -168.5t-81 -209t-29 -247.5q0 -177 53 -302.5t143.5 -205t211.5 -115.5t256 -36q82 0 159.5 14.5t147 38t129 54t106.5 61.5l48 -76 q-53 -40 -120 -75.5t-146 -62t-167.5 -42t-184.5 -15.5q-115 0 -220.5 21t-198.5 64t-169.5 107.5t-130.5 150.5t-84 194t-30 238zM753 477q0 -100 35 -153.5t93 -53.5q43 0 74 21t52 54.5t34.5 76t21.5 86.5l81 409q-6 14 -17.5 24.5t-26 17.5t-30.5 10.5t-32 3.5 q-51 0 -91.5 -25.5t-72.5 -67t-54.5 -95t-38 -108.5t-22 -107.5t-6.5 -92.5z" />
<glyph unicode="A" horiz-adv-x="1511" d="M8 0v107h24q27 0 49 6t41 22t36 44.5t35 73.5l435 1180h276l419 -1182q15 -42 31 -70t35 -44t40.5 -23t45.5 -7h36v-107h-662v107h78q15 0 30.5 4.5t28 13.5t20 24t7.5 35q0 25 -5.5 47.5t-11.5 38.5l-71 201h-488l-58 -172q-8 -25 -16 -57.5t-8 -57.5q0 -19 7.5 -34 t20.5 -24t29 -14t34 -5h84v-107h-522zM479 594h406l-106 329q-11 34 -22 72t-22.5 77t-21.5 78t-18 74q-9 -30 -21 -66.5t-25 -74.5t-26 -76.5t-25 -73.5z" />
<glyph unicode="B" horiz-adv-x="1348" d="M56 0v107h82q23 0 42 4.5t32.5 18t22 39t8.5 68.5v962q0 40 -8.5 65t-22.5 38.5t-33 19t-41 5.5h-82v106h586q286 0 430 -88.5t144 -276.5q0 -66 -18 -115.5t-51.5 -85.5t-80 -61.5t-103.5 -43.5v-9q70 -18 127.5 -49t99 -75.5t64.5 -103.5t23 -132q0 -198 -144 -295.5 t-430 -97.5h-647zM560 122h133q67 0 114 15t76 48t42.5 85.5t13.5 129.5q0 73 -12 127.5t-40.5 90t-74.5 53t-115 17.5h-137v-566zM560 810h76q71 0 117.5 15t74.5 46t39.5 80t11.5 117q0 69 -13 115t-42.5 74.5t-76.5 40.5t-115 12h-72v-500z" />
<glyph unicode="C" horiz-adv-x="1340" d="M111 718q0 163 44 298.5t130.5 232.5t216.5 150.5t301 53.5q115 0 201 -18t142.5 -49.5t85 -74t28.5 -91.5q0 -37 -16 -69t-48 -55.5t-79 -36.5t-108 -13q0 50 -10.5 99.5t-36.5 89.5t-68 65t-105 25q-95 0 -160.5 -40t-105.5 -117.5t-57.5 -191t-17.5 -258.5 t21.5 -253.5t69.5 -180.5t125 -108t189 -36q73 0 130.5 17t102.5 44.5t79 62t59 67.5q16 -12 25 -36.5t9 -49.5q0 -42 -22.5 -88.5t-75.5 -86t-140 -65t-215 -25.5q-175 0 -305.5 53t-216.5 150t-129 233.5t-43 301.5z" />
<glyph unicode="D" horiz-adv-x="1539" d="M56 0v107h84q23 0 41.5 4.5t32 18t21.5 39t8 68.5v967q0 41 -8 65t-22 36.5t-32.5 17t-40.5 4.5h-84v106h662q167 0 299 -43.5t223.5 -130.5t140 -216.5t48.5 -299.5q0 -165 -45 -301.5t-135 -234.5t-222.5 -152.5t-308.5 -54.5h-662zM560 124h112q103 0 181.5 43 t131 123t79 194.5t26.5 258.5q0 287 -105.5 427t-310.5 140h-114v-1186z" />
<glyph unicode="E" horiz-adv-x="1310" d="M56 0v107h84q22 0 40.5 4t32.5 16t22 36t8 63v971q0 43 -8 68.5t-21.5 39t-32 18t-41.5 4.5h-84v106h1114l8 -370h-140l-10 95q-8 74 -37.5 113t-90.5 39h-338v-502h476v-120h-476v-566h401q31 0 52.5 11.5t37 32t25 48.5t14.5 61l15 94h140l-15 -369h-1176z" />
<glyph unicode="F" horiz-adv-x="1246" d="M56 0v107h84q22 0 40.5 4t32.5 16t22 36t8 63v978q0 41 -8 65t-22 36.5t-32.5 17t-40.5 4.5h-84v106h1112l10 -370h-140l-10 97q-10 80 -48.5 115t-100.5 35h-319v-548h476v-118h-476v-407q0 -43 8 -68.5t22 -39t33.5 -18t40.5 -4.5h125v-107h-733z" />
<glyph unicode="G" horiz-adv-x="1543" d="M111 718q0 163 48 298.5t142 232.5t234 150.5t324 53.5q126 0 219.5 -18t156.5 -49.5t94.5 -74t31.5 -91.5q0 -35 -16.5 -66t-50 -54.5t-81.5 -36.5t-111 -13q0 60 -15 111t-46 87.5t-78 56.5t-110 20q-110 0 -187 -40t-125.5 -117.5t-70.5 -191t-22 -258.5t23 -257 t74.5 -188.5t133 -116t200.5 -39.5q37 0 74.5 2.5t72.5 10.5v295q0 81 -36 112t-107 31h-26v106h631v-106h-27q-30 0 -52.5 -7t-37.5 -25t-21.5 -46.5t-6.5 -72.5v-329q-118 -54 -237.5 -81t-256.5 -27q-187 0 -325.5 53t-230.5 150t-137 233.5t-45 301.5z" />
<glyph unicode="H" horiz-adv-x="1643" d="M56 0v107h84q22 0 40.5 4.5t32.5 18t22 39t8 68.5v966q0 41 -8.5 65t-22.5 36.5t-32.5 17t-39.5 4.5h-84v107h693v-107h-87q-21 0 -39.5 -4.5t-32.5 -18t-22 -39t-8 -68.5v-388h524v388q0 43 -8 68.5t-22 39t-32.5 18t-40.5 4.5h-86v107h693v-107h-85q-20 0 -38.5 -4.5 t-33 -18t-22.5 -39t-8 -68.5v-970q0 -39 8.5 -63t22.5 -36t32.5 -16t38.5 -4h85v-107h-693v107h86q22 0 40.5 4.5t32.5 18t22 39t8 68.5v449h-524v-449q0 -43 8 -68.5t22 -39t32.5 -18t39.5 -4.5h87v-107h-693z" />
<glyph unicode="I" horiz-adv-x="804" d="M56 0v107h84q23 0 41.5 4.5t32 18t21.5 39t8 68.5v959q0 43 -8 68.5t-21.5 39t-32 18t-41.5 4.5h-84v107h693v-107h-85q-21 0 -40 -4.5t-33 -18t-21.5 -39t-7.5 -68.5v-959q0 -43 7.5 -68.5t21.5 -39t33 -18t40 -4.5h85v-107h-693z" />
<glyph unicode="J" horiz-adv-x="738" d="M-78 -366h36q48 0 93.5 18.5t81 60.5t57 111t21.5 170v1210q0 41 -8 65t-22 36.5t-33 17t-39 4.5h-85v106h692v-106h-84q-21 0 -40.5 -4.5t-33 -18t-22 -39t-8.5 -68.5v-1201q0 -91 -20.5 -161.5t-56.5 -124t-86.5 -90t-110 -59.5t-125.5 -33t-135 -10h-72v116z" />
<glyph unicode="K" horiz-adv-x="1472" d="M56 0v107h84q22 0 40.5 4t32.5 16t22 36t8 63v978q0 41 -8 65t-22 36.5t-32.5 17t-40.5 4.5h-84v106h693v-106h-85q-21 0 -40.5 -4.5t-33.5 -18t-22 -39t-8 -68.5v-469l311 340q33 34 55 62t35 52t19 46t6 42q0 33 -25.5 46t-87.5 13v104h544v-104q-41 0 -78 -13 t-72 -36.5t-69.5 -55.5t-69.5 -72l-265 -291l374 -592q29 -48 56 -78.5t54.5 -49.5t56 -26.5t61.5 -7.5h8v-107h-108q-76 0 -134 5t-101.5 14.5t-75 25t-55 36t-42.5 46.5t-38 57l-270 462l-89 -70v-339q0 -43 8 -68.5t22 -39t33.5 -18t40.5 -4.5h85v-107h-693z" />
<glyph unicode="L" horiz-adv-x="1312" d="M56 0v107h84q23 0 41.5 4.5t32 18t21.5 39t8 68.5v960q0 43 -8 68.5t-21.5 39t-32 18t-41.5 4.5h-84v106h693v-106h-85q-20 0 -39 -4.5t-33 -17t-22 -36.5t-8 -65v-1082h373q70 0 109.5 45t57.5 130l32 151h113l-15 -448h-1176z" />
<glyph unicode="M" horiz-adv-x="1911" d="M56 0v107h84q22 0 40.5 4t32.5 16t22 36t8 63v978q0 41 -8 65t-22 36.5t-32.5 17t-40.5 4.5h-84v106h578l333 -969l320 969h567v-106h-84q-22 0 -40.5 -4.5t-32 -18t-21.5 -39t-8 -68.5v-960q0 -43 8 -68.5t21.5 -39t32 -18t40.5 -4.5h84v-107h-642v107h20q31 0 55 4 t40 15.5t23.5 33.5t7.5 59v1016l-404 -1235h-137l-424 1235v-998q0 -43 10.5 -68.5t29.5 -39t46.5 -18t62.5 -4.5h12v-107h-498z" />
<glyph unicode="N" horiz-adv-x="1581" d="M56 0v107h84q22 0 40.5 4.5t32.5 18t22 39t8 68.5v967q0 41 -8.5 65t-22.5 36.5t-32.5 17t-39.5 4.5h-84v106h446l708 -1002v773q0 41 -8 65t-22.5 36.5t-33 17t-39.5 4.5h-84v106h524v-106h-84q-20 0 -39 -4.5t-33 -18t-22 -39t-8 -68.5v-1197h-185l-783 1105v-868 q0 -43 8.5 -68.5t22 -39t32.5 -18t40 -4.5h84v-107h-524z" />
<glyph unicode="O" horiz-adv-x="1579" d="M111 720q0 167 42 302.5t127 231.5t212.5 148.5t300.5 52.5q163 0 288.5 -52.5t212 -149t131 -232t44.5 -303.5q0 -165 -44.5 -301.5t-131.5 -233.5t-212.5 -150t-289.5 -53q-172 0 -299.5 53t-212 150t-126.5 234t-42 303zM448 718q0 -144 18.5 -256.5t59.5 -190.5 t106.5 -119t158.5 -41q94 0 159 41t105.5 119t58.5 190.5t18 256.5t-18 257t-58.5 191t-105 118.5t-157.5 40.5q-94 0 -160 -40.5t-107 -118.5t-59.5 -191t-18.5 -257z" />
<glyph unicode="P" horiz-adv-x="1280" d="M56 0v107h84q23 0 41.5 4.5t32 18t21.5 39t8 68.5v967q0 41 -8 65t-22 36.5t-32.5 17t-40.5 4.5h-84v106h616q139 0 242 -29.5t171 -85t101.5 -134t33.5 -177.5q0 -90 -31.5 -173t-102 -147t-183 -101.5t-275.5 -37.5h-68v-322q0 -39 8.5 -63t23.5 -36t34.5 -16t39.5 -4 h123v-107h-733zM560 664h49q74 0 126 19t85 59t48 103.5t15 154.5q0 80 -13 139.5t-42 98t-75.5 57.5t-114.5 19h-78v-650z" />
<glyph unicode="Q" horiz-adv-x="1579" d="M111 720q0 167 42 302.5t127 231.5t212.5 148.5t300.5 52.5q163 0 288.5 -52.5t212 -149t131 -232t44.5 -303.5q0 -141 -32 -260t-93.5 -211t-152.5 -155.5t-210 -91.5q9 -111 36.5 -182t67 -111.5t87.5 -56.5t98 -16h32v-116h-144q-90 0 -177.5 26.5t-158.5 83.5 t-118.5 147t-57.5 217q-135 21 -235.5 82t-167.5 155t-99.5 218.5t-32.5 272.5zM448 718q0 -144 18.5 -256.5t59.5 -190.5t106.5 -119t158.5 -41q94 0 159 41t105.5 119t58.5 190.5t18 256.5t-18 257t-58.5 191t-105 118.5t-157.5 40.5q-94 0 -160 -40.5t-107 -118.5 t-59.5 -191t-18.5 -257z" />
<glyph unicode="R" horiz-adv-x="1419" d="M56 0v107h84q21 0 39.5 4t32.5 16t22.5 36t8.5 63v978q0 41 -8.5 65t-22.5 36.5t-32.5 17t-39.5 4.5h-84v106h647q284 0 416.5 -95t132.5 -277q0 -79 -23.5 -141t-62 -108t-87.5 -77.5t-100 -52.5l239 -412q26 -43 50 -73.5t48 -51t49.5 -29.5t53.5 -9h8v-107h-66 q-90 0 -157 7t-117.5 27t-87.5 55t-68 91l-238 442h-133v-396q0 -39 8 -63t22.5 -36t33 -16t38.5 -4h87v-107h-693zM560 739h112q70 0 116.5 18.5t74.5 55.5t40 92t12 129q0 76 -13.5 129t-43 87t-76.5 49t-114 15h-108v-575z" />
<glyph unicode="S" horiz-adv-x="1176" d="M60 261q0 52 19 87t51 57.5t72.5 32.5t84.5 10q0 -86 20.5 -151.5t57 -109t87 -65.5t110.5 -22q58 0 104 16.5t78.5 46t49 69t16.5 86.5q0 50 -20.5 90t-62 73.5t-104.5 64.5t-148 66q-105 44 -177 89.5t-116 98.5t-63 114.5t-19 135.5q0 92 37 166.5t103 127t156 81 t196 28.5q111 0 191 -18t132.5 -49.5t78 -74t25.5 -91.5q0 -35 -15 -65.5t-46 -53t-77.5 -35t-108.5 -12.5q0 42 -11 90.5t-36.5 90t-66.5 69t-98 27.5q-41 0 -77 -12t-63 -35.5t-42.5 -58t-15.5 -79.5q0 -43 13.5 -80t50.5 -73t101 -71.5t166 -76.5q103 -42 175.5 -86.5 t119 -95t67.5 -110.5t21 -134q0 -97 -38 -177.5t-109.5 -138.5t-172 -90.5t-226.5 -32.5q-135 0 -225 25.5t-144.5 66t-77.5 90.5t-23 99z" />
<glyph unicode="T" horiz-adv-x="1310" d="M20 1044l10 389h1251l10 -389h-135l-14 124q-4 33 -13.5 59.5t-28.5 45t-49.5 28t-75.5 9.5h-161v-1073q0 -43 8 -68.5t22 -39t33 -18t40 -4.5h85v-107h-693v107h84q23 0 41.5 4.5t32 18t21.5 39t8 68.5v1073h-161q-45 0 -75.5 -9.5t-49.5 -28t-28.5 -45t-12.5 -59.5 l-14 -124h-135z" />
<glyph unicode="U" horiz-adv-x="1499" d="M32 1327v106h692v-106h-84q-21 0 -39.5 -4.5t-32.5 -18t-22 -39t-8 -68.5v-776q0 -84 21 -141.5t60.5 -92t94 -50t123.5 -15.5q67 0 120.5 17.5t91.5 53.5t58.5 92t20.5 132v787q0 41 -8 65t-22 36.5t-32.5 17t-39.5 4.5h-84v106h525v-106h-86q-21 0 -39.5 -4.5 t-32.5 -18t-22 -39t-8 -68.5v-783q0 -101 -29 -181.5t-90 -136.5t-156.5 -86t-226.5 -30t-234.5 25t-175 80t-109.5 142t-38 210v767q0 41 -8 65t-22.5 36.5t-32.5 17t-38 4.5h-87z" />
<glyph unicode="V" horiz-adv-x="1401" d="M0 1327v106h662v-106h-92q-14 0 -28 -3.5t-25 -11.5t-18 -20.5t-7 -31.5t6 -44t12 -42l204 -618q8 -23 16.5 -53.5t16.5 -63.5t14 -66t9 -60q3 16 10.5 45t17.5 63t20 67.5t19 61.5l207 610q4 11 8 24.5t7.5 27t6 26t2.5 20.5q0 34 -22 51.5t-58 17.5h-105v106h518v-106 h-97q-13 0 -24 -6t-21.5 -22t-22.5 -44.5t-28 -74.5l-409 -1180h-201l-427 1230q-10 28 -25.5 47.5t-32.5 30t-34.5 15t-32.5 4.5h-46z" />
<glyph unicode="W" horiz-adv-x="2141" d="M0 1327v106h670v-106h-46q-60 0 -90 -23.5t-30 -73.5q0 -17 6 -48.5t14 -59.5l135 -463q10 -39 22.5 -83.5t23 -90t19.5 -87.5t13 -75q14 65 30 121.5t34 115.5l264 859h147l278 -766q17 -47 32.5 -95.5t28 -93t22.5 -81.5t15 -64q7 37 16 81t19.5 92.5t21.5 99.5t23 99 l106 433q3 12 6.5 27.5t6 31t4 28.5t1.5 21q0 52 -30.5 73.5t-97.5 21.5h-46v106h523v-106h-38q-29 0 -51.5 -6t-40.5 -23t-32 -47.5t-28 -80.5l-311 -1170h-229l-337 942l-289 -942h-249l-367 1220q-9 31 -22 52t-30 33t-39 17t-52 5h-26z" />
<glyph unicode="X" horiz-adv-x="1469" d="M20 0v107h12q37 0 64 9.5t51.5 28t47 44.5t46.5 58l351 458l-331 515q-17 27 -33 47t-36 33t-45 20t-59 7h-26v106h664v-106h-6q-34 0 -57 -4.5t-37 -13t-19 -19t-5 -22.5q0 -20 15 -51.5t38 -65.5l166 -249l175 244q17 27 35.5 61t18.5 61q0 18 -9 29.5t-24 18t-36 9 t-44 2.5h-6v106h470v-106h-18q-30 0 -53.5 -7.5t-46.5 -24.5t-46.5 -44.5t-52.5 -68.5l-291 -397l369 -572q39 -62 81.5 -84t79.5 -22h26v-107h-662v107h10q120 0 120 65q0 12 -2 23t-9 25.5t-20 36t-35 54.5l-185 279l-216 -293q-19 -26 -35.5 -58.5t-16.5 -64.5 q0 -33 27.5 -50t93.5 -17h7v-107h-506z" />
<glyph unicode="Y" horiz-adv-x="1390" d="M0 1327v106h672v-106h-34q-61 0 -91 -24.5t-30 -65.5q0 -26 9.5 -55.5t21.5 -55.5l149 -295q31 -64 51 -113t37 -96q21 53 47.5 115.5t60.5 129.5l116 240q22 45 28.5 74.5t6.5 46.5q0 52 -33 75.5t-100 23.5h-46v106h526v-106h-39q-25 0 -43 -7t-34.5 -24.5t-33.5 -48 t-41 -77.5l-341 -664v-275q0 -44 9 -68.5t24 -37t35.5 -15.5t43.5 -3h99v-107h-741v107h94q25 0 46 3t36.5 15t25 36.5t9.5 66.5v280l-371 712q-15 30 -28.5 50.5t-29 32.5t-35.5 18t-50 6h-26z" />
<glyph unicode="Z" horiz-adv-x="1336" d="M84 0v100l753 1210h-395q-47 0 -77.5 -12.5t-48.5 -36.5t-26.5 -58t-12.5 -75l-10 -109h-145l10 414h1072v-102l-754 -1209h433q62 0 101 17.5t62 46t33.5 64t14.5 73.5l9 91h146l-10 -414h-1155z" />
<glyph unicode="[" horiz-adv-x="831" d="M201 -257v1782h556v-106h-87q-33 0 -63.5 -5t-52.5 -20t-35 -43.5t-13 -76.5v-1280q0 -47 13 -76t35 -44t52.5 -20t63.5 -5h87v-106h-556z" />
<glyph unicode="\" horiz-adv-x="578" d="M0 1525h142l436 -1768h-145z" />
<glyph unicode="]" horiz-adv-x="831" d="M74 -151h87q34 0 64 5t52 20t35 44t13 76v1280q0 48 -13 76.5t-35 43.5t-52 20t-64 5h-87v106h556v-1782h-556v106z" />
<glyph unicode="^" d="M92 526l423 907h87l426 -907h-157l-313 688l-309 -688h-157z" />
<glyph unicode="_" horiz-adv-x="921" d="M-10 -167h941v-118h-941v118z" />
<glyph unicode="`" horiz-adv-x="1158" d="M325 1517v21h315q16 -34 40.5 -73.5t51.5 -79t54 -77t49 -65.5v-27h-136q-47 28 -104.5 68.5t-111 83.5t-96.5 83t-62 66z" />
<glyph unicode="a" horiz-adv-x="1202" d="M90 307q0 163 112.5 241.5t337.5 85.5l165 6v111q0 50 -4 92t-17 72.5t-38 47t-66 16.5q-38 0 -64 -16t-41.5 -45t-22 -69t-6.5 -87q-135 0 -203.5 30.5t-68.5 104.5q0 55 33 94t89.5 63.5t131.5 36t160 11.5q106 0 185 -18.5t131 -58.5t78.5 -105t26.5 -160v-511 q0 -41 6.5 -68.5t20.5 -43.5t37.5 -23t56.5 -7h8v-107h-374l-42 138h-17q-34 -40 -63.5 -70t-62.5 -49.5t-74.5 -29t-98.5 -9.5q-67 0 -124.5 20t-100 60.5t-67 101.5t-24.5 145zM402 299q0 -86 27.5 -129.5t85.5 -43.5q44 0 78.5 18.5t59.5 51.5t38.5 80.5t13.5 106.5v151 l-91 -6q-59 -3 -100.5 -19t-66 -44.5t-35 -69.5t-10.5 -96z" />
<glyph unicode="b" horiz-adv-x="1302" d="M34 0v107h14q28 0 55.5 5t49 19.5t35 42t13.5 73.5v1038q0 43 -13 69t-34.5 40.5t-50.5 19.5t-61 5h-8v106h472v-343q0 -31 -2.5 -73.5t-5.5 -79.5q-4 -44 -8 -90h14q43 74 115 117.5t186 43.5q98 0 173 -33t126 -101t77.5 -173.5t26.5 -250.5q0 -146 -27 -252 t-78.5 -175t-128.5 -102t-177 -33q-58 0 -105 13t-85 36.5t-66.5 56t-50.5 71.5h-19l-55 -157h-382zM506 542q0 -99 9.5 -176t33 -129.5t64 -79.5t99.5 -27q99 0 143.5 107t44.5 307q0 205 -44.5 306.5t-145.5 101.5q-59 0 -98.5 -25t-63 -76t-33 -128t-9.5 -181z" />
<glyph unicode="c" horiz-adv-x="1057" d="M94 534q0 163 38 271.5t104 174.5t156 94t194 28q97 0 171.5 -16.5t124.5 -45t76 -67t26 -82.5q0 -33 -11.5 -63.5t-40 -54t-79 -38.5t-129.5 -15q0 52 -6.5 99t-21 82.5t-39.5 56.5t-63 21q-44 0 -79 -21t-60 -72t-38 -136.5t-13 -213.5q0 -204 55.5 -305t182.5 -101 q52 0 97.5 12.5t82.5 34.5t65 52t46 64q24 -15 36 -40t12 -52q0 -38 -22.5 -77.5t-70 -71t-121 -52t-175.5 -20.5q-111 0 -202.5 28.5t-157 94.5t-102 171.5t-36.5 259.5z" />
<glyph unicode="d" horiz-adv-x="1302" d="M92 536q0 145 27 251.5t79 175.5t127.5 103t172.5 34q57 0 102.5 -12.5t82 -33.5t65 -50.5t49.5 -64.5h13q-3 56 -7 105q-1 20 -2.5 41.5t-3 41t-2 34t-0.5 23.5v111q0 41 -13.5 66t-35.5 37.5t-51.5 16.5t-62.5 4h-16v106h484v-1278q0 -46 13.5 -73.5t36.5 -42t53 -19.5 t63 -5h8v-107h-389l-56 157h-19q-22 -41 -51 -73.5t-66.5 -55.5t-84.5 -35.5t-106 -12.5q-98 0 -174.5 33t-129 101t-79.5 173t-27 249zM402 538q0 -205 42.5 -306.5t143.5 -101.5q60 0 99.5 25t63.5 76t34 128t10 181q0 99 -10 176t-34 129.5t-63.5 79.5t-99.5 27 q-50 0 -86 -27t-58 -80t-32 -130t-10 -177z" />
<glyph unicode="e" horiz-adv-x="1145" d="M94 532q0 141 33.5 248t97 178.5t156 107.5t211.5 36q109 0 196 -31t148 -92t93 -151t32 -210v-103h-657q3 -100 22 -172.5t53 -120t82.5 -70t110.5 -22.5q52 0 96 12.5t80 34.5t63 52t45 64q53 -29 53 -98q0 -43 -23.5 -82t-72.5 -68t-123 -47t-176 -18 q-127 0 -224.5 37.5t-163 108t-99 173t-33.5 233.5zM408 644h347q0 76 -9 137t-28 103t-49 64.5t-73 22.5q-84 0 -133.5 -83t-54.5 -244z" />
<glyph unicode="f" horiz-adv-x="817" d="M38 0v107h44q22 0 47 4.5t46 18t35 39t14 68.5v702h-178v137h178v75q0 93 24 166t74.5 123.5t128 77t183.5 26.5q97 0 161.5 -11.5t103 -31.5t54.5 -46.5t16 -58.5q0 -67 -61 -98.5t-186 -31.5q0 25 -5 53.5t-16.5 52.5t-30.5 40.5t-48 16.5q-24 0 -41.5 -13.5t-29 -42 t-16.5 -75t-5 -112.5v-110h277v-137h-277v-702q0 -43 14.5 -68.5t35.5 -39t46 -18t46 -4.5h94v-107h-728z" />
<glyph unicode="g" horiz-adv-x="1124" d="M4 -203q0 108 69.5 165.5t201.5 67.5q-27 11 -53.5 27t-47 38t-33.5 50t-13 64q0 33 13.5 61.5t37 54.5t56.5 49t72 45q-44 16 -82 44t-65 67t-42.5 89t-15.5 111q0 176 102.5 274t316.5 98q72 0 133 -18.5t106 -43.5q17 17 37 37.5t45.5 37t57 27t69.5 10.5q36 0 63 -9 t45.5 -25t27.5 -36.5t9 -43.5t-6.5 -44t-23 -36.5t-44.5 -25t-69 -9.5q0 21 -6.5 36.5t-17 26.5t-24.5 16t-28 5q-17 0 -36 -6.5t-30 -14.5q21 -23 38.5 -51.5t30.5 -62t21 -69.5t8 -73q0 -75 -24 -139.5t-74 -111.5t-126.5 -73.5t-181.5 -26.5q-10 0 -27 0.5t-33.5 1 t-31.5 2t-23 2.5q-13 -7 -26 -17t-23.5 -23t-17 -28.5t-6.5 -33.5q0 -33 26 -48.5t68 -15.5h243q100 0 172.5 -21.5t120 -60.5t70 -96.5t22.5 -128.5q0 -93 -35 -166t-107 -123.5t-181.5 -77.5t-258.5 -27q-237 0 -353 71t-116 208zM241 -199q0 -83 60.5 -123t175.5 -40 q177 0 257 51t80 150q0 64 -40 89.5t-121 25.5h-234q-30 0 -61.5 -5.5t-57.5 -22t-42.5 -46.5t-16.5 -79zM375 730q0 -53 7.5 -95.5t24 -73t43 -47t65.5 -16.5q41 0 67.5 16t42 47t22 74.5t6.5 97.5q0 56 -7 101.5t-23 78t-42.5 50.5t-66.5 18t-66.5 -18.5t-42.5 -52 t-23 -79.5t-7 -101z" />
<glyph unicode="h" horiz-adv-x="1338" d="M34 1419v106h472v-330q0 -40 -2.5 -85t-5.5 -83q-4 -45 -8 -88h18q30 57 64 89t72 48.5t80.5 21t89.5 4.5q78 0 139.5 -23t104.5 -70t65.5 -120t22.5 -175v-465q0 -47 8 -75t25 -42.5t42.5 -19.5t59.5 -5h6v-107h-446v661q0 64 -8.5 114.5t-27.5 85t-50 52.5t-75 18 q-50 0 -83 -25.5t-53.5 -68t-29 -99t-8.5 -118.5v-383q0 -42 10 -67.5t29 -39.5t45.5 -18.5t60.5 -4.5h6v-107h-617v107h4q34 0 62.5 4.5t49.5 19t33 42t12 72.5v1052q0 40 -14.5 64t-36 37t-46.5 17t-46 4h-24z" />
<glyph unicode="i" horiz-adv-x="706" d="M34 0v107h24q22 0 47 4.5t46 18t35.5 39t14.5 68.5v610q0 40 -14.5 64t-36 37t-46.5 17t-46 4h-24v107h472v-839q0 -43 14 -68.5t35 -39t46.5 -18t47.5 -4.5h23v-107h-638zM172 1401q0 39 13.5 66t36.5 44.5t54 25.5t67 8q34 0 65.5 -8t55 -25.5t37.5 -44.5t14 -66 q0 -37 -14 -64.5t-37.5 -45t-55 -26.5t-65.5 -9q-36 0 -67 9t-54 26.5t-36.5 45t-13.5 64.5z" />
<glyph unicode="j" horiz-adv-x="692" d="M-40 -358h14q54 0 97 18t72 59t43.5 109.5t14.5 171.5v837q0 43 -13 69t-35 40t-51 18.5t-62 4.5h-6v107h472v-1092q0 -135 -38 -224.5t-105 -143t-159.5 -76t-203.5 -22.5h-40v124zM174 1401q0 39 13.5 66t36.5 44.5t54 25.5t67 8q34 0 65.5 -8t55 -25.5t37.5 -44.5 t14 -66q0 -37 -14 -64.5t-37.5 -45t-55 -26.5t-65.5 -9q-36 0 -67 9t-54 26.5t-36.5 45t-13.5 64.5z" />
<glyph unicode="k" horiz-adv-x="1276" d="M34 0v107h24q22 0 47 4.5t46 18t35.5 39t14.5 68.5v1060q0 40 -14.5 64t-36 37t-46.5 17t-46 4h-24v106h472v-774q0 -28 -1.5 -63.5t-3.5 -68.5q-3 -38 -5 -77l253 283q33 37 43.5 59t10.5 37q0 26 -27 40t-77 14v101h505v-101q-69 0 -136 -40.5t-147 -129.5l-126 -144 l266 -398q53 -80 107 -118t102 -38h7v-107h-28q-110 0 -184.5 5t-128.5 22.5t-93 53.5t-79 97l-178 282l-80 -60v-163q0 -43 14 -68.5t35 -39t46.5 -18t47.5 -4.5h23v-107h-638z" />
<glyph unicode="l" horiz-adv-x="706" d="M34 0v107h24q22 0 47 4.5t46 18t35.5 39t14.5 68.5v1060q0 40 -14.5 64t-36 37t-46.5 17t-46 4h-24v106h472v-1288q0 -43 14 -68.5t35 -39t46.5 -18t47.5 -4.5h23v-107h-638z" />
<glyph unicode="m" horiz-adv-x="1978" d="M40 0v107h4q34 0 62.5 4.5t49.5 19t33 42t12 72.5v600q0 42 -10.5 67.5t-29.5 39.5t-45.5 18.5t-59.5 4.5h-6v101h421l27 -143h10q30 57 64 90t72 51t80.5 23t89.5 5q111 0 189.5 -40t114.5 -129h18q30 57 66 90t76.5 51t85 23t91.5 5q78 0 139.5 -23t104 -70t65.5 -120 t23 -175v-465q0 -47 8 -75t25 -42.5t42 -19.5t59 -5h6v-107h-446v661q0 129 -36 199.5t-124 70.5q-47 0 -80.5 -23t-54.5 -62t-30.5 -91.5t-9.5 -110.5v-395q0 -47 8 -75t25 -42.5t42.5 -19.5t59.5 -5h6v-107h-446v661q0 64 -8.5 114.5t-27.5 85t-50 52.5t-75 18 q-50 0 -83 -25.5t-53.5 -68t-29 -99t-8.5 -118.5v-383q0 -42 10 -67.5t29 -39.5t45.5 -18.5t60.5 -4.5h6v-107h-617z" />
<glyph unicode="n" horiz-adv-x="1338" d="M40 0v107h4q34 0 62.5 4.5t49.5 19t33 42t12 72.5v594q0 42 -10.5 67.5t-29.5 39.5t-45.5 18.5t-59.5 4.5h-6v107h421l27 -143h10q30 57 64 90t72 51t80.5 23t89.5 5q78 0 139.5 -23t104.5 -70t65.5 -120t22.5 -175v-465q0 -47 8 -75t25 -42.5t42.5 -19.5t59.5 -5h6v-107 h-446v661q0 64 -8.5 114.5t-27.5 85t-50 52.5t-75 18q-50 0 -83 -25.5t-53.5 -68t-29 -99t-8.5 -118.5v-383q0 -42 10 -67.5t29 -39.5t45.5 -18.5t60.5 -4.5h6v-107h-617z" />
<glyph unicode="o" horiz-adv-x="1229" d="M94 542q0 283 133 421.5t391 138.5q121 0 216.5 -34.5t162.5 -104t103 -175t36 -246.5q0 -283 -133 -422.5t-391 -139.5q-120 0 -216 35t-163 104.5t-103 175.5t-36 247zM406 542q0 -107 11 -188.5t36 -136t65.5 -82.5t97.5 -28q58 0 98 28t65 82.5t35.5 136t10.5 188.5 q0 108 -11 188.5t-36 134.5t-65.5 81t-98.5 27q-57 0 -97.5 -27t-65 -81t-35 -134.5t-10.5 -188.5z" />
<glyph unicode="p" horiz-adv-x="1294" d="M26 -375h24q23 0 47.5 4t46 18t35.5 39.5t14 68.5v1074q0 46 -10.5 73.5t-28.5 42t-43 19.5t-53 5h-14v107h393l36 -157h9q22 39 51 71.5t66.5 56t84.5 36.5t105 13q100 0 177 -33t129 -102t78.5 -175t26.5 -252q0 -145 -26 -250.5t-77.5 -174t-126.5 -101t-173 -32.5 q-115 0 -186.5 43.5t-114.5 116.5h-14q4 -46 8 -90q3 -37 5.5 -79t2.5 -74v-138q0 -43 14 -68.5t35 -39.5t46 -18t47 -4h44v-107h-658v107zM498 534q0 -104 9.5 -181t33 -128t63 -76t99.5 -25q101 0 144.5 101.5t43.5 306.5q0 200 -43.5 307t-142.5 107q-60 0 -100.5 -27 t-64 -79.5t-33 -129.5t-9.5 -176z" />
<glyph unicode="q" horiz-adv-x="1300" d="M92 540q0 144 27 249t79.5 173t129 101t174.5 33q59 0 106 -12.5t84.5 -35.5t66.5 -55.5t51 -73.5h19l40 157h405v-107h-8q-33 0 -63 -5t-53 -19.5t-36.5 -42t-13.5 -73.5v-1080q0 -41 13 -66t35 -38t51.5 -16.5t62.5 -3.5h36v-107h-702v107h36q33 0 62.5 3.5t51.5 16.5 t35.5 38t13.5 66v147q0 9 0.5 23.5t2 34t3 40.5t2.5 41q4 48 7 105h-13q-21 -34 -49.5 -63.5t-65 -50.5t-82 -33.5t-102.5 -12.5q-97 0 -172.5 33t-127.5 101.5t-79 174.5t-27 251zM402 538q0 -201 42.5 -305.5t143.5 -104.5q60 0 99.5 26.5t63.5 78t34 127.5t10 176 q0 104 -10 181t-34 128t-63.5 76t-99.5 25q-101 0 -143.5 -101.5t-42.5 -306.5z" />
<glyph unicode="r" horiz-adv-x="1049" d="M40 0v107h6q34 0 62.5 5t49 20t32 43.5t11.5 75.5v582q0 44 -10.5 71t-29.5 41.5t-45.5 19t-59.5 4.5h-6v107h406l40 -157h10q19 45 42.5 79t56.5 56.5t77.5 34t106.5 11.5q118 0 174 -42t56 -121q0 -92 -66.5 -143t-188.5 -51q0 41 -4 72.5t-15.5 52t-30.5 31t-48 10.5 q-35 0 -60.5 -17.5t-43 -45.5t-29 -63t-17.5 -71t-8 -68t-2 -56v-347q0 -44 10.5 -71t29 -40.5t44.5 -18t56 -4.5h64v-107h-670z" />
<glyph unicode="s" horiz-adv-x="979" d="M60 215q0 49 19 78.5t48 46.5t61 22.5t59 5.5q0 -63 15.5 -113t44 -85t68.5 -53.5t89 -18.5q51 0 89 11t62 30t35.5 44t11.5 52q0 34 -12 59.5t-40.5 49t-76 45.5t-117.5 46q-82 29 -144 60.5t-105 72.5t-65 93t-22 120q0 80 31 140t88 99.5t136.5 59.5t176.5 20 q95 0 161.5 -16.5t108.5 -43t61.5 -59.5t19.5 -68q0 -67 -47.5 -102.5t-156.5 -35.5q0 100 -45 155.5t-132 55.5q-32 0 -62 -8t-52 -23.5t-35.5 -38.5t-13.5 -55t12.5 -57.5t43.5 -48.5t84 -46.5t135 -51.5q67 -24 123 -54t97 -68.5t63.5 -88t22.5 -113.5q0 -83 -29 -148.5 t-85 -111t-137.5 -69.5t-184.5 -24q-109 0 -186 18t-125.5 49t-70.5 74.5t-22 93.5z" />
<glyph unicode="t" horiz-adv-x="812" d="M42 939v103q65 0 116 25.5t81 58.5q62 65 92 199h167v-249h257v-137h-257v-621q0 -92 31 -134t101 -42q39 0 75 5.5t67 13.5v-131q-15 -7 -42 -16t-63 -16.5t-81 -12.5t-98 -5q-68 0 -122.5 16.5t-93 54t-59 98t-20.5 148.5v642h-151z" />
<glyph unicode="u" horiz-adv-x="1338" d="M52 969v107h446v-643q0 -65 7.5 -116.5t25 -88.5t47 -57t73.5 -20q48 0 82.5 21t56.5 60.5t32.5 96t10.5 127.5v385q0 44 -12 69.5t-31.5 38.5t-46 16.5t-55.5 3.5h-6v107h456v-843q0 -44 10 -69t28 -37.5t42.5 -16t53.5 -3.5h17v-107h-400l-44 142h-10 q-30 -52 -65.5 -84t-75.5 -49t-85 -23t-92 -6q-156 0 -240 97t-84 300v450q0 44 -8 71.5t-24.5 43t-42.5 21.5t-62 6h-4z" />
<glyph unicode="v" horiz-adv-x="1216" d="M0 969v107h622v-107h-84q-30 0 -48.5 -16t-18.5 -47q0 -25 6.5 -48.5t12.5 -40.5l134 -380q25 -64 43 -128.5t28 -115.5q5 24 13.5 55t17.5 61t16.5 54.5t10.5 34.5l136 403q10 27 16 55t6 55q0 34 -22 46t-56 12h-58v107h441v-107h-40q-21 0 -37 -5t-31 -20t-30 -44 t-32 -77l-291 -823h-265l-329 873q-11 29 -25 47.5t-33.5 29t-44.5 15t-58 4.5z" />
<glyph unicode="w" horiz-adv-x="1717" d="M-6 969v107h588v-107h-26q-61 0 -91 -17t-30 -67q0 -17 5.5 -40.5t11.5 -45.5l74 -261q10 -36 19 -74.5t16.5 -74.5t14 -68.5t10.5 -57.5h6q9 50 24 103t41 128l204 571h131l196 -592q24 -72 35 -122.5t18 -87.5h6q4 25 8.5 47.5t11 47t14.5 53.5t19 66l89 293 q7 26 12.5 55.5t5.5 45.5q0 51 -32.5 74.5t-100.5 23.5h-14v107h460v-107h-26q-29 0 -50.5 -6t-38 -23t-31.5 -48t-30 -80l-259 -812h-217l-219 666l-231 -666h-218l-258 863q-11 32 -23.5 52.5t-29 32t-38.5 16.5t-51 5h-6z" />
<glyph unicode="x" horiz-adv-x="1296" d="M23 0v107h17q36 0 63.5 6.5t51.5 21t48.5 39t55.5 61.5l253 305l-253 323q-42 53 -84.5 79.5t-88.5 26.5h-26v107h631v-107h-7q-34 0 -56 -4.5t-35 -12t-18 -18.5t-5 -23q0 -21 11 -41t35 -51l112 -137l95 115q24 30 37 57.5t13 54.5q0 37 -28 48.5t-75 11.5h-6v107h464 v-107h-18q-29 0 -52 -5.5t-46 -19.5t-47.5 -39t-57.5 -64l-206 -253l295 -375q46 -58 84.5 -82t75.5 -24h27v-107h-639v107h11q120 0 120 65q0 12 -3 24t-10.5 27.5t-23 36.5t-39.5 51l-115 139l-140 -175q-19 -24 -30.5 -49.5t-11.5 -51.5q0 -33 28.5 -50t95.5 -17h6v-107 h-509z" />
<glyph unicode="y" horiz-adv-x="1162" d="M0 957v119h572v-107q-58 0 -92 -15t-34 -59q0 -17 7 -40t13 -38q17 -42 36 -91.5t37.5 -99t35 -95.5t29.5 -81q14 -38 24 -69t16.5 -56t10.5 -46t6 -42q1 21 7 46t13 48t14 41t10 26l132 393q4 10 7.5 23t6.5 27t4.5 26.5t1.5 21.5q0 46 -38.5 63t-108.5 17v107h452v-107 q-30 0 -53 -6.5t-41.5 -24t-34.5 -45.5t-31 -70q-36 -100 -74 -204t-77 -208t-77.5 -207.5t-74.5 -203.5q-36 -97 -67 -170.5t-66 -127.5t-77 -89t-98 -56.5t-130 -30t-173 -8.5h-34v116q105 0 178.5 25.5t124.5 73t83.5 113t57.5 144.5l-362 883q-12 29 -26.5 45.5 t-31 25.5t-36 11t-42.5 2z" />
<glyph unicode="z" horiz-adv-x="1061" d="M36 0v82l592 857h-293q-22 0 -39 -6.5t-30 -22.5t-24 -43t-22 -68l-11 -48h-121l25 325h866v-86l-594 -854h354q30 0 51 9t36.5 28.5t25.5 50.5t19 75l12 65h119l-10 -364h-956z" />
<glyph unicode="{" horiz-adv-x="886" d="M60 578v123q49 2 91.5 9.5t74 28.5t49.5 56.5t18 91.5v345q0 141 86.5 217t256.5 76h191v-106h-78q-43 0 -70.5 -12.5t-44 -37t-22.5 -61.5t-6 -84v-341q0 -91 -52 -149.5t-169 -84.5v-17q116 -28 168.5 -87t52.5 -150v-343q0 -47 6 -84t22.5 -62t44 -37.5t70.5 -12.5h78 v-107h-191q-84 0 -148.5 20.5t-107.5 59.5t-65 93.5t-22 123.5v343q0 58 -18 93.5t-49.5 56.5t-74 29t-91.5 10z" />
<glyph unicode="|" d="M488 -482v2007h144v-2007h-144z" />
<glyph unicode="}" horiz-adv-x="886" d="M60 -144h78q43 0 70.5 12.5t44 37.5t22.5 62t6 84v343q0 91 52.5 150t168.5 87v17q-117 26 -169 84.5t-52 149.5v341q0 47 -6 84t-22.5 61.5t-44 37t-70.5 12.5h-78v106h191q169 0 256 -76t87 -217v-345q0 -56 18 -91.5t49.5 -56.5t74 -28.5t91.5 -9.5v-123 q-49 -2 -91.5 -10t-74 -29t-49.5 -56.5t-18 -93.5v-343q0 -69 -22 -123.5t-65 -93.5t-107.5 -59.5t-148.5 -20.5h-191v107z" />
<glyph unicode="~" d="M92 526q0 186 69 283t201 97q77 0 147.5 -50.5t139.5 -117t119 -66.5q49 0 77.5 57t33.5 177h149q-10 -206 -76 -293t-193 -87q-59 0 -111 29t-102 73t-97 87.5t-96 43.5q-52 0 -82.5 -55.5t-30.5 -177.5h-148z" />
<glyph unicode="&#xa2;" d="M115 718q0 150 33 254.5t92.5 171t141.5 100t178 41.5v148h124v-148q86 -5 153 -23t112 -46t68 -64t23 -76q0 -32 -11.5 -63t-40.5 -54.5t-79 -38t-128 -14.5q0 42 -5 82t-16 73.5t-30 57.5t-46 35v-838q51 1 95.5 14t81.5 34t65 50t45 63q26 -14 38 -39t12 -53 q0 -34 -20 -70.5t-61 -67t-105 -53t-151 -27.5v-167h-124v167q-101 6 -183 40t-140.5 99.5t-90 167t-31.5 244.5zM421 720q0 -155 33 -250t106 -131v812q-33 -15 -58.5 -46t-43.5 -82.5t-27.5 -126t-9.5 -176.5z" />
<glyph unicode="&#xa3;" d="M48 695v122h187q-11 25 -22 56.5t-21 66.5t-15.5 73.5t-5.5 76.5q0 176 114.5 269.5t330.5 93.5q108 0 183.5 -18t123 -49.5t69 -74t21.5 -91.5q0 -70 -63.5 -116.5t-187.5 -46.5q0 46 -6.5 94.5t-24.5 88.5t-49 65.5t-80 25.5q-76 0 -120.5 -57.5t-44.5 -175.5 q0 -42 6.5 -81.5t15.5 -75.5t21 -67.5t24 -56.5h355v-122l-317 2q7 -23 12.5 -42t9 -38t6 -39t2.5 -46q0 -158 -181 -275l7 -10q6 2 18 5t28.5 6t35 5t35.5 2q21 0 39.5 -2.5t38.5 -8t44.5 -13t55.5 -17.5q44 -13 79.5 -21t80.5 -8q68 0 119.5 40.5t90.5 107.5v-224 q-39 -70 -96 -104.5t-136 -34.5q-30 0 -63 4t-64.5 10t-60.5 14t-51 16q-49 17 -103.5 31t-95.5 14q-34 0 -64 -4.5t-57.5 -12.5t-53.5 -19t-53 -25l-89 -46v180l64 40q32 20 64 47.5t58.5 65t43.5 86t17 109.5q0 58 -12 105.5t-32 99.5h-231z" />
<glyph unicode="&#xa5;" d="M14 1327v106h574v-106h-15q-60 0 -86.5 -18.5t-26.5 -59.5q0 -25 8 -54t23 -65l76 -191q26 -64 44.5 -122.5t26.5 -100.5q6 28 20.5 66t31.5 81l84 221q13 34 21 58.5t12 43.5t5.5 33.5t1.5 27.5q0 41 -27.5 60.5t-94.5 19.5h-6v106h417v-106h-5q-26 0 -45.5 -7 t-36.5 -24.5t-34 -48t-37 -77.5l-207 -486h263v-118h-281v-116h281v-119h-281v-100q0 -48 13.5 -73.5t35.5 -36.5t52.5 -12.5t63.5 -1.5h46v-107h-720v107h46q33 0 62.5 1t51.5 11t35.5 33.5t14.5 67.5v111h-281v119h281v116h-281v118h247l-237 536q-14 30 -26 51t-27 33 t-33.5 17.5t-43.5 5.5h-6z" />
<glyph unicode="&#xa8;" horiz-adv-x="1158" d="M253 1381q0 34 9.5 58t26 39t38 21t44.5 6q24 0 45.5 -6t38 -21t27 -39t10.5 -58q0 -33 -10.5 -57.5t-27 -39t-38 -21.5t-45.5 -7q-23 0 -44.5 7t-38 21.5t-26 39t-9.5 57.5zM664 1381q0 34 10 58t26.5 39t38 21t46.5 6q23 0 44 -6t37.5 -21t27 -39t10.5 -58 q0 -33 -10.5 -57.5t-27 -39t-37.5 -21.5t-44 -7q-25 0 -46.5 7t-38 21.5t-26.5 39t-10 57.5z" />
<glyph unicode="&#xa9;" horiz-adv-x="1696" d="M111 716q0 102 26.5 196.5t74 176.5t114.5 149.5t149 115.5t176 74.5t196 26.5t196.5 -26.5t176 -74.5t149.5 -115.5t116 -149.5t74.5 -176.5t26.5 -196.5t-26.5 -196t-74.5 -175.5t-116 -149t-149.5 -115.5t-176 -74t-196.5 -26t-196 26t-176 74t-149 115.5t-114.5 149 t-74 175.5t-26.5 196zM220 716q0 -86 23 -166t63.5 -149.5t98 -126.5t127 -98t149 -63.5t166.5 -22.5t167.5 22.5t150 63.5t126.5 98t98 126.5t63.5 149.5t22.5 166q0 87 -22.5 167t-63.5 150t-98 127.5t-126.5 98t-150 63.5t-167.5 23t-166.5 -23t-149 -63.5t-127 -98 t-98 -127.5t-63.5 -149.5t-23 -167.5zM456 718q0 98 27.5 179.5t81.5 140.5t134 91.5t186 32.5q70 0 121 -11t85.5 -30t51.5 -45t17 -57q0 -21 -10.5 -39t-29 -30t-43.5 -18.5t-54 -6.5q0 29 -7.5 55.5t-24 49t-43.5 35.5t-67 13q-71 0 -120.5 -23.5t-80.5 -69.5 t-45.5 -112.5t-14.5 -154.5q0 -173 68 -266.5t195 -93.5q46 0 85 11.5t70.5 31t54.5 44t37 49.5q12 -9 20 -25t8 -38q0 -27 -19 -55.5t-56.5 -52t-94 -38.5t-131.5 -15q-100 0 -175 32.5t-125.5 91.5t-75.5 141t-25 183z" />
<glyph unicode="&#xab;" horiz-adv-x="1112" d="M130 490v104l307 350h141l-203 -402l203 -402h-141zM534 490v104l307 350h140l-202 -402l202 -402h-140z" />
<glyph unicode="&#xad;" horiz-adv-x="622" d="M50 442v211h522v-211h-522z" />
<glyph unicode="&#xae;" horiz-adv-x="1696" d="M111 716q0 102 26.5 196.5t74 176.5t114.5 149.5t149 115.5t176 74.5t196 26.5t196.5 -26.5t176 -74.5t149.5 -115.5t116 -149.5t74.5 -176.5t26.5 -196.5t-26.5 -196t-74.5 -175.5t-116 -149t-149.5 -115.5t-176 -74t-196.5 -26t-196 26t-176 74t-149 115.5t-114.5 149 t-74 175.5t-26.5 196zM220 716q0 -86 23 -166t63.5 -149.5t98 -126.5t127 -98t149 -63.5t166.5 -22.5t167.5 22.5t150 63.5t126.5 98t98 126.5t63.5 149.5t22.5 166q0 87 -22.5 167t-63.5 150t-98 127.5t-126.5 98t-150 63.5t-167.5 23t-166.5 -23t-149 -63.5t-127 -98 t-98 -127.5t-63.5 -149.5t-23 -167.5zM467 283v68h27q20 0 37.5 2.5t31 9.5t21.5 21t8 37v588q0 24 -8 38t-21.5 21.5t-31 9.5t-37.5 2h-27v71h362q345 0 345 -240q0 -48 -15.5 -84t-41 -62.5t-58.5 -44.5t-67 -29l178 -287q10 -17 19.5 -27t22 -16t29.5 -8t42 -2v-68h-213 l-221 374h-106v-236q2 -23 9.5 -37t21 -21t30.5 -9.5t37 -2.5h28v-68h-402zM743 733h84q54 0 90.5 11t58 32.5t30.5 54.5t9 78t-10.5 76t-33.5 50t-60 28t-90 9h-78v-339z" />
<glyph unicode="&#xb4;" horiz-adv-x="1158" d="M323 1216v27q22 28 49 65.5t54.5 77t51.5 79t39 73.5h316v-21q-19 -26 -62 -66t-96.5 -83t-110.5 -83.5t-104 -68.5h-137z" />
<glyph unicode="&#xb8;" horiz-adv-x="668" d="M100 -337q37 -8 73.5 -12t63.5 -4q57 0 90 20t33 72q0 30 -11.5 48.5t-32 29.5t-48 16.5t-59.5 7.5l42 177h115l-21 -87q49 -4 88.5 -18t67.5 -37.5t43.5 -56.5t15.5 -72q0 -53 -21 -95.5t-58 -72.5t-89.5 -45.5t-116.5 -15.5q-15 0 -37.5 1.5t-47 4.5t-48 7t-42.5 9v123 z" />
<glyph unicode="&#xbb;" horiz-adv-x="1112" d="M130 140l203 402l-203 402h140l308 -350v-104l-308 -350h-140zM534 140l203 402l-203 402h140l307 -350v-104l-307 -350h-140z" />
<glyph unicode="&#x2c6;" horiz-adv-x="1158" d="M222 1216v27q24 28 56 65.5t63 77t59 79t44 73.5h270q16 -34 44 -73.5t59.5 -79t62.5 -77t55 -65.5v-27h-138q-21 17 -49.5 39.5t-58.5 47t-59 49t-52 44.5q-22 -20 -51 -44.5t-59 -49t-58 -47t-48 -39.5h-140z" />
<glyph unicode="&#x2da;" horiz-adv-x="668" d="M92 1415q0 53 18.5 94t51.5 68.5t77 42t94 14.5t94 -14.5t77 -42t51.5 -68.5t18.5 -94q0 -54 -18.5 -94.5t-51.5 -68t-77 -41.5t-94 -14t-94 14t-77 41.5t-51.5 68t-18.5 94.5zM215 1415q0 -29 9 -49.5t25.5 -34t38 -19.5t45.5 -6q25 0 46.5 6t37.5 19.5t25.5 34 t9.5 49.5q0 30 -9.5 50.5t-25.5 33t-37.5 18.5t-46.5 6q-24 0 -45.5 -6t-38 -18.5t-25.5 -33t-9 -50.5z" />
<glyph unicode="&#x2dc;" horiz-adv-x="1158" d="M180 1237q3 61 23 114.5t53 94.5t78 64.5t99 23.5t97.5 -20t81.5 -44t70.5 -43.5t64.5 -19.5q21 0 38.5 9t29.5 23.5t19.5 34t10.5 39.5h130q-3 -61 -22.5 -114.5t-52.5 -94.5t-77.5 -64.5t-98.5 -23.5t-97.5 19.5t-81 43.5t-70.5 44t-65 20q-23 0 -40 -9t-29.5 -23.5 t-19.5 -34t-10 -39.5h-131z" />
<glyph unicode="&#x400;" horiz-adv-x="1310" d="M56 0v107h84q22 0 40.5 4t32.5 16t22 36t8 63v971q0 43 -8 68.5t-21.5 39t-32 18t-41.5 4.5h-84v106h1114l8 -370h-140l-10 95q-8 74 -37.5 113t-90.5 39h-338v-502h476v-120h-476v-566h401q31 0 52.5 11.5t37 32t25 48.5t14.5 61l15 94h140l-15 -369h-1176zM301 1848v21 h315q16 -34 40.5 -73.5t51.5 -79t54 -77t49 -65.5v-27h-136q-47 28 -104.5 68.5t-111 83.5t-96.5 83t-62 66z" />
<glyph unicode="&#x401;" horiz-adv-x="1310" d="M56 0v107h84q22 0 40.5 4t32.5 16t22 36t8 63v971q0 43 -8 68.5t-21.5 39t-32 18t-41.5 4.5h-84v106h1114l8 -370h-140l-10 95q-8 74 -37.5 113t-90.5 39h-338v-502h476v-120h-476v-566h401q31 0 52.5 11.5t37 32t25 48.5t14.5 61l15 94h140l-15 -369h-1176zM349 1712 q0 34 9.5 58t26 39t38 21t44.5 6q24 0 45.5 -6t38 -21t27 -39t10.5 -58q0 -33 -10.5 -57.5t-27 -39t-38 -21.5t-45.5 -7q-23 0 -44.5 7t-38 21.5t-26 39t-9.5 57.5zM760 1712q0 34 10 58t26.5 39t38 21t46.5 6q23 0 44 -6t37.5 -21t27 -39t10.5 -58q0 -33 -10.5 -57.5 t-27 -39t-37.5 -21.5t-44 -7q-25 0 -46.5 7t-38 21.5t-26.5 39t-10 57.5z" />
<glyph unicode="&#x402;" horiz-adv-x="1654" d="M20 1044l10 389h1170l10 -389h-134l-15 124q-4 33 -13 59.5t-28 45t-49.5 28t-75.5 9.5h-120v-489q25 9 58.5 19.5t75 18.5t88.5 14t97 6q116 0 205.5 -20.5t150.5 -70.5t92.5 -133.5t31.5 -208.5q0 -129 -30 -215.5t-87 -137.5t-139 -72t-188 -21h-54v117h22 q38 0 67 9.5t49 41.5t30 91t10 158t-17.5 159t-49 91.5t-75 41t-95.5 9.5q-37 0 -73.5 -4t-67.5 -11.5t-57 -16t-44 -16.5v-433q0 -43 8 -68.5t21.5 -39t32.5 -18t40 -4.5h84v-107h-692v107h84q22 0 41 4.5t32.5 18t21.5 39t8 68.5v1073h-121q-45 0 -75.5 -9.5t-49.5 -28 t-28.5 -45t-12.5 -59.5l-14 -124h-135z" />
<glyph unicode="&#x403;" horiz-adv-x="1185" d="M56 0v107h84q23 0 41.5 4.5t32 18t21.5 39t8 68.5v960q0 43 -8 68.5t-21.5 39t-32 18t-41.5 4.5h-84v106h1096l14 -393h-112l-24 96q-23 87 -67.5 130.5t-125.5 43.5h-275v-1082q0 -39 8 -63t22 -37t33 -17t39 -4h125v-107h-733zM474 1547v27q22 28 49 65.5t54.5 77 t51.5 79t39 73.5h316v-21q-19 -26 -62 -66t-96.5 -83t-110.5 -83.5t-104 -68.5h-137z" />
<glyph unicode="&#x404;" horiz-adv-x="1340" d="M111 718q0 163 44 298.5t130.5 232.5t216.5 150.5t301 53.5q115 0 201 -18t142.5 -49.5t85 -74t28.5 -91.5q0 -37 -16 -69t-48 -55.5t-79 -36.5t-108 -13q0 50 -10.5 99.5t-36.5 89.5t-68 65t-105 25q-90 0 -153.5 -36.5t-104 -106t-60 -171t-23.5 -232.5h471v-120h-471 q5 -131 29 -228.5t72.5 -162t123.5 -96.5t180 -32q73 0 130.5 17t102.5 44.5t79 62t59 67.5q16 -12 25 -36.5t9 -49.5q0 -42 -22.5 -88.5t-75.5 -86t-140 -65t-215 -25.5q-175 0 -305.5 53t-216.5 150t-129 233.5t-43 301.5z" />
<glyph unicode="&#x405;" horiz-adv-x="1176" d="M60 261q0 52 19 87t51 57.5t72.5 32.5t84.5 10q0 -86 20.5 -151.5t57 -109t87 -65.5t110.5 -22q58 0 104 16.5t78.5 46t49 69t16.5 86.5q0 50 -20.5 90t-62 73.5t-104.5 64.5t-148 66q-105 44 -177 89.5t-116 98.5t-63 114.5t-19 135.5q0 92 37 166.5t103 127t156 81 t196 28.5q111 0 191 -18t132.5 -49.5t78 -74t25.5 -91.5q0 -35 -15 -65.5t-46 -53t-77.5 -35t-108.5 -12.5q0 42 -11 90.5t-36.5 90t-66.5 69t-98 27.5q-41 0 -77 -12t-63 -35.5t-42.5 -58t-15.5 -79.5q0 -43 13.5 -80t50.5 -73t101 -71.5t166 -76.5q103 -42 175.5 -86.5 t119 -95t67.5 -110.5t21 -134q0 -97 -38 -177.5t-109.5 -138.5t-172 -90.5t-226.5 -32.5q-135 0 -225 25.5t-144.5 66t-77.5 90.5t-23 99z" />
<glyph unicode="&#x406;" horiz-adv-x="804" d="M56 0v107h84q23 0 41.5 4.5t32 18t21.5 39t8 68.5v959q0 43 -8 68.5t-21.5 39t-32 18t-41.5 4.5h-84v107h693v-107h-85q-21 0 -40 -4.5t-33 -18t-21.5 -39t-7.5 -68.5v-959q0 -43 7.5 -68.5t21.5 -39t33 -18t40 -4.5h85v-107h-693z" />
<glyph unicode="&#x407;" horiz-adv-x="804" d="M56 0v107h84q23 0 41.5 4.5t32 18t21.5 39t8 68.5v959q0 43 -8 68.5t-21.5 39t-32 18t-41.5 4.5h-84v107h693v-107h-85q-21 0 -40 -4.5t-33 -18t-21.5 -39t-7.5 -68.5v-959q0 -43 7.5 -68.5t21.5 -39t33 -18t40 -4.5h85v-107h-693zM78 1712q0 34 9.5 58t26 39t38 21 t44.5 6q24 0 45.5 -6t38 -21t27 -39t10.5 -58q0 -33 -10.5 -57.5t-27 -39t-38 -21.5t-45.5 -7q-23 0 -44.5 7t-38 21.5t-26 39t-9.5 57.5zM489 1712q0 34 10 58t26.5 39t38 21t46.5 6q23 0 44 -6t37.5 -21t27 -39t10.5 -58q0 -33 -10.5 -57.5t-27 -39t-37.5 -21.5t-44 -7 q-25 0 -46.5 7t-38 21.5t-26.5 39t-10 57.5z" />
<glyph unicode="&#x408;" horiz-adv-x="738" d="M-78 -366h36q48 0 93.5 18.5t81 60.5t57 111t21.5 170v1210q0 41 -8 65t-22 36.5t-33 17t-39 4.5h-85v106h692v-106h-84q-21 0 -40.5 -4.5t-33 -18t-22 -39t-8.5 -68.5v-1201q0 -91 -20.5 -161.5t-56.5 -124t-86.5 -90t-110 -59.5t-125.5 -33t-135 -10h-72v116z" />
<glyph unicode="&#x409;" horiz-adv-x="1916" d="M0 136q0 31 8.5 56t22 42.5t31 26.5t36.5 9q0 -39 24.5 -66.5t63.5 -27.5q34 0 61.5 12.5t52 42t46 80t41.5 126.5q18 65 32.5 144.5t27 161.5t21.5 163t15.5 149t9.5 118.5t3 73.5q0 27 -13 43t-35 24.5t-51 10.5t-62 2h-30v106h1141v-106h-123q-55 0 -81 -27t-26 -94 v-399h107q144 0 245 -29.5t165 -82.5t93.5 -127t29.5 -162q0 -90 -33 -165t-100 -128.5t-169.5 -83t-241.5 -29.5h-600v107h85q30 0 49.5 7.5t31.5 23t17 41t5 60.5v1088h-262q-6 -126 -17.5 -264t-30 -273.5t-42 -260.5t-52.5 -224q-28 -92 -62.5 -153.5t-76 -98t-91 -52 t-105.5 -15.5q-73 0 -117 39t-44 111zM1216 119h79q60 0 103 17t69.5 51t38 86t11.5 122q0 80 -13.5 136.5t-43 92t-76 51.5t-112.5 16h-56v-572z" />
<glyph unicode="&#x40a;" horiz-adv-x="2039" d="M56 0v107h84q22 0 40.5 4.5t32.5 18t22 39t8 68.5v967q0 41 -8.5 65t-22.5 36.5t-32.5 17t-39.5 4.5h-84v106h672v-106h-66q-21 0 -39.5 -4.5t-32.5 -18t-22 -39t-8 -68.5v-389h461v389q0 41 -7.5 66.5t-20.5 39.5t-31.5 19t-42.5 5h-64v106h673v-106h-82q-55 0 -81 -27 t-26 -94v-399h107q144 0 244.5 -29.5t165 -82.5t94 -127t29.5 -162q0 -90 -33 -165t-100 -128.5t-169.5 -83t-241.5 -29.5h-580v107h64q31 0 50.5 7.5t31 23t16 41t4.5 60.5v447h-461v-449q0 -43 8 -68.5t22 -39t32.5 -18t39.5 -4.5h66v-107h-672zM1339 119h78 q61 0 103.5 17t69 51t38.5 86t12 122q0 80 -14 136.5t-43.5 92t-76 51.5t-111.5 16h-56v-572z" />
<glyph unicode="&#x40b;" horiz-adv-x="1775" d="M20 1044l10 389h1170l10 -389h-134l-15 124q-4 33 -13 59.5t-28 45t-49.5 28t-75.5 9.5h-120v-493q25 9 60.5 20t80.5 20t98.5 15.5t113.5 6.5q103 0 185.5 -20.5t140.5 -70.5t89 -133.5t31 -208.5v-209q0 -43 8 -68.5t21.5 -39t32 -18t40.5 -4.5h64v-107h-672v107h84 q22 0 40.5 4.5t32.5 18t21.5 39t7.5 68.5v194q0 78 -13 132t-41.5 89t-73.5 50.5t-109 15.5q-37 0 -73.5 -4t-67.5 -11.5t-57 -16t-44 -16.5v-433q0 -43 8 -68.5t21.5 -39t32.5 -18t40 -4.5h84v-107h-692v107h84q22 0 41 4.5t32.5 18t21.5 39t8 68.5v1073h-121 q-45 0 -75.5 -9.5t-49.5 -28t-28.5 -45t-12.5 -59.5l-14 -124h-135z" />
<glyph unicode="&#x40c;" horiz-adv-x="1445" d="M56 0v107h84q22 0 40.5 4t32.5 16t22 36t8 63v978q0 41 -8 65t-22 36.5t-32.5 17t-40.5 4.5h-84v106h672v-106h-84q-22 0 -41 -4.5t-32.5 -18t-22 -39t-8.5 -68.5v-420q33 0 57 3t43.5 9.5t35 17.5t31.5 28q27 28 71 100t99 183q44 88 83 150.5t80.5 101.5t89.5 57.5 t109 18.5q84 0 120.5 -36t36.5 -91q0 -62 -26 -101t-72 -48q-3 21 -12 39.5t-22.5 32.5t-33 23t-44.5 9q-31 0 -56 -12t-48.5 -38.5t-48.5 -69t-56 -102.5q-33 -63 -58.5 -109t-48 -79t-44 -56.5t-45.5 -41.5q44 0 84.5 -13.5t75 -38t64 -59.5t52.5 -77l163 -291 q28 -48 52.5 -82t50 -56t52 -32t58.5 -10h13v-107h-144q-77 0 -134.5 12t-100 37t-74 60t-56.5 82l-190 347q-25 44 -45.5 68.5t-43.5 37.5t-51 15.5t-67 2.5v-425q0 -43 8.5 -68.5t22 -39t32.5 -18t41 -4.5h84v-107h-672zM648 1547v27q22 28 49 65.5t54.5 77t51.5 79 t39 73.5h316v-21q-19 -26 -62 -66t-96.5 -83t-110.5 -83.5t-104 -68.5h-137z" />
<glyph unicode="&#x40d;" horiz-adv-x="1643" d="M56 0v107h84q22 0 40.5 4.5t32.5 18t22 39t8 68.5v967q0 41 -8.5 65t-22.5 36.5t-32.5 17t-39.5 4.5h-84v106h693v-106h-87q-21 0 -39.5 -4.5t-32.5 -18t-22 -39t-8 -68.5v-707l524 672v35q0 43 -8 68.5t-22 39t-32.5 18t-40.5 4.5h-86v106h693v-106h-85 q-20 0 -38.5 -4.5t-33 -18t-22.5 -39t-8 -68.5v-971q0 -39 8.5 -63t22.5 -36t32.5 -16t38.5 -4h85v-107h-693v107h86q22 0 40.5 4.5t32.5 18t22 39t8 68.5v753l-524 -672v-81q0 -43 8 -68.5t22 -39t32.5 -18t39.5 -4.5h87v-107h-693zM446 1848v21h315q16 -34 40.5 -73.5 t51.5 -79t54 -77t49 -65.5v-27h-136q-47 28 -104.5 68.5t-111 83.5t-96.5 83t-62 66z" />
<glyph unicode="&#x40e;" horiz-adv-x="1392" d="M0 1327v106h688v-106h-72q-52 0 -80 -18.5t-28 -63.5q0 -29 9 -56.5t25 -58.5l153 -323q16 -36 34.5 -75t34.5 -79t29 -78t19 -71q13 41 28.5 84.5t36.5 99.5l146 402q19 49 28.5 85t9.5 53q0 52 -32.5 75.5t-99.5 23.5h-42v106h506v-106h-39q-29 0 -49 -7t-37 -24.5 t-32 -48t-34 -77.5l-293 -754q-33 -86 -63 -150t-63 -110.5t-73 -76.5t-91 -47.5t-117 -24.5t-153 -7h-125v117h89q51 0 102 9t96.5 27.5t79.5 46t51 65.5l-473 955q-15 30 -28 50.5t-29 32.5t-36 18t-50 6h-26zM277 1861h251q11 -105 58 -154t133 -49q87 0 133.5 49 t56.5 154h251q-6 -61 -25 -118t-66 -100.5t-130.5 -69.5t-219.5 -26q-135 0 -218.5 26t-131.5 69.5t-67 100.5t-25 118z" />
<glyph unicode="&#x40f;" horiz-adv-x="1623" d="M56 0v107h84q21 0 39.5 4t32.5 17t22.5 37t8.5 63v969q0 43 -8 68.5t-22 39t-32.5 18t-40.5 4.5h-84v106h693v-106h-87q-21 0 -39.5 -4.5t-32.5 -18t-22 -39t-8 -68.5v-1075h503v1075q0 43 -7.5 68.5t-22 39t-33 18t-39.5 4.5h-86v106h692v-106h-84q-21 0 -39 -4 t-32.5 -16.5t-22.5 -36t-8 -64.5v-969q0 -43 7.5 -68.5t22 -39t33 -18t39.5 -4.5h84v-107h-473q-54 0 -94.5 -24t-67 -75.5t-40 -131t-13.5 -190.5h-132q0 108 -16 188t-45 131.5t-71 76.5t-94 25h-465z" />
<glyph unicode="&#x410;" horiz-adv-x="1511" d="M8 0v107h24q27 0 49 6t41 22t36 44.5t35 73.5l435 1180h276l419 -1182q15 -42 31 -70t35 -44t40.5 -23t45.5 -7h36v-107h-662v107h78q15 0 30.5 4.5t28 13.5t20 24t7.5 35q0 25 -5.5 47.5t-11.5 38.5l-71 201h-488l-58 -172q-8 -25 -16 -57.5t-8 -57.5q0 -19 7.5 -34 t20.5 -24t29 -14t34 -5h84v-107h-522zM479 594h406l-106 329q-11 34 -22 72t-22.5 77t-21.5 78t-18 74q-9 -30 -21 -66.5t-25 -74.5t-26 -76.5t-25 -73.5z" />
<glyph unicode="&#x411;" horiz-adv-x="1306" d="M82 0v107h85q30 0 49.5 7.5t31.5 23t16.5 41t4.5 60.5v958q0 41 -7.5 66.5t-21 39.5t-32 19t-41.5 5h-85v106h1078l10 -389h-134l-15 124q-4 33 -13 59.5t-28.5 45t-49.5 28t-75 9.5h-269v-503h126q145 0 246 -29.5t165.5 -82.5t94 -127t29.5 -162q0 -90 -33 -165 t-100 -128.5t-169.5 -83t-241.5 -29.5h-621zM586 119h98q61 0 103.5 17t69 51t38.5 86t12 122q0 80 -13.5 136.5t-43 92t-76 51.5t-112.5 16h-76v-572z" />
<glyph unicode="&#x412;" horiz-adv-x="1348" d="M56 0v107h82q23 0 42 4.5t32.5 18t22 39t8.5 68.5v962q0 40 -8.5 65t-22.5 38.5t-33 19t-41 5.5h-82v106h586q286 0 430 -88.5t144 -276.5q0 -66 -18 -115.5t-51.5 -85.5t-80 -61.5t-103.5 -43.5v-9q70 -18 127.5 -49t99 -75.5t64.5 -103.5t23 -132q0 -198 -144 -295.5 t-430 -97.5h-647zM560 122h133q67 0 114 15t76 48t42.5 85.5t13.5 129.5q0 73 -12 127.5t-40.5 90t-74.5 53t-115 17.5h-137v-566zM560 810h76q71 0 117.5 15t74.5 46t39.5 80t11.5 117q0 69 -13 115t-42.5 74.5t-76.5 40.5t-115 12h-72v-500z" />
<glyph unicode="&#x413;" horiz-adv-x="1185" d="M56 0v107h84q23 0 41.5 4.5t32 18t21.5 39t8 68.5v960q0 43 -8 68.5t-21.5 39t-32 18t-41.5 4.5h-84v106h1096l14 -393h-112l-24 96q-23 87 -67.5 130.5t-125.5 43.5h-275v-1082q0 -39 8 -63t22 -37t33 -17t39 -4h125v-107h-733z" />
<glyph unicode="&#x414;" horiz-adv-x="1421" d="M16 122h122q74 145 141.5 294t119.5 294.5t83.5 281.5t31.5 253q0 27 -15 43.5t-39.5 25t-56 11t-64.5 2.5h-6v106h1000v-106h-27q-28 0 -53 -4.5t-44.5 -18.5t-31 -40.5t-11.5 -70.5v-926q0 -47 13.5 -75.5t35.5 -44t52 -20.5t64 -5h40v-543h-132q0 111 -14.5 190.5 t-45 131t-79.5 75.5t-119 24h-575q-70 0 -118.5 -24t-79.5 -75.5t-45 -131t-14 -190.5h-133v543zM295 122h554v1188h-190q0 -99 -16.5 -202.5t-44 -209t-63 -210t-76.5 -204t-83 -191t-81 -171.5z" />
<glyph unicode="&#x415;" horiz-adv-x="1310" d="M56 0v107h84q22 0 40.5 4t32.5 16t22 36t8 63v971q0 43 -8 68.5t-21.5 39t-32 18t-41.5 4.5h-84v106h1114l8 -370h-140l-10 95q-8 74 -37.5 113t-90.5 39h-338v-502h476v-120h-476v-566h401q31 0 52.5 11.5t37 32t25 48.5t14.5 61l15 94h140l-15 -369h-1176z" />
<glyph unicode="&#x416;" horiz-adv-x="2087" d="M0 0v107h12q31 0 58.5 10t52.5 32t50 56t51 82l163 291q24 42 53 77t64.5 59.5t75.5 38t84 13.5q-24 18 -45 41.5t-44 56.5t-48.5 79t-59.5 109q-31 60 -56 102.5t-48.5 69t-48 38.5t-55.5 12q-26 0 -45 -9t-32 -23t-21.5 -32.5t-13.5 -39.5q-46 9 -72.5 48t-26.5 101 q0 28 9 51t28 40t49.5 26.5t72.5 9.5q61 0 109 -18.5t89.5 -57.5t80 -101.5t82.5 -150.5q54 -111 98.5 -183t72.5 -100q16 -17 31.5 -28t34.5 -17.5t43 -9.5t58 -3v427q0 41 -8 65t-22.5 36.5t-33 17t-39.5 4.5h-85v106h653v-106h-84q-22 0 -41.5 -4.5t-33 -18t-22 -39 t-8.5 -68.5v-420q33 0 57 3t43 9.5t35 17.5t31 28q28 28 72.5 100t98.5 183q44 88 83 150.5t80.5 101.5t89.5 57.5t109 18.5q42 0 72.5 -9.5t49.5 -26.5t27.5 -40t8.5 -51q0 -62 -26.5 -101t-72.5 -48q-4 21 -12.5 39.5t-22 32.5t-32.5 23t-44 9q-31 0 -56 -12t-48.5 -38.5 t-48.5 -69t-56 -102.5q-33 -63 -58.5 -109t-48.5 -79t-44.5 -56.5t-45.5 -41.5q44 0 84 -13.5t75.5 -38t65 -59.5t52.5 -77l163 -291q26 -48 51 -82t50 -56t52.5 -32t59.5 -10h11v-107h-142q-77 0 -131.5 12t-93 37t-67 60t-54.5 82l-190 347q-24 44 -47.5 68.5t-50.5 37.5 t-58.5 15.5t-70.5 2.5v-425q0 -43 8.5 -68.5t22 -39t33 -18t41.5 -4.5h84v-107h-653v107h85q21 0 39.5 4t33 16t22.5 36t8 63v436q-40 0 -71 -2.5t-58 -15.5t-50.5 -37.5t-48.5 -68.5l-190 -347q-25 -47 -53.5 -82t-67.5 -60t-93 -37t-132 -12h-142z" />
<glyph unicode="&#x417;" horiz-adv-x="1238" d="M73 277q0 80 52.5 127.5t159.5 47.5q9 -79 30.5 -142.5t57.5 -108.5t87.5 -69.5t119.5 -24.5q130 0 203.5 70t73.5 221q0 67 -20 119t-62.5 88t-108.5 54.5t-158 18.5h-185v125h181q152 0 228 72.5t76 220.5q0 56 -11.5 99.5t-37.5 73.5t-66.5 46t-98.5 16 q-64 0 -106 -25.5t-67 -68.5t-35.5 -99.5t-10.5 -118.5q-55 0 -103 7t-83 25.5t-55.5 51t-20.5 83.5q0 54 33 102.5t96 85t152.5 58t201.5 21.5q114 0 210 -19.5t165 -60.5t107 -104.5t38 -150.5q0 -78 -26 -139.5t-70 -107t-103 -75.5t-126 -45q56 -6 121 -25t122 -58.5 t94.5 -102t37.5 -155.5q0 -117 -47 -199t-128 -134t-188.5 -76t-228.5 -24q-132 0 -226.5 25t-156 67t-90 96.5t-28.5 111.5z" />
<glyph unicode="&#x418;" horiz-adv-x="1643" d="M56 0v107h84q22 0 40.5 4.5t32.5 18t22 39t8 68.5v967q0 41 -8.5 65t-22.5 36.5t-32.5 17t-39.5 4.5h-84v106h693v-106h-87q-21 0 -39.5 -4.5t-32.5 -18t-22 -39t-8 -68.5v-707l524 672v35q0 43 -8 68.5t-22 39t-32.5 18t-40.5 4.5h-86v106h693v-106h-85 q-20 0 -38.5 -4.5t-33 -18t-22.5 -39t-8 -68.5v-971q0 -39 8.5 -63t22.5 -36t32.5 -16t38.5 -4h85v-107h-693v107h86q22 0 40.5 4.5t32.5 18t22 39t8 68.5v753l-524 -672v-81q0 -43 8 -68.5t22 -39t32.5 -18t39.5 -4.5h87v-107h-693z" />
<glyph unicode="&#x419;" horiz-adv-x="1643" d="M56 0v107h84q22 0 40.5 4.5t32.5 18t22 39t8 68.5v967q0 41 -8.5 65t-22.5 36.5t-32.5 17t-39.5 4.5h-84v106h693v-106h-87q-21 0 -39.5 -4.5t-32.5 -18t-22 -39t-8 -68.5v-707l524 672v35q0 43 -8 68.5t-22 39t-32.5 18t-40.5 4.5h-86v106h693v-106h-85 q-20 0 -38.5 -4.5t-33 -18t-22.5 -39t-8 -68.5v-971q0 -39 8.5 -63t22.5 -36t32.5 -16t38.5 -4h85v-107h-693v107h86q22 0 40.5 4.5t32.5 18t22 39t8 68.5v753l-524 -672v-81q0 -43 8 -68.5t22 -39t32.5 -18t39.5 -4.5h87v-107h-693zM375 1861h251q11 -105 58 -154t133 -49 q87 0 133.5 49t56.5 154h251q-6 -61 -25 -118t-66 -100.5t-130.5 -69.5t-219.5 -26q-135 0 -218.5 26t-131.5 69.5t-67 100.5t-25 118z" />
<glyph unicode="&#x41a;" horiz-adv-x="1445" d="M56 0v107h84q22 0 40.5 4t32.5 16t22 36t8 63v978q0 41 -8 65t-22 36.5t-32.5 17t-40.5 4.5h-84v106h672v-106h-84q-22 0 -41 -4.5t-32.5 -18t-22 -39t-8.5 -68.5v-420q33 0 57 3t43.5 9.5t35 17.5t31.5 28q27 28 71 100t99 183q44 88 83 150.5t80.5 101.5t89.5 57.5 t109 18.5q84 0 120.5 -36t36.5 -91q0 -62 -26 -101t-72 -48q-3 21 -12 39.5t-22.5 32.5t-33 23t-44.5 9q-31 0 -56 -12t-48.5 -38.5t-48.5 -69t-56 -102.5q-33 -63 -58.5 -109t-48 -79t-44 -56.5t-45.5 -41.5q44 0 84.5 -13.5t75 -38t64 -59.5t52.5 -77l163 -291 q28 -48 52.5 -82t50 -56t52 -32t58.5 -10h13v-107h-144q-77 0 -134.5 12t-100 37t-74 60t-56.5 82l-190 347q-25 44 -45.5 68.5t-43.5 37.5t-51 15.5t-67 2.5v-425q0 -43 8.5 -68.5t22 -39t32.5 -18t41 -4.5h84v-107h-672z" />
<glyph unicode="&#x41b;" horiz-adv-x="1459" d="M0 136q0 31 8.5 56t22 42.5t31 26.5t36.5 9q0 -39 24.5 -66.5t63.5 -27.5q34 0 61.5 12.5t52 42t46 80t41.5 126.5q18 65 32.5 144.5t27 161.5t21.5 163t15.5 149t9.5 118.5t3 73.5q0 27 -13 43t-35 24.5t-51 10.5t-62 2h-30v106h1098v-106h-84q-21 0 -40 -4.5t-33 -18 t-22 -39.5t-8 -68v-971q0 -40 8.5 -63.5t22.5 -35.5t32.5 -16t39.5 -4h84v-107h-693v107h87q20 0 39.5 4.5t33 18t22 39t8.5 68.5v1090h-262q-6 -126 -17.5 -264t-30 -274t-42 -261.5t-52.5 -224.5q-28 -92 -62.5 -153t-76 -97t-91 -51.5t-105.5 -15.5q-73 0 -117 39 t-44 111z" />
<glyph unicode="&#x41c;" horiz-adv-x="1911" d="M56 0v107h84q22 0 40.5 4t32.5 16t22 36t8 63v978q0 41 -8 65t-22 36.5t-32.5 17t-40.5 4.5h-84v106h578l333 -969l320 969h567v-106h-84q-22 0 -40.5 -4.5t-32 -18t-21.5 -39t-8 -68.5v-960q0 -43 8 -68.5t21.5 -39t32 -18t40.5 -4.5h84v-107h-642v107h20q31 0 55 4 t40 15.5t23.5 33.5t7.5 59v1016l-404 -1235h-137l-424 1235v-998q0 -43 10.5 -68.5t29.5 -39t46.5 -18t62.5 -4.5h12v-107h-498z" />
<glyph unicode="&#x41d;" horiz-adv-x="1643" d="M56 0v107h84q22 0 40.5 4.5t32.5 18t22 39t8 68.5v966q0 41 -8.5 65t-22.5 36.5t-32.5 17t-39.5 4.5h-84v107h693v-107h-87q-21 0 -39.5 -4.5t-32.5 -18t-22 -39t-8 -68.5v-388h524v388q0 43 -8 68.5t-22 39t-32.5 18t-40.5 4.5h-86v107h693v-107h-85q-20 0 -38.5 -4.5 t-33 -18t-22.5 -39t-8 -68.5v-970q0 -39 8.5 -63t22.5 -36t32.5 -16t38.5 -4h85v-107h-693v107h86q22 0 40.5 4.5t32.5 18t22 39t8 68.5v449h-524v-449q0 -43 8 -68.5t22 -39t32.5 -18t39.5 -4.5h87v-107h-693z" />
<glyph unicode="&#x41e;" horiz-adv-x="1579" d="M111 720q0 167 42 302.5t127 231.5t212.5 148.5t300.5 52.5q163 0 288.5 -52.5t212 -149t131 -232t44.5 -303.5q0 -165 -44.5 -301.5t-131.5 -233.5t-212.5 -150t-289.5 -53q-172 0 -299.5 53t-212 150t-126.5 234t-42 303zM448 718q0 -144 18.5 -256.5t59.5 -190.5 t106.5 -119t158.5 -41q94 0 159 41t105.5 119t58.5 190.5t18 256.5t-18 257t-58.5 191t-105 118.5t-157.5 40.5q-94 0 -160 -40.5t-107 -118.5t-59.5 -191t-18.5 -257z" />
<glyph unicode="&#x41f;" horiz-adv-x="1623" d="M56 0v107h84q22 0 40.5 4.5t32.5 18t22 39t8 68.5v967q0 41 -8.5 65t-22.5 36.5t-32.5 17t-39.5 4.5h-84v106h1511v-106h-84q-21 0 -39.5 -4.5t-33 -18t-22 -39t-7.5 -68.5v-971q0 -39 8 -63t22.5 -36t32.5 -16t39 -4h84v-107h-692v107h86q21 0 39.5 4.5t33 18t22 39 t7.5 68.5v1073h-503v-1073q0 -43 8 -68.5t22 -39t32.5 -18t39.5 -4.5h87v-107h-693z" />
<glyph unicode="&#x420;" horiz-adv-x="1280" d="M56 0v107h84q23 0 41.5 4.5t32 18t21.5 39t8 68.5v967q0 41 -8 65t-22 36.5t-32.5 17t-40.5 4.5h-84v106h616q139 0 242 -29.5t171 -85t101.5 -134t33.5 -177.5q0 -90 -31.5 -173t-102 -147t-183 -101.5t-275.5 -37.5h-68v-322q0 -39 8.5 -63t23.5 -36t34.5 -16t39.5 -4 h123v-107h-733zM560 664h49q74 0 126 19t85 59t48 103.5t15 154.5q0 80 -13 139.5t-42 98t-75.5 57.5t-114.5 19h-78v-650z" />
<glyph unicode="&#x421;" horiz-adv-x="1340" d="M111 718q0 163 44 298.5t130.5 232.5t216.5 150.5t301 53.5q115 0 201 -18t142.5 -49.5t85 -74t28.5 -91.5q0 -37 -16 -69t-48 -55.5t-79 -36.5t-108 -13q0 50 -10.5 99.5t-36.5 89.5t-68 65t-105 25q-95 0 -160.5 -40t-105.5 -117.5t-57.5 -191t-17.5 -258.5 t21.5 -253.5t69.5 -180.5t125 -108t189 -36q73 0 130.5 17t102.5 44.5t79 62t59 67.5q16 -12 25 -36.5t9 -49.5q0 -42 -22.5 -88.5t-75.5 -86t-140 -65t-215 -25.5q-175 0 -305.5 53t-216.5 150t-129 233.5t-43 301.5z" />
<glyph unicode="&#x422;" horiz-adv-x="1310" d="M20 1044l10 389h1251l10 -389h-135l-14 124q-4 33 -13.5 59.5t-28.5 45t-49.5 28t-75.5 9.5h-161v-1073q0 -43 8 -68.5t22 -39t33 -18t40 -4.5h85v-107h-693v107h84q23 0 41.5 4.5t32 18t21.5 39t8 68.5v1073h-161q-45 0 -75.5 -9.5t-49.5 -28t-28.5 -45t-12.5 -59.5 l-14 -124h-135z" />
<glyph unicode="&#x423;" horiz-adv-x="1392" d="M0 1327v106h688v-106h-72q-52 0 -80 -18.5t-28 -63.5q0 -29 9 -56.5t25 -58.5l153 -323q16 -36 34.5 -75t34.5 -79t29 -78t19 -71q13 41 28.5 84.5t36.5 99.5l146 402q19 49 28.5 85t9.5 53q0 52 -32.5 75.5t-99.5 23.5h-42v106h506v-106h-39q-29 0 -49 -7t-37 -24.5 t-32 -48t-34 -77.5l-293 -754q-33 -86 -63 -150t-63 -110.5t-73 -76.5t-91 -47.5t-117 -24.5t-153 -7h-125v117h89q51 0 102 9t96.5 27.5t79.5 46t51 65.5l-473 955q-15 30 -28 50.5t-29 32.5t-36 18t-50 6h-26z" />
<glyph unicode="&#x424;" horiz-adv-x="1706" d="M60 745q0 98 32 178.5t99 138.5t168 90t237 32h111v20q0 41 -13.5 65t-35.5 36.5t-52 17t-64 4.5h-27v106h675v-106h-26q-33 0 -63.5 -4.5t-52.5 -17t-35 -36.5t-13 -65v-20h110q138 0 238 -32t166.5 -90t98.5 -138.5t32 -178.5q0 -60 -13 -118.5t-42 -111t-74.5 -98.5 t-110.5 -78.5t-150.5 -51t-193.5 -18.5h-61v-41q0 -39 13 -63t35 -37t52.5 -17t63.5 -4h26v-107h-675v107h27q34 0 64 4t52 17t35.5 37t13.5 63v41h-63q-108 0 -193 18.5t-150 51t-111 78.5t-75 98.5t-42 111t-13 118.5zM364 737q0 -95 16 -162t50.5 -109.5t88 -61.5 t130.5 -19h58v680h-85q-70 0 -119.5 -19.5t-80.5 -60t-44.5 -102.5t-13.5 -146zM1000 385h57q77 0 131 19t88 61.5t50.5 109.5t16.5 162q0 84 -14 146t-45 102.5t-80.5 60t-119.5 19.5h-84v-680z" />
<glyph unicode="&#x425;" horiz-adv-x="1469" d="M20 0v107h12q37 0 64 9.5t51.5 28t47 44.5t46.5 58l351 458l-331 515q-17 27 -33 47t-36 33t-45 20t-59 7h-26v106h664v-106h-6q-34 0 -57 -4.5t-37 -13t-19 -19t-5 -22.5q0 -20 15 -51.5t38 -65.5l166 -249l175 244q17 27 35.5 61t18.5 61q0 18 -9 29.5t-24 18t-36 9 t-44 2.5h-6v106h470v-106h-18q-30 0 -53.5 -7.5t-46.5 -24.5t-46.5 -44.5t-52.5 -68.5l-291 -397l369 -572q39 -62 81.5 -84t79.5 -22h26v-107h-662v107h10q120 0 120 65q0 12 -2 23t-9 25.5t-20 36t-35 54.5l-185 279l-216 -293q-19 -26 -35.5 -58.5t-16.5 -64.5 q0 -33 27.5 -50t93.5 -17h7v-107h-506z" />
<glyph unicode="&#x426;" horiz-adv-x="1635" d="M56 0v107h84q21 0 39.5 4t32.5 17t22.5 37t8.5 63v969q0 43 -8 68.5t-22 39t-32.5 18t-40.5 4.5h-84v106h693v-106h-87q-21 0 -39.5 -4.5t-32.5 -18t-22 -39t-8 -68.5v-1075h503v1075q0 43 -7.5 68.5t-22 39t-33 18t-39.5 4.5h-86v106h692v-106h-84q-21 0 -39 -4 t-32.5 -16.5t-22.5 -36t-8 -64.5v-1084h193v-543h-133q0 111 -14.5 190.5t-45.5 131t-79.5 75.5t-117.5 24h-1128z" />
<glyph unicode="&#x427;" horiz-adv-x="1565" d="M38 1327v106h672v-106h-84q-21 0 -40 -4.5t-32.5 -18t-21.5 -39t-8 -68.5v-245q0 -80 14 -134t42.5 -86t73 -46t106.5 -14q39 0 75 5t67.5 12t57.5 15.5t44 15.5v477q0 43 -8 68.5t-22 39t-32.5 18t-39.5 4.5h-85v106h692v-106h-84q-22 0 -40.5 -4.5t-32 -18t-21.5 -39 t-8 -68.5v-960q0 -43 8 -68.5t21.5 -39t32 -18t40.5 -4.5h84v-107h-692v107h85q21 0 39.5 4.5t32.5 18t22 39t8 68.5v345q-26 -11 -61 -23t-79.5 -23t-99 -17.5t-118.5 -6.5q-101 0 -183 21t-139 71t-88 133.5t-31 208.5v251q0 43 -8 68.5t-21.5 39t-32.5 18t-41 4.5h-64z " />
<glyph unicode="&#x428;" horiz-adv-x="2284" d="M56 0v107h84q21 0 39.5 4t32.5 17t22.5 37t8.5 63v969q0 43 -8 68.5t-22 39t-32.5 18t-40.5 4.5h-84v106h660v-106h-65q-22 0 -40.5 -4.5t-32.5 -18t-22 -39t-8 -68.5v-1075h442v1075q0 43 -8 68.5t-22 39t-33 18t-40 4.5h-66v106h640v-106h-65q-20 0 -38 -4t-32.5 -16.5 t-22.5 -36t-8 -64.5v-1084h442v1075q0 43 -8.5 68.5t-22.5 39t-33 18t-39 4.5h-67v106h661v-106h-85q-20 0 -39 -4.5t-33 -18t-22 -39t-8 -68.5v-969q0 -39 8.5 -63t22.5 -37t32.5 -17t38.5 -4h85v-107h-2172z" />
<glyph unicode="&#x429;" horiz-adv-x="2296" d="M56 0v107h84q21 0 39.5 4t32.5 17t22.5 37t8.5 63v969q0 43 -8 68.5t-22 39t-32.5 18t-40.5 4.5h-84v106h660v-106h-65q-22 0 -40.5 -4.5t-32.5 -18t-22 -39t-8 -68.5v-1075h442v1075q0 43 -8 68.5t-22 39t-33 18t-40 4.5h-66v106h640v-106h-65q-20 0 -38 -4t-32.5 -16.5 t-22.5 -36t-8 -64.5v-1084h442v1075q0 43 -8.5 68.5t-22.5 39t-33 18t-39 4.5h-67v106h661v-106h-85q-20 0 -39 -4.5t-33 -18t-22 -39t-8 -68.5v-1075h192v-543h-132q0 108 -13 188t-42.5 131.5t-75.5 76.5t-112 25h-1802z" />
<glyph unicode="&#x42a;" horiz-adv-x="1493" d="M20 1044l10 389h972v-106h-123q-55 0 -81 -27t-26 -94v-399h128q144 0 245 -29.5t165 -82.5t93.5 -127t29.5 -162q0 -90 -33 -165t-100 -128.5t-169.5 -83t-241.5 -29.5h-620v107h84q30 0 49.5 7.5t31.5 23t17 41t5 60.5v1071h-121q-45 0 -75.5 -9.5t-49.5 -28t-28.5 -45 t-12.5 -59.5l-14 -124h-135zM772 119h99q61 0 103.5 17t69 51t38.5 86t12 122q0 80 -14 136.5t-43.5 92t-76 51.5t-111.5 16h-77v-572z" />
<glyph unicode="&#x42b;" horiz-adv-x="1982" d="M56 0v107h84q31 0 50.5 7.5t31 23t16.5 41t5 60.5v958q0 41 -7.5 66.5t-20.5 39.5t-32 19t-43 5h-84v106h733v-106h-123q-54 0 -80 -27t-26 -94v-399h106q144 0 245.5 -29.5t166 -82.5t93.5 -127t29 -162q0 -90 -32.5 -165t-99.5 -128.5t-169.5 -83t-241.5 -29.5h-601z M560 119h78q61 0 103.5 17t69 51t38.5 86t12 122q0 80 -13.5 136.5t-43 92t-76 51.5t-112.5 16h-56v-572zM1235 0v107h84q22 0 40.5 4.5t32 18t21.5 39t8 68.5v960q0 43 -8 68.5t-21.5 39t-32 18t-40.5 4.5h-84v106h692v-106h-85q-21 0 -39.5 -4.5t-32.5 -18t-22 -39 t-8 -68.5v-960q0 -43 8 -68.5t22 -39t32.5 -18t39.5 -4.5h85v-107h-692z" />
<glyph unicode="&#x42c;" horiz-adv-x="1280" d="M56 0v107h84q31 0 50.5 7.5t31 23t16.5 41t5 60.5v958q0 41 -7.5 66.5t-20.5 39.5t-32 19t-43 5h-84v106h733v-106h-123q-54 0 -80 -27t-26 -94v-399h126q144 0 245.5 -29.5t165.5 -82.5t93.5 -127t29.5 -162q0 -90 -33 -165t-100 -128.5t-169.5 -83t-241.5 -29.5h-620z M560 119h99q60 0 103 17t69.5 51t38 86t11.5 122q0 80 -13.5 136.5t-43 92t-76 51.5t-112.5 16h-76v-572z" />
<glyph unicode="&#x42d;" horiz-adv-x="1369" d="M74 289q0 79 55 124t150 45q9 -76 31.5 -139.5t61 -110t92 -73t126.5 -26.5q80 0 141 41t102 114t63 174t25 221h-471v120h471q-3 130 -21.5 232t-56.5 171.5t-99.5 106t-149.5 36.5q-61 0 -105 -26.5t-72.5 -68t-41.5 -93t-13 -101.5q-57 0 -103.5 11t-80 33t-51.5 53.5 t-18 72.5q0 48 28.5 93t87 79t148 54.5t211.5 20.5q174 0 300.5 -53t209.5 -148.5t123.5 -225t40.5 -283.5q0 -176 -45 -317t-131 -240t-210.5 -152.5t-283.5 -53.5q-141 0 -239 25.5t-159.5 69t-88.5 98.5t-27 116z" />
<glyph unicode="&#x42e;" horiz-adv-x="2231" d="M56 0v107h84q22 0 40.5 4.5t32.5 18t22 39t8 68.5v967q0 41 -8.5 65t-22.5 36.5t-32.5 17t-39.5 4.5h-84v106h693v-106h-87q-21 0 -39.5 -4.5t-32.5 -18t-22 -39t-8 -68.5v-389h285q10 148 54.5 268t123.5 204t195 129.5t268 45.5q153 0 271 -52.5t199 -149t123.5 -232 t42.5 -303.5q0 -165 -42.5 -301.5t-123.5 -233.5t-200 -150t-273 -53q-158 0 -276.5 50t-198 143t-120.5 223t-45 290h-283v-449q0 -43 8 -68.5t22 -39t32.5 -18t39.5 -4.5h87v-107h-693zM1180 718q0 -144 16 -256.5t52.5 -190.5t94 -119t140.5 -41t140.5 41t93 119 t52 190.5t16.5 256.5t-16.5 257t-51.5 191t-92 118.5t-139 40.5q-84 0 -142 -40.5t-95 -118.5t-53 -191t-16 -257z" />
<glyph unicode="&#x42f;" horiz-adv-x="1417" d="M-10 0v107h8q58 0 109.5 37.5t99.5 125.5l220 408q-50 21 -97.5 53t-84 79.5t-58.5 109.5t-22 141q0 182 132.5 277t416.5 95h647v-106h-84q-21 0 -39.5 -4.5t-32.5 -17t-22.5 -36.5t-8.5 -65v-978q0 -39 8.5 -63t22.5 -36t32.5 -16t39.5 -4h84v-107h-693v107h87 q20 0 38 4t32.5 16t23 36t8.5 63v396h-150l-201 -402q-37 -71 -77.5 -114.5t-93.5 -67t-121 -31t-158 -7.5h-66zM502 1034q0 -74 11.5 -129t40 -92t75 -55.5t116.5 -18.5h112v575h-108q-67 0 -114 -15t-76.5 -49t-43 -87t-13.5 -129z" />
<glyph unicode="&#x430;" horiz-adv-x="1202" d="M90 307q0 163 112.5 241.5t337.5 85.5l165 6v111q0 50 -4 92t-17 72.5t-38 47t-66 16.5q-38 0 -64 -16t-41.5 -45t-22 -69t-6.5 -87q-135 0 -203.5 30.5t-68.5 104.5q0 55 33 94t89.5 63.5t131.5 36t160 11.5q106 0 185 -18.5t131 -58.5t78.5 -105t26.5 -160v-511 q0 -41 6.5 -68.5t20.5 -43.5t37.5 -23t56.5 -7h8v-107h-374l-42 138h-17q-34 -40 -63.5 -70t-62.5 -49.5t-74.5 -29t-98.5 -9.5q-67 0 -124.5 20t-100 60.5t-67 101.5t-24.5 145zM402 299q0 -86 27.5 -129.5t85.5 -43.5q44 0 78.5 18.5t59.5 51.5t38.5 80.5t13.5 106.5v151 l-91 -6q-59 -3 -100.5 -19t-66 -44.5t-35 -69.5t-10.5 -96z" />
<glyph unicode="&#x431;" horiz-adv-x="1229" d="M96 640q0 114 9 216.5t31 191.5t60.5 162t98.5 127.5t143 88.5t196 45q75 8 138.5 13.5t113 13t82.5 19t45 30.5h94q-3 -101 -35 -160t-93 -92t-149.5 -49t-205.5 -32q-82 -7 -142 -17.5t-101.5 -29.5t-68.5 -47.5t-42.5 -70.5t-23 -98.5t-11.5 -131.5h8q18 46 51 86.5 t81 70t110.5 47t138.5 17.5q256 0 384 -133t128 -395q0 -129 -32 -228t-96.5 -166.5t-163.5 -102.5t-233 -35q-255 0 -385 162t-130 498zM406 510q0 -198 48.5 -300.5t156.5 -102.5q59 0 100.5 26t66.5 77t36 126.5t11 173.5q0 100 -11 175.5t-36 126t-66.5 76t-100.5 25.5 q-61 0 -101 -25.5t-63 -76t-32 -126t-9 -175.5z" />
<glyph unicode="&#x432;" horiz-adv-x="1246" d="M34 0v107h24q22 0 47 4.5t46 18t35.5 39t14.5 68.5v610q0 40 -14.5 64t-36 37t-46.5 17t-46 4h-24v107h632q225 0 332 -65.5t107 -191.5q0 -59 -17.5 -104.5t-48.5 -76.5t-74 -49.5t-94 -24.5v-10q58 -5 110.5 -22t92 -47.5t63 -76t23.5 -109.5q0 -66 -25.5 -121.5 t-78.5 -94.5t-135 -61t-195 -22h-692zM506 115h143q51 0 87 8.5t59.5 30.5t34.5 61t11 98q0 53 -13.5 88t-39.5 56t-63.5 30t-86.5 9h-132v-381zM506 612h134q90 0 127.5 49t37.5 136q0 39 -8.5 70t-28 52t-51 31.5t-77.5 10.5h-134v-349z" />
<glyph unicode="&#x433;" horiz-adv-x="1019" d="M34 0v107h24q22 0 47 4.5t46 18t35.5 39t14.5 68.5v602q0 43 -14.5 68.5t-35.5 39t-46 18t-47 4.5h-24v107h945v-341h-138l-10 86q-5 47 -14.5 75t-26 43t-41 18.5t-58.5 3.5h-185v-724q0 -43 13 -68.5t32.5 -39t42.5 -18t44 -4.5h44v-107h-648z" />
<glyph unicode="&#x434;" horiz-adv-x="1254" d="M26 115h139q28 47 60 121t62 180q16 55 30.5 115t25.5 118.5t18 110.5t7 93q0 37 -13.5 60t-36 35t-52.5 16.5t-63 4.5h-8v107h985v-107h-24q-21 0 -46.5 -4.5t-46.5 -18t-35.5 -39t-14.5 -68.5v-619q0 -35 12 -57t32 -34t46.5 -16.5t54.5 -5.5h46v-528h-139l-10 146 q-4 75 -22.5 127.5t-44.5 85.5t-57 47.5t-64 14.5h-498q-47 0 -81.5 -14.5t-58 -47.5t-37 -85.5t-18.5 -127.5l-9 -146h-139v536zM305 115h413v846h-214q-17 -194 -46 -344.5t-60 -256.5q-14 -45 -25.5 -81t-22.5 -65t-22 -53t-23 -46z" />
<glyph unicode="&#x435;" horiz-adv-x="1145" d="M94 532q0 141 33.5 248t97 178.5t156 107.5t211.5 36q109 0 196 -31t148 -92t93 -151t32 -210v-103h-657q3 -100 22 -172.5t53 -120t82.5 -70t110.5 -22.5q52 0 96 12.5t80 34.5t63 52t45 64q53 -29 53 -98q0 -43 -23.5 -82t-72.5 -68t-123 -47t-176 -18 q-127 0 -224.5 37.5t-163 108t-99 173t-33.5 233.5zM408 644h347q0 76 -9 137t-28 103t-49 64.5t-73 22.5q-84 0 -133.5 -83t-54.5 -244z" />
<glyph unicode="&#x436;" horiz-adv-x="1850" d="M0 0v107h6q34 0 60 5.5t49 20t44 41t46 67.5l111 188q26 45 55.5 76.5t61 52t64 31.5t65.5 15q-17 13 -32.5 29.5t-33.5 38t-38.5 50.5t-45.5 67q-28 40 -50 69t-41 47.5t-36.5 27.5t-35.5 9q-44 0 -68 -28.5t-32 -74.5q-25 2 -46.5 11.5t-37.5 26t-25.5 39t-9.5 49.5 q0 24 8.5 46t28.5 39t53 27.5t83 10.5q60 0 102.5 -16.5t76.5 -45.5t63 -71.5t63 -95.5q50 -77 81 -124.5t55 -72.5q22 -22 52.5 -33t86.5 -11v221q0 43 -14 68.5t-35.5 39t-46.5 18t-47 4.5h-4v107h568v-107h-4q-20 0 -43 -4.5t-43 -18t-33 -39t-13 -68.5v-221 q55 0 85.5 11t52.5 33q25 25 56 72.5t81 124.5q33 53 62.5 95.5t63.5 71.5t77 45.5t101 16.5q50 0 83.5 -10.5t53.5 -27.5t28.5 -39t8.5 -46q0 -27 -10 -49.5t-26 -39t-37.5 -26t-45.5 -11.5q-8 46 -32.5 74.5t-68.5 28.5q-17 0 -35 -9t-37 -27.5t-41 -47.5t-49 -69 q-26 -38 -46 -67t-37.5 -50.5t-34 -38t-32.5 -29.5q32 -4 65 -15t64 -31.5t61 -52t57 -76.5l109 -188q25 -41 46.5 -67.5t44 -41t49 -20t59.5 -5.5h6v-107h-84q-82 0 -145.5 6.5t-112.5 26.5t-87 57.5t-73 100.5l-101 190q-22 41 -41 65.5t-39 38.5t-43.5 18.5t-55.5 4.5 v-271q0 -43 13 -68.5t33 -39t43 -18t43 -4.5h4v-107h-568v107h4q22 0 47 4.5t46.5 18t35.5 39t14 68.5v271q-31 0 -55 -4.5t-44.5 -18.5t-39 -38.5t-40.5 -65.5l-102 -190q-34 -63 -72.5 -100.5t-87.5 -57.5t-112 -26.5t-146 -6.5h-84z" />
<glyph unicode="&#x437;" horiz-adv-x="1061" d="M69 211q0 73 46.5 114t151.5 41q0 -58 14.5 -108t42.5 -87t69 -58t93 -21q49 0 84.5 15.5t58 43.5t33 66t10.5 82q0 97 -55.5 147t-176.5 50h-135v128h137q56 0 93.5 15.5t60.5 42t32.5 60.5t9.5 72q0 37 -7.5 68t-23.5 54t-42.5 36.5t-64.5 13.5q-46 0 -77 -20 t-50 -53.5t-27.5 -76t-8.5 -87.5q-62 0 -103 10t-65 29t-34.5 45t-10.5 60q0 35 19.5 72t64 66.5t118.5 49t184 19.5q103 0 184.5 -17.5t137.5 -51t85 -83t29 -113.5q0 -48 -16.5 -90.5t-46 -77t-73 -60t-96.5 -39.5v-10q129 -24 198 -83.5t69 -167.5q0 -75 -32 -134.5 t-94 -102t-154.5 -65.5t-214.5 -23q-118 0 -197.5 18.5t-128.5 49.5t-70 72.5t-21 88.5z" />
<glyph unicode="&#x438;" horiz-adv-x="1386" d="M34 0v107h24q22 0 47 4.5t46 18t35.5 39t14.5 68.5v602q0 43 -14.5 68.5t-35.5 39t-46 18t-47 4.5h-24v107h608v-107h-4q-21 0 -44 -4.5t-42.5 -18t-32.5 -39t-13 -68.5v-427l375 411v16q0 43 -13 68.5t-33 39t-43 18t-43 4.5h-4v107h607v-107h-23q-22 0 -47.5 -4.5 t-46.5 -18t-35 -39t-14 -68.5v-602q0 -43 14 -68.5t35 -39t46.5 -18t47.5 -4.5h23v-107h-607v107h4q20 0 43 4.5t43 18t33 39t13 68.5v431l-375 -411v-20q0 -43 13 -68.5t32.5 -39t42.5 -18t44 -4.5h4v-107h-608z" />
<glyph unicode="&#x439;" horiz-adv-x="1386" d="M34 0v107h24q22 0 47 4.5t46 18t35.5 39t14.5 68.5v602q0 43 -14.5 68.5t-35.5 39t-46 18t-47 4.5h-24v107h608v-107h-4q-21 0 -44 -4.5t-42.5 -18t-32.5 -39t-13 -68.5v-427l375 411v16q0 43 -13 68.5t-33 39t-43 18t-43 4.5h-4v107h607v-107h-23q-22 0 -47.5 -4.5 t-46.5 -18t-35 -39t-14 -68.5v-602q0 -43 14 -68.5t35 -39t46.5 -18t47.5 -4.5h23v-107h-607v107h4q20 0 43 4.5t43 18t33 39t13 68.5v431l-375 -411v-20q0 -43 13 -68.5t32.5 -39t42.5 -18t44 -4.5h4v-107h-608zM251 1530h251q11 -105 58 -154t133 -49q87 0 133.5 49 t56.5 154h251q-6 -61 -25 -118t-66 -100.5t-130.5 -69.5t-219.5 -26q-135 0 -218.5 26t-131.5 69.5t-67 100.5t-25 118z" />
<glyph unicode="&#x43a;" horiz-adv-x="1288" d="M34 0v107h24q22 0 47 4.5t46 18t35.5 39t14.5 68.5v602q0 43 -14.5 68.5t-35.5 39t-46 18t-47 4.5h-24v107h608v-107h-4q-21 0 -44 -4.5t-42.5 -18t-32.5 -39t-13 -68.5v-221q49 0 79 11t53 33q24 25 55.5 72.5t81.5 124.5q33 53 63.5 95.5t65.5 71.5t78.5 45.5 t103.5 16.5q50 0 82.5 -10.5t53 -27.5t28.5 -39t8 -46q0 -27 -9 -49.5t-25.5 -39t-38 -26t-45.5 -11.5q-8 46 -32 74.5t-68 28.5q-18 0 -35.5 -9t-36.5 -27.5t-41 -47.5t-50 -69q-25 -38 -46 -67t-38.5 -50.5t-33.5 -38t-33 -29.5q33 -4 65.5 -15t64.5 -31.5t61.5 -52 t55.5 -76.5l111 -188q23 -41 45 -67.5t45 -41t49.5 -20t59.5 -5.5h6v-107h-85q-82 0 -148 6.5t-119 26.5t-94.5 57.5t-76.5 100.5l-102 190q-21 41 -38.5 65.5t-35.5 38.5t-37.5 18.5t-46.5 4.5v-271q0 -43 13 -68.5t32.5 -39t42.5 -18t44 -4.5h4v-107h-608z" />
<glyph unicode="&#x43b;" horiz-adv-x="1326" d="M0 126q0 34 10.5 58.5t26.5 40.5t35.5 24t38.5 8q0 -37 22 -62.5t62 -25.5q24 0 47 6t47 32.5t48.5 80.5t49.5 149q12 41 24.5 96t24 112t19 110t7.5 90q0 40 -12.5 64.5t-33.5 37.5t-49.5 17.5t-61.5 4.5h-26v107h1014v-107h-25q-21 0 -46 -4.5t-46.5 -18t-35.5 -39 t-14 -68.5v-602q0 -43 14 -68.5t35.5 -39t46.5 -18t46 -4.5h25v-107h-629v107h24q21 0 44.5 4.5t43 18t32.5 39t13 68.5v724h-227q-20 -186 -50 -350.5t-69 -299.5q-26 -92 -56 -154.5t-66.5 -100t-82 -54t-101.5 -16.5q-81 0 -125 37t-44 103z" />
<glyph unicode="&#x43c;" horiz-adv-x="1731" d="M34 0v107h24q22 0 47 4.5t46 18t35.5 39t14.5 68.5v602q0 43 -14.5 68.5t-35.5 39t-46 18t-47 4.5h-24v107h526l297 -672l303 672h538v-107h-26q-33 0 -63 -4.5t-52.5 -18t-36 -40.5t-13.5 -71v-594q0 -44 13.5 -71t36 -40.5t52.5 -18t63 -4.5h26v-107h-650v107h6 q33 0 63 4.5t52.5 18t35.5 40.5t13 71v618h-14l-390 -859h-92l-379 859h-14v-618q0 -44 13.5 -71t36 -40.5t52.5 -18t63 -4.5h6v-107h-466z" />
<glyph unicode="&#x43d;" horiz-adv-x="1386" d="M34 0v107h24q22 0 47 4.5t46 18t35.5 39t14.5 68.5v602q0 43 -14.5 68.5t-35.5 39t-46 18t-47 4.5h-24v107h608v-107h-4q-21 0 -44 -4.5t-42.5 -18t-32.5 -39t-13 -68.5v-228h375v228q0 43 -13 68.5t-33 39t-43 18t-43 4.5h-4v107h607v-107h-23q-22 0 -47.5 -4.5 t-46.5 -18t-35 -39t-14 -68.5v-602q0 -43 14 -68.5t35 -39t46.5 -18t47.5 -4.5h23v-107h-607v107h4q20 0 43 4.5t43 18t33 39t13 68.5v259h-375v-259q0 -43 13 -68.5t32.5 -39t42.5 -18t44 -4.5h4v-107h-608z" />
<glyph unicode="&#x43e;" horiz-adv-x="1229" d="M94 542q0 283 133 421.5t391 138.5q121 0 216.5 -34.5t162.5 -104t103 -175t36 -246.5q0 -283 -133 -422.5t-391 -139.5q-120 0 -216 35t-163 104.5t-103 175.5t-36 247zM406 542q0 -107 11 -188.5t36 -136t65.5 -82.5t97.5 -28q58 0 98 28t65 82.5t35.5 136t10.5 188.5 q0 108 -11 188.5t-36 134.5t-65.5 81t-98.5 27q-57 0 -97.5 -27t-65 -81t-35 -134.5t-10.5 -188.5z" />
<glyph unicode="&#x43f;" horiz-adv-x="1346" d="M34 0v107h24q22 0 47 4.5t46 18t35.5 39t14.5 68.5v610q0 40 -14.5 64t-36 37t-46.5 17t-46 4h-24v107h1278v-107h-23q-22 0 -47 -4t-46.5 -17t-35.5 -37t-14 -64v-610q0 -43 14 -68.5t35 -39t46.5 -18t47.5 -4.5h23v-107h-607v107h4q20 0 43 4.5t42.5 18t33 39 t13.5 68.5v724h-335v-724q0 -43 13 -68.5t32.5 -39t42.5 -18t44 -4.5h4v-107h-608z" />
<glyph unicode="&#x440;" horiz-adv-x="1294" d="M26 -375h24q23 0 47.5 4t46 18t35.5 39.5t14 68.5v1074q0 46 -10.5 73.5t-28.5 42t-43 19.5t-53 5h-14v107h393l36 -157h9q22 39 51 71.5t66.5 56t84.5 36.5t105 13q100 0 177 -33t129 -102t78.5 -175t26.5 -252q0 -145 -26 -250.5t-77.5 -174t-126.5 -101t-173 -32.5 q-115 0 -186.5 43.5t-114.5 116.5h-14q4 -46 8 -90q3 -37 5.5 -79t2.5 -74v-138q0 -43 14 -68.5t35 -39.5t46 -18t47 -4h44v-107h-658v107zM498 534q0 -104 9.5 -181t33 -128t63 -76t99.5 -25q101 0 144.5 101.5t43.5 306.5q0 200 -43.5 307t-142.5 107q-60 0 -100.5 -27 t-64 -79.5t-33 -129.5t-9.5 -176z" />
<glyph unicode="&#x441;" horiz-adv-x="1057" d="M94 534q0 163 38 271.5t104 174.5t156 94t194 28q97 0 171.5 -16.5t124.5 -45t76 -67t26 -82.5q0 -33 -11.5 -63.5t-40 -54t-79 -38.5t-129.5 -15q0 52 -6.5 99t-21 82.5t-39.5 56.5t-63 21q-44 0 -79 -21t-60 -72t-38 -136.5t-13 -213.5q0 -204 55.5 -305t182.5 -101 q52 0 97.5 12.5t82.5 34.5t65 52t46 64q24 -15 36 -40t12 -52q0 -38 -22.5 -77.5t-70 -71t-121 -52t-175.5 -20.5q-111 0 -202.5 28.5t-157 94.5t-102 171.5t-36.5 259.5z" />
<glyph unicode="&#x442;" horiz-adv-x="1137" d="M40 733l12 343h1034l12 -343h-139l-7 66q-6 47 -14.5 78t-21.5 50t-32 26.5t-47 7.5h-115v-720q0 -40 11 -66t29.5 -41t43 -21t51.5 -6h22v-107h-628v107h22q30 0 56 6t45.5 21t31 41t11.5 66v720h-116q-28 0 -47 -7.5t-32 -26.5t-21.5 -50t-14.5 -78l-8 -66h-138z" />
<glyph unicode="&#x443;" horiz-adv-x="1162" d="M0 957v119h572v-107q-58 0 -92 -15t-34 -59q0 -17 7 -40t13 -38q17 -42 36 -91.5t37.5 -99t35 -95.5t29.5 -81q14 -38 24 -69t16.5 -56t10.5 -46t6 -42q1 21 7 46t13 48t14 41t10 26l132 393q4 10 7.5 23t6.5 27t4.5 26.5t1.5 21.5q0 46 -38.5 63t-108.5 17v107h452v-107 q-30 0 -53 -6.5t-41.5 -24t-34.5 -45.5t-31 -70q-36 -100 -74 -204t-77 -208t-77.5 -207.5t-74.5 -203.5q-36 -97 -67 -170.5t-66 -127.5t-77 -89t-98 -56.5t-130 -30t-173 -8.5h-34v116q105 0 178.5 25.5t124.5 73t83.5 113t57.5 144.5l-362 883q-12 29 -26.5 45.5 t-31 25.5t-36 11t-42.5 2z" />
<glyph unicode="&#x444;" horiz-adv-x="1647" d="M94 540q0 122 39 220t114 168t184.5 110t250.5 48v211q0 40 -14 64t-35.5 37t-46.5 17t-46 4h-25v106h456v-441q133 -9 241 -49t183.5 -109.5t116.5 -166.5t41 -219q0 -124 -39 -222t-113.5 -169t-183 -111.5t-246.5 -47.5v-237q0 -43 14.5 -68.5t35.5 -39t46.5 -17 t46.5 -3.5h24v-107h-623v107h25q22 0 47 3.5t46 17t35 39t14 68.5v237q-134 7 -243 47.5t-185.5 111.5t-118 169t-41.5 222zM395 540q0 -185 70 -294.5t217 -128.5v839q-148 -19 -217.5 -124.5t-69.5 -291.5zM971 119q144 19 212.5 127.5t68.5 293.5q0 182 -69.5 289 t-211.5 127v-837z" />
<glyph unicode="&#x445;" horiz-adv-x="1296" d="M23 0v107h17q36 0 63.5 6.5t51.5 21t48.5 39t55.5 61.5l253 305l-253 323q-42 53 -84.5 79.5t-88.5 26.5h-26v107h631v-107h-7q-34 0 -56 -4.5t-35 -12t-18 -18.5t-5 -23q0 -21 11 -41t35 -51l112 -137l95 115q24 30 37 57.5t13 54.5q0 37 -28 48.5t-75 11.5h-6v107h464 v-107h-18q-29 0 -52 -5.5t-46 -19.5t-47.5 -39t-57.5 -64l-206 -253l295 -375q46 -58 84.5 -82t75.5 -24h27v-107h-639v107h11q120 0 120 65q0 12 -3 24t-10.5 27.5t-23 36.5t-39.5 51l-115 139l-140 -175q-19 -24 -30.5 -49.5t-11.5 -51.5q0 -33 28.5 -50t95.5 -17h6v-107 h-509z" />
<glyph unicode="&#x446;" horiz-adv-x="1376" d="M34 0v107h24q21 0 46 4t46.5 17t36 37t14.5 63v611q0 43 -14.5 68.5t-35.5 39t-46 18t-47 4.5h-24v107h598v-107h-4q-20 0 -43 -4.5t-43 -18t-33 -39t-13 -68.5v-724h355v732q0 40 -13.5 64t-33.5 37t-43 17t-43 4h-4v107h598v-107h-23q-22 0 -47.5 -4.5t-46.5 -18 t-35 -39t-14 -68.5v-619q0 -35 11.5 -57t31.5 -34t46.5 -16.5t55.5 -5.5h46v-528h-138l-11 146q-5 75 -23 127.5t-44 85.5t-57.5 47.5t-63.5 14.5h-966z" />
<glyph unicode="&#x447;" horiz-adv-x="1367" d="M32 969v107h590v-107h-4q-22 0 -45.5 -5t-42.5 -19.5t-31.5 -41t-12.5 -68.5v-178q0 -71 32.5 -102t95.5 -31q32 0 59.5 4.5t56.5 15t60.5 26.5t70.5 39v224q0 41 -10.5 67t-28.5 41.5t-42 21.5t-52 6h-4v107h609v-107h-23q-29 0 -55 -6t-46 -20.5t-31.5 -40.5t-11.5 -67 v-594q0 -41 11.5 -67t31.5 -40.5t46 -20.5t55 -6h23v-107h-663v107h35q33 0 61.5 4.5t49.5 18t33 40.5t12 71v255q-50 -30 -95.5 -55t-91.5 -42.5t-96 -27t-109 -9.5q-68 0 -122 19t-91 54t-56.5 83.5t-19.5 107.5v207q0 73 -38.5 104.5t-103.5 31.5h-6z" />
<glyph unicode="&#x448;" horiz-adv-x="1997" d="M34 0v107h24q21 0 46 4t46.5 17t36 37t14.5 63v611q0 43 -14.5 68.5t-35.5 39t-46 18t-47 4.5h-24v107h598v-107h-4q-20 0 -43 -4.5t-43 -18t-33 -39t-13 -68.5v-724h355v732q0 40 -13.5 64t-33.5 37t-43 17t-43 4h-4v107h569v-107h-4q-21 0 -44.5 -4.5t-43 -18 t-32.5 -39t-13 -68.5v-724h355v724q0 43 -13 68.5t-32.5 39t-42.5 18t-44 4.5h-4v107h598v-107h-25q-21 0 -46 -4.5t-46 -18t-35.5 -39t-14.5 -68.5v-611q0 -39 14.5 -63t36 -37t46.5 -17t45 -4h25v-107h-1929z" />
<glyph unicode="&#x449;" horiz-adv-x="2026" d="M34 0v107h24q21 0 46 4t46.5 17t36 37t14.5 63v611q0 43 -14.5 68.5t-35.5 39t-46 18t-47 4.5h-24v107h598v-107h-4q-20 0 -43 -4.5t-43 -18t-33 -39t-13 -68.5v-724h355v732q0 40 -13.5 64t-33.5 37t-43 17t-43 4h-4v107h569v-107h-4q-21 0 -44.5 -4.5t-43 -18 t-32.5 -39t-13 -68.5v-724h355v724q0 43 -13 68.5t-32.5 39t-42.5 18t-44 4.5h-4v107h598v-107h-25q-21 0 -46 -4.5t-46 -18t-35.5 -39t-14.5 -68.5v-619q0 -35 12 -57t32 -34t46 -16.5t54 -5.5h47v-528h-139l-10 146q-4 75 -22.5 127.5t-44.5 85.5t-57.5 47.5t-64.5 14.5 h-1615z" />
<glyph unicode="&#x44a;" horiz-adv-x="1426" d="M40 733l12 343h861v-115h-26q-33 0 -63 -5.5t-52.5 -20t-36 -38t-13.5 -58.5v-227h193q93 0 176.5 -11t147 -43t101 -90t37.5 -152q0 -68 -28 -126t-84 -100t-140.5 -66t-199.5 -24h-674v107h22q74 0 109 32.5t35 95.5v726h-116q-28 0 -47 -7.5t-32 -26.5t-21.5 -50 t-14.5 -78l-8 -66h-138zM722 117h151q50 0 85 11t57 35t32 63.5t10 94.5q0 95 -50 135t-142 40h-143v-379z" />
<glyph unicode="&#x44b;" horiz-adv-x="1815" d="M34 0v107h22q74 0 109.5 32.5t35.5 95.5v604q0 69 -37 99.5t-108 30.5h-22v107h663v-115h-27q-33 0 -63 -5.5t-52.5 -20t-35.5 -38t-13 -58.5v-227h153q93 0 176 -11t147 -43t101 -90t37 -152q0 -68 -28 -126t-83.5 -100t-140.5 -66t-200 -24h-634zM506 117h110 q50 0 85 11t57 35t32.5 63.5t10.5 94.5q0 95 -50.5 135t-141.5 40h-103v-379zM1144 0v107h24q22 0 47 4.5t46 18t35 39t14 68.5v602q0 43 -14 68.5t-35 39t-46 18t-47 4.5h-24v107h628v-107h-24q-20 0 -43 -4.5t-43 -18t-33 -39t-13 -68.5v-602q0 -43 13 -68.5t33 -39 t43 -18t43 -4.5h24v-107h-628z" />
<glyph unicode="&#x44c;" horiz-adv-x="1210" d="M34 0v107h22q74 0 109.5 32.5t35.5 95.5v604q0 69 -37 99.5t-108 30.5h-22v107h663v-115h-27q-33 0 -63 -5.5t-52.5 -20t-35.5 -38t-13 -58.5v-227h193q93 0 176 -11t147 -43t101 -90t37 -152q0 -68 -28 -126t-83.5 -100t-140.5 -66t-199 -24h-675zM506 117h151 q50 0 84.5 11t56.5 35t32.5 63.5t10.5 94.5q0 95 -50.5 135t-141.5 40h-143v-379z" />
<glyph unicode="&#x44d;" horiz-adv-x="1041" d="M69 211q0 73 50 114t148 41q0 -58 12 -108t35.5 -87t58.5 -58t81 -21q43 0 76 20.5t56 68t36 125t16 190.5h-349v128h349q-3 84 -12.5 151t-29 114t-51.5 72t-81 25q-42 0 -72.5 -22t-51.5 -57.5t-31 -78.5t-10 -85q-102 0 -149.5 38t-47.5 102q0 40 20.5 79t66 69.5 t118 49.5t175.5 19q111 0 197.5 -30t146 -94.5t91 -166t31.5 -245.5q0 -164 -35 -275t-98.5 -179.5t-153 -98t-197.5 -29.5q-115 0 -191 18.5t-121.5 49.5t-64 72.5t-18.5 88.5z" />
<glyph unicode="&#x44e;" horiz-adv-x="1852" d="M34 0v107h24q22 0 47 4.5t46 18t35.5 39t14.5 68.5v602q0 43 -14.5 68.5t-35.5 39t-46 18t-47 4.5h-24v107h619v-107h-15q-21 0 -44 -4.5t-42.5 -18t-32.5 -39t-13 -68.5v-228h253q15 248 141.5 369.5t359.5 121.5q117 0 209 -34.5t156.5 -104t98.5 -175t34 -246.5 q0 -283 -128.5 -422.5t-375.5 -139.5q-111 0 -200.5 32t-153.5 96t-101 161t-42 227h-251v-259q0 -43 13 -68.5t32.5 -39t42.5 -18t44 -4.5h15v-107h-619zM1068 542q0 -107 10 -188.5t32.5 -136t58.5 -82.5t89 -28t89 28t58.5 82.5t32 136t9.5 188.5q0 216 -43 323.5 t-148 107.5q-53 0 -88.5 -27t-57.5 -81t-32 -134.5t-10 -188.5z" />
<glyph unicode="&#x44f;" horiz-adv-x="1229" d="M0 0v107h6q27 0 48.5 7t41 21.5t37.5 37t38 53.5l176 284q-40 9 -81 31t-73.5 56t-53 82.5t-20.5 111.5q0 67 24 119.5t76.5 89.5t136 56.5t202.5 19.5h639v-107h-7q-88 0 -124 -30.5t-36 -91.5v-606q0 -27 6.5 -51t22 -43t43 -29.5t68.5 -10.5h27v-107h-645v107h8 q33 0 63 4.5t52.5 18t35.5 40.5t13 71v232h-106l-156 -289q-31 -56 -72 -91.5t-97.5 -56t-128.5 -28.5t-164 -8zM433 783q0 -43 8.5 -78.5t27.5 -60.5t49 -38.5t74 -13.5h132v369h-132q-44 0 -74.5 -13t-49 -36.5t-27 -56.5t-8.5 -72z" />
<glyph unicode="&#x450;" horiz-adv-x="1145" d="M94 532q0 141 33.5 248t97 178.5t156 107.5t211.5 36q109 0 196 -31t148 -92t93 -151t32 -210v-103h-657q3 -100 22 -172.5t53 -120t82.5 -70t110.5 -22.5q52 0 96 12.5t80 34.5t63 52t45 64q53 -29 53 -98q0 -43 -23.5 -82t-72.5 -68t-123 -47t-176 -18 q-127 0 -224.5 37.5t-163 108t-99 173t-33.5 233.5zM255 1517v21h315q16 -34 40.5 -73.5t51.5 -79t54 -77t49 -65.5v-27h-136q-47 28 -104.5 68.5t-111 83.5t-96.5 83t-62 66zM408 644h347q0 76 -9 137t-28 103t-49 64.5t-73 22.5q-84 0 -133.5 -83t-54.5 -244z" />
<glyph unicode="&#x451;" horiz-adv-x="1145" d="M94 532q0 141 33.5 248t97 178.5t156 107.5t211.5 36q109 0 196 -31t148 -92t93 -151t32 -210v-103h-657q3 -100 22 -172.5t53 -120t82.5 -70t110.5 -22.5q52 0 96 12.5t80 34.5t63 52t45 64q53 -29 53 -98q0 -43 -23.5 -82t-72.5 -68t-123 -47t-176 -18 q-127 0 -224.5 37.5t-163 108t-99 173t-33.5 233.5zM276 1381q0 34 9.5 58t26 39t38 21t44.5 6q24 0 45.5 -6t38 -21t27 -39t10.5 -58q0 -33 -10.5 -57.5t-27 -39t-38 -21.5t-45.5 -7q-23 0 -44.5 7t-38 21.5t-26 39t-9.5 57.5zM408 644h347q0 76 -9 137t-28 103t-49 64.5 t-73 22.5q-84 0 -133.5 -83t-54.5 -244zM687 1381q0 34 10 58t26.5 39t38 21t46.5 6q23 0 44 -6t37.5 -21t27 -39t10.5 -58q0 -33 -10.5 -57.5t-27 -39t-37.5 -21.5t-44 -7q-25 0 -46.5 7t-38 21.5t-26.5 39t-10 57.5z" />
<glyph unicode="&#x452;" horiz-adv-x="1306" d="M26 1160v106h175v31q0 40 -14.5 64t-36 37t-46.5 17t-46 4h-24v106h472v-259h311v-106h-311v-26q0 -39 -2.5 -84t-5.5 -83q-4 -45 -8 -88h18q30 57 64 89.5t72 48.5t80.5 20.5t89.5 4.5q78 0 139.5 -22.5t104.5 -69.5t65.5 -120.5t22.5 -174.5v-671q0 -135 -35.5 -224.5 t-98.5 -143t-150.5 -76t-191.5 -22.5h-38v124h12q47 0 83.5 18t61.5 59t38.5 109.5t13.5 171.5v600q0 64 -8.5 114.5t-27.5 85.5t-50 53t-75 18q-50 0 -83 -25.5t-53.5 -68.5t-29 -99.5t-8.5 -117.5v-323q0 -42 10 -67.5t29 -39.5t45.5 -18.5t60.5 -4.5h6v-107h-617v107h4 q33 0 62 4.5t50 19t33 42t12 72.5v915h-175z" />
<glyph unicode="&#x453;" horiz-adv-x="1019" d="M34 0v107h24q22 0 47 4.5t46 18t35.5 39t14.5 68.5v602q0 43 -14.5 68.5t-35.5 39t-46 18t-47 4.5h-24v107h945v-341h-138l-10 86q-5 47 -14.5 75t-26 43t-41 18.5t-58.5 3.5h-185v-724q0 -43 13 -68.5t32.5 -39t42.5 -18t44 -4.5h44v-107h-648zM357 1216v27 q22 28 49 65.5t54.5 77t51.5 79t39 73.5h316v-21q-19 -26 -62 -66t-96.5 -83t-110.5 -83.5t-104 -68.5h-137z" />
<glyph unicode="&#x454;" horiz-adv-x="1057" d="M94 534q0 163 38 271.5t104 174.5t156 94t194 28q97 0 171.5 -16.5t124.5 -45t76 -67t26 -82.5q0 -33 -11.5 -63.5t-40 -54t-79 -38.5t-129.5 -15q0 52 -6.5 99t-21 82.5t-39.5 56.5t-63 21q-41 0 -75 -18.5t-58.5 -63.5t-39 -120.5t-17.5 -188.5h349v-128h-347 q9 -167 65 -248.5t171 -81.5q52 0 97.5 12.5t82.5 34.5t65 52t46 64q24 -15 36 -40t12 -52q0 -38 -22.5 -77.5t-70 -71t-121 -52t-175.5 -20.5q-111 0 -202.5 28.5t-157 94.5t-102 171.5t-36.5 259.5z" />
<glyph unicode="&#x455;" horiz-adv-x="979" d="M60 215q0 49 19 78.5t48 46.5t61 22.5t59 5.5q0 -63 15.5 -113t44 -85t68.5 -53.5t89 -18.5q51 0 89 11t62 30t35.5 44t11.5 52q0 34 -12 59.5t-40.5 49t-76 45.5t-117.5 46q-82 29 -144 60.5t-105 72.5t-65 93t-22 120q0 80 31 140t88 99.5t136.5 59.5t176.5 20 q95 0 161.5 -16.5t108.5 -43t61.5 -59.5t19.5 -68q0 -67 -47.5 -102.5t-156.5 -35.5q0 100 -45 155.5t-132 55.5q-32 0 -62 -8t-52 -23.5t-35.5 -38.5t-13.5 -55t12.5 -57.5t43.5 -48.5t84 -46.5t135 -51.5q67 -24 123 -54t97 -68.5t63.5 -88t22.5 -113.5q0 -83 -29 -148.5 t-85 -111t-137.5 -69.5t-184.5 -24q-109 0 -186 18t-125.5 49t-70.5 74.5t-22 93.5z" />
<glyph unicode="&#x456;" horiz-adv-x="706" d="M34 0v107h24q22 0 47 4.5t46 18t35.5 39t14.5 68.5v610q0 40 -14.5 64t-36 37t-46.5 17t-46 4h-24v107h472v-839q0 -43 14 -68.5t35 -39t46.5 -18t47.5 -4.5h23v-107h-638zM172 1401q0 39 13.5 66t36.5 44.5t54 25.5t67 8q34 0 65.5 -8t55 -25.5t37.5 -44.5t14 -66 q0 -37 -14 -64.5t-37.5 -45t-55 -26.5t-65.5 -9q-36 0 -67 9t-54 26.5t-36.5 45t-13.5 64.5z" />
<glyph unicode="&#x457;" horiz-adv-x="706" d="M-1 1381q0 34 9.5 58t26 39t38 21t44.5 6q24 0 45.5 -6t38 -21t27 -39t10.5 -58q0 -33 -10.5 -57.5t-27 -39t-38 -21.5t-45.5 -7q-23 0 -44.5 7t-38 21.5t-26 39t-9.5 57.5zM34 0v107h24q22 0 47 4.5t46 18t35.5 39t14.5 68.5v610q0 40 -14.5 64t-36 37t-46.5 17t-46 4 h-24v107h472v-839q0 -43 14 -68.5t35 -39t46.5 -18t47.5 -4.5h23v-107h-638zM410 1381q0 34 10 58t26.5 39t38 21t46.5 6q23 0 44 -6t37.5 -21t27 -39t10.5 -58q0 -33 -10.5 -57.5t-27 -39t-37.5 -21.5t-44 -7q-25 0 -46.5 7t-38 21.5t-26.5 39t-10 57.5z" />
<glyph unicode="&#x458;" horiz-adv-x="692" d="M-40 -358h14q54 0 97 18t72 59t43.5 109.5t14.5 171.5v837q0 43 -13 69t-35 40t-51 18.5t-62 4.5h-6v107h472v-1092q0 -135 -38 -224.5t-105 -143t-159.5 -76t-203.5 -22.5h-40v124zM174 1401q0 39 13.5 66t36.5 44.5t54 25.5t67 8q34 0 65.5 -8t55 -25.5t37.5 -44.5 t14 -66q0 -37 -14 -64.5t-37.5 -45t-55 -26.5t-65.5 -9q-36 0 -67 9t-54 26.5t-36.5 45t-13.5 64.5z" />
<glyph unicode="&#x459;" horiz-adv-x="1790" d="M0 126q0 34 10.5 58.5t26.5 40.5t35.5 24t38.5 8q0 -37 22 -62.5t62 -25.5q24 0 47 6t47 32.5t48.5 80.5t49.5 149q12 41 24.5 96t24 112t19 110t7.5 90q0 40 -12.5 64.5t-33.5 37.5t-49.5 17.5t-61.5 4.5h-26v107h1037v-115h-25q-33 0 -62.5 -5.5t-52.5 -19.5t-36.5 -36 t-13.5 -55v-233h153q92 0 176 -11t147 -43t100.5 -90t37.5 -152q0 -68 -27.5 -126t-83.5 -100t-141 -66t-199 -24h-634v107h21q139 0 145 115v739h-227q-20 -186 -50 -350.5t-69 -299.5q-26 -92 -56 -154.5t-66.5 -100t-82 -54t-101.5 -16.5q-81 0 -125 37t-44 103z M1126 117h111q50 0 84.5 11t56.5 35t32.5 63.5t10.5 94.5q0 95 -50.5 135t-142.5 40h-102v-379z" />
<glyph unicode="&#x45a;" horiz-adv-x="1850" d="M34 0v107h24q22 0 47 4.5t46 18t35.5 39t14.5 68.5v602q0 43 -14.5 68.5t-35.5 39t-46 18t-47 4.5h-24v107h598v-107h-4q-20 0 -43 -4.5t-43 -18t-33 -39t-13 -68.5v-228h395v236q0 64 -38.5 93t-105.5 29h-2v107h632v-115h-27q-33 0 -63 -5.5t-52.5 -20t-35.5 -38 t-13 -58.5v-227h153q93 0 176 -11t147 -43t101 -90t37 -152q0 -68 -27.5 -126t-83.5 -100t-141 -66t-200 -24h-603v107h4q142 0 142 121v268h-395v-259q0 -43 13 -68.5t33 -39t43 -18t43 -4.5h4v-107h-598zM1186 117h111q50 0 84.5 11t56.5 35t32.5 63.5t10.5 94.5 q0 95 -50 135t-142 40h-103v-379z" />
<glyph unicode="&#x45b;" horiz-adv-x="1338" d="M26 1160v106h175v31q0 40 -14.5 64t-36 37t-46.5 17t-46 4h-24v106h472v-259h311v-106h-311v-26q0 -39 -2.5 -84t-5.5 -83q-4 -45 -8 -88h18q30 57 64 89.5t72 48.5t80.5 20.5t89.5 4.5q78 0 139.5 -22.5t104.5 -69.5t65.5 -120t22.5 -175v-406q0 -47 8 -75t25 -42.5 t42.5 -19.5t59.5 -5h6v-107h-446v600q0 64 -8.5 114.5t-27.5 85.5t-50 53t-75 18q-50 0 -83 -25.5t-53.5 -68.5t-29 -99.5t-8.5 -117.5v-323q0 -42 10 -67.5t29 -39.5t45.5 -18.5t60.5 -4.5h6v-107h-617v107h4q34 0 62.5 4.5t49.5 19t33 42t12 72.5v915h-175z" />
<glyph unicode="&#x45c;" horiz-adv-x="1288" d="M34 0v107h24q22 0 47 4.5t46 18t35.5 39t14.5 68.5v602q0 43 -14.5 68.5t-35.5 39t-46 18t-47 4.5h-24v107h608v-107h-4q-21 0 -44 -4.5t-42.5 -18t-32.5 -39t-13 -68.5v-221q49 0 79 11t53 33q24 25 55.5 72.5t81.5 124.5q33 53 63.5 95.5t65.5 71.5t78.5 45.5 t103.5 16.5q50 0 82.5 -10.5t53 -27.5t28.5 -39t8 -46q0 -27 -9 -49.5t-25.5 -39t-38 -26t-45.5 -11.5q-8 46 -32 74.5t-68 28.5q-18 0 -35.5 -9t-36.5 -27.5t-41 -47.5t-50 -69q-25 -38 -46 -67t-38.5 -50.5t-33.5 -38t-33 -29.5q33 -4 65.5 -15t64.5 -31.5t61.5 -52 t55.5 -76.5l111 -188q23 -41 45 -67.5t45 -41t49.5 -20t59.5 -5.5h6v-107h-85q-82 0 -148 6.5t-119 26.5t-94.5 57.5t-76.5 100.5l-102 190q-21 41 -38.5 65.5t-35.5 38.5t-37.5 18.5t-46.5 4.5v-271q0 -43 13 -68.5t32.5 -39t42.5 -18t44 -4.5h4v-107h-608zM490 1216v27 q22 28 49 65.5t54.5 77t51.5 79t39 73.5h316v-21q-19 -26 -62 -66t-96.5 -83t-110.5 -83.5t-104 -68.5h-137z" />
<glyph unicode="&#x45d;" horiz-adv-x="1386" d="M34 0v107h24q22 0 47 4.5t46 18t35.5 39t14.5 68.5v602q0 43 -14.5 68.5t-35.5 39t-46 18t-47 4.5h-24v107h608v-107h-4q-21 0 -44 -4.5t-42.5 -18t-32.5 -39t-13 -68.5v-427l375 411v16q0 43 -13 68.5t-33 39t-43 18t-43 4.5h-4v107h607v-107h-23q-22 0 -47.5 -4.5 t-46.5 -18t-35 -39t-14 -68.5v-602q0 -43 14 -68.5t35 -39t46.5 -18t47.5 -4.5h23v-107h-607v107h4q20 0 43 4.5t43 18t33 39t13 68.5v431l-375 -411v-20q0 -43 13 -68.5t32.5 -39t42.5 -18t44 -4.5h4v-107h-608zM348 1517v21h315q16 -34 40.5 -73.5t51.5 -79t54 -77 t49 -65.5v-27h-136q-47 28 -104.5 68.5t-111 83.5t-96.5 83t-62 66z" />
<glyph unicode="&#x45e;" horiz-adv-x="1162" d="M0 957v119h572v-107q-58 0 -92 -15t-34 -59q0 -17 7 -40t13 -38q17 -42 36 -91.5t37.5 -99t35 -95.5t29.5 -81q14 -38 24 -69t16.5 -56t10.5 -46t6 -42q1 21 7 46t13 48t14 41t10 26l132 393q4 10 7.5 23t6.5 27t4.5 26.5t1.5 21.5q0 46 -38.5 63t-108.5 17v107h452v-107 q-30 0 -53 -6.5t-41.5 -24t-34.5 -45.5t-31 -70q-36 -100 -74 -204t-77 -208t-77.5 -207.5t-74.5 -203.5q-36 -97 -67 -170.5t-66 -127.5t-77 -89t-98 -56.5t-130 -30t-173 -8.5h-34v116q105 0 178.5 25.5t124.5 73t83.5 113t57.5 144.5l-362 883q-12 29 -26.5 45.5 t-31 25.5t-36 11t-42.5 2zM148 1530h251q11 -105 58 -154t133 -49q87 0 133.5 49t56.5 154h251q-6 -61 -25 -118t-66 -100.5t-130.5 -69.5t-219.5 -26q-135 0 -218.5 26t-131.5 69.5t-67 100.5t-25 118z" />
<glyph unicode="&#x45f;" horiz-adv-x="1346" d="M34 0v107h24q21 0 46 4t46.5 17t36 37t14.5 63v611q0 43 -14.5 68.5t-35.5 39t-46 18t-47 4.5h-24v107h608v-107h-4q-21 0 -44 -4.5t-42.5 -18t-32.5 -39t-13 -68.5v-724h335v724q0 43 -13.5 68.5t-33 39t-42.5 18t-43 4.5h-4v107h607v-107h-23q-22 0 -47.5 -4.5 t-46.5 -18t-35 -39t-14 -68.5v-611q0 -39 14 -63t35.5 -37t46.5 -17t47 -4h23v-107h-358q-101 0 -157 -101.5t-56 -319.5h-132q0 111 -18.5 190.5t-50.5 131t-77.5 75.5t-98.5 24h-330z" />
<glyph unicode="&#x460;" horiz-adv-x="2296" d="M111 716q0 334 185 535.5t447 201.5q136 0 229 -65.5t93 -171.5q0 -72 -62 -120t-164 -48q0 277 -155 277q-236 0 -236 -607q0 -582 331 -582q120 0 223 65v448h293v-448q102 -65 222 -65q331 0 331 582q0 607 -236 607q-155 0 -155 -277q-104 0 -165.5 49t-61.5 119 q0 105 92.5 171t230.5 66q262 0 447 -201t185 -536q0 -339 -173.5 -537.5t-450.5 -198.5q-219 0 -413 124q-193 -124 -413 -124q-276 0 -450 198.5t-174 537.5z" />
<glyph unicode="&#x461;" horiz-adv-x="1733" d="M-62 996q147 100 279 100q130 0 214 -162.5t215 -711.5l219 318q-133 438 -199 536h276q64 -126 295 -883q101 122 165.5 298.5t64.5 309.5q0 127 -106 155q0 140 131 140q151 0 151 -194q0 -204 -118 -455.5t-311 -446.5h-201q-31 134 -106 398l-275 -398h-201 q-136 537 -219 738t-154 201q-36 0 -81 -26z" />
<glyph unicode="&#x462;" horiz-adv-x="1428" d="M30 897l10 269h351v31q0 130 -102 130h-84v106h690v-106h-85q-101 0 -101 -130v-31h350l11 -269h-135l-8 64q-10 83 -152 83h-66v-237h126q534 0 534 -401q0 -192 -140 -299t-404 -107h-620v107h84q55 0 78.5 26t23.5 106v805h-66q-144 0 -153 -83l-7 -64h-135zM709 119 h98q223 0 223 276q0 159 -56 227.5t-189 68.5h-76v-572z" />
<glyph unicode="&#x463;" horiz-adv-x="1210" d="M26 925v107h175v257q0 130 -145 130h-22v106h472v-493h311v-107h-311v-313h193q248 0 354.5 -72.5t106.5 -223.5q0 -144 -118 -230t-333 -86h-675v107h22q145 0 145 128v690h-175zM506 117h151q99 0 141.5 46.5t42.5 157.5q0 175 -192 175h-143v-379z" />
<glyph unicode="&#x464;" horiz-adv-x="2071" d="M56 0v107h84q103 0 103 130v967q0 123 -103 123h-84v106h672v-106h-86q-102 0 -102 -130v-389h305q26 307 207.5 476t481.5 169q216 0 336.5 -64t120.5 -169q0 -78 -67 -126t-184 -48q0 123 -57 201t-164 78q-320 0 -339 -517h469v-122h-471q6 -283 99 -414.5t307 -131.5 q227 0 371 191q34 -29 34 -86q0 -110 -117.5 -187.5t-335.5 -77.5q-322 0 -503.5 182t-191.5 524h-301v-449q0 -130 102 -130h86v-107h-672z" />
<glyph unicode="&#x465;" horiz-adv-x="1719" d="M34 0v107h24q143 0 143 130v602q0 130 -143 130h-24v107h606v-107h-14q-132 0 -132 -130v-228h265q31 491 490 491q185 0 290.5 -58.5t105.5 -152.5q0 -171 -258 -171q0 259 -131 259q-177 0 -191 -368h350v-115h-350q13 -366 239 -366q203 0 291 163q48 -29 48 -92 q0 -90 -104 -155.5t-285 -65.5q-482 0 -497 516h-263v-259q0 -130 132 -130h14v-107h-606z" />
<glyph unicode="&#x466;" horiz-adv-x="1591" d="M8 0v107h24q67 0 100.5 33t64.5 113l467 1180h284l448 -1182q55 -144 159 -144h37v-107h-606v107q104 0 104 77q0 36 -18 86l-155 416h-84v-686h-245v686h-60l-149 -387q-24 -64 -24 -115q0 -77 93 -77v-107h-440zM576 808h295l-52 142q-52 142 -86 295 q-45 -151 -99 -286z" />
<glyph unicode="&#x467;" horiz-adv-x="1338" d="M0 0v107h23q44 0 69.5 25.5t66.5 120.5l356 823h278l397 -873q44 -96 149 -96v-107h-550v107q86 0 86 64q0 42 -20 88l-108 237h-52v-496h-237v496h-48l-97 -221q-24 -54 -24 -110q0 -58 75 -58v-107h-364zM458 611h239l-40 88q-58 127 -79 216q-11 -57 -66 -182z" />
<glyph unicode="&#x468;" horiz-adv-x="2346" d="M56 0v107h84q103 0 103 130v967q0 123 -103 123h-84v106h672v-106h-86q-102 0 -102 -130v-389h630l249 625h283l449 -1182q55 -144 159 -144h36v-107h-606v107q104 0 104 77q0 36 -17 86l-155 416h-84v-686h-245v686h-60l-149 -387q-24 -61 -24 -115q0 -77 92 -77v-107 h-423v107h8q67 0 100 33t65 113l170 433h-582v-449q0 -130 102 -130h65v-107h-651zM1331 808h295l-52 142q-52 142 -86 295q-45 -151 -99 -286z" />
<glyph unicode="&#x469;" horiz-adv-x="1947" d="M34 0v107h24q143 0 143 130v602q0 130 -143 130h-24v107h606v-107h-14q-132 0 -132 -130v-228h427l203 465h277l397 -873q44 -96 149 -96v-107h-551v107q87 0 87 64q0 44 -20 88l-109 237h-52v-496h-237v496h-48l-96 -221q-24 -55 -24 -110q0 -58 74 -58v-107h-362v107 h21q43 0 68 24t68 122l105 243h-377v-496h-460zM1065 611h239l-40 88q-59 128 -78 216q-14 -64 -66 -182z" />
<glyph unicode="&#x46a;" horiz-adv-x="1846" d="M0 0v107h10q63 0 99 42.5t77 137.5l132 299q89 204 389 219l-388 522v106h1225v-106l-408 -522q303 -15 394 -219l130 -299q45 -103 81 -141.5t96 -38.5h9v-107h-156q-115 0 -180.5 39.5t-113.5 151.5l-144 347q-61 148 -191 148v-475q0 -104 85 -104h70v-107h-586v107 h71q84 0 84 119v460q-125 0 -191 -148l-144 -347q-45 -109 -110.5 -150t-182.5 -41h-157zM651 1298l345 -467l354 467h-699z" />
<glyph unicode="&#x46b;" horiz-adv-x="1597" d="M0 0v107h4q61 0 92 29.5t65 104.5l78 188q71 171 282 180l77 2l-317 366v99h1066v-99l-334 -366l63 -2q213 -7 282 -180l79 -188q56 -134 156 -134h4v-107h-88q-177 0 -244 45.5t-105 145.5l-72 190q-48 127 -146 127v-271q0 -130 115 -130h2v-107h-521v107h2 q117 0 117 130v271q-98 0 -147 -127l-73 -190q-39 -103 -107 -147t-242 -44h-88zM622 939l245 -299h10l263 299h-518z" />
<glyph unicode="&#x46c;" horiz-adv-x="2608" d="M56 0v107h84q103 0 103 130v967q0 123 -103 123h-84v106h672v-106h-86q-102 0 -102 -130v-389h925l-383 519v106h1224v-106l-408 -522q303 -15 394 -219l131 -299q45 -103 80.5 -141.5t95.5 -38.5h10v-107h-156q-112 0 -178 37t-115 154l-145 347q-62 148 -190 148v-460 q0 -119 84 -119h70v-107h-586v107h70q81 0 84 104v475q-125 0 -191 -148l-144 -347q-47 -114 -112.5 -152.5t-180.5 -38.5h-157v107h10q61 0 97 39.5t81 140.5l130 299q26 61 66 100h-606v-449q0 -130 102 -130h65v-107h-651zM1415 1298l345 -467l356 467h-701z" />
<glyph unicode="&#x46d;" horiz-adv-x="2198" d="M34 0v107h24q143 0 143 130v602q0 130 -143 130h-24v107h606v-107h-14q-132 0 -132 -130v-228h706l-319 366v99h1066v-99l-333 -366l62 -2q212 -7 283 -180l78 -188q56 -134 156 -134h5v-107h-89q-178 0 -245 46.5t-104 144.5l-72 190q-48 127 -146 127v-271 q0 -130 116 -130h2v-107h-522v107h2q116 0 116 130v271q-101 0 -146 -127l-72 -190q-38 -101 -107 -146t-243 -45h-88v107h4q60 0 91.5 29.5t64.5 104.5l79 188q15 36 36 67h-381v-496h-460zM1222 939l245 -299h10l263 299h-518z" />
<glyph unicode="&#x46e;" horiz-adv-x="1238" d="M113 1186q0 92 93 163t250 95q-84 121 -199 234v26h138q109 -77 217 -191q123 193 259 193q125 0 125 -103q0 -33 -27 -65q-27 17 -72 17q-110 0 -175 -109q394 -47 394 -328q0 -286 -325 -367q375 -48 375 -341q0 -188 -143.5 -290t-472.5 -124q-207 -14 -207 -140 q0 -123 149 -123q86 0 236.5 65.5t236.5 65.5q181 0 181 -163q0 -52 -47 -94t-111 -51q-17 107 -111 107q-50 0 -189 -26t-217 -26q-339 0 -339 242q0 113 89 176.5t327 81.5q309 22 309 287q0 280 -349 280h-185v125h181q304 0 304 293q0 235 -214 235q-219 0 -219 -312 q-262 0 -262 167z" />
<glyph unicode="&#x46f;" horiz-adv-x="1061" d="M42 -153q0 113 89 174.5t315 76.5t226 201q0 197 -232 197h-135v128h137q196 0 196 190q0 172 -138 172q-163 0 -163 -237q-213 0 -213 144q0 154 240 195q-95 127 -182 210v27h139q105 -75 217 -191q123 193 259 193q124 0 124 -103q0 -33 -26 -66q-28 18 -72 18 q-99 0 -161 -88q284 -48 284 -253q0 -202 -232 -267v-10q267 -49 267 -251q0 -290 -521 -323q-217 -13 -217 -135t138 -122q78 0 207 62t207 62q172 0 172 -148q0 -112 -150 -136q-14 98 -110 98q-49 0 -159.5 -30t-185.5 -30q-320 0 -320 242z" />
<glyph unicode="&#x470;" horiz-adv-x="1959" d="M44 1327v106h458v-474q0 -95 12 -164t43.5 -114t87.5 -66t142 -21h44v608q0 41 -13 65t-35.5 37.5t-52 18t-64.5 4.5h-26v106h674v-106h-25q-34 0 -64 -4.5t-52 -18t-35.5 -37.5t-13.5 -65v-608h44q86 0 141.5 21t87.5 66t44 114t12 164v474h458v-106q-33 0 -63.5 -5 t-52.5 -20t-35.5 -44t-13.5 -76v-249q0 -60 -8.5 -116.5t-31.5 -107t-63 -93.5t-100.5 -73.5t-145 -48t-197.5 -17.5h-76v-249q0 -39 13.5 -63t35.5 -37t52 -17t64 -4h25v-107h-674v107h26q35 0 64.5 4t52 17t35.5 37t13 63v249h-76q-113 0 -197.5 17.5t-145 48t-100.5 73.5 t-63 93.5t-31.5 107t-8.5 116.5v249q0 47 -13.5 76t-35.5 44t-52 20t-64 5z" />
<glyph unicode="&#x471;" horiz-adv-x="1440" d="M54 969v107h442v-609q0 -149 60.5 -231.5t200.5 -101.5v1391h120v-1393q78 7 138.5 42t102 92t63 135t21.5 171t-17 158.5t-42.5 108.5t-55 66.5t-53.5 33.5q0 31 7.5 59t21.5 48.5t36 33t52 12.5q43 0 79 -37.5t62.5 -100.5t41 -147.5t14.5 -178.5q0 -114 -24 -221 t-79 -194t-145.5 -146.5t-222.5 -78.5v-470h-120v462q-135 1 -239.5 34t-176.5 96.5t-110 158t-38 215.5v363q0 40 -9 64t-26 37t-43 17t-61 4z" />
<glyph unicode="&#x472;" horiz-adv-x="1579" d="M111 720q0 350 177 542.5t505 192.5q316 0 496 -197t180 -540q0 -341 -181 -539.5t-497 -198.5q-328 0 -504 195t-176 545zM448 670q12 -559 343 -559q318 0 339 525q-99 -52 -195 -52q-57 0 -177.5 64t-179.5 64q-66 0 -130 -42zM450 808q114 65 216 65q58 0 175.5 -64 t177.5 -64q59 0 111 30q-11 550 -337 550q-323 0 -343 -517z" />
<glyph unicode="&#x473;" horiz-adv-x="1229" d="M94 542q0 560 524 560q251 0 384.5 -144.5t133.5 -415.5q0 -562 -524 -562q-248 0 -383 144t-135 418zM406 482q11 -375 210 -375q202 0 209 395q-67 -60 -137 -60q-42 0 -101.5 36.5t-94.5 36.5q-39 0 -86 -33zM406 606q69 58 136 58q42 0 103 -37t94 -37q43 0 84 32 q-15 351 -209 351q-197 0 -208 -367z" />
<glyph unicode="&#x474;" horiz-adv-x="1491" d="M0 1327v106h662v-106h-92q-78 0 -78 -67q0 -36 18 -86l204 -618q43 -127 56 -243q55 266 149.5 583.5t184.5 433.5t237 116q160 0 160 -134q0 -113 -100 -142q-20 86 -80 86q-130 0 -219 -279l-303 -977h-201l-427 1230q-34 97 -125 97h-46z" />
<glyph unicode="&#x475;" horiz-adv-x="1284" d="M0 969v107h622v-107h-84q-67 0 -67 -63q0 -36 19 -89l134 -380q38 -104 62 -224h7q137 539 215.5 707t249.5 168q137 0 137 -104q0 -87 -65 -117q-30 50 -84 50q-63 0 -103.5 -65.5t-81.5 -194.5l-206 -657h-265l-329 873q-37 96 -161 96z" />
<glyph unicode="&#x476;" horiz-adv-x="1491" d="M0 1327v106h662v-106h-92q-78 0 -78 -67q0 -36 18 -86l204 -618q43 -127 56 -243q55 266 149.5 583.5t184.5 433.5t237 116q160 0 160 -134q0 -113 -100 -142q-20 86 -80 86q-130 0 -219 -279l-303 -977h-201l-427 1230q-34 97 -125 97h-46zM253 1848v21h255 q51 -111 170 -295v-27h-138q-199 168 -287 301zM634 1848v21h255q52 -111 170 -295v-27h-138q-199 168 -287 301z" />
<glyph unicode="&#x477;" horiz-adv-x="1284" d="M0 969v107h622v-107h-84q-67 0 -67 -63q0 -36 19 -89l134 -380q38 -104 62 -224h7q137 539 215.5 707t249.5 168q137 0 137 -104q0 -87 -65 -117q-30 50 -84 50q-63 0 -103.5 -65.5t-81.5 -194.5l-206 -657h-265l-329 873q-37 96 -161 96zM133 1517v21h255 q51 -111 170 -295v-27h-138q-199 168 -287 301zM514 1517v21h255q52 -111 170 -295v-27h-138q-199 168 -287 301z" />
<glyph unicode="&#x478;" horiz-adv-x="2621" d="M111 720q0 352 166.5 543.5t475.5 191.5q298 0 467 -197.5t169 -539.5q0 -340 -169.5 -539t-468.5 -199q-307 0 -473.5 194t-166.5 546zM448 718q0 -607 303 -607q301 0 301 607t-299 607q-305 0 -305 -607zM1459 957v119h573v-107q-127 0 -127 -74q0 -29 20 -78 q181 -432 195 -580q6 58 44 161l132 393q20 58 20 98q0 80 -146 80v107h452v-107q-97 0 -132 -76t-332 -893q-110 -302 -216 -392t-395 -90h-34v116q176 0 279.5 78t164.5 278l-362 883q-34 84 -136 84z" />
<glyph unicode="&#x479;" horiz-adv-x="2254" d="M94 542q0 560 504 560q242 0 370 -144.5t128 -415.5q0 -562 -504 -562q-238 0 -368 144t-130 418zM406 542q0 -435 190 -435q189 0 189 435q0 216 -42.5 323.5t-148.5 107.5q-101 0 -144.5 -102t-43.5 -329zM1092 957v119h572v-107q-126 0 -126 -74q0 -29 19 -78 q182 -432 195 -580q6 58 44 161l133 393q20 61 20 98q0 80 -147 80v107h452v-107q-96 0 -131.5 -76t-332.5 -893q-110 -305 -216.5 -393.5t-393.5 -88.5h-34v116q175 0 279 78t165 278l-362 883q-34 84 -136 84z" />
<glyph unicode="&#x47a;" horiz-adv-x="1660" d="M111 720q0 642 569 726q34 113 149 113t148 -113q276 -42 424 -232t148 -496q0 -305 -148.5 -496t-425.5 -232q-35 -114 -146 -114q-109 0 -149 114q-569 83 -569 730zM448 718q0 -502 243 -586q41 87 138 87q101 0 138 -89q245 82 245 588q0 508 -245 586 q-42 -88 -138 -88t-136 86q-245 -82 -245 -584z" />
<glyph unicode="&#x47b;" horiz-adv-x="1290" d="M94 542q0 489 425 552q22 96 123 96q100 0 122 -96q433 -65 433 -552q0 -495 -435 -554q-22 -97 -120 -97q-96 0 -123 99q-425 66 -425 552zM406 542q0 -363 136 -418q32 48 100 48q71 0 103 -50q140 51 140 420q0 367 -142 415q-34 -48 -101 -48q-64 0 -100 47 q-136 -50 -136 -414z" />
<glyph unicode="&#x47c;" horiz-adv-x="2296" d="M111 716q0 334 185 535.5t447 201.5q136 0 229 -65.5t93 -171.5q0 -72 -62 -120t-164 -48q0 277 -155 277q-236 0 -236 -607q0 -582 331 -582q249 0 343 272h52q94 -272 343 -272q331 0 331 582q0 607 -236 607q-155 0 -155 -277q-104 0 -165.5 49t-61.5 119 q0 105 92.5 171t230.5 66q262 0 447 -201t185 -536q0 -339 -173.5 -537.5t-450.5 -198.5q-258 0 -413 191q-155 -191 -413 -191q-276 0 -450 198.5t-174 537.5zM743 1827q11 136 84 216.5t184 80.5q72 0 225.5 -55.5t264.5 -55.5h14v-186h-40q-122 0 -280 54.5t-214 54.5 q-86 0 -104 -90l-4 -19h-130zM1004 1515v63q116 35 116 84q0 16 -48.5 41t-48.5 78q0 77 95 77q123 0 123 -121q0 -167 -237 -222z" />
<glyph unicode="&#x47d;" horiz-adv-x="1934" d="M94 540q0 264 133 412t355 148q135 0 222 -51t87 -140q0 -158 -203 -158q0 228 -120 228q-93 0 -131.5 -104.5t-38.5 -332.5q0 -233 58.5 -322.5t198.5 -89.5q207 0 287 207h52q78 -207 287 -207q139 0 198 89.5t59 322.5q0 228 -39 332.5t-132 104.5q-120 0 -120 -228 q-203 0 -203 158q0 90 87.5 140.5t220.5 50.5q223 0 355.5 -148t132.5 -412q0 -271 -134.5 -415.5t-386.5 -144.5q-222 0 -352 144q-129 -144 -351 -144q-253 0 -387.5 145.5t-134.5 414.5zM576 1528q11 136 84 216.5t185 80.5q71 0 224.5 -55.5t265.5 -55.5h13v-186h-40 q-121 0 -279.5 55t-214.5 55q-86 0 -104 -91l-3 -19h-131zM837 1216v63q117 35 117 84q0 16 -48.5 41t-48.5 77q0 78 95 78q122 0 122 -122q0 -165 -237 -221z" />
<glyph unicode="&#x47e;" horiz-adv-x="2296" d="M111 716q0 334 185 535.5t447 201.5q136 0 229 -65.5t93 -171.5q0 -72 -62 -120t-164 -48q0 277 -155 277q-236 0 -236 -607q0 -582 331 -582q120 0 223 65v448h293v-448q102 -65 222 -65q331 0 331 582q0 607 -236 607q-155 0 -155 -277q-104 0 -165.5 49t-61.5 119 q0 105 92.5 171t230.5 66q262 0 447 -201t185 -536q0 -339 -173.5 -537.5t-450.5 -198.5q-219 0 -413 124q-193 -124 -413 -124q-276 0 -450 198.5t-174 537.5zM741 1734v26h814v-26l-80 -169h-34l-48 101h-181l-48 -101h-34l-48 101h-180l-49 -101h-34z" />
<glyph unicode="&#x47f;" horiz-adv-x="1733" d="M-62 996q147 100 279 100q130 0 214 -162.5t215 -711.5l219 318q-133 438 -199 536h276q64 -126 295 -883q101 122 165.5 298.5t64.5 309.5q0 127 -106 155q0 140 131 140q151 0 151 -194q0 -204 -118 -455.5t-311 -446.5h-201q-31 134 -106 398l-275 -398h-201 q-136 537 -219 738t-154 201q-36 0 -81 -26zM448 1389v26h814v-26l-80 -169h-34l-48 101h-181l-48 -101h-34l-48 101h-180l-49 -101h-34z" />
<glyph unicode="&#x480;" horiz-adv-x="1340" d="M111 718q0 341 182.5 538t509.5 197q216 0 336.5 -64t120.5 -169q0 -78 -67 -126t-184 -48q0 126 -57 202.5t-163 76.5q-177 0 -259 -145t-82 -462q0 -305 95.5 -441.5t309.5 -136.5q99 0 183 40h10v-423q0 -130 102 -130h84v-106h-692v106h84q102 0 102 130v227 q-298 22 -456.5 215.5t-158.5 518.5z" />
<glyph unicode="&#x481;" horiz-adv-x="1057" d="M94 534q0 568 492 568q188 0 293 -59.5t105 -151.5q0 -171 -260 -171q0 259 -130 259q-190 0 -190 -443q0 -406 238 -406q112 0 199 46h10v-655h-305v461q-452 22 -452 552z" />
<glyph unicode="&#x482;" horiz-adv-x="1222" d="M102 536l69 121l281 -161l194 339l-278 161l69 122l279 -161l179 307l124 -71l-178 -310l281 -161l-72 -120l-278 160l-196 -339l279 -162l-70 -121l-279 161l-177 -307l-126 73l176 308z" />
<glyph unicode="&#x483;" horiz-adv-x="1118" d="M189 1249q0 114 104 114h435q12 96 101 96q104 0 104 -107q0 -115 -106 -115h-436q-15 -97 -100 -97q-102 0 -102 109z" />
<glyph unicode="&#x484;" horiz-adv-x="1158" d="M219 1228v187h14q108 0 265 55t224 55q112 0 185.5 -80.5t84.5 -216.5h-131l-4 21q-22 90 -104 90q-59 0 -214 -55.5t-280 -55.5h-40z" />
<glyph unicode="&#x485;" horiz-adv-x="1158" d="M471 1433q0 124 125 124q95 0 95 -74q0 -39 -48.5 -60t-48.5 -44q0 -50 115 -90v-75q-238 60 -238 219z" />
<glyph unicode="&#x486;" horiz-adv-x="1158" d="M471 1214v75q115 40 115 90q0 22 -48 44t-48 60q0 74 94 74q125 0 125 -124q0 -159 -238 -219z" />
<glyph unicode="&#x487;" horiz-adv-x="0" d="M-416 1525q9 137 75.5 201t206.5 64q85 0 246.5 -58t287.5 -58h16v-149h-43q-139 0 -293 58.5t-227 58.5q-50 0 -76 -21.5t-32 -67.5l-4 -28h-157z" />
<glyph unicode="&#x488;" horiz-adv-x="1984" d="M40 450q13 190 205 190t209 -190h-79q-6 86 -130 86q-128 0 -130 -86h-75zM215 -40q13 191 204 191q193 0 209 -191h-78q-7 86 -131 86q-128 0 -130 -86h-74zM215 927q13 191 204 191q193 0 209 -191h-78q-6 86 -131 86q-128 0 -130 -86h-74zM777 -313q14 191 204 191 q192 0 209 -191h-78q-8 87 -131 87q-127 0 -130 -87h-74zM777 1206q13 190 204 190q192 0 209 -190h-78q-7 87 -131 87q-127 0 -130 -87h-74zM1345 -40q13 191 204 191q192 0 209 -191h-78q-7 86 -131 86q-128 0 -130 -86h-74zM1345 927q13 191 204 191q192 0 209 -191h-78 q-6 86 -131 86q-128 0 -130 -86h-74zM1532 450q12 190 205 190q191 0 208 -190h-78q-7 86 -130 86q-129 0 -132 -86h-73z" />
<glyph unicode="&#x489;" horiz-adv-x="1918" d="M40 554v95q206 -49 343 -69v-136l-14 -11q-152 40 -329 121zM233 -54q172 107 291 194l96 -96l-2 -16q-137 -79 -317 -149zM318 1178l65 69q105 -168 195 -291l-96 -97l-16 2q-83 146 -148 317zM853 -377q49 205 68 343h136l11 -14q-40 -153 -120 -329h-95zM853 1132 q42 157 120 329h95q-49 -206 -68 -343h-137zM1298 998l2 15q147 84 318 149l68 -66q-172 -107 -291 -194zM1339 84l96 96l16 -2q80 -137 148 -316l-65 -69q-108 172 -195 291zM1536 502v136l13 11q157 -42 330 -121v-95q-206 49 -343 69z" />
<glyph unicode="&#x48a;" horiz-adv-x="1677" d="M56 0v107h84q103 0 103 130v967q0 123 -103 123h-84v106h693v-106h-87q-102 0 -102 -130v-707l524 672v35q0 130 -103 130h-86v106h693v-106h-85q-102 0 -102 -130v-971q0 -119 102 -119h144v-34l-124 -494h-215l178 421h-591v107h86q103 0 103 130v753l-524 -672v-81 q0 -130 102 -130h87v-107h-693zM375 1860h251q20 -202 191 -202t190 202h251q-19 -313 -441 -313q-423 0 -442 313z" />
<glyph unicode="&#x48b;" horiz-adv-x="1422" d="M34 0v107h24q143 0 143 130v602q0 130 -143 130h-24v107h608v-107h-4q-132 0 -132 -130v-427l375 411v16q0 130 -132 130h-4v107h607v-107h-23q-143 0 -143 -130v-602q0 -130 143 -130h64v-34l-125 -494h-214l176 421h-485v107h4q132 0 132 130v431l-375 -411v-20 q0 -130 132 -130h4v-107h-608zM251 1530h251q19 -203 191 -203q170 0 190 203h251q-20 -314 -441 -314q-423 0 -442 314z" />
<glyph unicode="&#x48c;" horiz-adv-x="1280" d="M56 0v107h84q103 0 103 132v921h-174v106h174v259h317v-259h299v-106h-299v-353h126q534 0 534 -401q0 -192 -140 -299t-404 -107h-620zM560 119h99q222 0 222 276q0 159 -56 227.5t-189 68.5h-76v-572z" />
<glyph unicode="&#x48d;" horiz-adv-x="1210" d="M26 925v107h175v261h305v-261h311v-107h-311v-313h193q248 0 354.5 -72.5t106.5 -223.5q0 -144 -118 -230t-333 -86h-675v107h22q145 0 145 128v690h-175zM506 117h151q99 0 141.5 46.5t42.5 157.5q0 175 -192 175h-143v-379z" />
<glyph unicode="&#x48e;" horiz-adv-x="1280" d="M56 0v107h84q103 0 103 130v967q0 123 -103 123h-84v106h616q548 0 548 -426q0 -315 -313 -419l110 -157l-88 -60l-132 189q-79 -12 -169 -12h-68v-322q0 -119 106 -119h123v-107h-733zM560 664h49q60 0 105 12l-98 143l89 60l103 -151q75 74 75 272q0 166 -57.5 240 t-187.5 74h-78v-650z" />
<glyph unicode="&#x48f;" horiz-adv-x="1294" d="M26 -375h24q143 0 143 130v1074q0 140 -135 140h-14v107h393l36 -157h9q97 177 307 177q411 0 411 -562q0 -443 -248 -534l92 -128l-88 -61l-117 166l-22 -1q-214 -20 -321 160h-14q16 -174 16 -243v-138q0 -130 142 -130h44v-107h-658v107zM498 534q0 -223 46.5 -316.5 t158.5 -93.5h15q9 0 17 2l-93 133l88 60l93 -135q68 95 68 348q0 414 -186 414q-110 0 -158.5 -94.5t-48.5 -317.5z" />
<glyph unicode="&#x490;" horiz-adv-x="1099" d="M56 0v107h84q23 0 41.5 4.5t32 18t21.5 39t8 68.5v960q0 43 -8 68.5t-21.5 39t-32 18t-41.5 4.5h-84v106h672q55 0 90.5 12.5t57 36t30.5 57.5t13 75l8 90h132l-11 -394h-486v-1082q0 -39 8 -63t22 -37t33 -17t39 -4h125v-107h-733z" />
<glyph unicode="&#x491;" horiz-adv-x="919" d="M34 0v107h24q22 0 47 4.5t46 18t35.5 39t14.5 68.5v602q0 43 -14.5 68.5t-35.5 39t-46 18t-47 4.5h-24v107h566q35 0 59 8t40.5 26.5t26 50t15.5 78.5l10 106h128v-403h-373v-705q0 -43 13 -68.5t32.5 -39t42.5 -18t44 -4.5h44v-107h-648z" />
<glyph unicode="&#x492;" horiz-adv-x="1185" d="M56 0v107h84q103 0 103 130v454h-187v106h187v400q0 130 -103 130h-84v106h1096l14 -393h-112l-24 96q-43 174 -193 174h-275v-513h285v-106h-285v-463q0 -121 102 -121h125v-107h-733z" />
<glyph unicode="&#x493;" horiz-adv-x="1019" d="M34 0v107h24q143 0 143 130v247h-167v106h167v249q0 130 -143 130h-24v107h945v-341h-138l-10 86q-10 88 -37.5 114t-102.5 26h-185v-371h239v-106h-239v-247q0 -130 132 -130h44v-107h-648z" />
<glyph unicode="&#x494;" horiz-adv-x="1443" d="M56 0v107h84q103 0 103 130v960q0 130 -103 130h-84v106h1096l14 -393h-112l-24 96q-43 174 -193 174h-275v-531q60 6 114 6q328 0 515.5 -168t187.5 -452q0 -300 -174 -483.5t-454 -183.5q-460 0 -460 243q0 70 55.5 112.5t143.5 42.5q43 -269 263 -269q291 0 291 540 q0 232 -102 362t-276 130q-48 0 -104 -4v-427q0 -121 102 -121h125v-107h-733z" />
<glyph unicode="&#x495;" horiz-adv-x="1234" d="M34 0v107h24q143 0 143 130v602q0 130 -143 130h-24v107h945v-301h-138l-10 60q-16 95 -44 110.5t-96 15.5h-185v-367q77 17 170 17q498 0 498 -525q0 -568 -530 -568q-168 0 -267.5 58.5t-99.5 148.5q0 153 198 153q0 -98 50 -168t126 -70q115 0 164.5 108.5t49.5 335.5 q0 400 -239 400q-60 0 -120 -11v-236q0 -130 132 -130h44v-107h-648z" />
<glyph unicode="&#x496;" horiz-adv-x="2171" d="M0 0v107h12q113 0 212 180l163 291q105 188 277 188q-67 42 -167.5 233.5t-141.5 233t-96 41.5q-87 0 -112 -104q-99 22 -99 149t159 127q107 0 182.5 -60t186 -284.5t170.5 -274.5t160 -50v427q0 123 -103 123h-85v106h653v-106h-84q-105 0 -105 -130v-420 q100 0 159.5 49.5t170.5 274.5t186.5 285t182.5 60q158 0 158 -127t-99 -149q-22 104 -111 104q-52 0 -93.5 -39t-143 -233t-169.5 -236q172 0 277 -188l163 -291q101 -180 213 -180h46v-528h-133q0 193 -34.5 277.5t-155.5 137t-183 165.5l-207 379q-44 80 -91 102t-136 22 v-425q0 -130 105 -130h84v-107h-653v107h85q103 0 103 119v436q-92 0 -138 -23t-90 -101l-190 -347q-65 -117 -142 -154t-204 -37h-142zM2087 0z" />
<glyph unicode="&#x497;" horiz-adv-x="1912" d="M0 0v107h6q71 0 110.5 26t88.5 108l111 188q92 156 246 175q-56 44 -155.5 191t-157.5 147q-81 0 -100 -103q-119 15 -119 126q0 123 173 123q100 0 159.5 -46t160.5 -204.5t136.5 -189t123.5 -30.5v221q0 130 -143 130h-4v107h568v-107h-4q-132 0 -132 -130v-221 q89 0 124 31t135 188t160 204t160 47q174 0 174 -123q0 -110 -119 -126q-18 103 -101 103q-57 0 -157.5 -148.5t-154.5 -189.5q156 -19 247 -175l109 -188q39 -66 78.5 -100t120.5 -34h29v-528h-133q0 195 -35 279t-155.5 136t-182.5 165l-120 222q-39 71 -72 99t-107 28 v-271q0 -130 132 -130h4v-107h-568v107h4q143 0 143 130v271q-66 0 -101 -23.5t-78 -103.5l-102 -190q-55 -102 -132.5 -146.5t-285.5 -44.5h-84zM1850 0z" />
<glyph unicode="&#x498;" horiz-adv-x="1238" d="M73 277q0 80 52.5 127.5t159.5 47.5q9 -79 30.5 -142.5t57.5 -108.5t87.5 -69.5t119.5 -24.5q130 0 203.5 70t73.5 221q0 67 -20 119t-62.5 88t-108.5 54.5t-158 18.5h-185v125h181q152 0 228 72.5t76 220.5q0 56 -11.5 99.5t-37.5 73.5t-66.5 46t-98.5 16 q-64 0 -106 -25.5t-67 -68.5t-35.5 -99.5t-10.5 -118.5q-55 0 -103 7t-83 25.5t-55.5 51t-20.5 83.5q0 54 33 102.5t96 85t152.5 58t201.5 21.5q114 0 210 -19.5t165 -60.5t107 -104.5t38 -150.5q0 -78 -26 -139.5t-70 -107t-103 -75.5t-126 -45q56 -6 121 -25t122 -58.5 t94.5 -102t37.5 -155.5q0 -117 -47 -199t-128 -134t-188.5 -76t-228.5 -24q-132 0 -226.5 25t-156 67t-90 96.5t-28.5 111.5zM432 -355q0 29 14 52q44 -16 82 -16q85 0 85 86q0 109 -137 233h146q180 -103 180 -247q0 -190 -224 -190q-146 0 -146 82z" />
<glyph unicode="&#x499;" horiz-adv-x="1061" d="M69 211q0 73 46.5 114t151.5 41q0 -58 14.5 -108t42.5 -87t69 -58t93 -21q49 0 84.5 15.5t58 43.5t33 66t10.5 82q0 97 -55.5 147t-176.5 50h-135v128h137q56 0 93.5 15.5t60.5 42t32.5 60.5t9.5 72q0 37 -7.5 68t-23.5 54t-42.5 36.5t-64.5 13.5q-46 0 -77 -20 t-50 -53.5t-27.5 -76t-8.5 -87.5q-62 0 -103 10t-65 29t-34.5 45t-10.5 60q0 35 19.5 72t64 66.5t118.5 49t184 19.5q103 0 184.5 -17.5t137.5 -51t85 -83t29 -113.5q0 -48 -16.5 -90.5t-46 -77t-73 -60t-96.5 -39.5v-10q129 -24 198 -83.5t69 -167.5q0 -75 -32 -134.5 t-94 -102t-154.5 -65.5t-214.5 -23q-118 0 -197.5 18.5t-128.5 49.5t-70 72.5t-21 88.5zM350 -355q0 29 14 52q44 -16 82 -16q85 0 85 86q0 109 -137 233h146q180 -103 180 -247q0 -190 -224 -190q-146 0 -146 82z" />
<glyph unicode="&#x49a;" horiz-adv-x="1517" d="M56 0v107h84q103 0 103 119v978q0 123 -103 123h-84v106h672v-106h-84q-104 0 -104 -130v-420q96 0 154 44t172.5 274.5t190 290.5t182.5 60q157 0 157 -127t-98 -149q-22 104 -112 104q-52 0 -93 -39t-142.5 -232.5t-169.5 -236.5q172 0 276 -188l163 -291 q101 -180 213 -180h34v-528h-132q0 210 -41.5 290t-158.5 129.5t-179 160.5l-209 379q-46 83 -85 103.5t-122 20.5v-425q0 -130 104 -130h84v-107h-672z" />
<glyph unicode="&#x49b;" horiz-adv-x="1330" d="M34 0v107h24q143 0 143 130v602q0 130 -143 130h-24v107h608v-107h-4q-132 0 -132 -130v-221q84 0 120 33t134 187t161 202t165 48q172 0 172 -123q0 -111 -118 -126q-19 103 -100 103q-58 0 -157.5 -147t-156.5 -191q156 -19 247 -175l111 -188q50 -84 89.5 -109 t109.5 -25h8v-528h-133q0 195 -35 279t-155.5 136t-182.5 165l-121 222q-40 74 -68.5 100.5t-89.5 26.5v-271q0 -130 132 -130h4v-107h-608z" />
<glyph unicode="&#x49c;" horiz-adv-x="1515" d="M56 0v107h84q103 0 103 119v978q0 123 -103 123h-84v106h672v-106h-84q-104 0 -104 -130v-420h66v315h120v-295q78 31 196.5 271t195 309t190.5 69q159 0 159 -127t-98 -149q-24 104 -113 104q-52 0 -93 -39t-143 -233t-169 -236q172 0 277 -188l163 -291 q101 -180 212 -180h12v-107h-142q-262 0 -366 191l-190 347q-48 88 -91 104v-293h-120v313h-66v-425q0 -130 104 -130h84v-107h-672z" />
<glyph unicode="&#x49d;" horiz-adv-x="1348" d="M34 0v107h24q143 0 143 130v602q0 130 -143 130h-24v107h608v-107h-4q-132 0 -132 -130v-221h66v235h114v-202l13 11q22 21 120 174.5t162 202.5t165 49q173 0 173 -123q0 -110 -119 -126q-18 103 -100 103q-58 0 -158.5 -148.5t-154.5 -189.5q156 -19 247 -175l110 -188 q38 -66 77.5 -100t121.5 -34h5v-107h-84q-211 0 -296 44.5t-141 146.5l-103 190q-29 55 -38 65v-171h-114v231l-31 2h-35v-271q0 -130 132 -130h4v-107h-608z" />
<glyph unicode="&#x49e;" horiz-adv-x="1445" d="M56 0v107h84q103 0 103 119v864h-187v107h187v7q0 123 -103 123h-84v106h672v-106h-84q-104 0 -104 -130h188v-107h-188v-313q96 0 154 44t172.5 274.5t190 290.5t182.5 60q157 0 157 -127t-98 -149q-22 104 -112 104q-52 0 -93 -39t-142.5 -232.5t-169.5 -236.5 q172 0 276 -188l163 -291q101 -180 213 -180h13v-107h-144q-261 0 -365 191l-190 347q-45 83 -84.5 103.5t-122.5 20.5v-425q0 -130 104 -130h84v-107h-672z" />
<glyph unicode="&#x49f;" horiz-adv-x="1288" d="M26 1160v106h175v29q0 122 -143 122h-24v106h472v-257h311v-106h-311v-542q84 0 120 33t134 187t161 202t165 48q172 0 172 -123q0 -111 -118 -126q-19 103 -100 103q-58 0 -157.5 -147t-156.5 -191q156 -19 247 -175l111 -188q50 -84 89.5 -109t109.5 -25h6v-107h-85 q-213 0 -298 45t-140 146l-102 190q-36 68 -65 97.5t-93 29.5v-271q0 -130 132 -130h4v-107h-608v107h24q143 0 143 130v923h-175z" />
<glyph unicode="&#x4a0;" horiz-adv-x="1666" d="M20 1040l14 393h916v-106h-85q-105 0 -105 -130v-420q100 0 160 49.5t170.5 274.5t186 285t182.5 60q159 0 159 -127t-99 -149q-23 104 -112 104q-52 0 -93 -39t-142 -231t-170 -238q172 0 277 -188l162 -291q100 -180 213 -180h12v-107h-143q-138 0 -222.5 42 t-142.5 149l-191 347q-44 79 -81 101.5t-126 22.5v-425q0 -130 105 -130h85v-107h-673v107h85q102 0 102 119v1084h-115q-148 0 -192 -174l-25 -96h-112z" />
<glyph unicode="&#x4a1;" horiz-adv-x="1543" d="M28 735v341h869v-107h-4q-133 0 -133 -130v-221q85 0 121 33t134 187t161 202t165 48q172 0 172 -123q0 -111 -118 -126q-19 103 -100 103q-58 0 -157.5 -147t-156.5 -191q155 -19 247 -175l111 -188q41 -69 80 -101.5t119 -32.5h6v-107h-85q-213 0 -298 45t-140 146 l-102 190q-41 77 -69.5 102t-89.5 25v-271q0 -130 133 -130h4v-107h-608v107h24q143 0 143 130v724h-138q-75 0 -102.5 -24.5t-39.5 -115.5l-9 -86h-139z" />
<glyph unicode="&#x4a2;" horiz-adv-x="1643" d="M56 0v107h84q103 0 103 130v967q0 123 -103 123h-84v106h693v-106h-87q-102 0 -102 -130v-389h524v389q0 130 -103 130h-86v106h693v-106h-85q-102 0 -102 -130v-971q0 -119 102 -119h90v-528h-132q0 222 -58.5 321.5t-198.5 99.5h-309v107h86q103 0 103 130v449h-524 v-449q0 -130 102 -130h87v-107h-693z" />
<glyph unicode="&#x4a3;" horiz-adv-x="1386" d="M34 0v107h24q143 0 143 130v602q0 130 -143 130h-24v107h608v-107h-4q-132 0 -132 -130v-228h375v228q0 130 -132 130h-4v107h607v-107h-23q-143 0 -143 -130v-602q0 -130 143 -130h23v-528h-138l-10 146q-8 126 -59 200.5t-130 74.5h-270v107h4q132 0 132 130v259h-375 v-259q0 -130 132 -130h4v-107h-608z" />
<glyph unicode="&#x4a4;" horiz-adv-x="1864" d="M56 0v107h84q103 0 103 130v967q0 123 -103 123h-84v106h693v-106h-87q-102 0 -102 -130v-389h524v389q0 130 -103 130h-86v106h936l13 -393h-112l-24 96q-43 174 -193 174h-114v-1084q0 -119 102 -119h85v-107h-693v107h86q103 0 103 130v449h-524v-449q0 -130 102 -130 h87v-107h-693zM1643 0z" />
<glyph unicode="&#x4a5;" horiz-adv-x="1641" d="M34 0v107h24q143 0 143 130v602q0 130 -143 130h-24v107h608v-107h-4q-132 0 -132 -130v-228h375v228q0 130 -132 130h-4v107h869v-341h-139l-10 86q-10 88 -37.5 114t-102.5 26h-139v-724q0 -130 143 -130h23v-107h-607v107h4q132 0 132 130v259h-375v-259 q0 -130 132 -130h4v-107h-608zM1387 4z" />
<glyph unicode="&#x4a6;" horiz-adv-x="2261" d="M56 0v107h84q103 0 103 130v967q0 123 -103 123h-84v106h1511v-106h-84q-102 0 -102 -130v-418q61 6 114 6q329 0 516 -168t187 -452q0 -301 -174.5 -484t-453.5 -183q-460 0 -460 243q0 69 54.5 112t143.5 43q44 -269 264 -269q291 0 291 540q0 232 -102 362t-275 130 q-48 0 -105 -4v-429q0 -119 102 -119h84v-107h-692v107h86q102 0 102 130v1073h-503v-1073q0 -130 102 -130h87v-107h-693z" />
<glyph unicode="&#x4a7;" horiz-adv-x="1874" d="M34 0v107h24q143 0 143 130v610q0 122 -143 122h-24v107h1278v-107h-23q-143 0 -143 -122v-253q79 17 170 17q498 0 498 -525q0 -568 -529 -568q-168 0 -268 58.5t-100 148.5q0 153 199 153q0 -98 49 -168t126 -70q115 0 164.5 108.5t49.5 335.5q0 400 -239 400 q-60 0 -120 -11v-236q0 -130 143 -130h23v-107h-607v107h4q132 0 132 130v724h-335v-724q0 -130 132 -130h4v-107h-608z" />
<glyph unicode="&#x4a8;" horiz-adv-x="1702" d="M111 720q0 357 193.5 546t564.5 189q285 0 285 -97q0 -49 -44 -90q-100 61 -223 61q-227 0 -334 -149t-107 -462q0 -317 99.5 -464t309.5 -147q37 0 70 4q-228 223 -228 550q0 237 126.5 374t328.5 137q201 0 323 -141t122 -372q0 -386 -306 -567q80 -48 162 -48 q95 0 142 60q37 -25 37 -72q0 -114 -209 -114q-193 0 -353 86q-115 -24 -233 -24q-356 0 -541 193t-185 547zM1030 659q0 -296 118 -454q114 125 114 463q0 378 -111 378q-121 0 -121 -387z" />
<glyph unicode="&#x4a9;" horiz-adv-x="1434" d="M94 540q0 263 169.5 409.5t462.5 146.5q167 0 167 -87q0 -48 -30 -72q-60 32 -143 32q-177 0 -257 -104t-80 -325q0 -210 84.5 -323t239.5 -113h34q-193 154 -193 386q0 170 103 265.5t278 95.5q173 0 271 -94.5t98 -262.5q0 -268 -198 -406q66 -23 141 -23t111 33 q33 -29 33 -70q0 -88 -161 -88q-144 0 -309 66q-106 -26 -214 -26q-287 0 -447 146t-160 414zM837 492q0 -212 98 -325q74 90 74 327q0 253 -84 253q-88 0 -88 -255z" />
<glyph unicode="&#x4aa;" horiz-adv-x="1340" d="M111 718q0 163 44 298.5t130.5 232.5t216.5 150.5t301 53.5q115 0 201 -18t142.5 -49.5t85 -74t28.5 -91.5q0 -37 -16 -69t-48 -55.5t-79 -36.5t-108 -13q0 50 -10.5 99.5t-36.5 89.5t-68 65t-105 25q-95 0 -160.5 -40t-105.5 -117.5t-57.5 -191t-17.5 -258.5 t21.5 -253.5t69.5 -180.5t125 -108t189 -36q73 0 130.5 17t102.5 44.5t79 62t59 67.5q16 -12 25 -36.5t9 -49.5q0 -42 -22.5 -88.5t-75.5 -86t-140 -65t-215 -25.5q-175 0 -305.5 53t-216.5 150t-129 233.5t-43 301.5zM582 -355q0 29 14 52q44 -16 82 -16q85 0 85 86 q0 109 -137 233h146q180 -103 180 -247q0 -190 -224 -190q-146 0 -146 82z" />
<glyph unicode="&#x4ab;" horiz-adv-x="1057" d="M94 534q0 163 38 271.5t104 174.5t156 94t194 28q97 0 171.5 -16.5t124.5 -45t76 -67t26 -82.5q0 -33 -11.5 -63.5t-40 -54t-79 -38.5t-129.5 -15q0 52 -6.5 99t-21 82.5t-39.5 56.5t-63 21q-44 0 -79 -21t-60 -72t-38 -136.5t-13 -213.5q0 -204 55.5 -305t182.5 -101 q52 0 97.5 12.5t82.5 34.5t65 52t46 64q24 -15 36 -40t12 -52q0 -38 -22.5 -77.5t-70 -71t-121 -52t-175.5 -20.5q-111 0 -202.5 28.5t-157 94.5t-102 171.5t-36.5 259.5zM405 -355q0 29 14 52q44 -16 82 -16q85 0 85 86q0 109 -137 233h146q180 -103 180 -247 q0 -190 -224 -190q-146 0 -146 82z" />
<glyph unicode="&#x4ac;" horiz-adv-x="1310" d="M20 1044l10 389h1251l10 -389h-135l-14 124q-17 142 -167 142h-161v-1073q0 -130 103 -130h90v-528h-132q0 222 -58.5 321.5t-198.5 99.5h-309v107h84q103 0 103 130v1073h-161q-150 0 -166 -142l-14 -124h-135z" />
<glyph unicode="&#x4ad;" horiz-adv-x="1137" d="M40 733l12 343h1034l12 -343h-139l-7 66q-11 88 -33.5 125t-81.5 37h-115v-720q0 -134 135 -134h32v-528h-138l-10 146q-9 126 -60 200.5t-129 74.5h-301v107h22q144 0 144 134v720h-116q-55 0 -79 -34t-36 -128l-8 -66h-138z" />
<glyph unicode="&#x4ae;" horiz-adv-x="1390" d="M0 1327v106h672v-106h-34q-61 0 -91 -24.5t-30 -65.5q0 -26 9.5 -55.5t21.5 -55.5l149 -295q31 -64 51 -113t37 -96q21 53 47.5 115.5t60.5 129.5l116 240q22 45 28.5 74.5t6.5 46.5q0 52 -33 75.5t-100 23.5h-46v106h526v-106h-39q-25 0 -43 -7t-34.5 -24.5t-33.5 -48 t-41 -77.5l-341 -664v-275q0 -44 9 -68.5t24 -37t35.5 -15.5t43.5 -3h99v-107h-741v107h94q25 0 46 3t36.5 15t25 36.5t9.5 66.5v280l-371 712q-15 30 -28.5 50.5t-29 32.5t-35.5 18t-50 6h-26z" />
<glyph unicode="&#x4af;" horiz-adv-x="1216" d="M0 969v107h622v-107h-84q-67 0 -67 -63q0 -36 19 -89l134 -417q52 -163 71 -260q13 66 58 215l136 446q22 73 22 110q0 58 -78 58h-58v107h441v-107h-40q-43 0 -69.5 -26.5t-60.5 -119.5l-271 -815v-251q0 -130 142 -130h25v-106h-639v106h24q142 0 142 130v247l-308 869 q-35 96 -161 96z" />
<glyph unicode="&#x4b0;" horiz-adv-x="1390" d="M0 1327v106h672v-106h-34q-121 0 -121 -90q0 -45 31 -111l149 -295q48 -95 88 -209q50 127 108 245l116 240q35 71 35 121q0 99 -133 99h-46v106h526v-106h-39q-42 0 -68 -20t-84 -137l-341 -664v-12h285v-107h-285v-156q0 -74 26 -99t86 -25h99v-107h-741v107h94 q62 0 89.5 24t27.5 97v159h-285v107h285v14l-371 712q-34 64 -60.5 85.5t-82.5 21.5h-26z" />
<glyph unicode="&#x4b1;" horiz-adv-x="1216" d="M0 969v107h622v-107h-84q-67 0 -67 -63q0 -36 19 -89l134 -417q52 -163 71 -260q13 66 58 215l136 446q22 73 22 110q0 58 -78 58h-58v107h441v-107h-40q-43 0 -69.5 -26.5t-60.5 -119.5l-271 -815v-8h259v-107h-259v-136q0 -130 142 -130h25v-106h-639v106h24 q142 0 142 130v136h-258v107h258v4l-308 869q-35 96 -161 96z" />
<glyph unicode="&#x4b2;" horiz-adv-x="1509" d="M20 0v107h12q103 0 209 140l351 458l-331 515q-69 107 -173 107h-26v106h664v-106h-6q-118 0 -118 -59q0 -37 53 -117l166 -249l175 244q54 75 54 122q0 59 -113 59h-6v106h470v-106h-18q-95 0 -199 -145l-291 -397l369 -572q69 -106 161 -106h46v-528h-132 q0 222 -59 321.5t-198 99.5h-293v107h10q120 0 120 65q0 43 -66 139l-185 279l-216 -293q-52 -71 -52 -123q0 -67 121 -67h7v-107h-506z" />
<glyph unicode="&#x4b3;" horiz-adv-x="1296" d="M23 0v107h17q68 0 111 24.5t108 103.5l253 305l-253 323q-83 106 -173 106h-26v107h631v-107h-7q-114 0 -114 -58q0 -35 46 -92l112 -137l95 115q50 61 50 112q0 60 -103 60h-6v107h464v-107h-18q-58 0 -96.5 -23.5t-106.5 -104.5l-206 -253l295 -375q83 -106 160 -106 h33v-528h-138l-11 146q-21 275 -188 275h-308v107h11q120 0 120 65q0 47 -76 139l-115 139l-140 -175q-42 -53 -42 -101q0 -67 124 -67h6v-107h-509z" />
<glyph unicode="&#x4b4;" horiz-adv-x="1991" d="M20 1044l10 389h1110l11 -389h-136l-13 124q-16 142 -167 142h-90v-1188h674v1075q0 130 -103 130h-46v106h653v-106h-85q-101 0 -101 -130v-971q0 -119 101 -119h91v-528h-133q0 222 -58.5 321.5t-197.5 99.5h-1301v107h84q102 0 102 130v1073h-90q-150 0 -166 -142 l-14 -124h-135z" />
<glyph unicode="&#x4b5;" horiz-adv-x="1744" d="M40 733l12 343h913l12 -343h-138l-8 66q-11 88 -33.5 125t-81.5 37h-54v-846h556v732q0 122 -113 122h-3v107h578v-107h-24q-143 0 -143 -130v-619q0 -108 145 -113h46v-528h-139l-10 146q-18 275 -188 275h-1176v107h22q145 0 145 134v720h-57q-55 0 -79 -34t-36 -128 l-8 -66h-138z" />
<glyph unicode="&#x4b6;" horiz-adv-x="1565" d="M38 1327v106h672v-106h-84q-102 0 -102 -130v-245q0 -148 50.5 -214t185.5 -66q120 0 244 48v477q0 130 -102 130h-85v106h692v-106h-84q-102 0 -102 -130v-971q0 -119 102 -119h90v-528h-132q0 222 -59 321.5t-198 99.5h-309v107h85q102 0 102 130v345 q-167 -70 -358 -70q-232 0 -336.5 105.5t-104.5 328.5v251q0 130 -103 130h-64z" />
<glyph unicode="&#x4b7;" horiz-adv-x="1367" d="M32 969v107h590v-107h-4q-132 0 -132 -134v-178q0 -133 128 -133q105 0 247 85v224q0 136 -133 136h-4v107h609v-107h-23q-144 0 -144 -134v-594q0 -134 144 -134h46v-528h-138l-10 146q-18 275 -189 275h-349v107h35q156 0 156 134v255q-213 -134 -392 -134 q-134 0 -211.5 72t-77.5 192v207q0 136 -142 136h-6z" />
<glyph unicode="&#x4b8;" horiz-adv-x="1565" d="M38 1327v106h672v-106h-84q-102 0 -102 -130v-245q0 -262 177 -278v322h120v-322q87 9 183 46v477q0 130 -102 130h-85v106h692v-106h-84q-102 0 -102 -130v-960q0 -130 102 -130h84v-107h-692v107h85q102 0 102 130v345q-90 -38 -183 -56v-317h-120v303h-55 q-232 0 -336.5 105.5t-104.5 328.5v251q0 130 -103 130h-64z" />
<glyph unicode="&#x4b9;" horiz-adv-x="1367" d="M32 969v107h590v-107h-4q-132 0 -132 -134v-178q0 -133 128 -133h2v204h114v-184q48 18 131 65v224q0 136 -133 136h-4v107h609v-107h-23q-144 0 -144 -134v-594q0 -134 144 -134h23v-107h-663v107h35q156 0 156 134v255q-81 -50 -131 -75v-202h-114v160 q-68 -17 -147 -17q-134 0 -211.5 72t-77.5 192v207q0 136 -142 136h-6z" />
<glyph unicode="&#x4ba;" horiz-adv-x="1565" d="M56 0v107h84q103 0 103 130v960q0 130 -103 130h-84v106h693v-106h-85q-102 0 -102 -130v-346q166 70 357 70q235 0 338.5 -105.5t103.5 -327.5v-251q0 -130 102 -130h65v-107h-673v107h84q103 0 103 130v245q0 149 -51.5 213.5t-185.5 64.5q-128 0 -243 -48v-475 q0 -130 102 -130h85v-107h-693z" />
<glyph unicode="&#x4bb;" horiz-adv-x="1367" d="M34 0v107h22q145 0 145 134v594q0 134 -145 134h-22v107h663v-107h-35q-156 0 -156 -134v-255q212 134 391 134q133 0 211 -71.5t78 -192.5v-207q0 -136 143 -136h6v-107h-590v107h4q132 0 132 134v178q0 133 -128 133q-105 0 -247 -85v-224q0 -136 132 -136h4v-107h-608 z" />
<glyph unicode="&#x4bc;" horiz-adv-x="1717" d="M20 887q0 157 137 157q56 0 86 -23q-23 -43 -23 -102q0 -124 131 -124h20q22 311 198 485.5t448 174.5q590 0 590 -725v-58h-906q19 -532 417 -532q222 0 424 155q15 -27 15 -60q0 -100 -156.5 -177.5t-343.5 -77.5q-318 0 -496 178.5t-192 513.5h-18q-155 0 -243 56.5 t-88 158.5zM705 795h567q-7 530 -268 530q-131 0 -209.5 -137t-89.5 -393z" />
<glyph unicode="&#x4bd;" horiz-adv-x="1413" d="M20 737q0 156 137 156q58 0 86 -22q-23 -45 -23 -103q0 -124 131 -124h17q49 458 491 458q223 0 346.5 -125t123.5 -359v-103h-659q11 -385 269 -385q197 0 283 163q55 -29 55 -98q0 -96 -106 -155.5t-290 -59.5q-507 0 -519 535h-11q-153 0 -242 59t-89 163zM268 0z M674 644h347q0 327 -158 327q-179 0 -189 -327z" />
<glyph unicode="&#x4be;" horiz-adv-x="1717" d="M20 887q0 157 137 157q56 0 86 -23q-23 -43 -23 -102q0 -124 131 -124h20q22 311 198 485.5t448 174.5q590 0 590 -725v-58h-906q19 -532 417 -532q222 0 424 155q15 -27 15 -60q0 -103 -170 -182t-218.5 -160.5t-48.5 -313.5h-132q0 208 -49.5 298t-216.5 169 q-336 162 -353 626h-18q-155 0 -243 56.5t-88 158.5zM705 795h567q-7 530 -268 530q-131 0 -209.5 -137t-89.5 -393z" />
<glyph unicode="&#x4bf;" horiz-adv-x="1413" d="M20 737q0 156 137 156q58 0 86 -22q-23 -45 -23 -103q0 -124 131 -124h17q49 458 491 458q223 0 346.5 -125t123.5 -359v-103h-659q11 -385 269 -385q197 0 283 163q55 -29 55 -98q0 -110 -123.5 -169t-160.5 -128.5t-37 -318.5h-133q0 221 -42 305t-149 139 q-265 133 -270 492h-11q-153 0 -242 59t-89 163zM268 0zM674 644h347q0 327 -158 327q-179 0 -189 -327z" />
<glyph unicode="&#x4c0;" horiz-adv-x="804" d="M56 0v107h84q23 0 41.5 4.5t32 18t21.5 39t8 68.5v959q0 43 -8 68.5t-21.5 39t-32 18t-41.5 4.5h-84v107h693v-107h-85q-21 0 -40 -4.5t-33 -18t-21.5 -39t-7.5 -68.5v-959q0 -43 7.5 -68.5t21.5 -39t33 -18t40 -4.5h85v-107h-693z" />
<glyph unicode="&#x4c1;" horiz-adv-x="2087" d="M0 0v107h12q31 0 58.5 10t52.5 32t50 56t51 82l163 291q24 42 53 77t64.5 59.5t75.5 38t84 13.5q-24 18 -45 41.5t-44 56.5t-48.5 79t-59.5 109q-31 60 -56 102.5t-48.5 69t-48 38.5t-55.5 12q-26 0 -45 -9t-32 -23t-21.5 -32.5t-13.5 -39.5q-46 9 -72.5 48t-26.5 101 q0 28 9 51t28 40t49.5 26.5t72.5 9.5q61 0 109 -18.5t89.5 -57.5t80 -101.5t82.5 -150.5q54 -111 98.5 -183t72.5 -100q16 -17 31.5 -28t34.5 -17.5t43 -9.5t58 -3v427q0 41 -8 65t-22.5 36.5t-33 17t-39.5 4.5h-85v106h653v-106h-84q-22 0 -41.5 -4.5t-33 -18t-22 -39 t-8.5 -68.5v-420q33 0 57 3t43 9.5t35 17.5t31 28q28 28 72.5 100t98.5 183q44 88 83 150.5t80.5 101.5t89.5 57.5t109 18.5q42 0 72.5 -9.5t49.5 -26.5t27.5 -40t8.5 -51q0 -62 -26.5 -101t-72.5 -48q-4 21 -12.5 39.5t-22 32.5t-32.5 23t-44 9q-31 0 -56 -12t-48.5 -38.5 t-48.5 -69t-56 -102.5q-33 -63 -58.5 -109t-48.5 -79t-44.5 -56.5t-45.5 -41.5q44 0 84 -13.5t75.5 -38t65 -59.5t52.5 -77l163 -291q26 -48 51 -82t50 -56t52.5 -32t59.5 -10h11v-107h-142q-77 0 -131.5 12t-93 37t-67 60t-54.5 82l-190 347q-24 44 -47.5 68.5t-50.5 37.5 t-58.5 15.5t-70.5 2.5v-425q0 -43 8.5 -68.5t22 -39t33 -18t41.5 -4.5h84v-107h-653v107h85q21 0 39.5 4t33 16t22.5 36t8 63v436q-40 0 -71 -2.5t-58 -15.5t-50.5 -37.5t-48.5 -68.5l-190 -347q-25 -47 -53.5 -82t-67.5 -60t-93 -37t-132 -12h-142zM601 1861h251 q11 -105 58 -154t133 -49q87 0 133.5 49t56.5 154h251q-6 -61 -25 -118t-66 -100.5t-130.5 -69.5t-219.5 -26q-135 0 -218.5 26t-131.5 69.5t-67 100.5t-25 118z" />
<glyph unicode="&#x4c2;" horiz-adv-x="1850" d="M0 0v107h6q34 0 60 5.5t49 20t44 41t46 67.5l111 188q26 45 55.5 76.5t61 52t64 31.5t65.5 15q-17 13 -32.5 29.5t-33.5 38t-38.5 50.5t-45.5 67q-28 40 -50 69t-41 47.5t-36.5 27.5t-35.5 9q-44 0 -68 -28.5t-32 -74.5q-25 2 -46.5 11.5t-37.5 26t-25.5 39t-9.5 49.5 q0 24 8.5 46t28.5 39t53 27.5t83 10.5q60 0 102.5 -16.5t76.5 -45.5t63 -71.5t63 -95.5q50 -77 81 -124.5t55 -72.5q22 -22 52.5 -33t86.5 -11v221q0 43 -14 68.5t-35.5 39t-46.5 18t-47 4.5h-4v107h568v-107h-4q-20 0 -43 -4.5t-43 -18t-33 -39t-13 -68.5v-221 q55 0 85.5 11t52.5 33q25 25 56 72.5t81 124.5q33 53 62.5 95.5t63.5 71.5t77 45.5t101 16.5q50 0 83.5 -10.5t53.5 -27.5t28.5 -39t8.5 -46q0 -27 -10 -49.5t-26 -39t-37.5 -26t-45.5 -11.5q-8 46 -32.5 74.5t-68.5 28.5q-17 0 -35 -9t-37 -27.5t-41 -47.5t-49 -69 q-26 -38 -46 -67t-37.5 -50.5t-34 -38t-32.5 -29.5q32 -4 65 -15t64 -31.5t61 -52t57 -76.5l109 -188q25 -41 46.5 -67.5t44 -41t49 -20t59.5 -5.5h6v-107h-84q-82 0 -145.5 6.5t-112.5 26.5t-87 57.5t-73 100.5l-101 190q-22 41 -41 65.5t-39 38.5t-43.5 18.5t-55.5 4.5 v-271q0 -43 13 -68.5t33 -39t43 -18t43 -4.5h4v-107h-568v107h4q22 0 47 4.5t46.5 18t35.5 39t14 68.5v271q-31 0 -55 -4.5t-44.5 -18.5t-39 -38.5t-40.5 -65.5l-102 -190q-34 -63 -72.5 -100.5t-87.5 -57.5t-112 -26.5t-146 -6.5h-84zM483 1530h251q11 -105 58 -154 t133 -49q87 0 133.5 49t56.5 154h251q-6 -61 -25 -118t-66 -100.5t-130.5 -69.5t-219.5 -26q-135 0 -218.5 26t-131.5 69.5t-67 100.5t-25 118z" />
<glyph unicode="&#x4c3;" horiz-adv-x="1461" d="M56 0v107h84q103 0 103 119v978q0 123 -103 123h-84v106h672v-106h-84q-104 0 -104 -130v-420q96 0 154 44t172.5 274.5t190 290.5t182.5 60q157 0 157 -127t-98 -149q-22 104 -112 104q-52 0 -93 -39t-135 -222t-165 -238q274 -30 429 -198t155 -412q0 -300 -174 -483.5 t-454 -183.5q-460 0 -460 243q0 70 55.5 112.5t143.5 42.5q43 -269 263 -269q291 0 291 540q0 233 -108 362.5t-290 129.5q-47 0 -104 -4v-418q0 -130 104 -130h84v-107h-672z" />
<glyph unicode="&#x4c4;" horiz-adv-x="1324" d="M34 0v107h24q143 0 143 130v602q0 130 -143 130h-24v107h608v-107h-4q-132 0 -132 -130v-221q84 0 120 33t138.5 193.5t167.5 202t142 41.5q173 0 173 -123q0 -111 -119 -126q-19 103 -100 103q-46 0 -137.5 -135t-133.5 -175q236 -18 366.5 -157t130.5 -379 q0 -279 -160 -428.5t-430 -149.5q-167 0 -267 58.5t-100 148.5q0 153 199 153q0 -98 49.5 -168t124.5 -70q125 0 200.5 117.5t75.5 336.5q0 191 -83.5 302.5t-216.5 111.5q-84 0 -140 -10v-261q0 -130 132 -130h4v-107h-608z" />
<glyph unicode="&#x4c5;" horiz-adv-x="1493" d="M0 136q0 58 29.5 96t68.5 38q0 -94 88 -94q81 0 143.5 96t114.5 452.5t52 522.5q0 80 -161 80h-30v106h1098v-106h-84q-103 0 -103 -130v-971q0 -119 103 -119h144v-34l-124 -494h-215l176 421h-590v107h87q103 0 103 130v1090h-262q-14 -323 -68.5 -679t-142 -509 t-266.5 -153q-161 0 -161 150zM1459 0z" />
<glyph unicode="&#x4c6;" horiz-adv-x="1363" d="M0 126q0 59 33.5 95t77.5 36q0 -88 84 -88q65 0 112.5 63t101 286.5t53.5 326.5q0 124 -157 124h-26v107h1014v-107h-25q-142 0 -142 -130v-602q0 -130 142 -130h65v-34l-125 -494h-214l176 421h-506v107h24q133 0 133 130v724h-227q-34 -329 -98.5 -576t-137.5 -323 t-189 -76q-169 0 -169 140zM1327 0z" />
<glyph unicode="&#x4c7;" horiz-adv-x="1643" d="M56 0v107h84q103 0 103 130v967q0 123 -103 123h-84v106h693v-106h-87q-102 0 -102 -130v-389h524v389q0 130 -103 130h-86v106h693v-106h-85q-102 0 -102 -130v-1028q0 -671 -626 -671q-195 0 -319.5 60t-124.5 183q0 139 179 155q54 -273 262 -273q312 0 312 544v519 h-524v-449q0 -130 102 -130h87v-107h-693z" />
<glyph unicode="&#x4c8;" horiz-adv-x="1386" d="M34 0v107h24q143 0 143 130v602q0 130 -143 130h-24v107h608v-107h-4q-132 0 -132 -130v-228h375v228q0 130 -132 130h-4v107h607v-107h-23q-143 0 -143 -130v-791q0 -281 -112.5 -415.5t-372.5 -134.5q-159 0 -258.5 53.5t-99.5 155.5q0 121 167 134q30 -218 178 -218 q110 0 151.5 99.5t41.5 323.5v450h-375v-259q0 -130 132 -130h4v-107h-608z" />
<glyph unicode="&#x4c9;" horiz-adv-x="1643" d="M56 0v107h84q103 0 103 130v967q0 123 -103 123h-84v106h693v-106h-87q-102 0 -102 -130v-389h524v389q0 130 -103 130h-86v106h693v-106h-85q-102 0 -102 -130v-971q0 -119 102 -119h85v-34l-125 -494h-214l176 421h-530v107h86q103 0 103 130v449h-524v-449 q0 -130 102 -130h87v-107h-693z" />
<glyph unicode="&#x4ca;" horiz-adv-x="1386" d="M34 0v107h24q143 0 143 130v602q0 130 -143 130h-24v107h608v-107h-4q-132 0 -132 -130v-228h375v228q0 130 -132 130h-4v107h607v-107h-23q-143 0 -143 -130v-602q0 -130 143 -130h23v-34l-124 -494h-215l177 421h-445v107h4q132 0 132 130v259h-375v-259 q0 -130 132 -130h4v-107h-608z" />
<glyph unicode="&#x4cb;" horiz-adv-x="1565" d="M38 1327v106h672v-106h-84q-102 0 -102 -130v-245q0 -148 50.5 -214t185.5 -66q120 0 244 48v477q0 130 -102 130h-85v106h692v-106h-84q-102 0 -102 -130v-960q0 -130 102 -130h84v-107h-309q-139 0 -197.5 -99.5t-58.5 -321.5h-134v528h92q102 0 102 119v356 q-167 -70 -358 -70q-232 0 -336.5 105.5t-104.5 328.5v251q0 130 -103 130h-64z" />
<glyph unicode="&#x4cc;" horiz-adv-x="1367" d="M32 969v107h590v-107h-4q-132 0 -132 -134v-178q0 -133 128 -133q105 0 247 85v224q0 136 -133 136h-4v107h609v-107h-23q-144 0 -144 -134v-594q0 -134 144 -134h23v-107h-326q-76 0 -127.5 -72t-60.5 -203l-11 -146h-138v528h46q145 0 145 134v255q-213 -134 -392 -134 q-134 0 -211.5 72t-77.5 192v207q0 136 -142 136h-6z" />
<glyph unicode="&#x4cd;" horiz-adv-x="1945" d="M56 0v107h84q103 0 103 119v978q0 123 -103 123h-84v106h578l333 -969l320 969h567v-106h-84q-102 0 -102 -130v-960q0 -130 102 -130h145v-34l-125 -494h-214l176 421h-540v107h20q80 0 103 26.5t23 85.5v1016l-404 -1235h-137l-424 1235v-998q0 -66 28 -98t121 -32h12 v-107h-498zM1911 0z" />
<glyph unicode="&#x4ce;" horiz-adv-x="1767" d="M34 0v107h24q143 0 143 130v602q0 130 -143 130h-24v107h526l297 -672l303 672h538v-107h-26q-165 0 -165 -134v-594q0 -134 165 -134h67v-34l-125 -494h-216l178 421h-528v107h6q164 0 164 134v618h-14l-390 -859h-92l-379 859h-14v-618q0 -134 165 -134h6v-107h-466z M1732 0z" />
<glyph unicode="&#x4cf;" horiz-adv-x="804" d="M56 0v107h84q23 0 41.5 4.5t32 18t21.5 39t8 68.5v959q0 43 -8 68.5t-21.5 39t-32 18t-41.5 4.5h-84v107h693v-107h-85q-21 0 -40 -4.5t-33 -18t-21.5 -39t-7.5 -68.5v-959q0 -43 7.5 -68.5t21.5 -39t33 -18t40 -4.5h85v-107h-693z" />
<glyph unicode="&#x4d0;" horiz-adv-x="1511" d="M8 0v107h24q27 0 49 6t41 22t36 44.5t35 73.5l435 1180h276l419 -1182q15 -42 31 -70t35 -44t40.5 -23t45.5 -7h36v-107h-662v107h78q15 0 30.5 4.5t28 13.5t20 24t7.5 35q0 25 -5.5 47.5t-11.5 38.5l-71 201h-488l-58 -172q-8 -25 -16 -57.5t-8 -57.5q0 -19 7.5 -34 t20.5 -24t29 -14t34 -5h84v-107h-522zM319 1861h251q11 -105 58 -154t133 -49q87 0 133.5 49t56.5 154h251q-6 -61 -25 -118t-66 -100.5t-130.5 -69.5t-219.5 -26q-135 0 -218.5 26t-131.5 69.5t-67 100.5t-25 118zM479 594h406l-106 329q-11 34 -22 72t-22.5 77t-21.5 78 t-18 74q-9 -30 -21 -66.5t-25 -74.5t-26 -76.5t-25 -73.5z" />
<glyph unicode="&#x4d1;" horiz-adv-x="1202" d="M90 307q0 163 112.5 241.5t337.5 85.5l165 6v111q0 50 -4 92t-17 72.5t-38 47t-66 16.5q-38 0 -64 -16t-41.5 -45t-22 -69t-6.5 -87q-135 0 -203.5 30.5t-68.5 104.5q0 55 33 94t89.5 63.5t131.5 36t160 11.5q106 0 185 -18.5t131 -58.5t78.5 -105t26.5 -160v-511 q0 -41 6.5 -68.5t20.5 -43.5t37.5 -23t56.5 -7h8v-107h-374l-42 138h-17q-34 -40 -63.5 -70t-62.5 -49.5t-74.5 -29t-98.5 -9.5q-67 0 -124.5 20t-100 60.5t-67 101.5t-24.5 145zM125 1530h251q11 -105 58 -154t133 -49q87 0 133.5 49t56.5 154h251q-6 -61 -25 -118 t-66 -100.5t-130.5 -69.5t-219.5 -26q-135 0 -218.5 26t-131.5 69.5t-67 100.5t-25 118zM402 299q0 -86 27.5 -129.5t85.5 -43.5q44 0 78.5 18.5t59.5 51.5t38.5 80.5t13.5 106.5v151l-91 -6q-59 -3 -100.5 -19t-66 -44.5t-35 -69.5t-10.5 -96z" />
<glyph unicode="&#x4d2;" horiz-adv-x="1511" d="M8 0v107h24q27 0 49 6t41 22t36 44.5t35 73.5l435 1180h276l419 -1182q15 -42 31 -70t35 -44t40.5 -23t45.5 -7h36v-107h-662v107h78q15 0 30.5 4.5t28 13.5t20 24t7.5 35q0 25 -5.5 47.5t-11.5 38.5l-71 201h-488l-58 -172q-8 -25 -16 -57.5t-8 -57.5q0 -19 7.5 -34 t20.5 -24t29 -14t34 -5h84v-107h-522zM427 1712q0 34 9.5 58t26 39t38 21t44.5 6q24 0 45.5 -6t38 -21t27 -39t10.5 -58q0 -33 -10.5 -57.5t-27 -39t-38 -21.5t-45.5 -7q-23 0 -44.5 7t-38 21.5t-26 39t-9.5 57.5zM479 594h406l-106 329q-11 34 -22 72t-22.5 77t-21.5 78 t-18 74q-9 -30 -21 -66.5t-25 -74.5t-26 -76.5t-25 -73.5zM838 1712q0 34 10 58t26.5 39t38 21t46.5 6q23 0 44 -6t37.5 -21t27 -39t10.5 -58q0 -33 -10.5 -57.5t-27 -39t-37.5 -21.5t-44 -7q-25 0 -46.5 7t-38 21.5t-26.5 39t-10 57.5z" />
<glyph unicode="&#x4d3;" horiz-adv-x="1202" d="M90 307q0 163 112.5 241.5t337.5 85.5l165 6v111q0 50 -4 92t-17 72.5t-38 47t-66 16.5q-38 0 -64 -16t-41.5 -45t-22 -69t-6.5 -87q-135 0 -203.5 30.5t-68.5 104.5q0 55 33 94t89.5 63.5t131.5 36t160 11.5q106 0 185 -18.5t131 -58.5t78.5 -105t26.5 -160v-511 q0 -41 6.5 -68.5t20.5 -43.5t37.5 -23t56.5 -7h8v-107h-374l-42 138h-17q-34 -40 -63.5 -70t-62.5 -49.5t-74.5 -29t-98.5 -9.5q-67 0 -124.5 20t-100 60.5t-67 101.5t-24.5 145zM273 1381q0 34 9.5 58t26 39t38 21t44.5 6q24 0 45.5 -6t38 -21t27 -39t10.5 -58 q0 -33 -10.5 -57.5t-27 -39t-38 -21.5t-45.5 -7q-23 0 -44.5 7t-38 21.5t-26 39t-9.5 57.5zM402 299q0 -86 27.5 -129.5t85.5 -43.5q44 0 78.5 18.5t59.5 51.5t38.5 80.5t13.5 106.5v151l-91 -6q-59 -3 -100.5 -19t-66 -44.5t-35 -69.5t-10.5 -96zM684 1381q0 34 10 58 t26.5 39t38 21t46.5 6q23 0 44 -6t37.5 -21t27 -39t10.5 -58q0 -33 -10.5 -57.5t-27 -39t-37.5 -21.5t-44 -7q-25 0 -46.5 7t-38 21.5t-26.5 39t-10 57.5z" />
<glyph unicode="&#x4d4;" horiz-adv-x="1993" d="M0 0v107h24q52 0 93.5 37.5t85.5 118.5l563 1053l-132 11v106h1218l8 -370h-140l-10 95q-8 74 -37.5 113t-90.5 39h-337v-502h475v-120h-475v-566h400q31 0 52.5 11.5t37 32t25 48.5t14.5 61l16 94h139l-14 -369h-1176v107h84q55 0 78.5 33.5t23.5 85.5v234h-461 l-85 -169q-16 -31 -24 -59.5t-8 -47.5q0 -41 31 -59t89 -18h35v-107h-502zM528 580h397v730h-19z" />
<glyph unicode="&#x4d5;" horiz-adv-x="1756" d="M90 307q0 163 112.5 241.5t337.5 85.5l165 6v111q0 50 -4 92t-17 72.5t-38 47t-66 16.5q-38 0 -64 -16t-41.5 -45t-22 -69t-6.5 -87q-135 0 -203.5 30.5t-68.5 104.5q0 55 33 94t89.5 63.5t131.5 36t160 11.5q107 0 187 -26.5t132 -87.5q59 56 132.5 85t162.5 29 q109 0 196.5 -31t148 -92t93 -151t32.5 -210v-103h-659q3 -100 22 -172.5t53.5 -120t83 -70t111.5 -22.5q52 0 96 12.5t79.5 34.5t62 52t44.5 64q55 -29 55 -98q0 -43 -23 -82t-71 -68t-122 -47t-176 -18q-148 0 -255.5 49t-171.5 143q-68 -100 -168 -146t-227 -46 q-67 0 -124.5 20t-100 60.5t-67 101.5t-24.5 145zM402 299q0 -86 27.5 -129.5t85.5 -43.5q44 0 78.5 18.5t59.5 51.5t38.5 80.5t13.5 106.5v151l-91 -6q-59 -3 -100.5 -19t-66 -44.5t-35 -69.5t-10.5 -96zM1017 644h348q0 157 -38 242t-121 85t-133.5 -83t-55.5 -244z" />
<glyph unicode="&#x4d6;" horiz-adv-x="1310" d="M56 0v107h84q22 0 40.5 4t32.5 16t22 36t8 63v971q0 43 -8 68.5t-21.5 39t-32 18t-41.5 4.5h-84v106h1114l8 -370h-140l-10 95q-8 74 -37.5 113t-90.5 39h-338v-502h476v-120h-476v-566h401q31 0 52.5 11.5t37 32t25 48.5t14.5 61l15 94h140l-15 -369h-1176zM222 1861 h251q11 -105 58 -154t133 -49q87 0 133.5 49t56.5 154h251q-6 -61 -25 -118t-66 -100.5t-130.5 -69.5t-219.5 -26q-135 0 -218.5 26t-131.5 69.5t-67 100.5t-25 118z" />
<glyph unicode="&#x4d7;" horiz-adv-x="1145" d="M94 532q0 141 33.5 248t97 178.5t156 107.5t211.5 36q109 0 196 -31t148 -92t93 -151t32 -210v-103h-657q3 -100 22 -172.5t53 -120t82.5 -70t110.5 -22.5q52 0 96 12.5t80 34.5t63 52t45 64q53 -29 53 -98q0 -43 -23.5 -82t-72.5 -68t-123 -47t-176 -18 q-127 0 -224.5 37.5t-163 108t-99 173t-33.5 233.5zM144 1530h251q11 -105 58 -154t133 -49q87 0 133.5 49t56.5 154h251q-6 -61 -25 -118t-66 -100.5t-130.5 -69.5t-219.5 -26q-135 0 -218.5 26t-131.5 69.5t-67 100.5t-25 118zM408 644h347q0 76 -9 137t-28 103t-49 64.5 t-73 22.5q-84 0 -133.5 -83t-54.5 -244z" />
<glyph unicode="&#x4d8;" horiz-adv-x="1459" d="M111 703v57h906q-19 533 -417 533q-222 0 -424 -155q-15 27 -15 61q0 99 155.5 176.5t344.5 77.5q332 0 509.5 -194t177.5 -547q0 -335 -176 -535t-471 -200q-590 0 -590 726zM446 638q9 -529 268 -529q133 0 211.5 140.5t87.5 388.5h-567z" />
<glyph unicode="&#x4d9;" horiz-adv-x="1145" d="M84 464v102h659q-11 386 -270 386q-196 0 -282 -163q-55 29 -55 98q0 96 106 155.5t290 59.5q252 0 386 -143.5t134 -408.5q0 -570 -498 -570q-226 0 -348 125.5t-122 358.5zM391 437q0 -326 159 -326q179 0 189 326h-348z" />
<glyph unicode="&#x4da;" horiz-adv-x="1459" d="M111 703v57h906q-19 533 -417 533q-222 0 -424 -155q-15 27 -15 61q0 99 155.5 176.5t344.5 77.5q332 0 509.5 -194t177.5 -547q0 -335 -176 -535t-471 -200q-590 0 -590 726zM343 1712q0 34 9.5 58t26 39t38 21t44.5 6q24 0 45.5 -6t38 -21t27 -39t10.5 -58 q0 -33 -10.5 -57.5t-27 -39t-38 -21.5t-45.5 -7q-23 0 -44.5 7t-38 21.5t-26 39t-9.5 57.5zM446 638q9 -529 268 -529q133 0 211.5 140.5t87.5 388.5h-567zM754 1712q0 34 10 58t26.5 39t38 21t46.5 6q23 0 44 -6t37.5 -21t27 -39t10.5 -58q0 -33 -10.5 -57.5t-27 -39 t-37.5 -21.5t-44 -7q-25 0 -46.5 7t-38 21.5t-26.5 39t-10 57.5z" />
<glyph unicode="&#x4db;" horiz-adv-x="1145" d="M84 464v102h659q-11 386 -270 386q-196 0 -282 -163q-55 29 -55 98q0 96 106 155.5t290 59.5q252 0 386 -143.5t134 -408.5q0 -570 -498 -570q-226 0 -348 125.5t-122 358.5zM196 1381q0 34 9.5 58t26 39t38 21t44.5 6q24 0 45.5 -6t38 -21t27 -39t10.5 -58 q0 -33 -10.5 -57.5t-27 -39t-38 -21.5t-45.5 -7q-23 0 -44.5 7t-38 21.5t-26 39t-9.5 57.5zM391 437q0 -326 159 -326q179 0 189 326h-348zM607 1381q0 34 10 58t26.5 39t38 21t46.5 6q23 0 44 -6t37.5 -21t27 -39t10.5 -58q0 -33 -10.5 -57.5t-27 -39t-37.5 -21.5t-44 -7 q-25 0 -46.5 7t-38 21.5t-26.5 39t-10 57.5z" />
<glyph unicode="&#x4dc;" horiz-adv-x="2087" d="M0 0v107h12q31 0 58.5 10t52.5 32t50 56t51 82l163 291q24 42 53 77t64.5 59.5t75.5 38t84 13.5q-24 18 -45 41.5t-44 56.5t-48.5 79t-59.5 109q-31 60 -56 102.5t-48.5 69t-48 38.5t-55.5 12q-26 0 -45 -9t-32 -23t-21.5 -32.5t-13.5 -39.5q-46 9 -72.5 48t-26.5 101 q0 28 9 51t28 40t49.5 26.5t72.5 9.5q61 0 109 -18.5t89.5 -57.5t80 -101.5t82.5 -150.5q54 -111 98.5 -183t72.5 -100q16 -17 31.5 -28t34.5 -17.5t43 -9.5t58 -3v427q0 41 -8 65t-22.5 36.5t-33 17t-39.5 4.5h-85v106h653v-106h-84q-22 0 -41.5 -4.5t-33 -18t-22 -39 t-8.5 -68.5v-420q33 0 57 3t43 9.5t35 17.5t31 28q28 28 72.5 100t98.5 183q44 88 83 150.5t80.5 101.5t89.5 57.5t109 18.5q42 0 72.5 -9.5t49.5 -26.5t27.5 -40t8.5 -51q0 -62 -26.5 -101t-72.5 -48q-4 21 -12.5 39.5t-22 32.5t-32.5 23t-44 9q-31 0 -56 -12t-48.5 -38.5 t-48.5 -69t-56 -102.5q-33 -63 -58.5 -109t-48.5 -79t-44.5 -56.5t-45.5 -41.5q44 0 84 -13.5t75.5 -38t65 -59.5t52.5 -77l163 -291q26 -48 51 -82t50 -56t52.5 -32t59.5 -10h11v-107h-142q-77 0 -131.5 12t-93 37t-67 60t-54.5 82l-190 347q-24 44 -47.5 68.5t-50.5 37.5 t-58.5 15.5t-70.5 2.5v-425q0 -43 8.5 -68.5t22 -39t33 -18t41.5 -4.5h84v-107h-653v107h85q21 0 39.5 4t33 16t22.5 36t8 63v436q-40 0 -71 -2.5t-58 -15.5t-50.5 -37.5t-48.5 -68.5l-190 -347q-25 -47 -53.5 -82t-67.5 -60t-93 -37t-132 -12h-142zM719 1712q0 34 9.5 58 t26 39t38 21t44.5 6q24 0 45.5 -6t38 -21t27 -39t10.5 -58q0 -33 -10.5 -57.5t-27 -39t-38 -21.5t-45.5 -7q-23 0 -44.5 7t-38 21.5t-26 39t-9.5 57.5zM1130 1712q0 34 10 58t26.5 39t38 21t46.5 6q23 0 44 -6t37.5 -21t27 -39t10.5 -58q0 -33 -10.5 -57.5t-27 -39 t-37.5 -21.5t-44 -7q-25 0 -46.5 7t-38 21.5t-26.5 39t-10 57.5z" />
<glyph unicode="&#x4dd;" horiz-adv-x="1850" d="M0 0v107h6q34 0 60 5.5t49 20t44 41t46 67.5l111 188q26 45 55.5 76.5t61 52t64 31.5t65.5 15q-17 13 -32.5 29.5t-33.5 38t-38.5 50.5t-45.5 67q-28 40 -50 69t-41 47.5t-36.5 27.5t-35.5 9q-44 0 -68 -28.5t-32 -74.5q-25 2 -46.5 11.5t-37.5 26t-25.5 39t-9.5 49.5 q0 24 8.5 46t28.5 39t53 27.5t83 10.5q60 0 102.5 -16.5t76.5 -45.5t63 -71.5t63 -95.5q50 -77 81 -124.5t55 -72.5q22 -22 52.5 -33t86.5 -11v221q0 43 -14 68.5t-35.5 39t-46.5 18t-47 4.5h-4v107h568v-107h-4q-20 0 -43 -4.5t-43 -18t-33 -39t-13 -68.5v-221 q55 0 85.5 11t52.5 33q25 25 56 72.5t81 124.5q33 53 62.5 95.5t63.5 71.5t77 45.5t101 16.5q50 0 83.5 -10.5t53.5 -27.5t28.5 -39t8.5 -46q0 -27 -10 -49.5t-26 -39t-37.5 -26t-45.5 -11.5q-8 46 -32.5 74.5t-68.5 28.5q-17 0 -35 -9t-37 -27.5t-41 -47.5t-49 -69 q-26 -38 -46 -67t-37.5 -50.5t-34 -38t-32.5 -29.5q32 -4 65 -15t64 -31.5t61 -52t57 -76.5l109 -188q25 -41 46.5 -67.5t44 -41t49 -20t59.5 -5.5h6v-107h-84q-82 0 -145.5 6.5t-112.5 26.5t-87 57.5t-73 100.5l-101 190q-22 41 -41 65.5t-39 38.5t-43.5 18.5t-55.5 4.5 v-271q0 -43 13 -68.5t33 -39t43 -18t43 -4.5h4v-107h-568v107h4q22 0 47 4.5t46.5 18t35.5 39t14 68.5v271q-31 0 -55 -4.5t-44.5 -18.5t-39 -38.5t-40.5 -65.5l-102 -190q-34 -63 -72.5 -100.5t-87.5 -57.5t-112 -26.5t-146 -6.5h-84zM600 1381q0 34 9.5 58t26 39t38 21 t44.5 6q24 0 45.5 -6t38 -21t27 -39t10.5 -58q0 -33 -10.5 -57.5t-27 -39t-38 -21.5t-45.5 -7q-23 0 -44.5 7t-38 21.5t-26 39t-9.5 57.5zM1011 1381q0 34 10 58t26.5 39t38 21t46.5 6q23 0 44 -6t37.5 -21t27 -39t10.5 -58q0 -33 -10.5 -57.5t-27 -39t-37.5 -21.5t-44 -7 q-25 0 -46.5 7t-38 21.5t-26.5 39t-10 57.5z" />
<glyph unicode="&#x4de;" horiz-adv-x="1238" d="M73 277q0 80 52.5 127.5t159.5 47.5q9 -79 30.5 -142.5t57.5 -108.5t87.5 -69.5t119.5 -24.5q130 0 203.5 70t73.5 221q0 67 -20 119t-62.5 88t-108.5 54.5t-158 18.5h-185v125h181q152 0 228 72.5t76 220.5q0 56 -11.5 99.5t-37.5 73.5t-66.5 46t-98.5 16 q-64 0 -106 -25.5t-67 -68.5t-35.5 -99.5t-10.5 -118.5q-55 0 -103 7t-83 25.5t-55.5 51t-20.5 83.5q0 54 33 102.5t96 85t152.5 58t201.5 21.5q114 0 210 -19.5t165 -60.5t107 -104.5t38 -150.5q0 -78 -26 -139.5t-70 -107t-103 -75.5t-126 -45q56 -6 121 -25t122 -58.5 t94.5 -102t37.5 -155.5q0 -117 -47 -199t-128 -134t-188.5 -76t-228.5 -24q-132 0 -226.5 25t-156 67t-90 96.5t-28.5 111.5zM265 1712q0 34 9.5 58t26 39t38 21t44.5 6q24 0 45.5 -6t38 -21t27 -39t10.5 -58q0 -33 -10.5 -57.5t-27 -39t-38 -21.5t-45.5 -7q-23 0 -44.5 7 t-38 21.5t-26 39t-9.5 57.5zM676 1712q0 34 10 58t26.5 39t38 21t46.5 6q23 0 44 -6t37.5 -21t27 -39t10.5 -58q0 -33 -10.5 -57.5t-27 -39t-37.5 -21.5t-44 -7q-25 0 -46.5 7t-38 21.5t-26.5 39t-10 57.5z" />
<glyph unicode="&#x4df;" horiz-adv-x="1061" d="M69 211q0 73 46.5 114t151.5 41q0 -58 14.5 -108t42.5 -87t69 -58t93 -21q49 0 84.5 15.5t58 43.5t33 66t10.5 82q0 97 -55.5 147t-176.5 50h-135v128h137q56 0 93.5 15.5t60.5 42t32.5 60.5t9.5 72q0 37 -7.5 68t-23.5 54t-42.5 36.5t-64.5 13.5q-46 0 -77 -20 t-50 -53.5t-27.5 -76t-8.5 -87.5q-62 0 -103 10t-65 29t-34.5 45t-10.5 60q0 35 19.5 72t64 66.5t118.5 49t184 19.5q103 0 184.5 -17.5t137.5 -51t85 -83t29 -113.5q0 -48 -16.5 -90.5t-46 -77t-73 -60t-96.5 -39.5v-10q129 -24 198 -83.5t69 -167.5q0 -75 -32 -134.5 t-94 -102t-154.5 -65.5t-214.5 -23q-118 0 -197.5 18.5t-128.5 49.5t-70 72.5t-21 88.5zM183 1381q0 34 9.5 58t26 39t38 21t44.5 6q24 0 45.5 -6t38 -21t27 -39t10.5 -58q0 -33 -10.5 -57.5t-27 -39t-38 -21.5t-45.5 -7q-23 0 -44.5 7t-38 21.5t-26 39t-9.5 57.5zM594 1381 q0 34 10 58t26.5 39t38 21t46.5 6q23 0 44 -6t37.5 -21t27 -39t10.5 -58q0 -33 -10.5 -57.5t-27 -39t-37.5 -21.5t-44 -7q-25 0 -46.5 7t-38 21.5t-26.5 39t-10 57.5z" />
<glyph unicode="&#x4e0;" horiz-adv-x="1238" d="M73 275q0 177 208 177q0 -145 79 -245t212 -100q285 0 285 309q0 283 -277 283h-155v96l412 425h-364q-94 0 -125 -28.5t-41 -109.5l-6 -59h-136l13 410h904v-133l-458 -473q257 -5 399.5 -112t142.5 -301q0 -209 -155 -323t-421 -114q-245 0 -381 85.5t-136 212.5z" />
<glyph unicode="&#x4e1;" d="M48 -253q0 155 199 155q0 -112 69 -192.5t178 -80.5q101 0 170 97.5t69 273.5q0 341 -314 341h-74v82l425 440h-393q-61 0 -89 -22t-47 -102l-15 -61h-122l17 398h886v-153l-445 -456q480 -31 480 -451q0 -235 -157.5 -366.5t-400.5 -131.5q-209 0 -322.5 66t-113.5 163z " />
<glyph unicode="&#x4e2;" horiz-adv-x="1643" d="M56 0v107h84q22 0 40.5 4.5t32.5 18t22 39t8 68.5v967q0 41 -8.5 65t-22.5 36.5t-32.5 17t-39.5 4.5h-84v106h693v-106h-87q-21 0 -39.5 -4.5t-32.5 -18t-22 -39t-8 -68.5v-707l524 672v35q0 43 -8 68.5t-22 39t-32.5 18t-40.5 4.5h-86v106h693v-106h-85 q-20 0 -38.5 -4.5t-33 -18t-22.5 -39t-8 -68.5v-971q0 -39 8.5 -63t22.5 -36t32.5 -16t38.5 -4h85v-107h-693v107h86q22 0 40.5 4.5t32.5 18t22 39t8 68.5v753l-524 -672v-81q0 -43 8 -68.5t22 -39t32.5 -18t39.5 -4.5h87v-107h-693zM532 1547v159h582v-159h-582z" />
<glyph unicode="&#x4e3;" horiz-adv-x="1386" d="M34 0v107h24q22 0 47 4.5t46 18t35.5 39t14.5 68.5v602q0 43 -14.5 68.5t-35.5 39t-46 18t-47 4.5h-24v107h608v-107h-4q-21 0 -44 -4.5t-42.5 -18t-32.5 -39t-13 -68.5v-427l375 411v16q0 43 -13 68.5t-33 39t-43 18t-43 4.5h-4v107h607v-107h-23q-22 0 -47.5 -4.5 t-46.5 -18t-35 -39t-14 -68.5v-602q0 -43 14 -68.5t35 -39t46.5 -18t47.5 -4.5h23v-107h-607v107h4q20 0 43 4.5t43 18t33 39t13 68.5v431l-375 -411v-20q0 -43 13 -68.5t32.5 -39t42.5 -18t44 -4.5h4v-107h-608zM402 1216v159h582v-159h-582z" />
<glyph unicode="&#x4e4;" horiz-adv-x="1643" d="M56 0v107h84q22 0 40.5 4.5t32.5 18t22 39t8 68.5v967q0 41 -8.5 65t-22.5 36.5t-32.5 17t-39.5 4.5h-84v106h693v-106h-87q-21 0 -39.5 -4.5t-32.5 -18t-22 -39t-8 -68.5v-707l524 672v35q0 43 -8 68.5t-22 39t-32.5 18t-40.5 4.5h-86v106h693v-106h-85 q-20 0 -38.5 -4.5t-33 -18t-22.5 -39t-8 -68.5v-971q0 -39 8.5 -63t22.5 -36t32.5 -16t38.5 -4h85v-107h-693v107h86q22 0 40.5 4.5t32.5 18t22 39t8 68.5v753l-524 -672v-81q0 -43 8 -68.5t22 -39t32.5 -18t39.5 -4.5h87v-107h-693zM498 1712q0 34 9.5 58t26 39t38 21 t44.5 6q24 0 45.5 -6t38 -21t27 -39t10.5 -58q0 -33 -10.5 -57.5t-27 -39t-38 -21.5t-45.5 -7q-23 0 -44.5 7t-38 21.5t-26 39t-9.5 57.5zM909 1712q0 34 10 58t26.5 39t38 21t46.5 6q23 0 44 -6t37.5 -21t27 -39t10.5 -58q0 -33 -10.5 -57.5t-27 -39t-37.5 -21.5t-44 -7 q-25 0 -46.5 7t-38 21.5t-26.5 39t-10 57.5z" />
<glyph unicode="&#x4e5;" horiz-adv-x="1386" d="M34 0v107h24q22 0 47 4.5t46 18t35.5 39t14.5 68.5v602q0 43 -14.5 68.5t-35.5 39t-46 18t-47 4.5h-24v107h608v-107h-4q-21 0 -44 -4.5t-42.5 -18t-32.5 -39t-13 -68.5v-427l375 411v16q0 43 -13 68.5t-33 39t-43 18t-43 4.5h-4v107h607v-107h-23q-22 0 -47.5 -4.5 t-46.5 -18t-35 -39t-14 -68.5v-602q0 -43 14 -68.5t35 -39t46.5 -18t47.5 -4.5h23v-107h-607v107h4q20 0 43 4.5t43 18t33 39t13 68.5v431l-375 -411v-20q0 -43 13 -68.5t32.5 -39t42.5 -18t44 -4.5h4v-107h-608zM368 1381q0 34 9.5 58t26 39t38 21t44.5 6q24 0 45.5 -6 t38 -21t27 -39t10.5 -58q0 -33 -10.5 -57.5t-27 -39t-38 -21.5t-45.5 -7q-23 0 -44.5 7t-38 21.5t-26 39t-9.5 57.5zM779 1381q0 34 10 58t26.5 39t38 21t46.5 6q23 0 44 -6t37.5 -21t27 -39t10.5 -58q0 -33 -10.5 -57.5t-27 -39t-37.5 -21.5t-44 -7q-25 0 -46.5 7t-38 21.5 t-26.5 39t-10 57.5z" />
<glyph unicode="&#x4e6;" horiz-adv-x="1579" d="M111 720q0 167 42 302.5t127 231.5t212.5 148.5t300.5 52.5q163 0 288.5 -52.5t212 -149t131 -232t44.5 -303.5q0 -165 -44.5 -301.5t-131.5 -233.5t-212.5 -150t-289.5 -53q-172 0 -299.5 53t-212 150t-126.5 234t-42 303zM448 718q0 -144 18.5 -256.5t59.5 -190.5 t106.5 -119t158.5 -41q94 0 159 41t105.5 119t58.5 190.5t18 256.5t-18 257t-58.5 191t-105 118.5t-157.5 40.5q-94 0 -160 -40.5t-107 -118.5t-59.5 -191t-18.5 -257zM454 1712q0 34 9.5 58t26 39t38 21t44.5 6q24 0 45.5 -6t38 -21t27 -39t10.5 -58q0 -33 -10.5 -57.5 t-27 -39t-38 -21.5t-45.5 -7q-23 0 -44.5 7t-38 21.5t-26 39t-9.5 57.5zM865 1712q0 34 10 58t26.5 39t38 21t46.5 6q23 0 44 -6t37.5 -21t27 -39t10.5 -58q0 -33 -10.5 -57.5t-27 -39t-37.5 -21.5t-44 -7q-25 0 -46.5 7t-38 21.5t-26.5 39t-10 57.5z" />
<glyph unicode="&#x4e7;" horiz-adv-x="1229" d="M94 542q0 283 133 421.5t391 138.5q121 0 216.5 -34.5t162.5 -104t103 -175t36 -246.5q0 -283 -133 -422.5t-391 -139.5q-120 0 -216 35t-163 104.5t-103 175.5t-36 247zM287 1381q0 34 9.5 58t26 39t38 21t44.5 6q24 0 45.5 -6t38 -21t27 -39t10.5 -58 q0 -33 -10.5 -57.5t-27 -39t-38 -21.5t-45.5 -7q-23 0 -44.5 7t-38 21.5t-26 39t-9.5 57.5zM406 542q0 -107 11 -188.5t36 -136t65.5 -82.5t97.5 -28q58 0 98 28t65 82.5t35.5 136t10.5 188.5q0 108 -11 188.5t-36 134.5t-65.5 81t-98.5 27q-57 0 -97.5 -27t-65 -81 t-35 -134.5t-10.5 -188.5zM698 1381q0 34 10 58t26.5 39t38 21t46.5 6q23 0 44 -6t37.5 -21t27 -39t10.5 -58q0 -33 -10.5 -57.5t-27 -39t-37.5 -21.5t-44 -7q-25 0 -46.5 7t-38 21.5t-26.5 39t-10 57.5z" />
<glyph unicode="&#x4e8;" horiz-adv-x="1579" d="M111 720q0 350 177 542.5t505 192.5q316 0 496 -197t180 -540q0 -341 -181 -539.5t-497 -198.5q-328 0 -504 195t-176 545zM448 686q7 -575 343 -575q333 0 341 575h-684zM450 808h680q-21 517 -337 517q-323 0 -343 -517z" />
<glyph unicode="&#x4e9;" horiz-adv-x="1229" d="M94 542q0 560 524 560q251 0 384.5 -144.5t133.5 -415.5q0 -562 -524 -562q-248 0 -383 144t-135 418zM406 506q6 -399 210 -399q202 0 209 399h-419zM406 612h417q-14 361 -209 361t-208 -361z" />
<glyph unicode="&#x4ea;" horiz-adv-x="1579" d="M111 720q0 350 177 542.5t505 192.5q316 0 496 -197t180 -540q0 -341 -181 -539.5t-497 -198.5q-328 0 -504 195t-176 545zM448 686q7 -575 343 -575q333 0 341 575h-684zM450 808h680q-21 517 -337 517q-323 0 -343 -517zM454 1712q0 34 9.5 58t26 39t38 21t44.5 6 q24 0 45.5 -6t38 -21t27 -39t10.5 -58q0 -33 -10.5 -57.5t-27 -39t-38 -21.5t-45.5 -7q-23 0 -44.5 7t-38 21.5t-26 39t-9.5 57.5zM865 1712q0 34 10 58t26.5 39t38 21t46.5 6q23 0 44 -6t37.5 -21t27 -39t10.5 -58q0 -33 -10.5 -57.5t-27 -39t-37.5 -21.5t-44 -7 q-25 0 -46.5 7t-38 21.5t-26.5 39t-10 57.5z" />
<glyph unicode="&#x4eb;" horiz-adv-x="1229" d="M94 542q0 560 524 560q251 0 384.5 -144.5t133.5 -415.5q0 -562 -524 -562q-248 0 -383 144t-135 418zM287 1381q0 34 9.5 58t26 39t38 21t44.5 6q24 0 45.5 -6t38 -21t27 -39t10.5 -58q0 -33 -10.5 -57.5t-27 -39t-38 -21.5t-45.5 -7q-23 0 -44.5 7t-38 21.5t-26 39 t-9.5 57.5zM406 506q6 -399 210 -399q202 0 209 399h-419zM406 612h417q-14 361 -209 361t-208 -361zM698 1381q0 34 10 58t26.5 39t38 21t46.5 6q23 0 44 -6t37.5 -21t27 -39t10.5 -58q0 -33 -10.5 -57.5t-27 -39t-37.5 -21.5t-44 -7q-25 0 -46.5 7t-38 21.5t-26.5 39 t-10 57.5z" />
<glyph unicode="&#x4ec;" horiz-adv-x="1369" d="M74 289q0 79 55 124t150 45q9 -76 31.5 -139.5t61 -110t92 -73t126.5 -26.5q80 0 141 41t102 114t63 174t25 221h-471v120h471q-3 130 -21.5 232t-56.5 171.5t-99.5 106t-149.5 36.5q-61 0 -105 -26.5t-72.5 -68t-41.5 -93t-13 -101.5q-57 0 -103.5 11t-80 33t-51.5 53.5 t-18 72.5q0 48 28.5 93t87 79t148 54.5t211.5 20.5q174 0 300.5 -53t209.5 -148.5t123.5 -225t40.5 -283.5q0 -176 -45 -317t-131 -240t-210.5 -152.5t-283.5 -53.5q-141 0 -239 25.5t-159.5 69t-88.5 98.5t-27 116zM257 1712q0 34 9.5 58t26 39t38 21t44.5 6q24 0 45.5 -6 t38 -21t27 -39t10.5 -58q0 -33 -10.5 -57.5t-27 -39t-38 -21.5t-45.5 -7q-23 0 -44.5 7t-38 21.5t-26 39t-9.5 57.5zM668 1712q0 34 10 58t26.5 39t38 21t46.5 6q23 0 44 -6t37.5 -21t27 -39t10.5 -58q0 -33 -10.5 -57.5t-27 -39t-37.5 -21.5t-44 -7q-25 0 -46.5 7t-38 21.5 t-26.5 39t-10 57.5z" />
<glyph unicode="&#x4ed;" horiz-adv-x="1041" d="M69 211q0 73 50 114t148 41q0 -58 12 -108t35.5 -87t58.5 -58t81 -21q43 0 76 20.5t56 68t36 125t16 190.5h-349v128h349q-3 84 -12.5 151t-29 114t-51.5 72t-81 25q-42 0 -72.5 -22t-51.5 -57.5t-31 -78.5t-10 -85q-102 0 -149.5 38t-47.5 102q0 40 20.5 79t66 69.5 t118 49.5t175.5 19q111 0 197.5 -30t146 -94.5t91 -166t31.5 -245.5q0 -164 -35 -275t-98.5 -179.5t-153 -98t-197.5 -29.5q-115 0 -191 18.5t-121.5 49.5t-64 72.5t-18.5 88.5zM154 1381q0 34 9.5 58t26 39t38 21t44.5 6q24 0 45.5 -6t38 -21t27 -39t10.5 -58 q0 -33 -10.5 -57.5t-27 -39t-38 -21.5t-45.5 -7q-23 0 -44.5 7t-38 21.5t-26 39t-9.5 57.5zM565 1381q0 34 10 58t26.5 39t38 21t46.5 6q23 0 44 -6t37.5 -21t27 -39t10.5 -58q0 -33 -10.5 -57.5t-27 -39t-37.5 -21.5t-44 -7q-25 0 -46.5 7t-38 21.5t-26.5 39t-10 57.5z" />
<glyph unicode="&#x4ee;" horiz-adv-x="1392" d="M0 1327v106h688v-106h-72q-52 0 -80 -18.5t-28 -63.5q0 -29 9 -56.5t25 -58.5l153 -323q16 -36 34.5 -75t34.5 -79t29 -78t19 -71q13 41 28.5 84.5t36.5 99.5l146 402q19 49 28.5 85t9.5 53q0 52 -32.5 75.5t-99.5 23.5h-42v106h506v-106h-39q-29 0 -49 -7t-37 -24.5 t-32 -48t-34 -77.5l-293 -754q-33 -86 -63 -150t-63 -110.5t-73 -76.5t-91 -47.5t-117 -24.5t-153 -7h-125v117h89q51 0 102 9t96.5 27.5t79.5 46t51 65.5l-473 955q-15 30 -28 50.5t-29 32.5t-36 18t-50 6h-26zM448 1547v159h582v-159h-582z" />
<glyph unicode="&#x4ef;" horiz-adv-x="1162" d="M0 957v119h572v-107q-58 0 -92 -15t-34 -59q0 -17 7 -40t13 -38q17 -42 36 -91.5t37.5 -99t35 -95.5t29.5 -81q14 -38 24 -69t16.5 -56t10.5 -46t6 -42q1 21 7 46t13 48t14 41t10 26l132 393q4 10 7.5 23t6.5 27t4.5 26.5t1.5 21.5q0 46 -38.5 63t-108.5 17v107h452v-107 q-30 0 -53 -6.5t-41.5 -24t-34.5 -45.5t-31 -70q-36 -100 -74 -204t-77 -208t-77.5 -207.5t-74.5 -203.5q-36 -97 -67 -170.5t-66 -127.5t-77 -89t-98 -56.5t-130 -30t-173 -8.5h-34v116q105 0 178.5 25.5t124.5 73t83.5 113t57.5 144.5l-362 883q-12 29 -26.5 45.5 t-31 25.5t-36 11t-42.5 2zM311 1216v159h582v-159h-582z" />
<glyph unicode="&#x4f0;" horiz-adv-x="1392" d="M0 1327v106h688v-106h-72q-52 0 -80 -18.5t-28 -63.5q0 -29 9 -56.5t25 -58.5l153 -323q16 -36 34.5 -75t34.5 -79t29 -78t19 -71q13 41 28.5 84.5t36.5 99.5l146 402q19 49 28.5 85t9.5 53q0 52 -32.5 75.5t-99.5 23.5h-42v106h506v-106h-39q-29 0 -49 -7t-37 -24.5 t-32 -48t-34 -77.5l-293 -754q-33 -86 -63 -150t-63 -110.5t-73 -76.5t-91 -47.5t-117 -24.5t-153 -7h-125v117h89q51 0 102 9t96.5 27.5t79.5 46t51 65.5l-473 955q-15 30 -28 50.5t-29 32.5t-36 18t-50 6h-26zM391 1712q0 34 9.5 58t26 39t38 21t44.5 6q24 0 45.5 -6 t38 -21t27 -39t10.5 -58q0 -33 -10.5 -57.5t-27 -39t-38 -21.5t-45.5 -7q-23 0 -44.5 7t-38 21.5t-26 39t-9.5 57.5zM802 1712q0 34 10 58t26.5 39t38 21t46.5 6q23 0 44 -6t37.5 -21t27 -39t10.5 -58q0 -33 -10.5 -57.5t-27 -39t-37.5 -21.5t-44 -7q-25 0 -46.5 7t-38 21.5 t-26.5 39t-10 57.5z" />
<glyph unicode="&#x4f1;" horiz-adv-x="1162" d="M0 957v119h572v-107q-58 0 -92 -15t-34 -59q0 -17 7 -40t13 -38q17 -42 36 -91.5t37.5 -99t35 -95.5t29.5 -81q14 -38 24 -69t16.5 -56t10.5 -46t6 -42q1 21 7 46t13 48t14 41t10 26l132 393q4 10 7.5 23t6.5 27t4.5 26.5t1.5 21.5q0 46 -38.5 63t-108.5 17v107h452v-107 q-30 0 -53 -6.5t-41.5 -24t-34.5 -45.5t-31 -70q-36 -100 -74 -204t-77 -208t-77.5 -207.5t-74.5 -203.5q-36 -97 -67 -170.5t-66 -127.5t-77 -89t-98 -56.5t-130 -30t-173 -8.5h-34v116q105 0 178.5 25.5t124.5 73t83.5 113t57.5 144.5l-362 883q-12 29 -26.5 45.5 t-31 25.5t-36 11t-42.5 2zM261 1381q0 34 9.5 58t26 39t38 21t44.5 6q24 0 45.5 -6t38 -21t27 -39t10.5 -58q0 -33 -10.5 -57.5t-27 -39t-38 -21.5t-45.5 -7q-23 0 -44.5 7t-38 21.5t-26 39t-9.5 57.5zM672 1381q0 34 10 58t26.5 39t38 21t46.5 6q23 0 44 -6t37.5 -21 t27 -39t10.5 -58q0 -33 -10.5 -57.5t-27 -39t-37.5 -21.5t-44 -7q-25 0 -46.5 7t-38 21.5t-26.5 39t-10 57.5z" />
<glyph unicode="&#x4f2;" horiz-adv-x="1392" d="M0 1327v106h688v-106h-72q-52 0 -80 -18.5t-28 -63.5q0 -29 9 -56.5t25 -58.5l153 -323q16 -36 34.5 -75t34.5 -79t29 -78t19 -71q13 41 28.5 84.5t36.5 99.5l146 402q19 49 28.5 85t9.5 53q0 52 -32.5 75.5t-99.5 23.5h-42v106h506v-106h-39q-29 0 -49 -7t-37 -24.5 t-32 -48t-34 -77.5l-293 -754q-33 -86 -63 -150t-63 -110.5t-73 -76.5t-91 -47.5t-117 -24.5t-153 -7h-125v117h89q51 0 102 9t96.5 27.5t79.5 46t51 65.5l-473 955q-15 30 -28 50.5t-29 32.5t-36 18t-50 6h-26zM385 1547v27q22 32 45 69t46 76.5t43.5 77.5t36.5 72h256v-21 q-11 -18 -30 -42t-43.5 -51.5t-52.5 -56t-56.5 -56t-55.5 -52t-50 -43.5h-139zM767 1547v27q21 32 44.5 69t46.5 76.5t43.5 77.5t36.5 72h255v-21q-11 -18 -30 -42t-43.5 -51.5t-52.5 -56t-56.5 -56t-55.5 -52t-49 -43.5h-139z" />
<glyph unicode="&#x4f3;" horiz-adv-x="1162" d="M0 957v119h572v-107q-58 0 -92 -15t-34 -59q0 -17 7 -40t13 -38q17 -42 36 -91.5t37.5 -99t35 -95.5t29.5 -81q14 -38 24 -69t16.5 -56t10.5 -46t6 -42q1 21 7 46t13 48t14 41t10 26l132 393q4 10 7.5 23t6.5 27t4.5 26.5t1.5 21.5q0 46 -38.5 63t-108.5 17v107h452v-107 q-30 0 -53 -6.5t-41.5 -24t-34.5 -45.5t-31 -70q-36 -100 -74 -204t-77 -208t-77.5 -207.5t-74.5 -203.5q-36 -97 -67 -170.5t-66 -127.5t-77 -89t-98 -56.5t-130 -30t-173 -8.5h-34v116q105 0 178.5 25.5t124.5 73t83.5 113t57.5 144.5l-362 883q-12 29 -26.5 45.5 t-31 25.5t-36 11t-42.5 2zM266 1216v27q22 32 45 69t46 76.5t43.5 77.5t36.5 72h256v-21q-11 -18 -30 -42t-43.5 -51.5t-52.5 -56t-56.5 -56t-55.5 -52t-50 -43.5h-139zM648 1216v27q21 32 44.5 69t46.5 76.5t43.5 77.5t36.5 72h255v-21q-11 -18 -30 -42t-43.5 -51.5 t-52.5 -56t-56.5 -56t-55.5 -52t-49 -43.5h-139z" />
<glyph unicode="&#x4f4;" horiz-adv-x="1565" d="M38 1327v106h672v-106h-84q-21 0 -40 -4.5t-32.5 -18t-21.5 -39t-8 -68.5v-245q0 -80 14 -134t42.5 -86t73 -46t106.5 -14q39 0 75 5t67.5 12t57.5 15.5t44 15.5v477q0 43 -8 68.5t-22 39t-32.5 18t-39.5 4.5h-85v106h692v-106h-84q-22 0 -40.5 -4.5t-32 -18t-21.5 -39 t-8 -68.5v-960q0 -43 8 -68.5t21.5 -39t32 -18t40.5 -4.5h84v-107h-692v107h85q21 0 39.5 4.5t32.5 18t22 39t8 68.5v345q-26 -11 -61 -23t-79.5 -23t-99 -17.5t-118.5 -6.5q-101 0 -183 21t-139 71t-88 133.5t-31 208.5v251q0 43 -8 68.5t-21.5 39t-32.5 18t-41 4.5h-64z M439 1712q0 34 9.5 58t26 39t38 21t44.5 6q24 0 45.5 -6t38 -21t27 -39t10.5 -58q0 -33 -10.5 -57.5t-27 -39t-38 -21.5t-45.5 -7q-23 0 -44.5 7t-38 21.5t-26 39t-9.5 57.5zM850 1712q0 34 10 58t26.5 39t38 21t46.5 6q23 0 44 -6t37.5 -21t27 -39t10.5 -58 q0 -33 -10.5 -57.5t-27 -39t-37.5 -21.5t-44 -7q-25 0 -46.5 7t-38 21.5t-26.5 39t-10 57.5z" />
<glyph unicode="&#x4f5;" horiz-adv-x="1367" d="M32 969v107h590v-107h-4q-22 0 -45.5 -5t-42.5 -19.5t-31.5 -41t-12.5 -68.5v-178q0 -71 32.5 -102t95.5 -31q32 0 59.5 4.5t56.5 15t60.5 26.5t70.5 39v224q0 41 -10.5 67t-28.5 41.5t-42 21.5t-52 6h-4v107h609v-107h-23q-29 0 -55 -6t-46 -20.5t-31.5 -40.5t-11.5 -67 v-594q0 -41 11.5 -67t31.5 -40.5t46 -20.5t55 -6h23v-107h-663v107h35q33 0 61.5 4.5t49.5 18t33 40.5t12 71v255q-50 -30 -95.5 -55t-91.5 -42.5t-96 -27t-109 -9.5q-68 0 -122 19t-91 54t-56.5 83.5t-19.5 107.5v207q0 73 -38.5 104.5t-103.5 31.5h-6zM347 1381 q0 34 9.5 58t26 39t38 21t44.5 6q24 0 45.5 -6t38 -21t27 -39t10.5 -58q0 -33 -10.5 -57.5t-27 -39t-38 -21.5t-45.5 -7q-23 0 -44.5 7t-38 21.5t-26 39t-9.5 57.5zM758 1381q0 34 10 58t26.5 39t38 21t46.5 6q23 0 44 -6t37.5 -21t27 -39t10.5 -58q0 -33 -10.5 -57.5 t-27 -39t-37.5 -21.5t-44 -7q-25 0 -46.5 7t-38 21.5t-26.5 39t-10 57.5z" />
<glyph unicode="&#x4f6;" horiz-adv-x="1185" d="M56 0v107h84q103 0 103 130v960q0 130 -103 130h-84v106h1096l14 -393h-112l-24 96q-43 174 -193 174h-275v-1084q0 -119 102 -119h91v-528h-133q0 222 -58.5 321.5t-197.5 99.5h-310z" />
<glyph unicode="&#x4f7;" horiz-adv-x="1019" d="M34 0v107h22q145 0 145 134v598q0 130 -143 130h-24v107h945v-341h-138l-10 86q-10 88 -37.5 114t-102.5 26h-185v-720q0 -134 134 -134h42v-528h-138l-10 146q-9 126 -60 200.5t-129 74.5h-311z" />
<glyph unicode="&#x4f8;" horiz-adv-x="1982" d="M56 0v107h84q31 0 50.5 7.5t31 23t16.5 41t5 60.5v958q0 41 -7.5 66.5t-20.5 39.5t-32 19t-43 5h-84v106h733v-106h-123q-54 0 -80 -27t-26 -94v-399h106q144 0 245.5 -29.5t166 -82.5t93.5 -127t29 -162q0 -90 -32.5 -165t-99.5 -128.5t-169.5 -83t-241.5 -29.5h-601z M560 119h78q61 0 103.5 17t69 51t38.5 86t12 122q0 80 -13.5 136.5t-43 92t-76 51.5t-112.5 16h-56v-572zM690 1712q0 34 9.5 58t26 39t38 21t44.5 6q24 0 45.5 -6t38 -21t27 -39t10.5 -58q0 -33 -10.5 -57.5t-27 -39t-38 -21.5t-45.5 -7q-23 0 -44.5 7t-38 21.5t-26 39 t-9.5 57.5zM1101 1712q0 34 10 58t26.5 39t38 21t46.5 6q23 0 44 -6t37.5 -21t27 -39t10.5 -58q0 -33 -10.5 -57.5t-27 -39t-37.5 -21.5t-44 -7q-25 0 -46.5 7t-38 21.5t-26.5 39t-10 57.5zM1235 0v107h84q22 0 40.5 4.5t32 18t21.5 39t8 68.5v960q0 43 -8 68.5t-21.5 39 t-32 18t-40.5 4.5h-84v106h692v-106h-85q-21 0 -39.5 -4.5t-32.5 -18t-22 -39t-8 -68.5v-960q0 -43 8 -68.5t22 -39t32.5 -18t39.5 -4.5h85v-107h-692z" />
<glyph unicode="&#x4f9;" horiz-adv-x="1815" d="M34 0v107h22q74 0 109.5 32.5t35.5 95.5v604q0 69 -37 99.5t-108 30.5h-22v107h663v-115h-27q-33 0 -63 -5.5t-52.5 -20t-35.5 -38t-13 -58.5v-227h153q93 0 176 -11t147 -43t101 -90t37 -152q0 -68 -28 -126t-83.5 -100t-140.5 -66t-200 -24h-634zM506 117h110 q50 0 85 11t57 35t32.5 63.5t10.5 94.5q0 95 -50.5 135t-141.5 40h-103v-379zM598 1381q0 34 9.5 58t26 39t38 21t44.5 6q24 0 45.5 -6t38 -21t27 -39t10.5 -58q0 -33 -10.5 -57.5t-27 -39t-38 -21.5t-45.5 -7q-23 0 -44.5 7t-38 21.5t-26 39t-9.5 57.5zM1009 1381 q0 34 10 58t26.5 39t38 21t46.5 6q23 0 44 -6t37.5 -21t27 -39t10.5 -58q0 -33 -10.5 -57.5t-27 -39t-37.5 -21.5t-44 -7q-25 0 -46.5 7t-38 21.5t-26.5 39t-10 57.5zM1144 0v107h24q22 0 47 4.5t46 18t35 39t14 68.5v602q0 43 -14 68.5t-35 39t-46 18t-47 4.5h-24v107h628 v-107h-24q-20 0 -43 -4.5t-43 -18t-33 -39t-13 -68.5v-602q0 -43 13 -68.5t33 -39t43 -18t43 -4.5h24v-107h-628z" />
<glyph unicode="&#x4fa;" horiz-adv-x="1185" d="M56 0v107h84q103 0 103 130v454h-187v106h187v400q0 130 -103 130h-84v106h1096l14 -393h-112l-24 96q-43 174 -193 174h-275v-513h285v-106h-285v-463q0 -121 102 -121h125v-107h-733zM387 -285q0 62 31 94q44 -31 115 -31q123 0 123 144v162h133v-162q0 -317 -235 -317 q-167 0 -167 110z" />
<glyph unicode="&#x4fb;" horiz-adv-x="1019" d="M34 0v107h24q143 0 143 130v247h-167v106h167v249q0 130 -143 130h-24v107h945v-341h-138l-10 86q-10 88 -37.5 114t-102.5 26h-185v-371h239v-106h-239v-247q0 -130 132 -130h44v-107h-648zM281 -285q0 62 31 94q44 -31 115 -31q123 0 123 144v162h133v-162 q0 -317 -235 -317q-167 0 -167 110z" />
<glyph unicode="&#x4fc;" horiz-adv-x="1469" d="M20 0v107h12q37 0 64 9.5t51.5 28t47 44.5t46.5 58l351 458l-331 515q-17 27 -33 47t-36 33t-45 20t-59 7h-26v106h664v-106h-6q-34 0 -57 -4.5t-37 -13t-19 -19t-5 -22.5q0 -20 15 -51.5t38 -65.5l166 -249l175 244q17 27 35.5 61t18.5 61q0 18 -9 29.5t-24 18t-36 9 t-44 2.5h-6v106h470v-106h-18q-30 0 -53.5 -7.5t-46.5 -24.5t-46.5 -44.5t-52.5 -68.5l-291 -397l369 -572q39 -62 81.5 -84t79.5 -22h26v-107h-662v107h10q120 0 120 65q0 12 -2 23t-9 25.5t-20 36t-35 54.5l-185 279l-216 -293q-19 -26 -35.5 -58.5t-16.5 -64.5 q0 -33 27.5 -50t93.5 -17h7v-107h-506zM1047 -285q0 62 31 94q44 -31 115 -31q123 0 123 144v162h133v-162q0 -317 -235 -317q-167 0 -167 110z" />
<glyph unicode="&#x4fd;" horiz-adv-x="1296" d="M23 0v107h17q36 0 63.5 6.5t51.5 21t48.5 39t55.5 61.5l253 305l-253 323q-42 53 -84.5 79.5t-88.5 26.5h-26v107h631v-107h-7q-34 0 -56 -4.5t-35 -12t-18 -18.5t-5 -23q0 -21 11 -41t35 -51l112 -137l95 115q24 30 37 57.5t13 54.5q0 37 -28 48.5t-75 11.5h-6v107h464 v-107h-18q-29 0 -52 -5.5t-46 -19.5t-47.5 -39t-57.5 -64l-206 -253l295 -375q46 -58 84.5 -82t75.5 -24h27v-107h-639v107h11q120 0 120 65q0 12 -3 24t-10.5 27.5t-23 36.5t-39.5 51l-115 139l-140 -175q-19 -24 -30.5 -49.5t-11.5 -51.5q0 -33 28.5 -50t95.5 -17h6v-107 h-509zM881 -285q0 62 31 94q44 -31 115 -31q123 0 123 144v162h133v-162q0 -317 -235 -317q-167 0 -167 110z" />
<glyph unicode="&#x4fe;" horiz-adv-x="1469" d="M20 0v107h12q103 0 209 140l345 450h-360v106h302l-267 417q-69 107 -173 107h-26v106h664v-106h-6q-118 0 -118 -59q0 -37 53 -117l166 -249l175 244q54 75 54 122q0 59 -113 59h-6v106h470v-106h-18q-95 0 -199 -145l-278 -379h337v-106h-293l312 -484 q69 -106 161 -106h26v-107h-662v107h10q120 0 120 65q0 43 -66 139l-185 279l-216 -293q-52 -71 -52 -123q0 -67 121 -67h7v-107h-506z" />
<glyph unicode="&#x4ff;" horiz-adv-x="1296" d="M23 0v107h17q68 0 111 24.5t108 103.5l253 305h-351v106h266l-168 217q-83 106 -173 106h-26v107h631v-107h-7q-114 0 -114 -58q0 -35 46 -92l112 -137l95 115q50 61 50 112q0 60 -103 60h-6v107h464v-107h-18q-58 0 -96.5 -23.5t-106.5 -104.5l-160 -195h289v-106h-297 l257 -327q83 -106 160 -106h27v-107h-639v107h11q120 0 120 65q0 47 -76 139l-115 139l-140 -175q-42 -53 -42 -101q0 -67 124 -67h6v-107h-509z" />
<glyph unicode="&#x2000;" horiz-adv-x="1062" />
<glyph unicode="&#x2001;" horiz-adv-x="2124" />
<glyph unicode="&#x2002;" horiz-adv-x="1062" />
<glyph unicode="&#x2003;" horiz-adv-x="2124" />
<glyph unicode="&#x2004;" horiz-adv-x="708" />
<glyph unicode="&#x2005;" horiz-adv-x="531" />
<glyph unicode="&#x2006;" horiz-adv-x="354" />
<glyph unicode="&#x2007;" horiz-adv-x="354" />
<glyph unicode="&#x2008;" horiz-adv-x="265" />
<glyph unicode="&#x2009;" horiz-adv-x="424" />
<glyph unicode="&#x200a;" horiz-adv-x="118" />
<glyph unicode="&#x2010;" horiz-adv-x="622" d="M50 442v211h522v-211h-522z" />
<glyph unicode="&#x2011;" horiz-adv-x="622" d="M50 442v211h522v-211h-522z" />
<glyph unicode="&#x2012;" horiz-adv-x="622" d="M50 442v211h522v-211h-522z" />
<glyph unicode="&#x2013;" horiz-adv-x="1003" d="M-10 467v144h1023v-144h-1023z" />
<glyph unicode="&#x2014;" horiz-adv-x="2007" d="M-10 467v144h2027v-144h-2027z" />
<glyph unicode="&#x2018;" horiz-adv-x="561" d="M113 1040q0 63 19.5 123t62 111t110.5 91.5t166 67.5v-104q-44 -16 -76.5 -31.5t-54.5 -33.5t-33.5 -40.5t-11.5 -51.5q0 -20 11 -31.5t27.5 -22.5t35 -22t35 -28t27.5 -43.5t11 -67.5q0 -67 -41.5 -102.5t-103.5 -35.5q-85 0 -134.5 59t-49.5 162z" />
<glyph unicode="&#x2019;" horiz-adv-x="561" d="M90 819v104q44 16 77 31.5t55 33.5t33.5 40.5t11.5 51.5q0 20 -11 31.5t-27 22.5t-35.5 22t-35.5 28.5t-26.5 43.5t-10.5 67q0 67 41 102.5t103 35.5q85 0 135 -59t50 -162q0 -63 -19.5 -123t-63 -111t-111.5 -91.5t-166 -67.5z" />
<glyph unicode="&#x201a;" horiz-adv-x="589" d="M90 -205q44 16 77 31.5t55 33.5t33.5 40.5t11.5 51.5q0 19 -11 31t-27 23t-35.5 22t-35.5 28.5t-26.5 43.5t-10.5 67q0 67 41 102.5t103 35.5q85 0 135 -59t50 -162q0 -63 -19.5 -123t-63 -111t-111.5 -91.5t-166 -67.5v104z" />
<glyph unicode="&#x201c;" horiz-adv-x="980" d="M113 1040q0 63 19.5 123t62 111t110.5 91.5t166 67.5v-104q-44 -16 -76.5 -31.5t-54.5 -33.5t-33.5 -40.5t-11.5 -51.5q0 -20 11 -31.5t27.5 -22.5t35 -22t35 -28t27.5 -43.5t11 -67.5q0 -67 -41.5 -102.5t-103.5 -35.5q-85 0 -134.5 59t-49.5 162zM532 1040 q0 63 19.5 123t62.5 111t111 91.5t166 67.5v-104q-43 -16 -76.5 -31.5t-55.5 -33.5t-33.5 -40.5t-11.5 -51.5q0 -20 11 -31.5t27.5 -22.5t35.5 -22t35.5 -28t27 -43.5t10.5 -67.5q0 -67 -41.5 -102.5t-103.5 -35.5q-85 0 -134.5 59t-49.5 162z" />
<glyph unicode="&#x201d;" horiz-adv-x="980" d="M90 819v104q44 16 77 31.5t55 33.5t33.5 40.5t11.5 51.5q0 20 -11 31.5t-27 22.5t-35.5 22t-35.5 28.5t-26.5 43.5t-10.5 67q0 67 41 102.5t103 35.5q85 0 135 -59t50 -162q0 -63 -19.5 -123t-63 -111t-111.5 -91.5t-166 -67.5zM510 819v104q44 16 76.5 31.5t54.5 33.5 t33.5 40.5t11.5 51.5q0 20 -11 31.5t-27 22.5t-35 22t-35 28.5t-27 43.5t-11 67q0 67 41 102.5t103 35.5q85 0 135 -59t50 -162q0 -63 -19.5 -123t-62.5 -111t-111 -91.5t-166 -67.5z" />
<glyph unicode="&#x201e;" horiz-adv-x="980" d="M90 -205q44 16 77 31.5t55 33.5t33.5 40.5t11.5 51.5q0 19 -11 31t-27 23t-35.5 22t-35.5 28.5t-26.5 43.5t-10.5 67q0 67 41 102.5t103 35.5q85 0 135 -59t50 -162q0 -63 -19.5 -123t-63 -111t-111.5 -91.5t-166 -67.5v104zM510 -205q44 16 76.5 31.5t54.5 33.5 t33.5 40.5t11.5 51.5q0 19 -11 31t-27 23t-35 22t-35 28.5t-27 43.5t-11 67q0 67 41 102.5t103 35.5q85 0 135 -59t50 -162q0 -63 -19.5 -123t-62.5 -111t-111 -91.5t-166 -67.5v104z" />
<glyph unicode="&#x2022;" horiz-adv-x="802" d="M113 714q0 91 21.5 152t60 98t91.5 52.5t116 15.5q59 0 111.5 -15.5t92 -52.5t62.5 -98t23 -152q0 -89 -23 -149.5t-62.5 -98t-92 -53t-111.5 -15.5q-63 0 -116 15.5t-91.5 53t-60 98t-21.5 149.5z" />
<glyph unicode="&#x2026;" horiz-adv-x="1830" d="M140 144q0 46 13 77t35 49.5t52 26.5t65 8q33 0 63 -8t52.5 -26.5t35.5 -49.5t13 -77q0 -45 -13 -75.5t-35.5 -49t-52.5 -27t-63 -8.5q-35 0 -65 8.5t-52 27t-35 49t-13 75.5zM751 144q0 46 12.5 77t34.5 49.5t52.5 26.5t64.5 8t63.5 -8t52.5 -26.5t36 -49.5t13 -77 q0 -45 -13 -75.5t-36 -49t-52.5 -27t-63.5 -8.5t-64.5 8.5t-52.5 27t-34.5 49t-12.5 75.5zM1361 144q0 46 13 77t35 49.5t52 26.5t64 8q33 0 63 -8t52.5 -26.5t36 -49.5t13.5 -77q0 -45 -13.5 -75.5t-36 -49t-52.5 -27t-63 -8.5q-34 0 -64 8.5t-52 27t-35 49t-13 75.5z" />
<glyph unicode="&#x202f;" horiz-adv-x="424" />
<glyph unicode="&#x2039;" horiz-adv-x="708" d="M130 490v104l307 350h141l-203 -402l203 -402h-141z" />
<glyph unicode="&#x203a;" horiz-adv-x="708" d="M130 140l203 402l-203 402h140l308 -350v-104l-308 -350h-140z" />
<glyph unicode="&#x205f;" horiz-adv-x="531" />
<glyph unicode="&#x20ac;" d="M54 532v125h107v61v63h-107v125h117q17 155 66 259.5t120.5 167.5t161.5 89.5t190 26.5q89 0 159 -17.5t119 -49t75 -73.5t26 -91q0 -34 -16.5 -65t-48 -54.5t-77.5 -37t-107 -13.5q0 47 -7.5 96t-25 88.5t-46.5 65t-72 25.5q-42 0 -80 -17.5t-67.5 -64t-50 -127.5 t-28.5 -208h369v-125h-375v-67v-57h295v-125h-285q16 -202 88 -302t208 -100q48 0 90 12.5t76 34.5t60 52t44 64q21 -17 31.5 -41t10.5 -51q0 -38 -18.5 -77.5t-60 -71t-109 -52t-164.5 -20.5q-103 0 -194 30t-163.5 96t-122 170.5t-70.5 255.5h-118z" />
<glyph unicode="&#x2122;" horiz-adv-x="1675" d="M54 1250l6 183h586l7 -183h-59l-8 48q-4 29 -20.5 49.5t-59.5 21.5h-92v-514q0 -21 6 -33t16.5 -18.5t24.5 -8.5t29 -2h31v-54h-341v54h35q14 0 28 2t24 7.5t16 17t6 29.5v520h-88q-22 -1 -36.5 -6.5t-23.5 -15t-14 -22t-6 -27.5l-8 -48h-59zM686 739v54h21q30 0 53 9.5 t25 46.5v472q-1 19 -7.5 30t-17 17t-25 7.5t-28.5 1.5h-21v56h231l221 -556l227 556h227v-56h-22q-17 0 -31 -2t-24.5 -8t-15.5 -18t-5 -33v-461q0 -21 5 -33t15.5 -18.5t24.5 -8.5t31 -2h22v-54h-297v54q34 0 54.5 9.5t23.5 44.5v448l-227 -556h-70l-227 558v-442 q0 -41 20.5 -51.5t59.5 -10.5v-54h-243z" />
<glyph unicode="&#x25fc;" horiz-adv-x="1078" d="M0 0v1078h1078v-1078h-1078z" />
</font>
</defs>
</svg>
