<?xml version="1.0" standalone="no"?>
<!DOCTYPE svg PUBLIC "-//W3C//DTD SVG 1.1//EN" "http://www.w3.org/Graphics/SVG/1.1/DTD/svg11.dtd" >
<svg xmlns="http://www.w3.org/2000/svg" xmlns:xlink="http://www.w3.org/1999/xlink" version="1.1">
<metadata></metadata>
<defs>
<font id="noto_serifregular" horiz-adv-x="1122" >
<font-face units-per-em="2048" ascent="1638" descent="-410" />
<missing-glyph horiz-adv-x="521" />
<glyph horiz-adv-x="0" />
<glyph horiz-adv-x="0" />
<glyph unicode="&#xd;" horiz-adv-x="1023" />
<glyph unicode=" "  horiz-adv-x="521" />
<glyph unicode="&#x09;" horiz-adv-x="521" />
<glyph unicode="&#xa0;" horiz-adv-x="521" />
<glyph unicode="!" horiz-adv-x="668" d="M207 122q0 40 9.5 66t27 41.5t40.5 22.5t49 7t49 -7t40 -22.5t27.5 -41.5t10.5 -66q0 -38 -10.5 -64.5t-27.5 -42t-40 -22.5t-49 -7t-49 7t-40.5 22.5t-27 42t-9.5 64.5zM217 1433h233l-71 -1029h-92z" />
<glyph unicode="&#x22;" horiz-adv-x="819" d="M115 1433h212l-60 -472h-93zM492 1433h213l-61 -472h-92z" />
<glyph unicode="#" d="M50 408v118h207l76 393h-218v119h240l72 395h123l-75 -395h280l74 395h121l-75 -395h197v-119h-219l-74 -393h228v-118h-252l-77 -408h-120l76 408h-279l-76 -408h-120l76 408h-185zM379 526h280l74 393h-279z" />
<glyph unicode="$" d="M132 163v308h85q0 -55 21 -107.5t59.5 -94.5t92 -69t118.5 -31v495q-94 43 -159.5 84t-105.5 86.5t-58 98.5t-18 119q0 67 24 122t68 95.5t107 65.5t142 34v156h101v-152q90 -2 153 -20t103.5 -48t58.5 -70t18 -87q0 -65 -43 -98t-116 -33q0 44 -7.5 89t-26.5 81.5 t-53 62t-87 31.5v-469q90 -39 159.5 -78t116.5 -84.5t71.5 -101t24.5 -127.5q0 -151 -97 -234.5t-275 -102.5v-243h-101v239q-50 0 -101 4.5t-99.5 15t-93 26t-82.5 37.5zM347 1068q0 -42 10.5 -74t31 -56.5t50 -44t69.5 -36.5v420q-40 -9 -70 -28t-50 -46t-30.5 -61.5 t-10.5 -73.5zM609 174q90 16 139 73.5t49 143.5q0 40 -10 72t-32.5 59.5t-58 51t-87.5 46.5v-446z" />
<glyph unicode="%" horiz-adv-x="1798" d="M90 1009q0 101 19 183t59.5 140.5t103 89.5t149.5 31q83 0 144 -31t102 -89.5t61.5 -140.5t20.5 -183t-20.5 -183t-62 -141t-103 -91t-144.5 -32q-86 0 -148 32t-102.5 91t-59.5 141t-19 183zM270 1009q0 -86 8 -154t25.5 -115t46 -71.5t69.5 -24.5q42 0 70 24.5 t45.5 71.5t24.5 115t7 154t-7 152.5t-24.5 113t-44.5 70.5t-69 24q-41 0 -70 -24t-47 -70.5t-26 -113t-8 -152.5zM471 0l717 1433h131l-715 -1433h-133zM1050 427q0 101 19 183t59 140t103 89.5t150 31.5q82 0 143.5 -31.5t102 -89.5t61 -140t20.5 -183t-20.5 -183 t-61.5 -141t-103 -91t-144 -32q-86 0 -149 32t-102.5 91t-58.5 141t-19 183zM1230 427q0 -86 8 -154t25.5 -115t46 -71.5t69.5 -24.5t69.5 24.5t45 71.5t24 115t7.5 154t-7.5 152.5t-24 113t-44 70.5t-68.5 24t-70 -24t-47 -70.5t-26 -113t-8 -152.5z" />
<glyph unicode="&#x26;" horiz-adv-x="1489" d="M73 402q0 85 23 148t64.5 111.5t100.5 84.5t132 66q-38 46 -67 87.5t-48 82.5t-29 84t-10 92q0 67 21.5 121t67.5 93t118 60t172 21q96 0 164 -22.5t110.5 -61.5t61.5 -91t19 -110q0 -65 -18.5 -114.5t-59 -92t-105 -80t-156.5 -76.5l366 -388q13 46 22 92.5t14.5 91 t7.5 87t2 78.5v79h361v-85h-18q-34 0 -66 -3.5t-60 -18t-50 -41.5t-35 -73q-18 -64 -41 -139.5t-57 -151.5l186 -199q15 -14 30.5 -24t36.5 -16t50 -8t70 -2h18v-84h-320l-167 176q-36 -41 -80 -76.5t-96.5 -62t-117 -42t-140.5 -15.5q-121 0 -210.5 30.5t-149 86t-88.5 133 t-29 172.5zM269 395q0 -74 21.5 -130t61 -95t94.5 -58.5t122 -19.5q59 0 109.5 12.5t92.5 34t77.5 51.5t63.5 65l-444 475q-46 -25 -82.5 -56t-62.5 -71.5t-39.5 -91.5t-13.5 -116zM425 1164q0 -38 8 -71.5t25 -66t43.5 -68t64.5 -77.5q59 25 102.5 53.5t72 62.5t42.5 75 t14 94q0 40 -10 74.5t-32 59.5t-57.5 39.5t-86.5 14.5q-90 0 -138 -52t-48 -138z" />
<glyph unicode="'" horiz-adv-x="441" d="M115 1433h212l-60 -472h-93z" />
<glyph unicode="(" horiz-adv-x="694" d="M115 636q0 181 28.5 322t90.5 248.5t160 185.5t236 133v-90q-103 -63 -164 -150.5t-92.5 -191.5t-41 -220.5t-9.5 -236.5t9.5 -236.5t41 -221t92.5 -192.5t164 -151v-92q-138 55 -236 133.5t-160 187t-90.5 250t-28.5 322.5z" />
<glyph unicode=")" horiz-adv-x="694" d="M65 -165q103 63 163.5 151t92.5 192.5t41 221t9 236.5t-9 236.5t-41 220.5t-92.5 191.5t-163.5 150.5v90q138 -55 236 -133t159.5 -185.5t90.5 -248.5t29 -322t-29 -322.5t-90.5 -250t-159.5 -187t-236 -133.5v92z" />
<glyph unicode="*" horiz-adv-x="1003" d="M82 1042l337 100l-337 101l71 158l309 -195l-52 319h174l-56 -317l311 188l70 -155l-339 -99l339 -98l-70 -155l-311 187l56 -317h-174l50 317l-307 -191z" />
<glyph unicode="+" d="M130 659v118h370v371h120v-371h372v-118h-372v-372h-120v372h-370z" />
<glyph unicode="," horiz-adv-x="501" d="M60 -224q99 31 145 76t46 104q0 20 -11 33t-27.5 23.5t-35 20t-35.5 23.5t-27.5 34t-10.5 50q0 58 37.5 88.5t93.5 30.5q32 0 59 -11.5t49 -33.5t34 -55t12 -75q0 -63 -17.5 -123t-57.5 -111t-102 -91.5t-152 -67.5v85z" />
<glyph unicode="-" horiz-adv-x="622" d="M50 471v151h522v-151h-522z" />
<glyph unicode="." horiz-adv-x="501" d="M124 122q0 40 10 66t27 41.5t40 22.5t50 7q25 0 48 -7t40.5 -22.5t27.5 -41.5t10 -66q0 -38 -10 -64.5t-27.5 -42t-40.5 -22.5t-48 -7q-27 0 -50 7t-40 22.5t-27 42t-10 64.5z" />
<glyph unicode="/" horiz-adv-x="578" d="M0 -243l462 1768h116l-459 -1768h-119z" />
<glyph unicode="0" d="M90 720q0 167 27.5 302t85 231t147 148t214.5 52q117 0 205 -52t146.5 -148t87.5 -231.5t29 -303.5q0 -165 -29 -301.5t-87.5 -233.5t-147 -150t-206.5 -53q-124 0 -213 53t-146.5 150t-85 234t-27.5 303zM299 718q0 -149 13.5 -266t44.5 -198t81.5 -123.5t123.5 -42.5 t123 42.5t81 123.5t44 198t13 266t-13 266t-44 197t-80.5 122t-121.5 42q-74 0 -124.5 -42t-82 -122t-45 -197t-13.5 -266z" />
<glyph unicode="1" d="M132 1182q31 8 61.5 19t65.5 29.5t75.5 44t90.5 62.5l141 104h129v-1213q0 -47 12.5 -75.5t35 -43.5t52.5 -20t64 -5h98v-84h-764v84h134q35 0 64.5 5t52 20t35.5 43.5t13 75.5v1055q-38 -47 -72.5 -85.5t-66 -66t-61 -42.5t-59.5 -15q-44 0 -72.5 30t-28.5 78z" />
<glyph unicode="2" d="M102 0v147l335 387q80 93 134.5 166.5t88 139t48 127.5t14.5 131q0 57 -12 104t-37 80.5t-64 51.5t-92 18q-68 0 -110.5 -24.5t-67 -65.5t-33.5 -95t-9 -113q-36 0 -67.5 5.5t-55 21t-37 40.5t-13.5 63q0 58 25 107.5t74.5 85.5t123 56t170.5 20q95 0 170.5 -24 t128.5 -67.5t81 -105t28 -138.5q0 -70 -22.5 -137t-65.5 -137t-105.5 -145.5t-141.5 -162.5l-339 -375h463q46 0 75 12.5t48 33t29 47.5t17 57l8 36h84l-10 -347h-863z" />
<glyph unicode="3" d="M117 203q0 61 34 94.5t92 33.5q0 -53 17 -97.5t49.5 -77t80 -50.5t108.5 -18q60 0 113.5 17t95 55t66 99.5t24.5 152.5q0 63 -25 114.5t-72 88t-115 56.5t-152 20h-64v102h64q67 0 124 22t100 62t67.5 97.5t24.5 128.5q0 59 -12 105t-38 78.5t-66.5 49t-98.5 16.5 q-68 0 -111.5 -24.5t-68 -65.5t-33 -95t-8.5 -113q-37 0 -68 5.5t-54.5 21t-37 40.5t-13.5 63q0 58 25 107.5t75 85.5t123.5 56t170.5 20q95 0 172.5 -21.5t133 -62t86 -100t30.5 -135.5q0 -68 -24.5 -127.5t-67.5 -108t-101.5 -83t-128.5 -51.5q37 -4 79.5 -13t83.5 -26.5 t78.5 -44t66.5 -65t46 -89t17 -116.5q0 -81 -21.5 -144.5t-59 -111t-87.5 -81t-107 -54t-116.5 -30t-117.5 -9.5q-99 0 -170.5 18.5t-118 48.5t-68.5 71t-22 85z" />
<glyph unicode="4" d="M34 393v82l621 958h190v-927h249v-113h-249v-165q0 -47 13 -75.5t35 -43.5t52.5 -20t63.5 -5h27v-84h-605v84h57q34 0 64 5t52 20t35.5 43.5t13.5 75.5v165h-619zM178 506h475v371q0 44 1 97t2.5 108t3.5 109.5t6 101.5q-6 -14 -19 -37t-29 -51.5t-34.5 -60t-36.5 -61 t-33.5 -55.5t-27.5 -44z" />
<glyph unicode="5" d="M111 182q0 56 30.5 87.5t95.5 31.5q0 -43 15.5 -80.5t45 -64.5t75 -42.5t106.5 -15.5q62 0 114.5 17t91 57t60 105t21.5 160q0 79 -21.5 138t-61.5 98t-96 58.5t-125 19.5q-52 0 -90 -4t-67 -10.5t-50.5 -14.5t-39.5 -15l-48 13l64 711h671l9 -303h-84l-8 60 q-3 21 -8 36.5t-17 25.5t-32 15t-52 5h-389l-38 -441q31 11 88 21.5t146 10.5q97 0 181 -26.5t146 -79t96.5 -132.5t34.5 -186q0 -102 -33 -186t-95 -144.5t-152 -93.5t-205 -33q-112 0 -185 19.5t-116 48.5t-60.5 65t-17.5 69z" />
<glyph unicode="6" d="M122 722q0 95 14.5 186.5t43 172.5t71.5 149.5t101.5 118t132 77t161.5 27.5q84 0 146.5 -17.5t103.5 -47t61 -67.5t20 -78q0 -58 -39 -89.5t-115 -31.5q0 49 -9 91.5t-31 74.5t-55 50t-82 18q-151 0 -228.5 -148.5t-88.5 -441.5q25 21 55 40t65 33.5t76.5 23t90.5 8.5 q93 0 167.5 -28.5t126.5 -81t80.5 -129t28.5 -172.5q0 -106 -29 -194.5t-84 -151.5t-135 -98.5t-183 -35.5q-100 0 -185 42t-147.5 131.5t-98 230t-35.5 338.5zM327 653q2 -151 21.5 -258t53.5 -174.5t83 -99t109 -31.5q108 0 164 84t56 266q0 172 -61 250t-177 78 q-39 0 -75 -10t-68 -26.5t-58.5 -37.5t-47.5 -41z" />
<glyph unicode="7" d="M119 1068l9 363h898v-58l-494 -1373h-151l474 1270h-528q-107 0 -116 -102l-8 -100h-84z" />
<glyph unicode="8" d="M92 360q0 72 23 126.5t64 97t97 77t122 65.5q-57 33 -105 70.5t-82.5 82.5t-53.5 98.5t-19 116.5q0 69 24.5 134t76.5 115t135 80t198 30q94 0 167.5 -26t124 -72t77 -109t26.5 -139q0 -65 -19.5 -115t-54.5 -90t-85 -71.5t-111 -62.5q74 -35 135.5 -75t105.5 -87 t68 -102t24 -121q0 -95 -34.5 -170t-97 -127t-151.5 -79t-199 -27q-113 0 -198 29.5t-142.5 81t-86.5 120.5t-29 149zM287 351q0 -63 17 -114t51 -87.5t85 -56.5t118 -20q65 0 118.5 20t91.5 55t58.5 84t20.5 107q0 51 -19 94.5t-61 84.5t-109 79.5t-164 80.5 q-95 -51 -151 -132t-56 -195zM327 1118q0 -54 17.5 -97t51 -78.5t84.5 -66t118 -62.5q57 29 93.5 59t58 65.5t30.5 78t9 95.5q0 46 -12.5 90.5t-39.5 79t-70.5 55.5t-106.5 21q-56 0 -100 -18t-73 -50t-44.5 -76t-15.5 -96z" />
<glyph unicode="9" d="M102 959q0 109 29.5 200t84.5 156t135 101.5t181 36.5q102 0 187.5 -39t148 -121.5t97.5 -209.5t35 -304q0 -105 -13.5 -205.5t-41.5 -189.5t-71.5 -163.5t-103.5 -129t-138.5 -84.5t-175.5 -30q-86 0 -142 15.5t-89 40t-46.5 56t-13.5 62.5q0 37 18.5 62.5t40.5 33.5 q14 -31 34 -60t49 -51t66.5 -35t84.5 -13q166 0 245.5 149t89.5 451q-22 -26 -51 -51t-65.5 -44t-81 -30t-97.5 -11q-87 0 -160 25.5t-125.5 76.5t-81.5 127.5t-29 177.5zM309 979q0 -82 14.5 -141t44 -96t73 -54.5t101.5 -17.5q49 1 89.5 14.5t72 35.5t54.5 51.5t37 61.5v4 q-2 132 -21.5 227.5t-54 157.5t-82 91.5t-105.5 29.5q-107 0 -165 -93.5t-58 -270.5z" />
<glyph unicode=":" horiz-adv-x="574" d="M163 122q0 40 9.5 66t27 41.5t40.5 22.5t49 7t49 -7t40 -22.5t27.5 -41.5t10.5 -66q0 -38 -10.5 -64.5t-27.5 -42t-40 -22.5t-49 -7t-49 7t-40.5 22.5t-27 42t-9.5 64.5zM163 950q0 39 9.5 65t27 41.5t40.5 22.5t49 7t49 -7t40 -22.5t27.5 -41.5t10.5 -65t-10.5 -65.5 t-27.5 -42.5t-40 -23t-49 -7t-49 7t-40.5 23t-27 42.5t-9.5 65.5z" />
<glyph unicode=";" horiz-adv-x="574" d="M96 -224q99 31 145 76t46 104q0 20 -10.5 33t-27.5 23.5t-35.5 20t-35 23.5t-27.5 34t-11 50q0 58 38 88.5t93 30.5q32 0 59.5 -11.5t49 -33.5t33.5 -55t12 -75q0 -63 -17.5 -123t-57 -111t-102 -91.5t-152.5 -67.5v85zM163 950q0 39 9.5 65t27 41.5t40.5 22.5t49 7 t49 -7t40 -22.5t27.5 -41.5t10.5 -65t-10.5 -65.5t-27.5 -42.5t-40 -23t-49 -7t-49 7t-40.5 23t-27 42.5t-9.5 65.5z" />
<glyph unicode="&#x3c;" d="M130 682v71l862 463v-134l-674 -366l674 -361v-135z" />
<glyph unicode="=" d="M130 460v118h862v-118h-862zM130 855v118h862v-118h-862z" />
<glyph unicode="&#x3e;" d="M130 220v135l675 361l-675 366v134l862 -463v-71z" />
<glyph unicode="?" horiz-adv-x="1003" d="M86 1228q0 48 22 89t68.5 71.5t117.5 47.5t168 17q95 0 175 -24.5t139 -71t92.5 -114t33.5 -153.5q0 -83 -26 -150.5t-76 -123.5t-122.5 -102t-165.5 -84v-226h-123v305q87 35 146.5 81.5t95 101t51 113.5t15.5 119q0 52 -13 94.5t-39.5 72.5t-68 46.5t-99.5 16.5 q-62 0 -105 -20.5t-69.5 -55.5t-38 -81.5t-11.5 -98.5q-36 0 -66.5 8t-52.5 24.5t-35 41t-13 56.5zM321 122q0 40 10 66t27 41.5t40 22.5t50 7q25 0 48 -7t40.5 -22.5t27.5 -41.5t10 -66q0 -38 -10 -64.5t-27.5 -42t-40.5 -22.5t-48 -7q-27 0 -50 7t-40 22.5t-27 42 t-10 64.5z" />
<glyph unicode="@" horiz-adv-x="1848" d="M130 437q0 142 31 271t89.5 239.5t141 200.5t186.5 153t226 97.5t259 34.5q169 0 296.5 -50t212.5 -137t127.5 -205t42.5 -254q0 -145 -35 -262t-92 -199.5t-127 -126.5t-140 -44q-89 0 -148 48t-88 134h-10q-21 -39 -47 -72.5t-59 -58t-73.5 -38t-91.5 -13.5 q-61 0 -116 20.5t-97 62.5t-67 107t-25 153q0 54 12.5 116.5t38.5 125t66.5 120.5t97.5 102.5t131 71.5t166 27q64 0 111 -17.5t77 -41.5l80 42h48l-102 -512q-2 -23 -6 -47q-3 -19 -5 -43t-2 -44q0 -35 10 -61t27 -43.5t39 -25t46 -7.5q44 0 90 35t83.5 103t61.5 167 t24 227q0 131 -42 231.5t-117 168.5t-179.5 103t-229.5 35q-98 0 -193 -27.5t-179 -81t-156 -130.5t-124 -175.5t-81.5 -218t-29.5 -256.5q0 -168 48 -286t130 -193t190 -109t230 -34q82 0 155.5 14t138 37.5t118.5 53.5t97 61l48 -72q-50 -37 -112 -73t-134 -64t-155 -45 t-176 -17q-161 0 -296.5 44.5t-233 134.5t-152.5 225.5t-55 317.5zM712 469q0 -105 43 -156.5t110 -51.5q51 0 88.5 22t63 57t41 80.5t24.5 91.5l76 407q-12 29 -44 44.5t-68 15.5q-60 0 -108.5 -26t-85.5 -68t-63.5 -96.5t-43.5 -111.5t-25 -110.5t-8 -97.5z" />
<glyph unicode="A" horiz-adv-x="1415" d="M0 0v84h38q30 0 50.5 6.5t37 24t31.5 48t34 78.5l445 1192h157l454 -1242q11 -31 23.5 -51.5t29 -33t38 -17.5t51.5 -5h26v-84h-552v84h46q121 0 121 96q0 17 -4.5 34.5t-12.5 40.5l-80 224h-527l-77 -210q-9 -24 -13.5 -47t-4.5 -40q0 -51 32.5 -74.5t100.5 -23.5h46 v-84h-490zM444 580h453l-125 351q-31 89 -57 167t-43 151q-7 -37 -16 -70.5t-20 -69t-24.5 -74t-31.5 -85.5z" />
<glyph unicode="B" horiz-adv-x="1312" d="M76 0v84h26q34 0 64 5t52.5 20t35.5 43.5t13 75.5v984q0 44 -13.5 71t-36 42t-52.5 19t-63 4h-26v85h538q261 0 388.5 -87t127.5 -272q0 -68 -19 -118.5t-52.5 -89t-79 -64.5t-98.5 -43v-8q69 -12 125.5 -40.5t97.5 -74t63.5 -108t22.5 -141.5q0 -194 -127.5 -290.5 t-388.5 -96.5h-598zM469 100h195q86 0 144.5 15.5t96 50.5t54 91t16.5 136q0 78 -14.5 136t-50.5 96t-94.5 57t-147.5 19h-199v-601zM469 801h140q88 0 146.5 15.5t94 48.5t50.5 85t15 124q0 74 -16.5 123.5t-53.5 79.5t-96.5 43t-144.5 13h-135v-532z" />
<glyph unicode="C" horiz-adv-x="1231" d="M115 718q0 163 41 298.5t122 232.5t201.5 150.5t279.5 53.5q102 0 178 -17t126.5 -47.5t75.5 -71.5t25 -89q0 -32 -13 -58t-36.5 -44.5t-55.5 -28t-69 -9.5q0 47 -12.5 93t-40.5 82.5t-72.5 60t-109.5 23.5q-114 0 -193.5 -42t-129.5 -122t-72.5 -197t-22.5 -268 q0 -134 23.5 -245.5t74.5 -191.5t130 -124t190 -44q73 0 129.5 14t99.5 37.5t76 54.5t58 64q17 -11 27.5 -29.5t10.5 -48.5q0 -38 -26 -78t-78.5 -72t-134 -53.5t-193.5 -21.5q-150 0 -263.5 53t-190.5 150t-116 233.5t-39 301.5z" />
<glyph unicode="D" horiz-adv-x="1459" d="M76 0v84h26q34 0 64 5t52.5 20t35.5 43.5t13 75.5v984q0 44 -13.5 71t-36 42t-52.5 19t-63 4h-26v85h615q155 0 276.5 -47.5t205 -139t128 -224.5t44.5 -304q0 -164 -41.5 -297t-122.5 -226.5t-203.5 -144t-286.5 -50.5h-615zM469 102h175q119 0 209 40.5t149.5 119 t89.5 193t30 263.5q0 299 -119 457t-357 158h-177v-1231z" />
<glyph unicode="E" horiz-adv-x="1250" d="M76 0v84h26q33 0 63 4.5t52.5 18.5t36 40.5t13.5 71.5v985q0 47 -13 75.5t-35.5 44t-52.5 20t-64 4.5h-26v85h1012l10 -351h-104l-10 86q-4 33 -15.5 63t-32.5 52.5t-52.5 36t-76.5 13.5h-338v-534h485v-98h-485v-601h388q48 0 81.5 13t56 36t35.5 52.5t18 63.5l13 86 h105l-14 -351h-1076z" />
<glyph unicode="F" horiz-adv-x="1183" d="M76 0v84h26q33 0 63 4.5t52.5 18.5t36 40.5t13.5 71.5v993q0 44 -13.5 71t-36 42t-52.5 19t-63 4h-26v85h1012l10 -351h-104l-10 86q-4 34 -16 64t-34 52t-55 35.5t-80 13.5h-330v-580h485v-98h-485v-427q0 -47 13.5 -75.5t35.5 -43.5t52.5 -20t63.5 -5h67v-84h-625z" />
<glyph unicode="G" horiz-adv-x="1432" d="M115 718q0 163 44.5 298.5t133 232.5t220 150.5t304.5 53.5q112 0 195 -17t138 -47.5t82.5 -71.5t27.5 -89q0 -32 -14.5 -58t-39.5 -44.5t-59 -28t-73 -9.5q0 47 -13.5 93t-45 82.5t-82.5 60t-125 23.5q-127 0 -216.5 -42t-146.5 -122t-82.5 -197t-25.5 -268 q0 -150 26.5 -266.5t86.5 -196t155 -120.5t232 -41q58 0 112.5 6t96.5 19v323q0 44 -13.5 71t-36 41t-52.5 19t-63 5h-8v84h522v-84h-8q-29 0 -54.5 -5t-44 -20t-29 -44t-10.5 -76v-360q-101 -48 -208 -70.5t-236 -22.5q-175 0 -305 53t-215.5 150t-127.5 233.5t-42 301.5z " />
<glyph unicode="H" horiz-adv-x="1591" d="M76 0v84h26q34 0 64 5t52.5 20t35.5 43.5t13 75.5v984q0 44 -13.5 71t-36 42t-52.5 19t-63 4h-26v85h585v-85h-27q-33 0 -63.5 -4.5t-52.5 -20t-35.5 -44t-13.5 -75.5v-405h653v405q0 47 -13 75.5t-35 44t-52 20t-65 4.5h-26v85h584v-85h-25q-35 0 -64.5 -4.5t-52.5 -20 t-35.5 -44t-12.5 -75.5v-985q0 -45 13 -71.5t35.5 -40.5t52.5 -18.5t64 -4.5h25v-84h-584v84h26q35 0 65 5t52 20t35 43.5t13 75.5v471h-653v-471q0 -47 13.5 -75.5t35.5 -43.5t52.5 -20t63.5 -5h27v-84h-585z" />
<glyph unicode="I" horiz-adv-x="736" d="M76 0v84h26q34 0 64 5t52.5 20t35.5 43.5t13 75.5v976q0 47 -13 75.5t-35.5 44t-52.5 20t-64 4.5h-26v85h585v-85h-27q-33 0 -63.5 -4.5t-52.5 -20t-35.5 -44t-13.5 -75.5v-976q0 -47 13.5 -75.5t35.5 -43.5t52.5 -20t63.5 -5h27v-84h-585z" />
<glyph unicode="J" horiz-adv-x="716" d="M-23 -387h19q65 0 115.5 18t84.5 60.5t52.5 114t18.5 176.5v1230q0 44 -13.5 71t-36 42t-52.5 19t-63 4h-26v85h585v-85h-27q-33 0 -63.5 -4.5t-52.5 -20t-35.5 -44t-13.5 -75.5v-1220q0 -135 -35 -224.5t-97 -143t-145.5 -76t-179.5 -22.5h-35v95z" />
<glyph unicode="K" horiz-adv-x="1405" d="M76 0v84h26q33 0 63 4.5t52.5 18.5t36 40.5t13.5 71.5v993q0 44 -13.5 71t-36 42t-52.5 19t-63 4h-26v85h585v-85h-27q-33 0 -63.5 -4.5t-52.5 -20t-35.5 -44t-13.5 -75.5v-566l416 476q32 38 53.5 66.5t34 52t18 41.5t5.5 32q0 26 -24.5 35t-74.5 9v83h444v-83 q-35 0 -66.5 -13t-63.5 -37t-66 -59t-73 -79l-291 -327l423 -590q58 -79 111.5 -120t109.5 -41h4v-84h-22q-101 0 -165.5 8t-108.5 28.5t-77 55t-70 88.5l-346 496l-171 -138v-310q0 -47 13.5 -75.5t35.5 -43.5t52.5 -20t63.5 -5h27v-84h-585z" />
<glyph unicode="L" horiz-adv-x="1250" d="M76 0v84h26q34 0 64 5t52.5 20t35.5 43.5t13 75.5v976q0 47 -13 75.5t-35.5 44t-52.5 20t-64 4.5h-26v85h585v-85h-27q-33 0 -63 -4t-52.5 -19t-36 -42t-13.5 -71v-1112h396q45 0 77 16t52.5 42t32 58.5t15.5 64.5l19 150h105l-14 -431h-1076z" />
<glyph unicode="M" horiz-adv-x="1882" d="M76 0v84h26q33 0 63 4.5t52.5 18.5t36 40.5t13.5 71.5v993q0 44 -13.5 71t-36 42t-52.5 19t-63 4h-26v85h458l416 -1148l411 1148h445v-85h-25q-35 0 -64.5 -4.5t-52 -20t-35.5 -44t-13 -75.5v-976q0 -47 13 -75.5t35.5 -43.5t52 -20t64.5 -5h25v-84h-534v84h7 q32 0 58 4.5t44 18t29 38.5t13 66v1072l-460 -1283h-108l-466 1279v-1051q0 -47 10 -75.5t29 -43.5t46 -20t60 -5h6v-84h-464z" />
<glyph unicode="N" horiz-adv-x="1531" d="M76 0v84h26q34 0 64 5t52.5 20t35.5 43.5t13 75.5v984q0 44 -13.5 71t-36 42t-52.5 19t-63 4h-26v85h368l718 -1110v889q0 44 -13 71t-35.5 42t-52.5 19t-63 4h-27v85h504v-85h-26q-34 0 -64 -4.5t-52.5 -20t-35 -44t-12.5 -75.5v-1204h-143l-753 1156v-928 q0 -47 13.5 -75.5t35.5 -43.5t52 -20t64 -5h26v-84h-504z" />
<glyph unicode="O" horiz-adv-x="1489" d="M113 720q0 167 39 302.5t117.5 231.5t198 148.5t279.5 52.5q152 0 268.5 -52.5t197 -149t121.5 -232t41 -303.5q0 -165 -41 -301.5t-121.5 -233.5t-198 -150t-269.5 -53q-160 0 -278.5 53t-197 150t-117.5 234t-39 303zM335 718q0 -149 22 -266t71 -198t127 -123.5 t190 -42.5t189.5 42.5t126 123.5t70 198t21.5 266t-21.5 266.5t-70 197.5t-125.5 122.5t-188 42.5q-112 0 -190.5 -42.5t-128 -122.5t-71.5 -197.5t-22 -266.5z" />
<glyph unicode="P" horiz-adv-x="1212" d="M76 0v84h26q34 0 64 5t52.5 20t35.5 43.5t13 75.5v984q0 44 -13.5 71t-36 42t-52.5 19t-63 4h-26v85h564q126 0 219.5 -29t154 -83.5t90.5 -132t30 -175.5q0 -89 -28 -171t-91.5 -145.5t-166.5 -101t-252 -37.5h-127v-339q0 -45 13.5 -71.5t36 -40.5t52.5 -18.5t63 -4.5 h67v-84h-625zM469 653h107q91 0 156 19t106 61.5t60 109.5t19 162q0 85 -16.5 147t-54 103.5t-96.5 61.5t-144 20h-137v-684z" />
<glyph unicode="Q" horiz-adv-x="1489" d="M113 720q0 167 39 302.5t117.5 231.5t198 148.5t279.5 52.5q152 0 268.5 -52.5t197 -149t121.5 -232t41 -303.5q0 -147 -32.5 -270.5t-95.5 -217.5t-155.5 -155t-212.5 -83q9 -103 33.5 -172t62.5 -110.5t89 -59.5t112 -18h32v-94h-86q-79 0 -158 21.5t-143.5 72.5 t-108.5 137t-53 215q-139 15 -241 73.5t-170 154t-101.5 224t-33.5 284.5zM335 718q0 -149 22 -266t71 -198t127 -123.5t190 -42.5t189.5 42.5t126 123.5t70 198t21.5 266t-21.5 266.5t-70 197.5t-125.5 122.5t-188 42.5q-112 0 -190.5 -42.5t-128 -122.5t-71.5 -197.5 t-22 -266.5z" />
<glyph unicode="R" horiz-adv-x="1316" d="M76 0v84h26q33 0 63 4.5t52.5 18.5t36 40.5t13.5 71.5v993q0 44 -13.5 71t-36 42t-52.5 19t-63 4h-26v85h540q261 0 388.5 -96.5t127.5 -290.5q0 -81 -26 -141t-68 -104t-95 -73.5t-106 -47.5l275 -435q51 -80 99 -120.5t112 -40.5h6v-84h-29q-94 0 -154 7t-102 26.5 t-72 54.5t-65 92l-271 452h-167v-413q0 -45 13.5 -71.5t36 -40.5t52.5 -18.5t63 -4.5h27v-84h-585zM469 726h142q88 0 146.5 19.5t94 59t50.5 98t15 137.5q0 80 -16.5 136.5t-54 92t-96.5 52t-144 16.5h-137v-611z" />
<glyph unicode="S" horiz-adv-x="1091" d="M96 263q0 60 38 97.5t107 37.5q3 -63 19 -120.5t48.5 -102t82.5 -71t121 -26.5q135 0 211 65.5t76 187.5q0 55 -16 97t-52 78t-95.5 69t-147.5 69q-93 38 -162.5 81.5t-115.5 97t-68.5 119t-22.5 148.5q0 86 32.5 153.5t91.5 114t139.5 71t175.5 24.5q90 0 159.5 -18.5 t117.5 -50t73 -72t25 -84.5q0 -65 -42.5 -97.5t-115.5 -32.5q0 47 -11 92.5t-37.5 81t-70 58t-106.5 22.5q-58 0 -103.5 -16t-77 -46t-48 -72t-16.5 -94q0 -60 15.5 -105.5t52.5 -82t96.5 -69.5t146.5 -68q89 -37 158 -77t117 -89.5t73.5 -110.5t25.5 -139q0 -95 -35 -170 t-99.5 -127t-155.5 -79t-204 -27q-98 0 -173 21t-125.5 57.5t-76 89t-25.5 115.5z" />
<glyph unicode="T" horiz-adv-x="1229" d="M40 1082l10 351h1130l10 -351h-104l-10 86q-4 33 -13.5 63t-28.5 52.5t-49 36t-76 13.5h-195v-1105q0 -47 13.5 -75.5t35.5 -43.5t52.5 -20t63.5 -5h46v-84h-624v84h46q33 0 63 4.5t52.5 18.5t36 40.5t13.5 71.5v1114h-193q-44 0 -73.5 -13.5t-49 -36t-28.5 -52.5 t-13 -63l-11 -86h-104z" />
<glyph unicode="U" horiz-adv-x="1438" d="M30 1348v85h584v-85h-26q-33 0 -63.5 -4.5t-52.5 -20t-35.5 -44t-13.5 -75.5v-783q0 -87 25 -148t70 -99.5t106 -56t135 -17.5q87 0 150 23.5t104.5 65t62 99t20.5 126.5v798q0 44 -13.5 71t-36 42t-52.5 19t-63 4h-25v85h503v-85h-26q-34 0 -64 -4.5t-52 -20t-35.5 -44 t-13.5 -75.5v-794q0 -100 -32 -180t-94 -135.5t-154 -85t-212 -29.5q-118 0 -212.5 25t-159.5 79.5t-99.5 140.5t-34.5 208v779q0 44 -13 71t-35.5 42t-52.5 19t-63 4h-26z" />
<glyph unicode="V" horiz-adv-x="1354" d="M0 1348v85h552v-85h-46q-61 0 -91 -23t-30 -73q0 -16 4.5 -34t12.5 -40l220 -652q31 -89 52.5 -172.5t37.5 -156.5q16 73 37.5 154t55.5 175l221 638q8 25 13 47.5t5 38.5q0 52 -33 75t-100 23h-46v85h489v-85h-38q-29 0 -50 -5.5t-38.5 -23t-32 -47.5t-31.5 -79 l-415 -1193h-147l-433 1243q-11 31 -24 51.5t-29.5 32.5t-38 16.5t-51.5 4.5h-26z" />
<glyph unicode="W" horiz-adv-x="2101" d="M18 1348v85h552v-85h-46q-60 0 -90 -23t-30 -73q0 -16 5 -34t10 -40l185 -642q25 -91 47.5 -178.5t39.5 -160.5q15 78 35 171t46 190l239 861h145l251 -869q29 -100 51 -191.5t36 -161.5q14 73 33 152.5t47 176.5l176 620q3 11 7 26t7 29.5t5.5 27.5t2.5 21q0 52 -33 75 t-99 23h-47v85h490v-85h-38q-29 0 -51 -5.5t-40 -22.5t-32.5 -47t-29.5 -80l-339 -1193h-180l-327 1124l-307 -1124h-185l-368 1243q-10 31 -22 51.5t-28.5 32.5t-39 16.5t-52.5 4.5h-26z" />
<glyph unicode="X" horiz-adv-x="1324" d="M16 0v84h12q37 0 64 7.5t50 24t45.5 43t49.5 65.5l335 481l-331 538q-36 57 -81.5 81t-90.5 24h-27v85h544v-85h-6q-34 0 -56.5 -4t-35.5 -12t-17.5 -19t-4.5 -22t1 -21t6 -23t14.5 -30.5t26.5 -44.5l181 -293l190 289q22 34 36 64.5t14 58.5q0 17 -8.5 28.5t-22.5 18 t-33.5 8.5t-43.5 2h-6v85h439v-85h-17q-30 0 -54 -6.5t-46.5 -24t-46.5 -44.5t-52 -69l-291 -419l369 -594q44 -59 83.5 -83t77.5 -24h25v-84h-542v84h11q120 0 120 67q0 11 -2.5 21.5t-9.5 25.5t-20 36.5t-34 54.5l-199 320l-222 -330q-9 -12 -18 -28.5t-16.5 -34 t-12.5 -35.5t-5 -34q0 -34 31.5 -48.5t98.5 -14.5h6v-84h-478z" />
<glyph unicode="Y" horiz-adv-x="1254" d="M-10 1348v85h552v-85h-75q-27 0 -44 -4.5t-27 -13.5t-13.5 -20.5t-3.5 -24.5q0 -29 12.5 -57t24.5 -50l148 -269q35 -61 59.5 -121.5t40.5 -107.5q9 22 22.5 48.5t29.5 56t33.5 61.5t35.5 63l128 231q20 34 28.5 65t8.5 55q0 44 -31.5 66t-89.5 22h-59v85h490v-85h-23 q-22 0 -41 -7t-38.5 -25t-40.5 -48t-47 -75l-337 -595v-370q0 -47 13 -75.5t35.5 -43.5t52 -20t63.5 -5h47v-84h-625v84h47q33 0 63 4.5t52.5 18.5t35.5 40.5t13 71.5v379l-371 645q-17 28 -31.5 48t-31 33t-36 18.5t-44.5 5.5h-26z" />
<glyph unicode="Z" horiz-adv-x="1187" d="M73 0v80l752 1253h-436q-44 0 -74 -13.5t-48.5 -36t-28.5 -52.5t-14 -63l-9 -86h-104l10 351h951v-83l-754 -1250h505q45 0 75.5 13t49 36t28.5 52.5t14 63.5l10 86h103l-9 -351h-1021z" />
<glyph unicode="[" horiz-adv-x="722" d="M201 -257v1782h448v-84h-87q-34 0 -64 -5t-52.5 -20.5t-35 -43.5t-12.5 -75v-1325q0 -47 12.5 -75.5t35 -44t52.5 -20t64 -4.5h87v-85h-448z" />
<glyph unicode="\" horiz-adv-x="578" d="M0 1525h117l461 -1768h-118z" />
<glyph unicode="]" horiz-adv-x="722" d="M74 -172h87q34 0 64 4.5t52 20t35 44t13 75.5v1325q0 47 -13 75t-35 43.5t-52 20.5t-64 5h-87v84h447v-1782h-447v85z" />
<glyph unicode="^" d="M102 534l422 899h70l423 -899h-134l-325 715l-321 -715h-135z" />
<glyph unicode="_" horiz-adv-x="921" d="M-10 -167h941v-118h-941v118z" />
<glyph unicode="`" horiz-adv-x="1158" d="M385 1517v21h215q15 -34 36.5 -73.5t45 -79t48 -77t45.5 -65.5v-27h-76q-40 28 -87.5 68.5t-91.5 83.5t-80 83t-55 66z" />
<glyph unicode="a" horiz-adv-x="1129" d="M100 301q0 160 113.5 237t344.5 84l166 6v121q0 54 -6 99.5t-25.5 78t-56 51t-98.5 18.5q-58 0 -93.5 -16.5t-56 -45.5t-27 -69.5t-6.5 -87.5q-84 0 -127.5 28.5t-43.5 98.5q0 52 28.5 88t78 59t115 34t140.5 11q92 0 160.5 -18.5t114.5 -59.5t69 -107t23 -162v-521 q0 -42 7 -69.5t21.5 -44t38.5 -23.5t58 -7h6v-84h-272l-31 172h-17q-31 -42 -60.5 -77t-64.5 -60.5t-80 -40t-107 -14.5q-67 0 -124.5 19.5t-99 59t-65 100t-23.5 142.5zM295 291q0 -94 39.5 -140.5t123.5 -46.5q60 0 109.5 19.5t84.5 56t53.5 88t18.5 115.5v163l-128 -6 q-85 -4 -142.5 -21t-93 -48t-50.5 -76t-15 -104z" />
<glyph unicode="b" horiz-adv-x="1231" d="M36 0v84h16q34 0 64 5t52 20t35.5 43.5t13.5 75.5v1076q0 44 -13.5 71t-36 42t-52.5 19.5t-63 4.5h-16v84h370v-369q0 -34 -1 -78.5t-3 -85.5q-2 -47 -4 -97h8q22 46 50.5 83t66 63t84.5 40.5t105 14.5q99 0 175.5 -33t128.5 -101t79 -173t27 -249q0 -145 -27 -251 t-79 -174.5t-128.5 -101.5t-175.5 -33q-57 0 -104 13t-85 36.5t-67 56t-50 71.5h-13l-35 -157h-322zM406 540q0 -105 13 -185.5t45 -135t84.5 -82.5t131.5 -28q67 0 113.5 28t76.5 82.5t43.5 135.5t13.5 187q0 107 -13.5 186.5t-43.5 132.5t-77.5 79.5t-114.5 26.5 q-78 0 -130.5 -26t-84 -79t-44.5 -133t-13 -189z" />
<glyph unicode="c" horiz-adv-x="987" d="M111 532q0 161 33.5 269t94 174t142.5 93.5t177 27.5q62 0 124.5 -12.5t112.5 -38t81 -64t31 -90.5q0 -70 -45 -98.5t-134 -28.5q0 47 -8 89.5t-27 74t-51.5 50t-83.5 18.5q-58 0 -104.5 -21.5t-80 -74.5t-51 -142.5t-17.5 -223.5q0 -214 71 -318.5t233 -104.5 q93 0 162.5 39t103.5 101q15 -12 24.5 -31.5t9.5 -47.5q0 -34 -21.5 -68t-64 -61.5t-106 -45t-149.5 -17.5q-100 0 -184 31t-145 97.5t-94.5 171t-33.5 252.5z" />
<glyph unicode="d" horiz-adv-x="1231" d="M111 536q0 145 26.5 251t78.5 174.5t128 101.5t175 33q58 0 105 -13t85 -36.5t67.5 -56t50.5 -71.5h12q-3 49 -6 92q-2 38 -4 74.5t-2 54.5v164q0 44 -13 71t-35.5 42t-52.5 19.5t-64 4.5h-16v84h369v-1305q0 -44 13.5 -71t36 -41.5t52.5 -19t63 -4.5h17v-84h-340 l-22 180h-8q-22 -46 -51 -82.5t-66.5 -62.5t-84.5 -40.5t-106 -14.5q-99 0 -175 33t-128 101t-78.5 173t-26.5 249zM305 534q0 -214 57.5 -319.5t191.5 -105.5q78 0 130.5 26t84.5 79t45 133t13 189q0 105 -13 185.5t-45 134.5t-85 82.5t-132 28.5q-66 0 -113 -28.5t-77 -83 t-43.5 -135.5t-13.5 -186z" />
<glyph unicode="e" horiz-adv-x="1074" d="M111 530q0 281 115.5 423.5t329.5 142.5q97 0 174.5 -30.5t131 -91t82.5 -150t29 -208.5v-92h-668q2 -109 22 -188t57.5 -130t92.5 -75t127 -24q52 0 96.5 11.5t80.5 31.5t64 45t46 52q14 -6 26 -24.5t12 -44.5q0 -30 -21.5 -65t-65.5 -64t-110.5 -49t-155.5 -20 q-109 0 -195.5 37t-146.5 107.5t-91.5 173t-31.5 232.5zM309 632h461q0 79 -11.5 145t-37 113t-67.5 72.5t-102 25.5q-112 0 -172.5 -90.5t-70.5 -265.5z" />
<glyph unicode="f" horiz-adv-x="740" d="M54 0v84h26q35 0 64.5 5t52 20t35.5 43.5t13 75.5v753h-183v95h183v100q0 90 24.5 158.5t70.5 115.5t111.5 71t148.5 24q78 0 132 -10t87 -28.5t47.5 -44t14.5 -57.5q0 -27 -12 -48t-34.5 -35.5t-52 -21.5t-66.5 -7q0 30 -6 59t-21.5 51.5t-41 36t-63.5 13.5 q-43 0 -72 -16.5t-46.5 -49.5t-25 -81t-7.5 -111v-119h283v-95h-283v-753q0 -47 13.5 -75.5t35.5 -43.5t52 -20t64 -5h76v-84h-620z" />
<glyph unicode="g" horiz-adv-x="1079" d="M46 -189q0 59 20.5 103t55.5 75.5t80 51t95 28.5q-21 8 -40.5 23t-35 35.5t-25.5 47t-10 58.5q0 60 31.5 103.5t100.5 84.5q-44 18 -77.5 49t-56.5 70.5t-35.5 86.5t-12.5 97q0 87 23.5 156t70.5 117t117.5 73.5t166.5 25.5q36 0 71 -5.5t65 -15t54 -21t39 -24.5 q15 16 34.5 35t44 35t53.5 27t62 11q30 0 52 -8.5t37 -22.5t22 -33.5t7 -39.5q0 -22 -6 -41t-19 -33t-33 -22.5t-47 -8.5q0 12 -3 23.5t-10.5 22t-20 17t-33.5 6.5q-25 0 -46 -6t-40 -19q34 -42 56 -99.5t22 -143.5q0 -74 -22.5 -137.5t-67 -109.5t-112.5 -72t-159 -26 q-12 0 -27 0.5t-29.5 1t-27.5 2t-20 2.5q-20 -10 -37.5 -21.5t-31 -26.5t-21 -33.5t-7.5 -40.5q0 -25 9 -39.5t26 -23t40 -11t49 -2.5h227q91 0 153.5 -22.5t102 -62t58 -95t18.5 -120.5q0 -86 -32 -155.5t-97.5 -118t-166 -75t-236.5 -26.5q-210 0 -314 77.5t-104 215.5z M209 -176q0 -44 11.5 -82.5t41 -66t79.5 -43t126 -15.5q108 0 178 18t111.5 50.5t58 77t16.5 97.5q0 46 -13 76t-39 47t-64.5 24t-88.5 7h-197q-42 0 -81.5 -7.5t-70.5 -28t-49.5 -58t-18.5 -96.5zM325 730q0 -128 43 -188t140 -60q49 0 82.5 15t55 45t31 77.5t9.5 113.5 q0 135 -41 200t-139 65q-97 0 -139 -66.5t-42 -201.5z" />
<glyph unicode="h" horiz-adv-x="1274" d="M36 0v84h16q34 0 64 5t52 20t35.5 43.5t13.5 75.5v1076q0 44 -13.5 71t-36 42t-52.5 19.5t-63 4.5h-16v84h370v-441q0 -28 -1 -57.5t-3 -55.5l-4 -58h10q90 183 295 183q85 0 151 -23t111 -70.5t68.5 -122t23.5 -177.5v-475q0 -47 12 -75.5t32.5 -43.5t49 -20t61.5 -5h6 v-84h-349v693q0 66 -11.5 116.5t-37.5 86t-68 53.5t-103 18q-63 0 -108.5 -23t-75.5 -65.5t-44.5 -103t-14.5 -133.5v-423q0 -45 13 -71.5t35.5 -40.5t52.5 -18.5t63 -4.5h6v-84h-540z" />
<glyph unicode="i" horiz-adv-x="641" d="M46 0v84h27q33 0 63 4.5t52.5 18.5t35.5 40.5t13 71.5v636q0 44 -13 71t-35.5 41.5t-52.5 19.5t-63 5h-6v84h358v-848q0 -47 13.5 -75.5t35.5 -43.5t52.5 -20t63.5 -5h26v-84h-570zM209 1401q0 36 8.5 59.5t24.5 38t36.5 20.5t44.5 6t44.5 -6t35.5 -20.5t24.5 -38 t9.5 -59.5q0 -35 -9.5 -58.5t-24.5 -38t-35.5 -21t-44.5 -6.5t-44.5 6.5t-36.5 21t-24.5 38t-8.5 58.5z" />
<glyph unicode="j" horiz-adv-x="601" d="M-24 -387h14q54 0 96 18t71 60.5t44.5 114t15.5 176.5v873q0 44 -13.5 71t-36 41.5t-52.5 19.5t-63 5h-6v84h360v-1092q0 -135 -29.5 -224.5t-82.5 -143t-126 -76t-160 -22.5h-32v95zM189 1401q0 36 9 59.5t24 38t36 20.5t45 6q23 0 44 -6t36.5 -20.5t24.5 -38t9 -59.5 q0 -35 -9 -58.5t-24.5 -38t-36.5 -21t-44 -6.5q-24 0 -45 6.5t-36 21t-24 38t-9 58.5z" />
<glyph unicode="k" horiz-adv-x="1174" d="M36 0v84h16q34 0 64 5t52 20t35.5 43.5t13.5 75.5v1076q0 44 -13.5 71t-36 42t-52.5 19.5t-63 4.5h-16v84h370v-774q0 -28 -1 -70.5t-3 -83.5q-2 -47 -4 -99l251 274q32 36 53 63.5t34 48.5t18 37t5 31q0 25 -24.5 32.5t-73.5 7.5v84h442v-84q-69 0 -136 -49t-146 -138 l-141 -159l268 -397q52 -80 103 -122.5t119 -42.5h6v-84h-28q-88 0 -144 5.5t-97.5 25.5t-75.5 58.5t-76 105.5l-201 315l-148 -110v-181q0 -45 13 -71.5t35.5 -40.5t52.5 -18.5t63 -4.5h6v-84h-540z" />
<glyph unicode="l" horiz-adv-x="622" d="M26 0v84h26q34 0 64 5t52 20t35.5 43.5t13.5 75.5v1076q0 44 -13.5 71t-36 42t-52.5 19.5t-63 4.5h-26v84h380v-1297q0 -47 12.5 -75.5t35 -43.5t52.5 -20t64 -5h26v-84h-570z" />
<glyph unicode="m" horiz-adv-x="1896" d="M56 0v84h26q35 0 63 5t49 20t32 43.5t11 75.5v627q0 44 -11.5 71t-32.5 41.5t-49 19.5t-62 5h-6v84h315l26 -163h10q31 56 64 92t71 56t79.5 27.5t88.5 7.5q49 0 93 -10t82 -31.5t68 -56.5t48 -85h17q30 56 65.5 92t75 56t83 27.5t90.5 7.5q77 0 137.5 -23t103 -70.5 t65 -122t22.5 -177.5v-475q0 -47 11.5 -75.5t32 -43.5t49 -20t62.5 -5h5v-84h-348v693q0 66 -11.5 116.5t-36.5 86t-65 53.5t-98 18q-63 0 -105.5 -24t-69 -65t-38 -95t-11.5 -115v-440q0 -47 12 -75.5t32.5 -43.5t49 -20t61.5 -5h6v-84h-349v693q0 66 -11 116.5t-36 86 t-65.5 53.5t-97.5 18q-66 0 -110.5 -26.5t-72 -71.5t-39.5 -103.5t-12 -123.5v-423q0 -45 13.5 -71.5t36 -40.5t52.5 -18.5t63 -4.5h6v-84h-540z" />
<glyph unicode="n" horiz-adv-x="1294" d="M56 0v84h17q34 0 64 5t52 20t35 43.5t13 75.5v627q0 44 -13 71t-35.5 41.5t-52.5 19.5t-63 5h-6v84h324l26 -163h10q32 56 66.5 92t73.5 56t82.5 27.5t91.5 7.5q79 0 141.5 -23t106 -70.5t66.5 -122t23 -177.5v-475q0 -47 11.5 -75.5t32 -43.5t49 -20t61.5 -5h7v-84h-350 v693q0 66 -12 116.5t-38 86t-68 53.5t-103 18q-68 0 -114.5 -26.5t-75 -71.5t-41 -103.5t-12.5 -123.5v-423q0 -45 13.5 -71.5t36 -40.5t52.5 -18.5t63 -4.5h6v-84h-540z" />
<glyph unicode="o" horiz-adv-x="1158" d="M111 540q0 281 119 418.5t352 137.5q109 0 195 -34t146.5 -103t92.5 -173.5t32 -245.5q0 -283 -120 -421.5t-352 -138.5q-109 0 -195 34.5t-146.5 104t-92 175t-31.5 246.5zM305 540q0 -112 14.5 -197t47.5 -142.5t85.5 -87t127.5 -29.5q76 0 128 29.5t84 87t46.5 142.5 t14.5 197t-15 196t-47 140.5t-84.5 85t-128.5 28.5q-75 0 -127 -28.5t-84.5 -85t-47 -140.5t-14.5 -196z" />
<glyph unicode="p" horiz-adv-x="1231" d="M26 992v84h351l21 -181h8q22 46 50.5 83t66 63t84.5 40.5t105 14.5q99 0 175.5 -33t128.5 -101t79 -173t27 -249q0 -145 -27 -251t-79 -174.5t-128.5 -101.5t-175.5 -33q-57 0 -104 13t-85 36.5t-67 56t-50 71.5h-8q2 -52 4 -97q1 -19 1.5 -39t1 -37.5t1 -32t0.5 -22.5 v-192q0 -44 13 -71t35.5 -41t52.5 -18.5t63 -4.5h6v-84h-540v84h16q34 0 64 5t52 20t35.5 44t13.5 76v1108q0 44 -13.5 71t-36 41.5t-52.5 19.5t-63 5h-26zM406 540q0 -105 13 -185.5t45 -135t84.5 -82.5t131.5 -28q67 0 113.5 28t76.5 82.5t43.5 135.5t13.5 187 q0 107 -13.5 186.5t-43.5 132.5t-77.5 79.5t-114.5 26.5q-78 0 -130.5 -26t-84 -79t-44.5 -133t-13 -189z" />
<glyph unicode="q" horiz-adv-x="1231" d="M111 536q0 145 26.5 251t78.5 174.5t128 101.5t175 33q58 0 105 -13t85 -36.5t67.5 -56t50.5 -71.5h12l36 157h322v-84h-17q-33 0 -63.5 -5t-52.5 -20t-35.5 -44t-13.5 -76v-1108q0 -44 13.5 -71t36 -41.5t52.5 -19.5t63 -5h17v-84h-601v84h66q35 0 65 5t52 20t35 44 t13 76v173q0 34 1 78.5t3 85.5q2 47 4 96h-8q-22 -46 -51 -82.5t-66.5 -62.5t-84.5 -40.5t-106 -14.5q-99 0 -175 33t-128 101t-78.5 173t-26.5 249zM305 534q0 -214 57.5 -319.5t191.5 -105.5q78 0 130.5 26t84.5 79t45 133t13 189q0 105 -13 185.5t-45 134.5t-85 82.5 t-132 28.5q-66 0 -113 -28.5t-77 -83t-43.5 -135.5t-13.5 -186z" />
<glyph unicode="r" horiz-adv-x="945" d="M67 0v84h6q34 0 64 5t52 20t35 43.5t13 75.5v627q0 44 -13 71t-35.5 41.5t-52.5 19.5t-63 5h-6v84h308l39 -199h9q20 45 40.5 85t50.5 69.5t74 47t111 17.5q109 0 162.5 -38.5t53.5 -107.5q0 -32 -10 -58.5t-32.5 -45.5t-58 -29t-86.5 -10q0 83 -23.5 119.5t-82.5 36.5 q-37 0 -66.5 -21t-51.5 -55.5t-37 -80t-24.5 -93t-13.5 -94.5t-4 -85v-315q0 -45 13.5 -71.5t36 -40.5t52.5 -18.5t63 -4.5h56v-84h-579z" />
<glyph unicode="s" horiz-adv-x="905" d="M90 193q0 40 13.5 67t32.5 42.5t41 22t40 6.5q0 -53 10.5 -99t36 -80.5t67 -55t102.5 -20.5q54 0 95 13.5t69 37.5t43 58t15 74q0 37 -11.5 64t-39.5 50.5t-76 48t-120 55.5q-78 35 -135 66.5t-94.5 69t-56 85t-18.5 112.5q0 69 27 122t77 88.5t119.5 54.5t154.5 19 q72 0 126.5 -15t92 -40t56 -58.5t18.5 -71.5q0 -54 -37.5 -87t-107.5 -33q0 101 -41.5 157t-130.5 56q-51 0 -87.5 -12t-59.5 -33.5t-33.5 -51t-10.5 -64.5q0 -38 13.5 -66t43.5 -51.5t77.5 -45.5t113.5 -50q80 -33 137 -65.5t93.5 -70.5t54 -86t17.5 -111q0 -78 -28.5 -137 t-80 -98.5t-124.5 -59.5t-163 -20q-75 0 -136.5 13.5t-104.5 40.5t-66.5 66.5t-23.5 92.5z" />
<glyph unicode="t" horiz-adv-x="706" d="M38 961v81q36 0 80 14.5t77 48.5q34 38 55 89.5t37 128.5h92v-247h263v-115h-263v-676q0 -103 42 -151t111 -48q36 0 66.5 4t62.5 10v-88q-13 -6 -33.5 -12t-44.5 -10.5t-50.5 -7t-50.5 -2.5q-76 0 -131 16.5t-90.5 52.5t-52.5 96t-17 146v670h-153z" />
<glyph unicode="u" horiz-adv-x="1274" d="M46 992v84h360v-693q0 -65 10 -116t34 -86.5t65 -53.5t101 -18q67 0 114.5 23.5t78.5 66t45.5 102.5t14.5 132v414q0 47 -13 76t-35 44t-52 20t-64 5h-6v84h358v-857q0 -45 13.5 -71.5t36 -40.5t52.5 -18.5t63 -4.5h6v-84h-319l-26 163h-10q-30 -57 -67 -92.5t-78 -55.5 t-86 -27.5t-94 -7.5q-80 0 -141.5 22.5t-103.5 71t-64 122.5t-22 177v482q0 44 -13.5 71t-36 41.5t-52.5 19.5t-63 5h-6z" />
<glyph unicode="v" horiz-adv-x="1162" d="M8 992v84h502v-84h-26q-61 0 -90.5 -23.5t-29.5 -73.5q0 -17 3.5 -34t11.5 -40l136 -379q13 -35 27 -78t26 -84t22 -77.5t14 -62.5h7q4 22 15.5 53.5t25.5 69.5t29.5 77t28.5 76l145 391q9 24 13.5 46.5t4.5 39.5q0 52 -32.5 75.5t-99.5 23.5h-15v84h430v-84h-24 q-30 0 -50.5 -6.5t-37 -24t-31.5 -48t-34 -78.5l-317 -835h-183l-322 885q-12 31 -24.5 51.5t-29.5 33t-38.5 17.5t-50.5 5h-6z" />
<glyph unicode="w" horiz-adv-x="1729" d="M2 992v84h496v-84h-27q-59 0 -89.5 -18t-30.5 -67q0 -16 5.5 -39.5t11.5 -46.5l94 -337q9 -36 20 -79t20.5 -86t17 -80t12.5 -63h6q5 26 13.5 60t19.5 72.5t24 78.5t25 77l209 606h127l200 -595q12 -36 25.5 -77.5t25 -82.5t21.5 -77t15 -62h6q8 50 28 123t50 170 l100 324q8 25 13.5 54t5.5 46q0 52 -33 75.5t-101 23.5h-14v84h430v-84h-26q-29 0 -50.5 -6t-39 -23t-32 -47.5t-29.5 -80.5l-258 -835h-161l-239 707l-36 132l-285 -839h-158l-263 885q-12 31 -24.5 51.5t-29.5 33t-38.5 17.5t-50.5 5h-6z" />
<glyph unicode="x" horiz-adv-x="1160" d="M10 0v84h18q37 0 64.5 6t52 20.5t49 39.5t53.5 63l253 327l-253 345q-44 52 -85.5 79.5t-87.5 27.5h-26v84h510v-84h-6q-35 0 -57.5 -4.5t-35 -13t-17.5 -19t-5 -22.5q0 -21 12.5 -41t34.5 -51l132 -180l104 149q23 35 36.5 65.5t13.5 57.5q0 36 -30.5 47.5t-77.5 11.5 h-5v84h439v-84h-18q-29 0 -53 -5t-47 -18.5t-47.5 -39t-55.5 -66.5l-207 -275l295 -397q44 -59 84 -83t77 -24h27v-84h-519v84h10q120 0 120 67q0 11 -2.5 22t-11.5 26.5t-23.5 37t-38.5 52.5l-134 180l-140 -196q-9 -11 -19 -27t-17.5 -32.5t-12.5 -33.5t-5 -33 q0 -34 28.5 -48.5t95.5 -14.5h6v-84h-478z" />
<glyph unicode="y" horiz-adv-x="1133" d="M8 992v84h482v-84h-6q-61 0 -90.5 -23.5t-29.5 -73.5q0 -17 3 -34t12 -40l147 -357q14 -35 29 -75.5t28.5 -80t24 -75t14.5 -61.5h6q11 45 30 108t45 136l134 391q9 24 13.5 46.5t4.5 39.5q0 52 -33 75.5t-100 23.5h-6v84h418v-84h-6q-29 0 -50.5 -6.5t-38.5 -24 t-31.5 -48t-32.5 -78.5l-305 -843q-35 -97 -66.5 -170.5t-65.5 -126t-75 -86.5t-93 -54.5t-119.5 -28.5t-156.5 -8h-18v95q102 0 175.5 30.5t127 83.5t89.5 125t60 156l-371 877q-14 31 -26.5 51t-29 33t-37.5 18t-50 5h-6z" />
<glyph unicode="z" horiz-adv-x="1026" d="M84 0v80l582 881h-313q-39 0 -64.5 -10t-42 -30.5t-26.5 -51t-21 -70.5l-2 -8h-84l19 285h770v-82l-584 -879h364q35 0 58 13.5t38.5 36t24.5 52.5t16 62l10 46h84l-9 -325h-820z" />
<glyph unicode="{" horiz-adv-x="859" d="M100 594v84q50 2 93 12t75.5 34t50.5 64t18 101v350q0 137 73 211.5t216 74.5h133v-86h-60q-89 0 -127 -53t-38 -158v-343q0 -98 -55.5 -163t-167.5 -84v-2q115 -20 169 -84.5t54 -164.5v-347q0 -103 38 -157t127 -54h60v-86h-133q-70 0 -124.5 20.5t-91 58t-55 91 t-18.5 119.5v349q0 62 -18 102t-50.5 64t-75.5 34.5t-93 12.5z" />
<glyph unicode="|" d="M500 -482v2007h120v-2007h-120z" />
<glyph unicode="}" horiz-adv-x="859" d="M100 -171h61q89 0 126.5 54t37.5 157v347q0 100 53.5 164.5t169.5 84.5v2q-112 19 -167.5 84t-55.5 163v343q0 105 -37.5 158t-126.5 53h-61v86h133q142 0 215 -74.5t73 -211.5v-350q0 -61 19 -101t50.5 -64t75 -34t93.5 -12v-84q-50 -2 -93.5 -12.5t-75 -34.5t-50.5 -64 t-19 -102v-349q0 -66 -18.5 -119.5t-54.5 -91t-90 -58t-125 -20.5h-133v86z" />
<glyph unicode="~" d="M109 540q6 63 18 125.5t39.5 112.5t74 81.5t121.5 31.5q33 0 66.5 -13t64.5 -32.5t59 -43t52 -43.5q21 -20 41.5 -38t41 -32t41 -22t40.5 -8q56 0 82.5 60t40.5 172h120q-7 -63 -20.5 -125.5t-41.5 -112.5t-73.5 -81.5t-116.5 -31.5q-30 0 -61.5 12t-62 31t-58.5 41 t-51 42q-22 21 -43.5 40t-43 34t-43 23.5t-43.5 8.5q-59 0 -87.5 -56.5t-39.5 -175.5h-117z" />
<glyph unicode="&#xa2;" d="M159 724q0 149 32 253t88 170t131.5 99t161.5 41v146h100v-146q58 -5 116 -19.5t104 -39.5t75 -61t29 -83q0 -70 -45 -98.5t-134 -28.5q0 42 -8.5 79.5t-26.5 67.5t-45 50.5t-65 27.5v-891q41 0 83 6t80 15t71.5 20.5t56.5 22.5v-110q-52 -27 -127 -49t-164 -24v-172 h-100v176q-91 10 -167 45t-130.5 100t-85 164.5t-30.5 238.5zM353 726q0 -179 53.5 -286t165.5 -137v879q-48 -9 -88 -37t-69.5 -81.5t-45.5 -136t-16 -201.5z" />
<glyph unicode="&#xa3;" d="M98 676v94h185q-13 32 -27 70t-25 79.5t-17.5 85.5t-6.5 85q0 86 28.5 153.5t81 114t128.5 71t171 24.5q97 0 165 -17t110 -47.5t61 -71.5t19 -89q0 -65 -42.5 -97.5t-116.5 -32.5q0 47 -8 92.5t-30 81t-62 58t-103 22.5q-117 0 -171.5 -66.5t-54.5 -191.5q0 -47 8 -92.5 t19.5 -87t25.5 -78t26 -66.5h341v-94h-313q15 -50 27.5 -102t12.5 -112q0 -87 -48.5 -153t-128.5 -120l5 -9q41 20 76.5 28.5t69.5 8.5q40 0 88 -12t95.5 -26.5t91 -26.5t74.5 -12q35 0 65 10.5t56.5 27t48.5 37.5t40 44v-131q-17 -24 -41.5 -50.5t-57 -48t-73 -35.5 t-90.5 -14t-98 14.5t-97 31t-99.5 31t-104.5 14.5q-67 0 -124.5 -19.5t-122.5 -49.5l-27 -12v106l37 23q37 22 73.5 54t66 73.5t48 92.5t18.5 111q0 59 -14.5 115t-35.5 111h-223z" />
<glyph unicode="&#xa5;" d="M10 1348v85h488v-85h-14q-61 0 -88 -18.5t-27 -59.5q0 -23 8 -53t25 -65l96 -213q15 -32 28.5 -68t25.5 -71.5t22 -65.5t16 -50q4 11 13 32t20 46t23.5 51t21.5 46l115 244q24 53 36 98t12 67q0 41 -28 60.5t-94 19.5h-6v85h409v-85h-18q-26 0 -44.5 -6.5t-34.5 -24.5 t-33.5 -48t-39.5 -76l-245 -509h249v-94h-282v-140h282v-95h-282v-127q0 -47 13.5 -75.5t35.5 -43.5t52 -20t64 -5h46v-84h-616v84h46q33 0 62.5 4.5t51.5 18.5t35 40.5t15 71.5v136h-280v95h280v140h-280v94h242l-272 559q-15 29 -27.5 49t-29 33t-37 18t-49.5 5h-6z" />
<glyph unicode="&#xa8;" horiz-adv-x="1158" d="M285 1381q0 31 8 52.5t21.5 35t32.5 19.5t40 6q22 0 40.5 -6t32.5 -19.5t22 -35t8 -52.5t-8 -52.5t-22 -35t-32.5 -19.5t-40.5 -6q-44 0 -73 25.5t-29 87.5zM666 1381q0 31 8 52.5t22 35t32.5 19.5t39.5 6q22 0 40.5 -6t33 -19.5t22 -35t7.5 -52.5t-7.5 -52.5t-22 -35 t-33 -19.5t-40.5 -6q-44 0 -73 25.5t-29 87.5z" />
<glyph unicode="&#xa9;" horiz-adv-x="1696" d="M111 716q0 102 26.5 196.5t74 176.5t114.5 149.5t149 115.5t176 74.5t196 26.5t196.5 -26.5t176 -74.5t149.5 -115.5t116 -149.5t74.5 -176.5t26.5 -196.5t-26.5 -196t-74.5 -175.5t-116 -149t-149.5 -115.5t-176 -74t-196.5 -26t-196 26t-176 74t-149 115.5t-114.5 149 t-74 175.5t-26.5 196zM220 716q0 -86 23 -166t63.5 -149.5t98 -126.5t127 -98t149 -63.5t166.5 -22.5t167.5 22.5t150 63.5t126.5 98t98 126.5t63.5 149.5t22.5 166q0 87 -22.5 167t-63.5 150t-98 127.5t-126.5 98t-150 63.5t-167.5 23t-166.5 -23t-149 -63.5t-127 -98 t-98 -127.5t-63.5 -149.5t-23 -167.5zM456 718q0 98 27.5 179.5t81.5 140.5t134 91.5t186 32.5q70 0 121 -11t85.5 -30t51.5 -45t17 -57q0 -21 -10.5 -39t-29 -30t-43.5 -18.5t-54 -6.5q0 29 -7.5 55.5t-24 49t-43.5 35.5t-67 13q-71 0 -120.5 -23.5t-80.5 -69.5 t-45.5 -112.5t-14.5 -154.5q0 -173 68 -266.5t195 -93.5q46 0 85 11.5t70.5 31t54.5 44t37 49.5q12 -9 20 -25t8 -38q0 -27 -19 -55.5t-56.5 -52t-94 -38.5t-131.5 -15q-100 0 -175 32.5t-125.5 91.5t-75.5 141t-25 183z" />
<glyph unicode="&#xab;" horiz-adv-x="1031" d="M130 510v64l307 349h101l-203 -381l203 -381h-101zM494 510v64l307 349h101l-203 -381l203 -381h-101z" />
<glyph unicode="&#xad;" horiz-adv-x="622" d="M50 471v151h522v-151h-522z" />
<glyph unicode="&#xae;" horiz-adv-x="1696" d="M111 716q0 102 26.5 196.5t74 176.5t114.5 149.5t149 115.5t176 74.5t196 26.5t196.5 -26.5t176 -74.5t149.5 -115.5t116 -149.5t74.5 -176.5t26.5 -196.5t-26.5 -196t-74.5 -175.5t-116 -149t-149.5 -115.5t-176 -74t-196.5 -26t-196 26t-176 74t-149 115.5t-114.5 149 t-74 175.5t-26.5 196zM220 716q0 -86 23 -166t63.5 -149.5t98 -126.5t127 -98t149 -63.5t166.5 -22.5t167.5 22.5t150 63.5t126.5 98t98 126.5t63.5 149.5t22.5 166q0 87 -22.5 167t-63.5 150t-98 127.5t-126.5 98t-150 63.5t-167.5 23t-166.5 -23t-149 -63.5t-127 -98 t-98 -127.5t-63.5 -149.5t-23 -167.5zM467 283v68h27q20 0 37.5 2.5t30.5 9.5t21 21t9 37v588q-1 24 -9 38t-21 21.5t-30.5 9.5t-37.5 2h-27v71h362q345 0 345 -240q0 -48 -15.5 -84t-41 -62.5t-58.5 -44.5t-67 -29l178 -287q10 -17 19.5 -27t22 -16t29.5 -8t42 -2v-68h-213 l-221 374h-106v-236q2 -23 9.5 -37t21 -21t30.5 -9.5t37 -2.5h28v-68h-402zM743 733h84q54 0 90.5 11t58 32.5t30.5 54.5t9 78t-10.5 76t-33.5 50t-60 28t-90 9h-78v-339z" />
<glyph unicode="&#xb4;" horiz-adv-x="1158" d="M383 1216v27q23 28 47 65.5t47 77t44 79t37 73.5h214v-21q-18 -26 -54.5 -66t-80.5 -83t-90.5 -83.5t-86.5 -68.5h-77z" />
<glyph unicode="&#xb8;" horiz-adv-x="668" d="M121 -358q36 -8 72 -11.5t64 -3.5q58 0 90 30t32 82q0 59 -42.5 88.5t-108.5 34.5l42 156h96l-21 -87q98 -7 146.5 -55.5t48.5 -128.5q0 -107 -68 -168t-197 -61q-15 0 -35 1.5t-40.5 4.5t-41 7t-37.5 9v102z" />
<glyph unicode="&#xbb;" horiz-adv-x="1031" d="M130 161l203 381l-203 381h101l307 -349v-64l-307 -349h-101zM494 161l203 381l-203 381h100l308 -349v-64l-308 -349h-100z" />
<glyph unicode="&#x2c6;" horiz-adv-x="1158" d="M283 1216v27q24 28 52.5 65.5t56 77t52 79t40.5 73.5h190q16 -34 40.5 -73.5t52.5 -79t56.5 -77t51.5 -65.5v-27h-78q-58 34 -116 83t-103 97q-46 -48 -103 -97t-113 -83h-79z" />
<glyph unicode="&#x2da;" horiz-adv-x="668" d="M92 1415q0 53 18.5 94t51.5 68.5t77 42t94 14.5t94 -14.5t77 -42t51.5 -68.5t18.5 -94q0 -54 -18.5 -94.5t-51.5 -68t-77 -41.5t-94 -14t-94 14t-77 41.5t-51.5 68t-18.5 94.5zM201 1415q0 -32 10 -55t28.5 -37.5t42.5 -21t51 -6.5q28 0 52 6.5t42 21t28.5 37.5t10.5 55 t-10.5 55.5t-28.5 37.5t-42 21t-52 7q-27 0 -51 -7t-42.5 -21t-28.5 -37.5t-10 -55.5z" />
<glyph unicode="&#x2dc;" horiz-adv-x="1158" d="M220 1237q3 46 16.5 88t39.5 75.5t64.5 53t92.5 19.5t97.5 -19.5t81.5 -43.5t70.5 -43.5t64.5 -19.5q29 0 47 8.5t28.5 24t15 34.5t7.5 39h90q-3 -46 -16 -88.5t-38.5 -76t-64 -53t-92.5 -19.5t-97.5 19.5t-81 43.5t-70.5 44t-65 20q-31 0 -48.5 -9t-28 -23.5t-15 -34 t-7.5 -39.5h-91z" />
<glyph unicode="&#x400;" horiz-adv-x="1250" d="M76 0v84h26q33 0 63 4.5t52.5 18.5t36 40.5t13.5 71.5v985q0 47 -13 75.5t-35.5 44t-52.5 20t-64 4.5h-26v85h1012l10 -351h-104l-10 86q-4 33 -15.5 63t-32.5 52.5t-52.5 36t-76.5 13.5h-338v-534h485v-98h-485v-601h388q48 0 81.5 13t56 36t35.5 52.5t18 63.5l13 86 h105l-14 -351h-1076zM338 1848v21h215q15 -34 36.5 -73.5t45 -79t48 -77t45.5 -65.5v-27h-76q-40 28 -87.5 68.5t-91.5 83.5t-80 83t-55 66z" />
<glyph unicode="&#x401;" horiz-adv-x="1250" d="M76 0v84h26q33 0 63 4.5t52.5 18.5t36 40.5t13.5 71.5v985q0 47 -13 75.5t-35.5 44t-52.5 20t-64 4.5h-26v85h1012l10 -351h-104l-10 86q-4 33 -15.5 63t-32.5 52.5t-52.5 36t-76.5 13.5h-338v-534h485v-98h-485v-601h388q48 0 81.5 13t56 36t35.5 52.5t18 63.5l13 86 h105l-14 -351h-1076zM335 1712q0 31 8 52.5t21.5 35t32.5 19.5t40 6q22 0 40.5 -6t32.5 -19.5t22 -35t8 -52.5t-8 -52.5t-22 -35t-32.5 -19.5t-40.5 -6q-44 0 -73 25.5t-29 87.5zM716 1712q0 31 8 52.5t22 35t32.5 19.5t39.5 6q22 0 40.5 -6t33 -19.5t22 -35t7.5 -52.5 t-7.5 -52.5t-22 -35t-33 -19.5t-40.5 -6q-44 0 -73 25.5t-29 87.5z" />
<glyph unicode="&#x402;" horiz-adv-x="1533" d="M40 1082l10 351h1046l9 -351h-103l-10 86q-4 33 -14 63t-28.5 52.5t-49 36t-75.5 13.5h-151v-512q24 9 56 19.5t71 18.5t83.5 14t92.5 6q110 0 194.5 -20.5t143 -70.5t88.5 -133.5t30 -208.5q0 -129 -26 -215.5t-75.5 -137.5t-121 -72t-162.5 -21h-46v94h28q48 0 85 16 t62.5 56t39 106t13.5 165q0 100 -20 162.5t-57 98t-87 48.5t-110 13q-45 0 -86.5 -5t-78 -12t-66.5 -15.5t-51 -16.5v-482q0 -47 13.5 -75.5t35.5 -43.5t52.5 -20t63.5 -5h26v-84h-604v84h46q33 0 63 4.5t52.5 18.5t35.5 40.5t13 71.5v1114h-152q-44 0 -73.5 -13.5t-49 -36 t-28.5 -52.5t-13 -63l-11 -86h-104z" />
<glyph unicode="&#x403;" horiz-adv-x="1126" d="M76 0v84h26q34 0 64 5t52.5 20t35.5 43.5t13 75.5v976q0 47 -13 75.5t-35.5 44t-52.5 20t-64 4.5h-26v85h998l12 -351h-105l-8 70q-5 43 -15 76t-31.5 56.5t-58.5 36t-96 12.5h-303v-1113q0 -44 13.5 -71t36 -41.5t52.5 -19t63 -4.5h67v-84h-625zM505 1547v27 q23 28 47 65.5t47 77t44 79t37 73.5h214v-21q-18 -26 -54.5 -66t-80.5 -83t-90.5 -83.5t-86.5 -68.5h-77z" />
<glyph unicode="&#x404;" horiz-adv-x="1231" d="M115 718q0 163 41 298.5t122 232.5t201.5 150.5t279.5 53.5q102 0 178 -17t126.5 -47.5t75.5 -71.5t25 -89q0 -32 -13 -58t-36.5 -44.5t-55.5 -28t-69 -9.5q0 47 -12.5 93t-40.5 82.5t-72.5 60t-109.5 23.5q-109 0 -186.5 -38.5t-127.5 -111.5t-75 -180t-29 -245h554v-98 h-554q4 -125 30 -228.5t76.5 -177.5t128 -114.5t183.5 -40.5q73 0 129.5 14t99.5 37.5t76 54.5t58 64q17 -11 27.5 -29.5t10.5 -48.5q0 -38 -26 -78t-78.5 -72t-134 -53.5t-193.5 -21.5q-150 0 -263.5 53t-190.5 150t-116 233.5t-39 301.5z" />
<glyph unicode="&#x405;" horiz-adv-x="1091" d="M96 263q0 60 38 97.5t107 37.5q3 -63 19 -120.5t48.5 -102t82.5 -71t121 -26.5q135 0 211 65.5t76 187.5q0 55 -16 97t-52 78t-95.5 69t-147.5 69q-93 38 -162.5 81.5t-115.5 97t-68.5 119t-22.5 148.5q0 86 32.5 153.5t91.5 114t139.5 71t175.5 24.5q90 0 159.5 -18.5 t117.5 -50t73 -72t25 -84.5q0 -65 -42.5 -97.5t-115.5 -32.5q0 47 -11 92.5t-37.5 81t-70 58t-106.5 22.5q-58 0 -103.5 -16t-77 -46t-48 -72t-16.5 -94q0 -60 15.5 -105.5t52.5 -82t96.5 -69.5t146.5 -68q89 -37 158 -77t117 -89.5t73.5 -110.5t25.5 -139q0 -95 -35 -170 t-99.5 -127t-155.5 -79t-204 -27q-98 0 -173 21t-125.5 57.5t-76 89t-25.5 115.5z" />
<glyph unicode="&#x406;" horiz-adv-x="736" d="M76 0v84h26q34 0 64 5t52.5 20t35.5 43.5t13 75.5v976q0 47 -13 75.5t-35.5 44t-52.5 20t-64 4.5h-26v85h585v-85h-27q-33 0 -63.5 -4.5t-52.5 -20t-35.5 -44t-13.5 -75.5v-976q0 -47 13.5 -75.5t35.5 -43.5t52.5 -20t63.5 -5h27v-84h-585z" />
<glyph unicode="&#x407;" horiz-adv-x="736" d="M71 1712q0 31 8 52.5t21.5 35t32.5 19.5t40 6q22 0 40.5 -6t32.5 -19.5t22 -35t8 -52.5t-8 -52.5t-22 -35t-32.5 -19.5t-40.5 -6q-44 0 -73 25.5t-29 87.5zM76 0v84h26q34 0 64 5t52.5 20t35.5 43.5t13 75.5v976q0 47 -13 75.5t-35.5 44t-52.5 20t-64 4.5h-26v85h585v-85 h-27q-33 0 -63.5 -4.5t-52.5 -20t-35.5 -44t-13.5 -75.5v-976q0 -47 13.5 -75.5t35.5 -43.5t52.5 -20t63.5 -5h27v-84h-585zM452 1712q0 31 8 52.5t22 35t32.5 19.5t39.5 6q22 0 40.5 -6t33 -19.5t22 -35t7.5 -52.5t-7.5 -52.5t-22 -35t-33 -19.5t-40.5 -6q-44 0 -73 25.5 t-29 87.5z" />
<glyph unicode="&#x408;" horiz-adv-x="716" d="M-23 -387h19q65 0 115.5 18t84.5 60.5t52.5 114t18.5 176.5v1230q0 44 -13.5 71t-36 42t-52.5 19t-63 4h-26v85h585v-85h-27q-33 0 -63.5 -4.5t-52.5 -20t-35.5 -44t-13.5 -75.5v-1220q0 -135 -35 -224.5t-97 -143t-145.5 -76t-179.5 -22.5h-35v95z" />
<glyph unicode="&#x409;" horiz-adv-x="1784" d="M0 126q0 52 23.5 87.5t64.5 35.5q0 -14 6 -30t18 -30.5t31 -24t43 -9.5q28 0 53.5 8.5t50 37.5t48.5 85t49 151q18 65 32.5 142.5t27 157.5t21.5 160t15.5 150.5t9.5 127.5t3 91q0 28 -13 44.5t-35 25t-51 10.5t-62 2h-30v85h988v-85h-46q-33 0 -63 -4t-52.5 -17.5 t-36 -38.5t-13.5 -66v-429h86q145 0 247.5 -29t167 -81.5t94 -125t29.5 -159.5q0 -88 -30 -161t-90.5 -126t-153.5 -82t-220 -29h-524v84h26q33 0 63 4.5t52.5 18t36 38.5t13.5 66v1122h-267q-5 -126 -18 -263.5t-31 -273t-42 -260.5t-54 -225q-27 -91 -57 -153.5 t-66.5 -100.5t-81.5 -54.5t-101 -16.5q-81 0 -121 37t-40 103zM1082 96h96q85 0 144.5 18t96.5 54t54 91t17 128q0 84 -19.5 143.5t-61 96.5t-106 54.5t-155.5 17.5h-66v-603z" />
<glyph unicode="&#x40a;" horiz-adv-x="1947" d="M76 0v84h26q34 0 64 5t52.5 20t35.5 43.5t13 75.5v984q0 44 -13.5 71t-36 42t-52.5 19t-63 4h-26v85h585v-85h-27q-33 0 -63.5 -4.5t-52.5 -20t-35.5 -44t-13.5 -75.5v-405h573v405q0 47 -13.5 75.5t-35.5 44t-52 20t-64 4.5h-26v85h584v-85h-26q-32 0 -62 -4 t-52.5 -17.5t-36 -38.5t-13.5 -66v-429h86q145 0 247.5 -29t167 -81.5t94 -125t29.5 -159.5q0 -88 -30 -161t-90.5 -126t-154 -82t-219.5 -29h-524v84h26q32 0 62 4.5t52.5 18t36.5 38.5t14 66v488h-573v-471q0 -47 13.5 -75.5t35.5 -43.5t52.5 -20t63.5 -5h27v-84h-585z M1245 96h96q85 0 144 18t96.5 54t54 91t16.5 128q0 84 -19 143.5t-60.5 96.5t-106.5 54.5t-156 17.5h-65v-603z" />
<glyph unicode="&#x40b;" horiz-adv-x="1654" d="M40 1082l10 351h1046l9 -351h-103l-10 86q-4 33 -14 63t-28.5 52.5t-49 36t-75.5 13.5h-151v-512q24 9 56 19.5t71 18.5t83.5 14t92.5 6q110 0 194.5 -20.5t143 -70.5t88.5 -133.5t30 -208.5v-218q0 -47 13 -75.5t35 -43.5t52.5 -20t63.5 -5h27v-84h-584v84h25 q35 0 64.5 5t52 20t35.5 43.5t13 75.5v209q0 100 -20 162.5t-57 98t-87 48.5t-110 13q-45 0 -86.5 -5t-78 -12t-66.5 -15.5t-51 -16.5v-482q0 -47 13.5 -75.5t35.5 -43.5t52.5 -20t63.5 -5h26v-84h-604v84h46q33 0 63 4.5t52.5 18.5t35.5 40.5t13 71.5v1114h-152 q-44 0 -73.5 -13.5t-49 -36t-28.5 -52.5t-13 -63l-11 -86h-104z" />
<glyph unicode="&#x40c;" horiz-adv-x="1405" d="M76 0v84h26q33 0 63 4.5t52.5 18.5t36 40.5t13.5 71.5v993q0 44 -13.5 71t-36 42t-52.5 19t-63 4h-26v85h585v-85h-27q-33 0 -63.5 -4.5t-52.5 -20t-35.5 -44t-13.5 -75.5v-438q47 0 76.5 3.5t48.5 11t31.5 19t25.5 27.5q25 31 62.5 105.5t93.5 185.5q38 76 76.5 136 t81 102.5t91.5 66t108 23.5q44 0 75.5 -10t50.5 -26.5t28 -40t9 -50.5q0 -28 -8 -51.5t-21.5 -41t-30.5 -28t-37 -14.5q-4 22 -13 43t-23 36.5t-34.5 24.5t-47.5 9q-58 0 -111.5 -58t-115.5 -180q-31 -61 -55 -108t-45 -83t-40 -62.5t-42 -46.5q53 -2 90.5 -14.5t66 -34 t51 -53.5t45.5 -73l188 -339q47 -85 102 -123t123 -38h6v-84h-28q-97 0 -160.5 8t-106.5 29t-73.5 57.5t-60.5 94.5l-184 349q-23 45 -45.5 72t-53.5 41t-77 18.5t-117 4.5v-446q0 -47 13.5 -75.5t35.5 -43.5t52.5 -20t63.5 -5h27v-84h-585zM658 1547v27q23 28 47 65.5 t47 77t44 79t37 73.5h214v-21q-18 -26 -54.5 -66t-80.5 -83t-90.5 -83.5t-86.5 -68.5h-77z" />
<glyph unicode="&#x40d;" horiz-adv-x="1612" d="M76 0v84h26q34 0 64 5t52.5 20t35.5 43.5t13 75.5v984q0 44 -13.5 71t-36 42t-52.5 19t-63 4h-26v85h585v-85h-27q-33 0 -63.5 -4.5t-52.5 -20t-35.5 -44t-13.5 -75.5v-794l673 754v40q0 47 -13 75.5t-35.5 44t-52.5 20t-64 4.5h-25v85h584v-85h-27q-33 0 -63.5 -4.5 t-52.5 -20t-35 -44t-13 -75.5v-985q0 -45 13 -71.5t35.5 -40.5t52.5 -18.5t63 -4.5h27v-84h-584v84h25q34 0 64 5t52.5 20t35.5 43.5t13 75.5v795l-673 -754v-41q0 -47 13.5 -75.5t35.5 -43.5t52.5 -20t63.5 -5h27v-84h-585zM492 1848v21h215q15 -34 36.5 -73.5t45 -79 t48 -77t45.5 -65.5v-27h-76q-40 28 -87.5 68.5t-91.5 83.5t-80 83t-55 66z" />
<glyph unicode="&#x40e;" horiz-adv-x="1344" d="M0 1348v85h562v-85h-32q-61 0 -90.5 -23t-29.5 -73q0 -16 3.5 -34t11.5 -40l221 -475q34 -71 59 -141.5t42 -132.5q7 32 16 62t20.5 61.5t25 66.5t30.5 76l189 469q9 25 13.5 47.5t4.5 38.5q0 52 -33 75t-100 23h-42v85h483v-85h-38q-29 0 -49 -6t-36.5 -24t-31.5 -48 t-35 -77l-339 -825q-32 -79 -60.5 -137.5t-57.5 -99t-62 -66.5t-75 -40t-96 -19.5t-125 -5.5h-146v94h110q51 0 99.5 14.5t90 41.5t73.5 64.5t48 82.5l-455 946q-15 30 -28 50t-29 32.5t-36 17.5t-50 5h-26zM318 1819h166q5 -56 18.5 -92t38 -56t61.5 -28t89 -8q43 0 79 9.5 t62.5 30.5t43 56.5t22.5 87.5h171q-6 -61 -30 -111t-70 -86t-115 -55.5t-167 -19.5q-101 0 -169.5 18.5t-111.5 54t-63 86t-25 113.5z" />
<glyph unicode="&#x40f;" horiz-adv-x="1531" d="M76 0v84h26q33 0 63 4.5t52.5 19t36 41.5t13.5 71v984q0 47 -13 75.5t-35.5 44t-52.5 20t-64 4.5h-26v85h585v-85h-27q-33 0 -63.5 -4.5t-52.5 -20t-35.5 -44t-13.5 -75.5v-1104h592v1104q0 47 -12.5 75.5t-35 44t-52.5 20t-64 4.5h-26v85h584v-85h-26q-33 0 -63 -4 t-52.5 -18t-36 -41t-13.5 -71v-986q0 -47 13.5 -75.5t35.5 -43.5t52.5 -20t63.5 -5h26v-84h-417q-54 0 -96 -24t-71 -75.5t-44 -131t-15 -190.5h-92q0 111 -17.5 190.5t-50 131t-77.5 75.5t-100 24h-399z" />
<glyph unicode="&#x410;" horiz-adv-x="1415" d="M0 0v84h38q30 0 50.5 6.5t37 24t31.5 48t34 78.5l445 1192h157l454 -1242q11 -31 23.5 -51.5t29 -33t38 -17.5t51.5 -5h26v-84h-552v84h46q121 0 121 96q0 17 -4.5 34.5t-12.5 40.5l-80 224h-527l-77 -210q-9 -24 -13.5 -47t-4.5 -40q0 -51 32.5 -74.5t100.5 -23.5h46 v-84h-490zM444 580h453l-125 351q-31 89 -57 167t-43 151q-7 -37 -16 -70.5t-20 -69t-24.5 -74t-31.5 -85.5z" />
<glyph unicode="&#x411;" horiz-adv-x="1212" d="M76 0v84h26q33 0 63 4.5t52.5 19t36 41.5t13.5 71v984q0 47 -13 75.5t-35.5 44t-52.5 20t-64 4.5h-26v85h968l10 -351h-104l-11 86q-4 33 -13.5 63t-28.5 52.5t-49.5 36t-75.5 13.5h-303v-540h127q146 0 248 -29t166.5 -81.5t94 -125t29.5 -159.5q0 -88 -30 -161 t-90.5 -126t-154 -82t-219.5 -29h-564zM469 96h137q85 0 144 18t96.5 54t54 91t16.5 128q0 84 -19 143.5t-60 96.5t-106 54.5t-156 17.5h-107v-603z" />
<glyph unicode="&#x412;" horiz-adv-x="1312" d="M76 0v84h26q34 0 64 5t52.5 20t35.5 43.5t13 75.5v984q0 44 -13.5 71t-36 42t-52.5 19t-63 4h-26v85h538q261 0 388.5 -87t127.5 -272q0 -68 -19 -118.5t-52.5 -89t-79 -64.5t-98.5 -43v-8q69 -12 125.5 -40.5t97.5 -74t63.5 -108t22.5 -141.5q0 -194 -127.5 -290.5 t-388.5 -96.5h-598zM469 100h195q86 0 144.5 15.5t96 50.5t54 91t16.5 136q0 78 -14.5 136t-50.5 96t-94.5 57t-147.5 19h-199v-601zM469 801h140q88 0 146.5 15.5t94 48.5t50.5 85t15 124q0 74 -16.5 123.5t-53.5 79.5t-96.5 43t-144.5 13h-135v-532z" />
<glyph unicode="&#x413;" horiz-adv-x="1126" d="M76 0v84h26q34 0 64 5t52.5 20t35.5 43.5t13 75.5v976q0 47 -13 75.5t-35.5 44t-52.5 20t-64 4.5h-26v85h998l12 -351h-105l-8 70q-5 43 -15 76t-31.5 56.5t-58.5 36t-96 12.5h-303v-1113q0 -44 13.5 -71t36 -41.5t52.5 -19t63 -4.5h67v-84h-625z" />
<glyph unicode="&#x414;" horiz-adv-x="1369" d="M28 100h123q71 149 139 306.5t120.5 309.5t84 293t31.5 257q0 29 -14.5 45t-39 24.5t-56.5 10.5t-65 2h-6v85h923v-85h-25q-28 0 -54 -4t-45 -18t-30.5 -41t-11.5 -71v-969q0 -47 13 -76t35 -44t52.5 -20t63.5 -5h40v-521h-92q0 111 -20.5 190.5t-58.5 131t-93 75.5 t-125 24h-500q-68 0 -123.5 -24t-93.5 -75.5t-58.5 -131t-20.5 -190.5h-93v521zM275 100h627v1233h-260q0 -99 -16 -207t-44 -218t-65 -220.5t-77.5 -214.5t-82.5 -198.5t-82 -174.5z" />
<glyph unicode="&#x415;" horiz-adv-x="1250" d="M76 0v84h26q33 0 63 4.5t52.5 18.5t36 40.5t13.5 71.5v985q0 47 -13 75.5t-35.5 44t-52.5 20t-64 4.5h-26v85h1012l10 -351h-104l-10 86q-4 33 -15.5 63t-32.5 52.5t-52.5 36t-76.5 13.5h-338v-534h485v-98h-485v-601h388q48 0 81.5 13t56 36t35.5 52.5t18 63.5l13 86 h105l-14 -351h-1076z" />
<glyph unicode="&#x416;" horiz-adv-x="1964" d="M0 0v84h6q68 0 123 38t102 123l188 339q23 41 45 73t51 53.5t66.5 34t90.5 14.5q-23 20 -42 46.5t-40 62.5t-45 83t-55 108q-62 122 -115.5 180t-111.5 58q-27 0 -47.5 -9t-35 -24.5t-23.5 -36.5t-13 -43q-19 4 -36.5 14.5t-30.5 28t-21 41t-8 51.5q0 27 9 50.5t28 40 t50.5 26.5t75.5 10q59 0 108 -23.5t91.5 -66t81 -102.5t76.5 -136q56 -111 93.5 -185.5t62.5 -105.5q13 -16 25.5 -27.5t30.5 -19t44 -11t65 -3.5v446q0 44 -13.5 71t-36 42t-52 19t-63.5 4h-6v85h529v-85h-6q-34 0 -64 -4.5t-52.5 -20t-35.5 -44t-13 -75.5v-438 q40 0 65.5 3.5t43 11t30.5 19t26 27.5q25 31 62.5 105.5t92.5 185.5q39 76 77.5 136t81 102.5t91.5 66t108 23.5q44 0 75.5 -10t50.5 -26.5t28 -40t9 -50.5q0 -28 -8 -51.5t-21 -41t-31 -28t-36 -14.5q-4 22 -13 43t-23.5 36.5t-35 24.5t-47.5 9q-59 0 -112 -58t-115 -180 q-31 -61 -55 -108t-45 -83t-40 -62.5t-42 -46.5q53 -2 90.5 -14.5t66.5 -34t51 -53.5t44 -73l189 -339q47 -85 102 -123t123 -38h6v-84h-29q-96 0 -159.5 8t-106.5 29t-73.5 57.5t-60.5 94.5l-184 349q-23 45 -43 72t-48 41t-71 18.5t-114 4.5v-446q0 -47 13 -75.5 t35.5 -43.5t52.5 -20t64 -5h6v-84h-529v84h6q34 0 63.5 4.5t52 18.5t36 40.5t13.5 71.5v455q-71 0 -114 -4.5t-71 -18.5t-48 -41t-44 -72l-183 -349q-30 -58 -60.5 -94.5t-73.5 -57.5t-107 -29t-160 -8h-28z" />
<glyph unicode="&#x417;" horiz-adv-x="1210" d="M90 226q0 75 45 112t124 37q0 -53 17 -104t52.5 -92t89.5 -66t130 -25q70 0 129 17t100.5 55t64.5 99.5t23 152.5q0 62 -22 114t-65.5 88.5t-107.5 56.5t-149 20h-170v102h170q67 0 124.5 21.5t100 62t67 98t24.5 128.5q0 59 -14.5 105t-46.5 78.5t-83 49t-123 16.5 q-84 0 -137.5 -24.5t-84 -65.5t-41 -95t-10.5 -113q-36 0 -67.5 5.5t-55 21t-37 40.5t-13.5 63q0 58 28.5 107.5t85 85t140 56t192.5 20.5q105 0 193 -19.5t151 -60.5t98.5 -104.5t35.5 -150.5q0 -78 -25.5 -138t-69.5 -104t-102.5 -73t-126.5 -44v-10q56 -7 119.5 -24.5 t118 -55.5t90.5 -100.5t36 -158.5q0 -117 -43.5 -199t-117.5 -134t-171.5 -76t-205.5 -24q-128 0 -215.5 23.5t-142 59t-78.5 79.5t-24 87z" />
<glyph unicode="&#x418;" horiz-adv-x="1612" d="M76 0v84h26q34 0 64 5t52.5 20t35.5 43.5t13 75.5v984q0 44 -13.5 71t-36 42t-52.5 19t-63 4h-26v85h585v-85h-27q-33 0 -63.5 -4.5t-52.5 -20t-35.5 -44t-13.5 -75.5v-794l673 754v40q0 47 -13 75.5t-35.5 44t-52.5 20t-64 4.5h-25v85h584v-85h-27q-33 0 -63.5 -4.5 t-52.5 -20t-35 -44t-13 -75.5v-985q0 -45 13 -71.5t35.5 -40.5t52.5 -18.5t63 -4.5h27v-84h-584v84h25q34 0 64 5t52.5 20t35.5 43.5t13 75.5v795l-673 -754v-41q0 -47 13.5 -75.5t35.5 -43.5t52.5 -20t63.5 -5h27v-84h-585z" />
<glyph unicode="&#x419;" horiz-adv-x="1612" d="M76 0v84h26q34 0 64 5t52.5 20t35.5 43.5t13 75.5v984q0 44 -13.5 71t-36 42t-52.5 19t-63 4h-26v85h585v-85h-27q-33 0 -63.5 -4.5t-52.5 -20t-35.5 -44t-13.5 -75.5v-794l673 754v40q0 47 -13 75.5t-35.5 44t-52.5 20t-64 4.5h-25v85h584v-85h-27q-33 0 -63.5 -4.5 t-52.5 -20t-35 -44t-13 -75.5v-985q0 -45 13 -71.5t35.5 -40.5t52.5 -18.5t63 -4.5h27v-84h-584v84h25q34 0 64 5t52.5 20t35.5 43.5t13 75.5v795l-673 -754v-41q0 -47 13.5 -75.5t35.5 -43.5t52.5 -20t63.5 -5h27v-84h-585zM431 1819h166q5 -56 18.5 -92t38 -56t61.5 -28 t89 -8q43 0 79 9.5t62.5 30.5t43 56.5t22.5 87.5h171q-6 -61 -30 -111t-70 -86t-115 -55.5t-167 -19.5q-101 0 -169.5 18.5t-111.5 54t-63 86t-25 113.5z" />
<glyph unicode="&#x41a;" horiz-adv-x="1405" d="M76 0v84h26q33 0 63 4.5t52.5 18.5t36 40.5t13.5 71.5v993q0 44 -13.5 71t-36 42t-52.5 19t-63 4h-26v85h585v-85h-27q-33 0 -63.5 -4.5t-52.5 -20t-35.5 -44t-13.5 -75.5v-438q47 0 76.5 3.5t48.5 11t31.5 19t25.5 27.5q25 31 62.5 105.5t93.5 185.5q38 76 76.5 136 t81 102.5t91.5 66t108 23.5q44 0 75.5 -10t50.5 -26.5t28 -40t9 -50.5q0 -28 -8 -51.5t-21.5 -41t-30.5 -28t-37 -14.5q-4 22 -13 43t-23 36.5t-34.5 24.5t-47.5 9q-58 0 -111.5 -58t-115.5 -180q-31 -61 -55 -108t-45 -83t-40 -62.5t-42 -46.5q53 -2 90.5 -14.5t66 -34 t51 -53.5t45.5 -73l188 -339q47 -85 102 -123t123 -38h6v-84h-28q-97 0 -160.5 8t-106.5 29t-73.5 57.5t-60.5 94.5l-184 349q-23 45 -45.5 72t-53.5 41t-77 18.5t-117 4.5v-446q0 -47 13.5 -75.5t35.5 -43.5t52.5 -20t63.5 -5h27v-84h-585z" />
<glyph unicode="&#x41b;" horiz-adv-x="1409" d="M0 126q0 52 23.5 87.5t64.5 35.5q0 -14 6 -30t18 -30.5t31 -24t43 -9.5q28 0 53.5 8.5t50 37.5t48.5 85t49 151q18 65 32.5 141.5t27 156.5t21.5 159t15.5 149.5t9.5 128.5t3 94q0 28 -13 44.5t-35 25t-51 10.5t-62 2h-30v85h1028v-85h-27q-34 0 -64 -4.5t-52 -20 t-35 -44t-13 -75.5v-976q0 -47 13 -75.5t35 -43.5t52 -20t64 -5h27v-84h-584v84h26q33 0 63 5t52.5 20t35.5 43.5t13 75.5v1105h-327q-5 -126 -18 -263.5t-31 -273t-42 -260.5t-54 -225q-27 -91 -57 -153.5t-66.5 -100.5t-81.5 -54.5t-101 -16.5q-81 0 -121 37t-40 103z" />
<glyph unicode="&#x41c;" horiz-adv-x="1882" d="M76 0v84h26q33 0 63 4.5t52.5 18.5t36 40.5t13.5 71.5v993q0 44 -13.5 71t-36 42t-52.5 19t-63 4h-26v85h458l416 -1148l411 1148h445v-85h-25q-35 0 -64.5 -4.5t-52 -20t-35.5 -44t-13 -75.5v-976q0 -47 13 -75.5t35.5 -43.5t52 -20t64.5 -5h25v-84h-534v84h7 q32 0 58 4.5t44 18t29 38.5t13 66v1072l-460 -1283h-108l-466 1279v-1051q0 -47 10 -75.5t29 -43.5t46 -20t60 -5h6v-84h-464z" />
<glyph unicode="&#x41d;" horiz-adv-x="1591" d="M76 0v84h26q34 0 64 5t52.5 20t35.5 43.5t13 75.5v984q0 44 -13.5 71t-36 42t-52.5 19t-63 4h-26v85h585v-85h-27q-33 0 -63.5 -4.5t-52.5 -20t-35.5 -44t-13.5 -75.5v-405h653v405q0 47 -13 75.5t-35 44t-52 20t-65 4.5h-26v85h584v-85h-25q-35 0 -64.5 -4.5t-52.5 -20 t-35.5 -44t-12.5 -75.5v-985q0 -45 13 -71.5t35.5 -40.5t52.5 -18.5t64 -4.5h25v-84h-584v84h26q35 0 65 5t52 20t35 43.5t13 75.5v471h-653v-471q0 -47 13.5 -75.5t35.5 -43.5t52.5 -20t63.5 -5h27v-84h-585z" />
<glyph unicode="&#x41e;" horiz-adv-x="1489" d="M113 720q0 167 39 302.5t117.5 231.5t198 148.5t279.5 52.5q152 0 268.5 -52.5t197 -149t121.5 -232t41 -303.5q0 -165 -41 -301.5t-121.5 -233.5t-198 -150t-269.5 -53q-160 0 -278.5 53t-197 150t-117.5 234t-39 303zM335 718q0 -149 22 -266t71 -198t127 -123.5 t190 -42.5t189.5 42.5t126 123.5t70 198t21.5 266t-21.5 266.5t-70 197.5t-125.5 122.5t-188 42.5q-112 0 -190.5 -42.5t-128 -122.5t-71.5 -197.5t-22 -266.5z" />
<glyph unicode="&#x41f;" horiz-adv-x="1531" d="M76 0v84h26q34 0 64 5t52.5 20t35.5 43.5t13 75.5v984q0 44 -13.5 71t-36 42t-52.5 19t-63 4h-26v85h1379v-85h-26q-33 0 -63.5 -4.5t-52.5 -20t-35.5 -44t-13.5 -75.5v-985q0 -45 13.5 -71.5t36 -40.5t52.5 -18.5t63 -4.5h26v-84h-584v84h26q34 0 64 5t52.5 20t35 43.5 t12.5 75.5v1105h-592v-1105q0 -47 13.5 -75.5t35.5 -43.5t52.5 -20t63.5 -5h27v-84h-585z" />
<glyph unicode="&#x420;" horiz-adv-x="1212" d="M76 0v84h26q34 0 64 5t52.5 20t35.5 43.5t13 75.5v984q0 44 -13.5 71t-36 42t-52.5 19t-63 4h-26v85h564q126 0 219.5 -29t154 -83.5t90.5 -132t30 -175.5q0 -89 -28 -171t-91.5 -145.5t-166.5 -101t-252 -37.5h-127v-339q0 -45 13.5 -71.5t36 -40.5t52.5 -18.5t63 -4.5 h67v-84h-625zM469 653h107q91 0 156 19t106 61.5t60 109.5t19 162q0 85 -16.5 147t-54 103.5t-96.5 61.5t-144 20h-137v-684z" />
<glyph unicode="&#x421;" horiz-adv-x="1231" d="M115 718q0 163 41 298.5t122 232.5t201.5 150.5t279.5 53.5q102 0 178 -17t126.5 -47.5t75.5 -71.5t25 -89q0 -32 -13 -58t-36.5 -44.5t-55.5 -28t-69 -9.5q0 47 -12.5 93t-40.5 82.5t-72.5 60t-109.5 23.5q-114 0 -193.5 -42t-129.5 -122t-72.5 -197t-22.5 -268 q0 -134 23.5 -245.5t74.5 -191.5t130 -124t190 -44q73 0 129.5 14t99.5 37.5t76 54.5t58 64q17 -11 27.5 -29.5t10.5 -48.5q0 -38 -26 -78t-78.5 -72t-134 -53.5t-193.5 -21.5q-150 0 -263.5 53t-190.5 150t-116 233.5t-39 301.5z" />
<glyph unicode="&#x422;" horiz-adv-x="1229" d="M40 1082l10 351h1130l10 -351h-104l-10 86q-4 33 -13.5 63t-28.5 52.5t-49 36t-76 13.5h-195v-1105q0 -47 13.5 -75.5t35.5 -43.5t52.5 -20t63.5 -5h46v-84h-624v84h46q33 0 63 4.5t52.5 18.5t36 40.5t13.5 71.5v1114h-193q-44 0 -73.5 -13.5t-49 -36t-28.5 -52.5 t-13 -63l-11 -86h-104z" />
<glyph unicode="&#x423;" horiz-adv-x="1344" d="M0 1348v85h562v-85h-32q-61 0 -90.5 -23t-29.5 -73q0 -16 3.5 -34t11.5 -40l221 -475q34 -71 59 -141.5t42 -132.5q7 32 16 62t20.5 61.5t25 66.5t30.5 76l189 469q9 25 13.5 47.5t4.5 38.5q0 52 -33 75t-100 23h-42v85h483v-85h-38q-29 0 -49 -6t-36.5 -24t-31.5 -48 t-35 -77l-339 -825q-32 -79 -60.5 -137.5t-57.5 -99t-62 -66.5t-75 -40t-96 -19.5t-125 -5.5h-146v94h110q51 0 99.5 14.5t90 41.5t73.5 64.5t48 82.5l-455 946q-15 30 -28 50t-29 32.5t-36 17.5t-50 5h-26z" />
<glyph unicode="&#x424;" horiz-adv-x="1539" d="M67 745q0 98 29 178.5t90.5 138.5t154 90t219.5 32h110v20q0 47 -13 75.5t-35 44t-52 20t-64 4.5h-27v85h575v-85h-26q-34 0 -64 -4.5t-52.5 -20t-35.5 -44t-13 -75.5v-20h110q127 0 220 -32t153.5 -90t90.5 -138.5t30 -178.5q0 -60 -12 -118.5t-38.5 -111t-69 -98.5 t-102 -78.5t-138 -51t-178.5 -18.5h-66v-41q0 -47 13 -75.5t35.5 -43.5t52.5 -20t64 -5h26v-84h-575v84h27q34 0 64 5t52 20t35 43.5t13 75.5v41h-66q-99 0 -177.5 18.5t-138.5 51t-102 78.5t-68.5 98.5t-38.5 111t-12 118.5zM283 737q0 -95 19 -165.5t60.5 -116.5 t106 -68.5t155.5 -22.5h46v724h-76q-85 0 -144 -23t-96 -68t-54 -110.5t-17 -149.5zM863 364h46q92 0 156.5 22.5t105.5 68.5t60 116.5t19 165.5q0 84 -16.5 149.5t-53.5 110.5t-96.5 68t-144.5 23h-76v-724z" />
<glyph unicode="&#x425;" horiz-adv-x="1324" d="M16 0v84h12q37 0 64 7.5t50 24t45.5 43t49.5 65.5l335 481l-331 538q-36 57 -81.5 81t-90.5 24h-27v85h544v-85h-6q-34 0 -56.5 -4t-35.5 -12t-17.5 -19t-4.5 -22t1 -21t6 -23t14.5 -30.5t26.5 -44.5l181 -293l190 289q22 34 36 64.5t14 58.5q0 17 -8.5 28.5t-22.5 18 t-33.5 8.5t-43.5 2h-6v85h439v-85h-17q-30 0 -54 -6.5t-46.5 -24t-46.5 -44.5t-52 -69l-291 -419l369 -594q44 -59 83.5 -83t77.5 -24h25v-84h-542v84h11q120 0 120 67q0 11 -2.5 21.5t-9.5 25.5t-20 36.5t-34 54.5l-199 320l-222 -330q-9 -12 -18 -28.5t-16.5 -34 t-12.5 -35.5t-5 -34q0 -34 31.5 -48.5t98.5 -14.5h6v-84h-478z" />
<glyph unicode="&#x426;" horiz-adv-x="1531" d="M76 0v84h26q33 0 63 4.5t52.5 19t36 41.5t13.5 71v984q0 47 -13 75.5t-35.5 44t-52.5 20t-64 4.5h-26v85h585v-85h-27q-33 0 -63.5 -4.5t-52.5 -20t-35.5 -44t-13.5 -75.5v-1104h592v1104q0 47 -12.5 75.5t-35 44t-52.5 20t-64 4.5h-26v85h584v-85h-26q-33 0 -63 -4 t-52.5 -18t-36 -41t-13.5 -71v-986q0 -47 13.5 -75.5t35.5 -43.5t52.5 -20t63.5 -5h40v-505h-92q0 111 -20.5 190.5t-60.5 131t-97 75.5t-131 24h-992z" />
<glyph unicode="&#x427;" horiz-adv-x="1517" d="M42 1348v85h584v-85h-26q-34 0 -64 -4.5t-52 -20t-35.5 -44t-13.5 -75.5v-313q0 -123 63 -179.5t172 -56.5q50 0 95 6.5t91 20t92.5 33t99.5 44.5v445q0 47 -13.5 75.5t-35.5 44t-52 20t-64 4.5h-26v85h584v-85h-26q-33 0 -63.5 -4.5t-52.5 -20t-35.5 -44t-13.5 -75.5 v-985q0 -45 13.5 -71.5t36 -40.5t52.5 -18.5t63 -4.5h26v-84h-584v84h26q34 0 64 5t52 20t35.5 43.5t13.5 75.5v423q-54 -27 -103 -49.5t-100.5 -39.5t-109.5 -26.5t-129 -9.5q-185 0 -279 91t-94 272v323q0 44 -13 71t-35.5 42t-52.5 19t-63 4h-27z" />
<glyph unicode="&#x428;" horiz-adv-x="2165" d="M76 0v84h26q33 0 63 4.5t52.5 19t36 41.5t13.5 71v984q0 47 -13 75.5t-35.5 44t-52.5 20t-64 4.5h-26v85h585v-85h-27q-33 0 -63.5 -4.5t-52.5 -20t-35.5 -44t-13.5 -75.5v-1104h512v1112q0 41 -11.5 67.5t-31.5 42t-46 21t-55 5.5h-6v85h504v-85h-6q-31 0 -57.5 -5.5 t-46 -22t-30.5 -44t-11 -72.5v-1104h512v1104q0 47 -13 75.5t-35 44t-52 20t-64 4.5h-27v85h584v-85h-26q-33 0 -63.5 -4.5t-52.5 -20t-35.5 -44t-13.5 -75.5v-984q0 -44 13.5 -71t36 -41.5t52.5 -19t63 -4.5h26v-84h-2013z" />
<glyph unicode="&#x429;" horiz-adv-x="2165" d="M76 0v84h26q33 0 63 4.5t52.5 19t36 41.5t13.5 71v984q0 47 -13 75.5t-35.5 44t-52.5 20t-64 4.5h-26v85h585v-85h-27q-33 0 -63.5 -4.5t-52.5 -20t-35.5 -44t-13.5 -75.5v-1104h512v1112q0 41 -11.5 67.5t-31.5 42t-46 21t-55 5.5h-6v85h504v-85h-6q-31 0 -57.5 -5.5 t-46 -22t-30.5 -44t-11 -72.5v-1104h512v1104q0 47 -13 75.5t-35 44t-52 20t-64 4.5h-27v85h584v-85h-26q-33 0 -63.5 -4.5t-52.5 -20t-35.5 -44t-13.5 -75.5v-976q0 -47 13.5 -75.5t35.5 -43.5t52.5 -20t63.5 -5h40v-505h-92q0 212 -77.5 316.5t-217.5 104.5h-1640z" />
<glyph unicode="&#x42a;" horiz-adv-x="1417" d="M40 1082l10 351h856v-85h-67q-33 0 -63 -4t-52.5 -18t-36 -41t-13.5 -71v-421h127q145 0 247.5 -29t167 -81.5t94 -125t29.5 -159.5q0 -88 -30 -161t-91 -126t-154 -82t-219 -29h-564v84h26q33 0 63 4.5t52.5 19t35.5 41.5t13 71v1113h-152q-44 0 -73.5 -13.5t-49 -36 t-28.5 -52.5t-13 -63l-11 -86h-104zM674 96h136q86 0 145 18t96.5 54t54 91t16.5 128q0 84 -19 143.5t-60 96.5t-106 54.5t-156 17.5h-107v-603z" />
<glyph unicode="&#x42b;" horiz-adv-x="1820" d="M76 0v84h26q33 0 63 4.5t52.5 19t36 41.5t13.5 71v984q0 47 -13 75.5t-35.5 44t-52.5 20t-64 4.5h-26v85h625v-85h-67q-33 0 -63 -4t-52.5 -18t-36 -41t-13.5 -71v-421h87q146 0 248 -29t166.5 -81.5t94 -125t29.5 -159.5q0 -88 -30 -161t-91 -126t-154 -82t-219 -29 h-524zM469 96h97q86 0 144.5 18t96 54t54 91t16.5 128q0 84 -19 143.5t-60 96.5t-106 54.5t-156 17.5h-67v-603zM1160 0v84h26q34 0 64 5t52.5 20t35 43.5t12.5 75.5v976q0 47 -12.5 75.5t-35 44t-52.5 20t-64 4.5h-26v85h584v-85h-26q-33 0 -63.5 -4.5t-52.5 -20t-35.5 -44 t-13.5 -75.5v-976q0 -47 13.5 -75.5t35.5 -43.5t52.5 -20t63.5 -5h26v-84h-584z" />
<glyph unicode="&#x42c;" horiz-adv-x="1212" d="M76 0v84h26q33 0 63 4.5t52.5 19t36 41.5t13.5 71v984q0 47 -13 75.5t-35.5 44t-52.5 20t-64 4.5h-26v85h625v-85h-67q-33 0 -63 -4t-52.5 -18t-36 -41t-13.5 -71v-421h127q146 0 248 -29t166.5 -81.5t94 -125t29.5 -159.5q0 -88 -30 -161t-90.5 -126t-154 -82 t-219.5 -29h-564zM469 96h137q85 0 144 18t96.5 54t54 91t16.5 128q0 84 -19 143.5t-60 96.5t-106 54.5t-156 17.5h-107v-603z" />
<glyph unicode="&#x42d;" horiz-adv-x="1229" d="M90 226q0 75 45 112t124 37q0 -53 14.5 -104t46.5 -92.5t82.5 -67t121.5 -25.5q91 0 159 44.5t113.5 123.5t69 187t27.5 233h-554v98h554q-4 138 -24.5 245t-62 180t-105.5 111.5t-155 38.5q-66 0 -116.5 -23.5t-84.5 -61.5t-52 -87.5t-18 -102.5q-74 0 -119 32.5 t-45 94.5q0 50 27 96t81 81t136.5 56t194.5 21q133 0 238.5 -46.5t178 -138t111 -227t38.5 -313.5q0 -169 -39.5 -307.5t-115.5 -236.5t-187.5 -151t-254.5 -53q-122 0 -204.5 22.5t-132.5 58t-71 79t-21 86.5z" />
<glyph unicode="&#x42e;" horiz-adv-x="2087" d="M76 0v84h26q34 0 64 5t52.5 20t35.5 43.5t13 75.5v984q0 44 -13.5 71t-36 42t-52.5 19t-63 4h-26v85h585v-85h-27q-33 0 -63.5 -4.5t-52.5 -20t-35.5 -44t-13.5 -75.5v-405h303q9 150 50 271.5t116 206.5t184 131.5t253 46.5t255 -52.5t187 -149t116 -232t40 -303.5 q0 -165 -40 -301.5t-116.5 -233.5t-188 -150t-255.5 -53q-150 0 -261.5 51t-186.5 145t-113.5 227t-41.5 296h-301v-471q0 -47 13.5 -75.5t35.5 -43.5t52.5 -20t63.5 -5h27v-84h-585zM994 718q0 -149 20.5 -266t65.5 -198t117.5 -123.5t175.5 -42.5q104 0 176 42.5 t116.5 123.5t64.5 198t20 266t-20 266.5t-64.5 197.5t-116 122.5t-174.5 42.5q-104 0 -176.5 -42.5t-118 -122.5t-66 -197.5t-20.5 -266.5z" />
<glyph unicode="&#x42f;" horiz-adv-x="1316" d="M-23 0v84h7q32 0 59.5 10t52.5 30t49.5 50t49.5 71l259 414q-50 17 -98 46.5t-86.5 75t-62 111t-23.5 156.5q0 198 137 291.5t395 93.5h525v-85h-27q-33 0 -63 -4t-52.5 -19t-35.5 -42t-13 -71v-993q0 -45 13 -71.5t35.5 -40.5t52.5 -18.5t63 -4.5h27v-84h-584v84h25 q33 0 63 4.5t52.5 18.5t36 40.5t13.5 71.5v399h-198l-260 -438q-33 -56 -63 -90.5t-71 -54.5t-100 -27.5t-149 -7.5h-29zM400 1021q0 -71 18 -128t56 -97t94.5 -62t134.5 -22h144v625h-98q-93 0 -159.5 -18.5t-108.5 -56.5t-61.5 -98t-19.5 -143z" />
<glyph unicode="&#x430;" horiz-adv-x="1129" d="M100 301q0 160 113.5 237t344.5 84l166 6v121q0 54 -6 99.5t-25.5 78t-56 51t-98.5 18.5q-58 0 -93.5 -16.5t-56 -45.5t-27 -69.5t-6.5 -87.5q-84 0 -127.5 28.5t-43.5 98.5q0 52 28.5 88t78 59t115 34t140.5 11q92 0 160.5 -18.5t114.5 -59.5t69 -107t23 -162v-521 q0 -42 7 -69.5t21.5 -44t38.5 -23.5t58 -7h6v-84h-272l-31 172h-17q-31 -42 -60.5 -77t-64.5 -60.5t-80 -40t-107 -14.5q-67 0 -124.5 19.5t-99 59t-65 100t-23.5 142.5zM295 291q0 -94 39.5 -140.5t123.5 -46.5q60 0 109.5 19.5t84.5 56t53.5 88t18.5 115.5v163l-128 -6 q-85 -4 -142.5 -21t-93 -48t-50.5 -76t-15 -104z" />
<glyph unicode="&#x431;" horiz-adv-x="1156" d="M111 622q0 111 7.5 210.5t28 185t55 157t88 124t128.5 86.5t176 46q67 9 127.5 15.5t108.5 17.5t81 27.5t45 44.5h63q-2 -84 -31 -132.5t-83 -76t-134 -40t-185 -25.5q-112 -12 -178.5 -38t-103 -75.5t-50.5 -129t-19 -200.5h8q16 46 45.5 86.5t73.5 70t99.5 47 t124.5 17.5q228 0 344 -134t116 -394q0 -129 -28.5 -228t-87.5 -166.5t-148 -102.5t-210 -35q-229 0 -345 157t-116 485zM303 512q0 -209 63.5 -318.5t205.5 -109.5q80 0 133.5 27.5t86 82t47 134.5t14.5 184q0 105 -14.5 184.5t-47 133t-86 80.5t-133.5 27 q-79 0 -131.5 -27t-83 -80.5t-42.5 -133t-12 -184.5z" />
<glyph unicode="&#x432;" horiz-adv-x="1194" d="M46 0v84h27q33 0 63 4.5t52.5 18.5t35.5 40.5t13 71.5v636q0 44 -13 71t-35.5 41.5t-52.5 19.5t-63 5h-27v84h584q211 0 308.5 -66.5t97.5 -192.5q0 -59 -16 -104t-46 -75.5t-72 -49t-94 -24.5v-10q64 -8 114.5 -26.5t87 -48.5t55.5 -72.5t19 -99.5q0 -66 -25.5 -122.5 t-77 -97.5t-129.5 -64t-184 -23h-622zM425 92h205q67 0 114.5 12.5t78 39t44.5 68.5t14 101q0 105 -68 149t-195 44h-193v-414zM425 602h195q61 0 103.5 14t69 40t38.5 62t12 79q0 39 -12 73.5t-38 59.5t-68.5 39.5t-104.5 14.5h-195v-382z" />
<glyph unicode="&#x433;" horiz-adv-x="919" d="M46 0v84h27q33 0 63 4.5t52.5 18.5t35.5 40.5t13 71.5v636q0 44 -13 71t-35.5 41.5t-52.5 19.5t-63 5h-27v84h833v-321h-98l-11 66q-7 47 -17 78.5t-26 50t-39.5 26.5t-57.5 8h-205v-765q0 -45 13.5 -71.5t36 -40.5t52.5 -18.5t63 -4.5h46v-84h-590z" />
<glyph unicode="&#x434;" horiz-adv-x="1166" d="M26 92h139q31 49 63 136t65 209q12 41 24.5 99.5t24 119t19 117t7.5 94.5q0 40 -13.5 64.5t-36 38t-52.5 18t-63 4.5h-27v84h944v-84h-26q-34 0 -63.5 -4.5t-52 -18.5t-36 -41t-13.5 -71v-638q0 -61 23.5 -89.5t60.5 -37.5h113v-513h-98l-11 146q-5 76 -23.5 128 t-45.5 84t-59 46.5t-66 16.5h-494q-47 0 -81.5 -14.5t-58 -47.5t-37 -85.5t-18.5 -127.5l-10 -146h-98v513zM283 92h458v892h-259q-10 -92 -22.5 -183.5t-27.5 -178t-32 -165.5t-36 -146q-26 -86 -43.5 -138t-37.5 -81z" />
<glyph unicode="&#x435;" horiz-adv-x="1074" d="M111 530q0 281 115.5 423.5t329.5 142.5q97 0 174.5 -30.5t131 -91t82.5 -150t29 -208.5v-92h-668q2 -109 22 -188t57.5 -130t92.5 -75t127 -24q52 0 96.5 11.5t80.5 31.5t64 45t46 52q14 -6 26 -24.5t12 -44.5q0 -30 -21.5 -65t-65.5 -64t-110.5 -49t-155.5 -20 q-109 0 -195.5 37t-146.5 107.5t-91.5 173t-31.5 232.5zM309 632h461q0 79 -11.5 145t-37 113t-67.5 72.5t-102 25.5q-112 0 -172.5 -90.5t-70.5 -265.5z" />
<glyph unicode="&#x436;" horiz-adv-x="1765" d="M6 0v84h6q67 0 116.5 38.5t95.5 122.5l105 184q45 84 108 127t157 48q-20 13 -37.5 30.5t-36 41t-40 54t-49.5 69.5q-25 38 -47 67t-44 48t-44 28.5t-47 9.5t-44.5 -9t-33 -24.5t-22.5 -36.5t-13 -43q-18 4 -36 13.5t-31 25.5t-21 38t-8 49q0 55 43.5 89t129.5 34 q57 0 99 -16.5t74.5 -45.5t62.5 -71.5t65 -95.5q51 -77 86 -129t61 -75q11 -12 23 -20t26.5 -13t34.5 -7.5t50 -2.5v243q0 44 -12 71t-32 41.5t-46 19.5t-54 5h-9v84h480v-84h-6q-28 0 -54.5 -4.5t-46.5 -18t-32 -38.5t-12 -66v-253q30 0 50 2.5t35 7.5t26.5 13t22.5 20 q26 23 60.5 75t86.5 129q35 53 65 95.5t62.5 71.5t74 45.5t99.5 16.5q86 0 129.5 -34t43.5 -89q0 -27 -8 -49t-21 -38t-31 -25.5t-36 -13.5q-4 22 -12.5 43t-22.5 36.5t-33 24.5t-45 9q-24 0 -46.5 -9.5t-44 -28.5t-44 -48t-47.5 -67q-28 -39 -49.5 -69.5t-40 -54t-36 -41 t-37.5 -30.5q94 -5 157 -48t108 -127l105 -184q46 -84 95.5 -122.5t116.5 -38.5h6v-84h-70q-77 0 -128.5 8t-88.5 29t-65.5 57.5t-59.5 94.5l-98 194q-22 44 -47 70.5t-57.5 41.5t-74.5 19.5t-100 4.5v-300q0 -45 12 -71.5t32 -40.5t46.5 -18.5t54.5 -4.5h6v-84h-480v84h9 q29 0 55 5t45.5 20t31.5 43.5t12 75.5v291q-57 0 -99.5 -4.5t-75 -19.5t-57.5 -41.5t-48 -70.5l-98 -194q-30 -58 -58 -94.5t-65 -57.5t-89 -29t-129 -8h-70z" />
<glyph unicode="&#x437;" horiz-adv-x="980" d="M80 197q0 128 148 128q0 -53 14 -98.5t41.5 -78.5t69 -52.5t97.5 -19.5q115 0 170.5 63.5t55.5 173.5q0 102 -62 149.5t-172 47.5h-187v108h189q51 0 89 15.5t63 41.5t37.5 60.5t12.5 74.5t-9.5 74.5t-30.5 60.5t-56 41.5t-84 15.5q-101 0 -154 -58t-53 -159 q-80 0 -119.5 28.5t-39.5 92.5q0 36 21.5 70t66.5 60t115 42t166 16q87 0 155 -18.5t115.5 -52t72.5 -82.5t25 -110q0 -48 -14.5 -89.5t-41.5 -74.5t-64.5 -57.5t-82.5 -39.5v-10q52 -13 95.5 -33t75 -50.5t49 -71t17.5 -94.5q0 -70 -24.5 -129.5t-77 -105t-133.5 -71 t-196 -25.5q-108 0 -177.5 21t-110 52.5t-56.5 70t-16 73.5z" />
<glyph unicode="&#x438;" horiz-adv-x="1380" d="M46 0v84h27q33 0 63 4.5t52.5 18.5t35.5 40.5t13 71.5v636q0 44 -13 71t-35.5 41.5t-52.5 19.5t-63 5h-27v84h570v-84h-26q-33 0 -63 -4.5t-52.5 -18.5t-36 -41t-13.5 -71v-502l531 494v6q0 44 -13.5 71t-36 41.5t-52.5 19.5t-63 5h-6v84h550v-84h-27q-33 0 -63 -4.5 t-52.5 -18.5t-35.5 -41t-13 -71v-638q0 -45 13 -71.5t35.5 -40.5t52.5 -18.5t63 -4.5h27v-84h-571v84h27q33 0 63 4.5t52.5 18.5t36 40.5t13.5 71.5v499l-531 -490v-9q0 -45 13.5 -71.5t36 -40.5t52.5 -18.5t63 -4.5h26v-84h-570z" />
<glyph unicode="&#x439;" horiz-adv-x="1380" d="M46 0v84h27q33 0 63 4.5t52.5 18.5t35.5 40.5t13 71.5v636q0 44 -13 71t-35.5 41.5t-52.5 19.5t-63 5h-27v84h570v-84h-26q-33 0 -63 -4.5t-52.5 -18.5t-36 -41t-13.5 -71v-502l531 494v6q0 44 -13.5 71t-36 41.5t-52.5 19.5t-63 5h-6v84h550v-84h-27q-33 0 -63 -4.5 t-52.5 -18.5t-35.5 -41t-13 -71v-638q0 -45 13 -71.5t35.5 -40.5t52.5 -18.5t63 -4.5h27v-84h-571v84h27q33 0 63 4.5t52.5 18.5t36 40.5t13.5 71.5v499l-531 -490v-9q0 -45 13.5 -71.5t36 -40.5t52.5 -18.5t63 -4.5h26v-84h-570zM325 1488h166q5 -56 18.5 -92t38 -56 t61.5 -28t89 -8q43 0 79 9.5t62.5 30.5t43 56.5t22.5 87.5h171q-6 -61 -30 -111t-70 -86t-115 -55.5t-167 -19.5q-101 0 -169.5 18.5t-111.5 54t-63 86t-25 113.5z" />
<glyph unicode="&#x43a;" horiz-adv-x="1234" d="M36 0v84h37q33 0 63.5 5t52.5 20t35 43.5t13 75.5v627q0 44 -13 71t-35.5 41.5t-52.5 19.5t-63 5h-37v84h560v-84h-6q-32 0 -62 -4.5t-52.5 -18t-36.5 -38.5t-14 -66v-253q30 0 51.5 2.5t37.5 7.5t29.5 13t24.5 20q26 23 60 75t86 129q35 53 64.5 95.5t63 71.5t74.5 45.5 t99 16.5q86 0 129.5 -34t43.5 -89q0 -28 -8 -49.5t-21 -37.5t-31 -25.5t-36 -13.5q-4 22 -13 43t-22.5 36t-33 24.5t-44.5 9.5q-49 0 -90 -38t-92 -115q-28 -40 -49.5 -70t-40 -53.5t-36 -41t-37.5 -30.5q47 -2 82.5 -14.5t64 -34t52.5 -53.5t46 -73l105 -184 q47 -85 102 -123t122 -38h6v-84h-70q-77 0 -132 8t-95.5 29t-72 57.5t-61.5 94.5l-99 194q-22 44 -44 70.5t-50.5 41.5t-68 19.5t-96.5 4.5v-300q0 -45 13.5 -71.5t36 -40.5t52.5 -18.5t63 -4.5h6v-84h-560z" />
<glyph unicode="&#x43b;" horiz-adv-x="1260" d="M0 126q0 52 23.5 87.5t64.5 35.5q0 -14 6 -30t18 -30.5t31 -24t43 -9.5q29 0 54 8.5t49.5 37.5t48.5 85t49 151q12 41 24.5 99.5t24 119t19 117t7.5 94.5q0 40 -13.5 64.5t-36 38t-52.5 18t-63 4.5h-27v84h944v-84h-26q-34 0 -63.5 -4.5t-52 -18.5t-36 -41t-13.5 -71 v-638q0 -45 13.5 -71.5t36 -40.5t52 -18.5t63.5 -4.5h26v-84h-550v84h6q34 0 63.5 4.5t52 18.5t36 40.5t13.5 71.5v765h-259q-10 -92 -22.5 -183.5t-27 -178t-32 -165.5t-36.5 -146q-28 -91 -56.5 -153.5t-63 -100.5t-78 -54.5t-99.5 -16.5q-81 0 -121 37t-40 103z" />
<glyph unicode="&#x43c;" horiz-adv-x="1579" d="M46 0v84h27q33 0 63 4.5t52.5 18.5t35.5 40.5t13 71.5v636q0 44 -13 71t-35.5 41.5t-52.5 19.5t-63 5h-27v84h429l318 -811l331 811h410v-84h-27q-33 0 -63 -4.5t-52.5 -18.5t-35.5 -41t-13 -71v-638q0 -45 13 -71.5t35.5 -40.5t52.5 -18.5t63 -4.5h27v-84h-550v84h6 q33 0 63 4.5t52.5 18.5t35.5 40.5t13 71.5v642h-14l-349 -861h-92l-339 861h-15v-642q0 -45 13 -71.5t35.5 -40.5t52.5 -18.5t64 -4.5h5v-84h-469z" />
<glyph unicode="&#x43d;" horiz-adv-x="1380" d="M46 0v84h27q33 0 63 4.5t52.5 18.5t35.5 40.5t13 71.5v636q0 44 -13 71t-35.5 41.5t-52.5 19.5t-63 5h-27v84h550v-84h-6q-33 0 -63 -4.5t-52.5 -18.5t-36 -41t-13.5 -71v-259h531v257q0 44 -13.5 71t-36 41.5t-52.5 19.5t-63 5h-6v84h550v-84h-27q-33 0 -63 -4.5 t-52.5 -18.5t-35.5 -41t-13 -71v-638q0 -45 13 -71.5t35.5 -40.5t52.5 -18.5t63 -4.5h27v-84h-550v84h6q33 0 63 4.5t52.5 18.5t36 40.5t13.5 71.5v287h-531v-287q0 -45 13.5 -71.5t36 -40.5t52.5 -18.5t63 -4.5h6v-84h-550z" />
<glyph unicode="&#x43e;" horiz-adv-x="1158" d="M111 540q0 281 119 418.5t352 137.5q109 0 195 -34t146.5 -103t92.5 -173.5t32 -245.5q0 -283 -120 -421.5t-352 -138.5q-109 0 -195 34.5t-146.5 104t-92 175t-31.5 246.5zM305 540q0 -112 14.5 -197t47.5 -142.5t85.5 -87t127.5 -29.5q76 0 128 29.5t84 87t46.5 142.5 t14.5 197t-15 196t-47 140.5t-84.5 85t-128.5 28.5q-75 0 -127 -28.5t-84.5 -85t-47 -140.5t-14.5 -196z" />
<glyph unicode="&#x43f;" horiz-adv-x="1340" d="M46 0v84h27q33 0 63 4.5t52.5 18.5t35.5 40.5t13 71.5v636q0 44 -13 71t-35.5 41.5t-52.5 19.5t-63 5h-27v84h1249v-84h-27q-33 0 -63 -4.5t-52.5 -18.5t-36 -41t-13.5 -71v-638q0 -45 13.5 -71.5t36 -40.5t52.5 -18.5t63 -4.5h27v-84h-550v84h6q33 0 63 4.5t52.5 18.5 t35.5 40.5t13 71.5v765h-490v-765q0 -45 13.5 -71.5t36 -40.5t52.5 -18.5t63 -4.5h6v-84h-550z" />
<glyph unicode="&#x440;" horiz-adv-x="1231" d="M26 992v84h351l21 -181h8q22 46 50.5 83t66 63t84.5 40.5t105 14.5q99 0 175.5 -33t128.5 -101t79 -173t27 -249q0 -145 -27 -251t-79 -174.5t-128.5 -101.5t-175.5 -33q-57 0 -104 13t-85 36.5t-67 56t-50 71.5h-8q2 -52 4 -97q1 -19 1.5 -39t1 -37.5t1 -32t0.5 -22.5 v-192q0 -44 13 -71t35.5 -41t52.5 -18.5t63 -4.5h6v-84h-540v84h16q34 0 64 5t52 20t35.5 44t13.5 76v1108q0 44 -13.5 71t-36 41.5t-52.5 19.5t-63 5h-26zM406 540q0 -105 13 -185.5t45 -135t84.5 -82.5t131.5 -28q67 0 113.5 28t76.5 82.5t43.5 135.5t13.5 187 q0 107 -13.5 186.5t-43.5 132.5t-77.5 79.5t-114.5 26.5q-78 0 -130.5 -26t-84 -79t-44.5 -133t-13 -189z" />
<glyph unicode="&#x441;" horiz-adv-x="987" d="M111 532q0 161 33.5 269t94 174t142.5 93.5t177 27.5q62 0 124.5 -12.5t112.5 -38t81 -64t31 -90.5q0 -70 -45 -98.5t-134 -28.5q0 47 -8 89.5t-27 74t-51.5 50t-83.5 18.5q-58 0 -104.5 -21.5t-80 -74.5t-51 -142.5t-17.5 -223.5q0 -214 71 -318.5t233 -104.5 q93 0 162.5 39t103.5 101q15 -12 24.5 -31.5t9.5 -47.5q0 -34 -21.5 -68t-64 -61.5t-106 -45t-149.5 -17.5q-100 0 -184 31t-145 97.5t-94.5 171t-33.5 252.5z" />
<glyph unicode="&#x442;" horiz-adv-x="1097" d="M40 755l12 321h994l11 -321h-98l-9 66q-8 47 -18 78.5t-25.5 50t-39 26.5t-59.5 8h-164v-765q0 -45 13 -71.5t35.5 -40.5t52.5 -18.5t63 -4.5h47v-84h-590v84h26q33 0 63 4.5t52.5 18.5t36 40.5t13.5 71.5v765h-167q-34 0 -57.5 -8t-39.5 -26.5t-25.5 -50t-17.5 -78.5 l-11 -66h-98z" />
<glyph unicode="&#x443;" horiz-adv-x="1133" d="M8 992v84h482v-84h-6q-61 0 -90.5 -23.5t-29.5 -73.5q0 -17 3 -34t12 -40l147 -357q14 -35 29 -75.5t28.5 -80t24 -75t14.5 -61.5h6q11 45 30 108t45 136l134 391q9 24 13.5 46.5t4.5 39.5q0 52 -33 75.5t-100 23.5h-6v84h418v-84h-6q-29 0 -50.5 -6.5t-38.5 -24 t-31.5 -48t-32.5 -78.5l-305 -843q-35 -97 -66.5 -170.5t-65.5 -126t-75 -86.5t-93 -54.5t-119.5 -28.5t-156.5 -8h-18v95q102 0 175.5 30.5t127 83.5t89.5 125t60 156l-371 877q-14 31 -26.5 51t-29 33t-37.5 18t-50 5h-6z" />
<glyph unicode="&#x444;" horiz-adv-x="1438" d="M111 540q0 261 132 397.5t391 154.5v212q0 44 -13 71t-35.5 42t-52.5 19.5t-64 4.5h-25v84h363v-433q122 -10 219 -49t164 -108t103 -167.5t36 -227.5q0 -262 -132.5 -400t-389.5 -156v-239q0 -47 13 -76t35 -44t52.5 -20t63.5 -5h27v-84h-554v84h25q35 0 65 5t52 20 t35 44t13 76v239q-123 9 -220 48t-165 108.5t-103 169.5t-35 230zM311 540q0 -101 17 -180.5t55 -136t100 -90.5t151 -45v898q-89 -11 -151 -44.5t-100 -89t-55 -133.5t-17 -179zM807 88q89 11 150 45t99.5 90.5t55 136t16.5 180.5q0 100 -17 178.5t-55.5 134t-99.5 89 t-149 44.5v-898z" />
<glyph unicode="&#x445;" horiz-adv-x="1160" d="M10 0v84h18q37 0 64.5 6t52 20.5t49 39.5t53.5 63l253 327l-253 345q-44 52 -85.5 79.5t-87.5 27.5h-26v84h510v-84h-6q-35 0 -57.5 -4.5t-35 -13t-17.5 -19t-5 -22.5q0 -21 12.5 -41t34.5 -51l132 -180l104 149q23 35 36.5 65.5t13.5 57.5q0 36 -30.5 47.5t-77.5 11.5 h-5v84h439v-84h-18q-29 0 -53 -5t-47 -18.5t-47.5 -39t-55.5 -66.5l-207 -275l295 -397q44 -59 84 -83t77 -24h27v-84h-519v84h10q120 0 120 67q0 11 -2.5 22t-11.5 26.5t-23.5 37t-38.5 52.5l-134 180l-140 -196q-9 -11 -19 -27t-17.5 -32.5t-12.5 -33.5t-5 -33 q0 -34 28.5 -48.5t95.5 -14.5h6v-84h-478z" />
<glyph unicode="&#x446;" horiz-adv-x="1361" d="M46 992v84h570v-84h-26q-33 0 -63 -4.5t-52.5 -18.5t-36 -41t-13.5 -71v-765h510v765q0 44 -13.5 71t-36 41t-52 18.5t-63.5 4.5h-25v84h569v-84h-25q-34 0 -63.5 -4.5t-52 -18.5t-36 -41t-13.5 -71v-633q0 -41 11.5 -66.5t31 -39.5t45.5 -19.5t56 -6.5h46v-513h-98 l-10 146q-5 76 -23.5 129t-46 85.5t-59.5 46.5t-66 14h-944v84h6q33 0 63 4.5t52.5 19t35.5 41.5t13 71v637q0 44 -13 71t-35.5 41t-52.5 18.5t-63 4.5h-27z" />
<glyph unicode="&#x447;" horiz-adv-x="1284" d="M30 992v84h530v-84h-6q-34 0 -63.5 -4.5t-52 -18.5t-36 -41t-13.5 -71v-211q0 -70 40.5 -107t120.5 -37q38 0 74 5t72 15.5t76 27t87 40.5v265q0 44 -13 71t-35.5 41.5t-52.5 19.5t-63 5h-7v84h551v-84h-27q-33 0 -63 -4.5t-52.5 -18.5t-35.5 -41t-13 -71v-638 q0 -45 13 -71.5t35.5 -40.5t52.5 -18.5t63 -4.5h27v-84h-571v84h27q33 0 63 4.5t52.5 18.5t35.5 40.5t13 71.5v285q-48 -31 -92 -55.5t-89 -42t-93 -27.5t-106 -10q-66 0 -118 18.5t-87.5 51.5t-54 80.5t-18.5 106.5v229q0 44 -13.5 71t-36 41.5t-52 19.5t-63.5 5h-6z" />
<glyph unicode="&#x448;" horiz-adv-x="1898" d="M46 0v84h27q33 0 63 4.5t52.5 19t35.5 41.5t13 71v637q0 44 -13 71t-35.5 41t-52.5 18.5t-63 4.5h-27v84h538v-84h-6q-33 0 -63 -4.5t-52.5 -18.5t-35.5 -41t-13 -71v-765h447v765q0 44 -13 71t-35.5 41t-52.5 18.5t-63 4.5h-6v84h517v-84h-6q-33 0 -63 -4.5t-52.5 -18.5 t-35.5 -41t-13 -71v-765h448v765q0 44 -13.5 71t-36 41t-52.5 18.5t-63 4.5h-7v84h538v-84h-25q-34 0 -63.5 -4.5t-52 -18.5t-36 -41t-13.5 -71v-637q0 -44 13.5 -71t36 -41.5t52 -19t63.5 -4.5h25v-84h-1806z" />
<glyph unicode="&#x449;" horiz-adv-x="1898" d="M46 0v84h27q33 0 63 4.5t52.5 19t35.5 41.5t13 71v637q0 44 -13 71t-35.5 41t-52.5 18.5t-63 4.5h-27v84h538v-84h-6q-33 0 -63 -4.5t-52.5 -18.5t-35.5 -41t-13 -71v-765h447v765q0 44 -13 71t-35.5 41t-52.5 18.5t-63 4.5h-6v84h517v-84h-6q-33 0 -63 -4.5t-52.5 -18.5 t-35.5 -41t-13 -71v-765h448v765q0 44 -13.5 71t-36 41t-52.5 18.5t-63 4.5h-7v84h538v-84h-25q-34 0 -63.5 -4.5t-52 -18.5t-36 -41t-13.5 -71v-650q0 -35 12 -57.5t32 -34.5t46 -17t54 -6h46v-513h-98l-10 146q-5 76 -24 129t-46 85.5t-59 46.5t-66 14h-1503z" />
<glyph unicode="&#x44a;" horiz-adv-x="1413" d="M60 755l13 321h782v-84h-26q-33 0 -63 -5t-52.5 -19.5t-36 -41.5t-13.5 -71v-257h175q93 0 177 -11t147.5 -42t101 -88t37.5 -150q0 -66 -25.5 -122.5t-76.5 -97.5t-129 -64t-184 -23h-602v84h26q33 0 63 4.5t52.5 18.5t35.5 40.5t13 71.5v765h-166q-35 0 -58.5 -8 t-39 -26.5t-25.5 -50t-17 -78.5l-10 -66h-99zM664 92h185q67 0 114.5 12.5t77.5 39.5t44.5 70t14.5 104q0 101 -68.5 144.5t-194.5 43.5h-173v-414z" />
<glyph unicode="&#x44b;" horiz-adv-x="1658" d="M46 0v84h27q33 0 63 4.5t52.5 18.5t35.5 40.5t13 71.5v636q0 44 -13 71t-35.5 41.5t-52.5 19.5t-63 5h-27v84h570v-84h-26q-33 0 -63 -5t-52.5 -19.5t-36 -41.5t-13.5 -71v-257h135q93 0 176.5 -11t147.5 -42t101.5 -88t37.5 -150q0 -66 -25.5 -122.5t-77 -97.5 t-129.5 -64t-182 -23h-563zM425 92h145q67 0 114.5 12.5t78 39.5t44.5 70t14 104q0 101 -68.5 144.5t-194.5 43.5h-133v-414zM1061 0v84h7q34 0 63 4.5t51.5 18.5t36 40.5t13.5 71.5v636q0 44 -13.5 71t-36 41.5t-51.5 19.5t-63 5h-7v84h531v-84h-6q-34 0 -63.5 -4.5 t-52.5 -18.5t-36 -41t-13 -71v-638q0 -45 13 -71.5t36 -40.5t52.5 -18.5t63.5 -4.5h6v-84h-531z" />
<glyph unicode="&#x44c;" horiz-adv-x="1194" d="M46 0v84h27q33 0 63 4.5t52.5 18.5t35.5 40.5t13 71.5v636q0 44 -13 71t-35.5 41.5t-52.5 19.5t-63 5h-27v84h570v-84h-26q-33 0 -63 -5t-52.5 -19.5t-36 -41.5t-13.5 -71v-257h195q93 0 177 -11t147.5 -42t101.5 -88t38 -150q0 -66 -25.5 -122.5t-77 -97.5t-129.5 -64 t-184 -23h-622zM425 92h205q67 0 114.5 12.5t78 39.5t44.5 70t14 104q0 101 -68 144.5t-195 43.5h-193v-414z" />
<glyph unicode="&#x44d;" horiz-adv-x="985" d="M80 197q0 128 148 128q0 -53 11.5 -98t36.5 -78t64 -52t95 -19q119 0 177 104t66 308h-445v108h445q-4 114 -22.5 190.5t-50 122.5t-73.5 65.5t-92 19.5q-45 0 -81 -16t-60.5 -44.5t-37 -67t-12.5 -85.5q-70 0 -108.5 27t-38.5 87q0 34 18.5 69.5t60 64t108.5 47 t163 18.5q98 0 176.5 -31t133 -97.5t84 -170.5t29.5 -251q0 -153 -33 -260.5t-91.5 -175.5t-139.5 -99t-178 -31q-108 0 -176 21t-107.5 52.5t-54.5 70t-15 73.5z" />
<glyph unicode="&#x44e;" horiz-adv-x="1723" d="M46 0v84h27q33 0 63 4.5t52.5 18.5t35.5 40.5t13 71.5v636q0 44 -13 71t-35.5 41.5t-52.5 19.5t-63 5h-27v84h550v-84h-6q-33 0 -63 -4.5t-52.5 -18.5t-36 -41t-13.5 -71v-259h291q13 252 127 375t325 123q104 0 187 -34t140 -103t88 -173.5t31 -245.5 q0 -283 -115 -421.5t-337 -138.5q-101 0 -181.5 32.5t-138 97.5t-90 163.5t-36.5 232.5h-291v-287q0 -45 13.5 -71.5t36 -40.5t52.5 -18.5t63 -4.5h6v-84h-550zM911 540q0 -112 14 -197t44 -142.5t78.5 -87t118.5 -29.5t118.5 29.5t78.5 87t43 142.5t13 197t-13.5 196 t-44 140.5t-79 85t-118.5 28.5t-118 -28.5t-78 -85t-43.5 -140.5t-13.5 -196z" />
<glyph unicode="&#x44f;" horiz-adv-x="1116" d="M16 0v84h7q26 0 48 7t41 21t37.5 37t36.5 56l178 305q-46 8 -93.5 29.5t-85 56t-61.5 83t-24 112.5q0 67 24 119.5t73.5 89.5t126 56.5t182.5 19.5h564v-84h-7q-33 0 -62.5 -5t-52 -19.5t-35.5 -41.5t-13 -71v-636q0 -45 13 -71.5t35.5 -40.5t52 -18.5t62.5 -4.5h27v-84 h-571v84h27q33 0 63 4.5t52.5 18.5t35.5 40.5t13 71.5v254h-166l-167 -310q-21 -41 -46 -71.5t-64.5 -50.5t-99 -30.5t-151.5 -10.5zM295 783q0 -43 11.5 -82t37.5 -67.5t68.5 -46t102.5 -17.5h195v414h-195q-61 0 -103.5 -16.5t-68 -44.5t-37 -64.5t-11.5 -75.5z" />
<glyph unicode="&#x450;" horiz-adv-x="1074" d="M111 530q0 281 115.5 423.5t329.5 142.5q97 0 174.5 -30.5t131 -91t82.5 -150t29 -208.5v-92h-668q2 -109 22 -188t57.5 -130t92.5 -75t127 -24q52 0 96.5 11.5t80.5 31.5t64 45t46 52q14 -6 26 -24.5t12 -44.5q0 -30 -21.5 -65t-65.5 -64t-110.5 -49t-155.5 -20 q-109 0 -195.5 37t-146.5 107.5t-91.5 173t-31.5 232.5zM279 1517v21h215q15 -34 36.5 -73.5t45 -79t48 -77t45.5 -65.5v-27h-76q-40 28 -87.5 68.5t-91.5 83.5t-80 83t-55 66zM309 632h461q0 79 -11.5 145t-37 113t-67.5 72.5t-102 25.5q-112 0 -172.5 -90.5t-70.5 -265.5z " />
<glyph unicode="&#x451;" horiz-adv-x="1074" d="M111 530q0 281 115.5 423.5t329.5 142.5q97 0 174.5 -30.5t131 -91t82.5 -150t29 -208.5v-92h-668q2 -109 22 -188t57.5 -130t92.5 -75t127 -24q52 0 96.5 11.5t80.5 31.5t64 45t46 52q14 -6 26 -24.5t12 -44.5q0 -30 -21.5 -65t-65.5 -64t-110.5 -49t-155.5 -20 q-109 0 -195.5 37t-146.5 107.5t-91.5 173t-31.5 232.5zM248 1381q0 31 8 52.5t21.5 35t32.5 19.5t40 6q22 0 40.5 -6t32.5 -19.5t22 -35t8 -52.5t-8 -52.5t-22 -35t-32.5 -19.5t-40.5 -6q-44 0 -73 25.5t-29 87.5zM309 632h461q0 79 -11.5 145t-37 113t-67.5 72.5 t-102 25.5q-112 0 -172.5 -90.5t-70.5 -265.5zM629 1381q0 31 8 52.5t22 35t32.5 19.5t39.5 6q22 0 40.5 -6t33 -19.5t22 -35t7.5 -52.5t-7.5 -52.5t-22 -35t-33 -19.5t-40.5 -6q-44 0 -73 25.5t-29 87.5z" />
<glyph unicode="&#x452;" horiz-adv-x="1227" d="M34 1190v95h183v19q0 44 -13.5 71t-36 42t-52.5 19.5t-63 4.5h-16v84h370v-240h343v-95h-343v-146q0 -28 -1 -58t-3 -55l-4 -58h10q90 182 295 182q85 0 151 -23t111 -70.5t68.5 -122t23.5 -177.5v-678q0 -135 -27 -224.5t-76 -143t-118 -76t-150 -22.5h-29v95h11 q48 0 85.5 18t63.5 60.5t39 114t13 176.5v671q0 65 -11.5 116t-37.5 86.5t-68 53.5t-103 18q-63 0 -108.5 -23t-75.5 -65.5t-44.5 -103t-14.5 -133.5v-383q0 -45 13 -71.5t35.5 -40.5t52.5 -18.5t63 -4.5h6v-84h-540v84h16q34 0 64 5t52 20t35.5 43.5t13.5 75.5v962h-183z " />
<glyph unicode="&#x453;" horiz-adv-x="919" d="M46 0v84h27q33 0 63 4.5t52.5 18.5t35.5 40.5t13 71.5v636q0 44 -13 71t-35.5 41.5t-52.5 19.5t-63 5h-27v84h833v-321h-98l-11 66q-7 47 -17 78.5t-26 50t-39.5 26.5t-57.5 8h-205v-765q0 -45 13.5 -71.5t36 -40.5t52.5 -18.5t63 -4.5h46v-84h-590zM346 1216v27 q23 28 47 65.5t47 77t44 79t37 73.5h214v-21q-18 -26 -54.5 -66t-80.5 -83t-90.5 -83.5t-86.5 -68.5h-77z" />
<glyph unicode="&#x454;" horiz-adv-x="987" d="M111 532q0 161 33.5 269t94 174t142.5 93.5t177 27.5q62 0 124.5 -12.5t112.5 -38t81 -64t31 -90.5q0 -70 -45 -98.5t-134 -28.5q0 47 -8 89.5t-27 74t-51.5 50t-83.5 18.5q-54 0 -98.5 -19.5t-77 -65t-52 -122t-23.5 -191.5h446v-108h-448q4 -96 23 -167.5t55.5 -118.5 t92.5 -70t133 -23q93 0 162.5 39t103.5 101q15 -12 24.5 -31.5t9.5 -47.5q0 -34 -21.5 -68t-64 -61.5t-106 -45t-149.5 -17.5q-100 0 -184 31t-145 97.5t-94.5 171t-33.5 252.5z" />
<glyph unicode="&#x455;" horiz-adv-x="905" d="M90 193q0 40 13.5 67t32.5 42.5t41 22t40 6.5q0 -53 10.5 -99t36 -80.5t67 -55t102.5 -20.5q54 0 95 13.5t69 37.5t43 58t15 74q0 37 -11.5 64t-39.5 50.5t-76 48t-120 55.5q-78 35 -135 66.5t-94.5 69t-56 85t-18.5 112.5q0 69 27 122t77 88.5t119.5 54.5t154.5 19 q72 0 126.5 -15t92 -40t56 -58.5t18.5 -71.5q0 -54 -37.5 -87t-107.5 -33q0 101 -41.5 157t-130.5 56q-51 0 -87.5 -12t-59.5 -33.5t-33.5 -51t-10.5 -64.5q0 -38 13.5 -66t43.5 -51.5t77.5 -45.5t113.5 -50q80 -33 137 -65.5t93.5 -70.5t54 -86t17.5 -111q0 -78 -28.5 -137 t-80 -98.5t-124.5 -59.5t-163 -20q-75 0 -136.5 13.5t-104.5 40.5t-66.5 66.5t-23.5 92.5z" />
<glyph unicode="&#x456;" horiz-adv-x="641" d="M46 0v84h27q33 0 63 4.5t52.5 18.5t35.5 40.5t13 71.5v636q0 44 -13 71t-35.5 41.5t-52.5 19.5t-63 5h-6v84h358v-848q0 -47 13.5 -75.5t35.5 -43.5t52.5 -20t63.5 -5h26v-84h-570zM209 1401q0 36 8.5 59.5t24.5 38t36.5 20.5t44.5 6t44.5 -6t35.5 -20.5t24.5 -38 t9.5 -59.5q0 -35 -9.5 -58.5t-24.5 -38t-35.5 -21t-44.5 -6.5t-44.5 6.5t-36.5 21t-24.5 38t-8.5 58.5z" />
<glyph unicode="&#x457;" horiz-adv-x="641" d="M31 1381q0 31 8 52.5t21.5 35t32.5 19.5t40 6q22 0 40.5 -6t32.5 -19.5t22 -35t8 -52.5t-8 -52.5t-22 -35t-32.5 -19.5t-40.5 -6q-44 0 -73 25.5t-29 87.5zM46 0v84h27q33 0 63 4.5t52.5 18.5t35.5 40.5t13 71.5v636q0 44 -13 71t-35.5 41.5t-52.5 19.5t-63 5h-6v84h358 v-848q0 -47 13.5 -75.5t35.5 -43.5t52.5 -20t63.5 -5h26v-84h-570zM412 1381q0 31 8 52.5t22 35t32.5 19.5t39.5 6q22 0 40.5 -6t33 -19.5t22 -35t7.5 -52.5t-7.5 -52.5t-22 -35t-33 -19.5t-40.5 -6q-44 0 -73 25.5t-29 87.5z" />
<glyph unicode="&#x458;" horiz-adv-x="601" d="M-24 -387h14q54 0 96 18t71 60.5t44.5 114t15.5 176.5v873q0 44 -13.5 71t-36 41.5t-52.5 19.5t-63 5h-6v84h360v-1092q0 -135 -29.5 -224.5t-82.5 -143t-126 -76t-160 -22.5h-32v95zM189 1401q0 36 9 59.5t24 38t36 20.5t45 6q23 0 44 -6t36.5 -20.5t24.5 -38t9 -59.5 q0 -35 -9 -58.5t-24.5 -38t-36.5 -21t-44 -6.5q-24 0 -45 6.5t-36 21t-24 38t-9 58.5z" />
<glyph unicode="&#x459;" horiz-adv-x="1715" d="M0 126q0 52 23.5 87.5t64.5 35.5q0 -14 6 -30t18 -30.5t31 -24t43 -9.5q29 0 54 8.5t49.5 37.5t48.5 85t49 151q12 41 24.5 99.5t24 119t19 117t7.5 94.5q0 40 -13.5 64.5t-36 38t-52.5 18t-63 4.5h-27v84h929v-84h-27q-33 0 -63 -5t-52.5 -19.5t-36 -41.5t-13.5 -71 v-257h135q93 0 176.5 -11t147.5 -42t101.5 -88t37.5 -150q0 -66 -25.5 -122.5t-77 -97.5t-129 -64t-183.5 -23h-562v84h27q33 0 63 4.5t52.5 18.5t35.5 40.5t13 71.5v765h-243q-10 -92 -22.5 -183.5t-27 -178t-32 -165.5t-36.5 -146q-28 -91 -56.5 -153.5t-63 -100.5 t-78 -54.5t-99.5 -16.5q-81 0 -121 37t-40 103zM1007 92h145q67 0 114.5 12.5t78 39.5t44.5 70t14 104q0 101 -68.5 144.5t-194.5 43.5h-133v-414z" />
<glyph unicode="&#x45a;" horiz-adv-x="1824" d="M46 0v84h27q33 0 63 4.5t52.5 18.5t35.5 40.5t13 71.5v636q0 44 -13 71t-35.5 41.5t-52.5 19.5t-63 5h-27v84h550v-84h-6q-33 0 -63 -4.5t-52.5 -18.5t-36 -41t-13.5 -71v-259h502v257q0 44 -13 71t-35.5 41.5t-52.5 19.5t-64 5h-5v84h549v-84h-25q-33 0 -63 -5 t-52.5 -19.5t-36 -41.5t-13.5 -71v-257h134q94 0 177.5 -11t147.5 -42t101.5 -88t37.5 -150q0 -66 -25.5 -122.5t-77 -97.5t-129.5 -64t-184 -23h-541v84h5q34 0 64 4.5t52.5 18.5t35.5 40.5t13 71.5v287h-502v-287q0 -45 13.5 -71.5t36 -40.5t52.5 -18.5t63 -4.5h6v-84 h-550zM1116 92h144q67 0 114.5 12.5t78 39.5t44.5 70t14 104q0 101 -68 144.5t-194 43.5h-133v-414z" />
<glyph unicode="&#x45b;" horiz-adv-x="1274" d="M34 1190v95h183v19q0 44 -13.5 71t-36 42t-52.5 19.5t-63 4.5h-16v84h370v-240h343v-95h-343v-146q0 -28 -1 -58t-3 -55l-4 -58h10q90 182 295 182q85 0 151 -23t111 -70.5t68.5 -122t23.5 -177.5v-434q0 -47 12 -75.5t32.5 -43.5t49 -20t61.5 -5h6v-84h-349v653 q0 65 -11.5 116t-37.5 86.5t-68 53.5t-103 18q-63 0 -108.5 -23t-75.5 -65.5t-44.5 -103t-14.5 -133.5v-383q0 -45 13 -71.5t35.5 -40.5t52.5 -18.5t63 -4.5h6v-84h-540v84h16q34 0 64 5t52 20t35.5 43.5t13.5 75.5v962h-183z" />
<glyph unicode="&#x45c;" horiz-adv-x="1234" d="M36 0v84h37q33 0 63.5 5t52.5 20t35 43.5t13 75.5v627q0 44 -13 71t-35.5 41.5t-52.5 19.5t-63 5h-37v84h560v-84h-6q-32 0 -62 -4.5t-52.5 -18t-36.5 -38.5t-14 -66v-253q30 0 51.5 2.5t37.5 7.5t29.5 13t24.5 20q26 23 60 75t86 129q35 53 64.5 95.5t63 71.5t74.5 45.5 t99 16.5q86 0 129.5 -34t43.5 -89q0 -28 -8 -49.5t-21 -37.5t-31 -25.5t-36 -13.5q-4 22 -13 43t-22.5 36t-33 24.5t-44.5 9.5q-49 0 -90 -38t-92 -115q-28 -40 -49.5 -70t-40 -53.5t-36 -41t-37.5 -30.5q47 -2 82.5 -14.5t64 -34t52.5 -53.5t46 -73l105 -184 q47 -85 102 -123t122 -38h6v-84h-70q-77 0 -132 8t-95.5 29t-72 57.5t-61.5 94.5l-99 194q-22 44 -44 70.5t-50.5 41.5t-68 19.5t-96.5 4.5v-300q0 -45 13.5 -71.5t36 -40.5t52.5 -18.5t63 -4.5h6v-84h-560zM532 1216v27q23 28 47 65.5t47 77t44 79t37 73.5h214v-21 q-18 -26 -54.5 -66t-80.5 -83t-90.5 -83.5t-86.5 -68.5h-77z" />
<glyph unicode="&#x45d;" horiz-adv-x="1380" d="M46 0v84h27q33 0 63 4.5t52.5 18.5t35.5 40.5t13 71.5v636q0 44 -13 71t-35.5 41.5t-52.5 19.5t-63 5h-27v84h570v-84h-26q-33 0 -63 -4.5t-52.5 -18.5t-36 -41t-13.5 -71v-502l531 494v6q0 44 -13.5 71t-36 41.5t-52.5 19.5t-63 5h-6v84h550v-84h-27q-33 0 -63 -4.5 t-52.5 -18.5t-35.5 -41t-13 -71v-638q0 -45 13 -71.5t35.5 -40.5t52.5 -18.5t63 -4.5h27v-84h-571v84h27q33 0 63 4.5t52.5 18.5t36 40.5t13.5 71.5v499l-531 -490v-9q0 -45 13.5 -71.5t36 -40.5t52.5 -18.5t63 -4.5h26v-84h-570zM368 1517v21h215q15 -34 36.5 -73.5t45 -79 t48 -77t45.5 -65.5v-27h-76q-40 28 -87.5 68.5t-91.5 83.5t-80 83t-55 66z" />
<glyph unicode="&#x45e;" horiz-adv-x="1133" d="M8 992v84h482v-84h-6q-61 0 -90.5 -23.5t-29.5 -73.5q0 -17 3 -34t12 -40l147 -357q14 -35 29 -75.5t28.5 -80t24 -75t14.5 -61.5h6q11 45 30 108t45 136l134 391q9 24 13.5 46.5t4.5 39.5q0 52 -33 75.5t-100 23.5h-6v84h418v-84h-6q-29 0 -50.5 -6.5t-38.5 -24 t-31.5 -48t-32.5 -78.5l-305 -843q-35 -97 -66.5 -170.5t-65.5 -126t-75 -86.5t-93 -54.5t-119.5 -28.5t-156.5 -8h-18v95q102 0 175.5 30.5t127 83.5t89.5 125t60 156l-371 877q-14 31 -26.5 51t-29 33t-37.5 18t-50 5h-6zM202 1488h166q5 -56 18.5 -92t38 -56t61.5 -28 t89 -8q43 0 79 9.5t62.5 30.5t43 56.5t22.5 87.5h171q-6 -61 -30 -111t-70 -86t-115 -55.5t-167 -19.5q-101 0 -169.5 18.5t-111.5 54t-63 86t-25 113.5z" />
<glyph unicode="&#x45f;" horiz-adv-x="1361" d="M46 0v84h27q33 0 63 4.5t52.5 19t35.5 41.5t13 71v637q0 44 -13 71t-35.5 41t-52.5 18.5t-63 4.5h-27v84h570v-84h-26q-33 0 -63 -4.5t-52.5 -18.5t-36 -41t-13.5 -71v-765h510v765q0 44 -13.5 71t-36 41t-52 18.5t-63.5 4.5h-25v84h569v-84h-25q-34 0 -63.5 -4.5 t-52 -18.5t-36 -41t-13.5 -71v-638q0 -45 13.5 -71.5t36 -40.5t52 -18.5t63.5 -4.5h25v-84h-423q-54 0 -86.5 -24t-50 -75.5t-23 -131t-5.5 -190.5h-92q0 111 -8.5 190.5t-29.5 131t-56.5 75.5t-89.5 24h-404z" />
<glyph unicode="&#x460;" horiz-adv-x="1970" d="M115 709q0 357 134 550.5t373 193.5q121 0 201.5 -55.5t80.5 -127.5q0 -124 -134 -124q-60 201 -190 201q-243 0 -243 -629q0 -605 322 -605q136 0 222 63v473h207v-454q114 -82 243 -82q301 0 301 605q0 629 -245 629q-134 0 -187 -201q-128 0 -128 112q0 79 93 137 t238 58q451 0 451 -723q0 -750 -544 -750q-204 0 -343 118q-150 -118 -353 -118q-499 0 -499 729z" />
<glyph unicode="&#x461;" horiz-adv-x="1631" d="M0 998q90 84 182 84q114 0 190.5 -145.5t257.5 -754.5l173 394q-92 289 -177 500h191q117 -305 293 -898q113 124 188 311t75 323q0 137 -103 163q0 121 113 121q138 0 138 -194q0 -202 -129.5 -470t-311.5 -432h-105q-61 220 -132 450l-197 -450h-146q-171 584 -250 770 t-143 186q-37 0 -71 -21z" />
<glyph unicode="&#x462;" horiz-adv-x="1336" d="M40 902l8 240h343v70q0 136 -165 136h-25v85h594v-85h-36q-165 0 -165 -134v-72h360l9 -240h-94l-4 21q-14 80 -46.5 103.5t-134.5 23.5h-90v-257h126q538 0 538 -395q0 -186 -126.5 -292t-367.5 -106h-563v84h25q165 0 165 136v830h-72q-87 0 -125 -17.5t-56 -109.5 l-4 -21h-94zM594 96h136q160 0 236 66.5t76 224.5q0 169 -79 240.5t-262 71.5h-107v-603z" />
<glyph unicode="&#x463;" horiz-adv-x="1194" d="M46 0v84h27q164 0 164 135v706h-191v94h191v285q0 137 -164 137h-27v84h379v-506h293v-94h-293v-327h195q252 0 358 -71.5t106 -219.5q0 -140 -108 -223.5t-308 -83.5h-622zM425 92h205q136 0 193.5 52.5t57.5 173.5q0 188 -263 188h-193v-414z" />
<glyph unicode="&#x464;" horiz-adv-x="1828" d="M76 0v84h26q165 0 165 144v984q0 136 -165 136h-26v85h585v-85h-27q-165 0 -165 -144v-405h303q23 311 183 482.5t424 171.5q181 0 281 -61.5t100 -163.5q0 -126 -168 -140q-21 259 -223 259q-361 0 -375 -548h494v-98h-494q18 -588 385 -588q217 0 335 170 q38 -24 38 -78q0 -90 -110 -157.5t-297 -67.5q-266 0 -417.5 187.5t-157.5 531.5h-301v-471q0 -144 165 -144h27v-84h-585z" />
<glyph unicode="&#x465;" horiz-adv-x="1593" d="M46 0v84h27q164 0 164 135v636q0 137 -164 137h-27v84h550v-84h-6q-165 0 -165 -135v-259h291q27 498 448 498q147 0 248 -56t101 -149q0 -127 -178 -127q0 232 -171 232q-238 0 -251 -398h445v-108h-447q12 -379 303 -379q183 0 267 140q34 -27 34 -79 q0 -77 -92.5 -134.5t-248.5 -57.5q-445 0 -458 526h-291v-287q0 -135 165 -135h6v-84h-550z" />
<glyph unicode="&#x466;" horiz-adv-x="1386" d="M0 0v84h18q94 0 153 157l455 1192h146l482 -1240q43 -109 127 -109h6v-84h-474v84q129 3 129 83q0 32 -23 88l-166 444h-98v-699h-189v699h-99l-158 -430q-18 -49 -18 -87q0 -90 121 -98v-84h-412zM506 799h311l-42 114q-61 166 -111 330q-21 -75 -116 -330z" />
<glyph unicode="&#x467;" horiz-adv-x="1181" d="M6 0v84h4q76 0 143 157l357 835h176l368 -883q45 -109 114 -109h6v-84h-391v84q72 7 72 73q0 39 -24 98l-101 251h-98v-506h-168v506h-89l-98 -237q-27 -67 -27 -110q0 -65 66 -75v-84h-310zM414 598h281l-17 40q-62 149 -110 316h-6q-4 -11 -122 -293z" />
<glyph unicode="&#x468;" horiz-adv-x="2079" d="M76 0v84h26q165 0 165 144v984q0 136 -165 136h-26v85h585v-85h-27q-165 0 -165 -144v-405h607l243 634h146l482 -1240q42 -109 127 -109h6v-84h-475v84q129 3 129 83q0 28 -22 88l-167 444h-98v-699h-189v699h-98l-158 -430q-18 -49 -18 -87q0 -90 119 -98v-84h-400v84 h7q95 0 153 157l175 458h-569v-471q0 -144 165 -144h27v-84h-585zM1199 799h310l-42 114q-61 166 -111 330q-28 -96 -115 -330z" />
<glyph unicode="&#x469;" horiz-adv-x="1667" d="M46 0v84h27q164 0 164 135v636q0 137 -164 137h-27v84h550v-84h-6q-165 0 -165 -135v-259h366l205 478h176l368 -883q45 -109 114 -109h6v-84h-392v84q72 7 72 73q0 39 -24 98l-100 251h-98v-506h-168v506h-89l-99 -237q-27 -67 -27 -110q0 -65 66 -75v-84h-309v84h4 q75 0 142 157l113 265h-326v-506h-379zM900 598h280l-16 40q-72 187 -110 316h-6z" />
<glyph unicode="&#x46a;" horiz-adv-x="1579" d="M0 0v84h6q68 0 105 33t67 128l109 339q68 211 295 211h44l-393 532v106h1115v-106l-413 -532h63q226 0 295 -211l108 -339q33 -99 70 -130t103 -31h6v-84h-17q-199 0 -263 39.5t-98 153.5l-102 345q-31 100 -76 133.5t-141 33.5v-477q0 -144 165 -144h6v-84h-528v84h6 q165 0 165 135v486q-98 0 -143 -35t-75 -132l-102 -345q-33 -114 -97.5 -153.5t-263.5 -39.5h-16zM456 1298l354 -481l366 481h-720z" />
<glyph unicode="&#x46b;" horiz-adv-x="1409" d="M6 0v84h6q59 0 87.5 34t65.5 127l74 184q70 174 295 183l-317 365v99h982v-99l-332 -365q233 -6 303 -183l75 -184q45 -111 73.5 -136t77.5 -25h7v-84h-42q-154 0 -205 34.5t-95 154.5l-69 194q-33 89 -73 115t-126 26v-305q0 -66 22.5 -100.5t101.5 -34.5h6v-84h-439v84 h8q78 0 101 35t23 109v296q-94 0 -130 -28t-69 -113l-70 -194q-47 -129 -101.5 -159t-197.5 -30h-42zM433 952l285 -340h10l304 340h-599z" />
<glyph unicode="&#x46c;" horiz-adv-x="2282" d="M76 0v84h26q165 0 165 144v984q0 136 -165 136h-26v85h585v-85h-27q-165 0 -165 -144v-405h856l-390 528v106h1116v-106l-413 -532h62q227 0 295 -211l108 -339q30 -95 68 -128t105 -33h6v-84h-16q-199 0 -263.5 39.5t-97.5 153.5l-103 345q-30 100 -75 133.5t-141 33.5 v-477q0 -144 164 -144h6v-84h-528v84h7q163 0 163 135v486q-98 0 -142.5 -35t-73.5 -132l-102 -345q-33 -114 -98 -153.5t-264 -39.5h-15v84h6q67 0 104.5 33t67.5 128l109 339q23 74 60 115h-581v-471q0 -144 165 -144h27v-84h-585zM1158 1298l355 -481l366 481h-721z" />
<glyph unicode="&#x46d;" horiz-adv-x="1894" d="M46 0v84h27q164 0 164 135v636q0 137 -164 137h-27v84h550v-84h-6q-165 0 -165 -135v-259h594l-316 379v99h981v-99l-332 -379q231 -11 304 -182l74 -171q38 -89 66.5 -125t86.5 -36h5v-84h-42q-133 0 -188.5 27t-110.5 162l-70 180q-33 85 -75.5 113t-122.5 28v-291 q0 -66 22.5 -100.5t101.5 -34.5h6v-84h-440v84h8q78 0 101.5 35t23.5 109v282q-104 0 -139.5 -30.5t-58.5 -96.5l-71 -194q-47 -129 -101.5 -159t-197.5 -30h-42v84h6q52 0 83 30.5t70 130.5l73 184q21 51 44 77h-343v-506h-379zM919 952l285 -354h10l303 354h-598z" />
<glyph unicode="&#x46e;" horiz-adv-x="1210" d="M124 1184q0 232 362 265q-66 96 -175 229v26h78q99 -61 223 -191q123 193 259 193q88 0 88 -70q0 -25 -13 -52q-38 11 -69 11q-107 0 -186 -149q357 -48 357 -328q0 -281 -324 -359v-10q364 -46 364 -339q0 -186 -120 -287.5t-418 -122.5q-207 -14 -207 -144 q0 -126 149 -126q88 0 223 53.5t220 53.5q172 0 172 -140q0 -94 -117 -118q-31 94 -125 94q-51 0 -183.5 -26t-210.5 -26q-339 0 -339 232q0 112 90 175.5t304 79.5t276.5 89.5t62.5 214.5q0 132 -90.5 205.5t-253.5 73.5h-170v102h170q136 0 226 86t90 224q0 249 -267 249 q-273 0 -273 -298q-173 0 -173 130z" />
<glyph unicode="&#x46f;" horiz-adv-x="980" d="M42 -149q0 99 78.5 157t317 77.5t238.5 227.5q0 197 -234 197h-187v108h189q94 0 148 52.5t54 139.5q0 192 -180 192q-207 0 -207 -217q-159 0 -159 121q0 145 245 180q-47 68 -163 212v27h79q99 -61 223 -191q123 193 259 193q88 0 88 -71q0 -24 -14 -52q-37 12 -68 12 q-101 0 -177 -130q265 -44 265 -255q0 -190 -203 -261v-10q237 -57 237 -249q0 -291 -454 -327q-184 -16 -184 -131q0 -116 133 -116q78 0 205.5 52t203.5 52q148 0 148 -130q0 -82 -109 -106q-22 84 -111 84q-50 0 -164 -23.5t-190 -23.5q-307 0 -307 209z" />
<glyph unicode="&#x470;" horiz-adv-x="1662" d="M24 1348v85h363v-474q0 -95 13 -164t46.5 -114t92 -66t149.5 -21h47v610q0 47 -13 75.5t-35.5 44t-52 20t-64.5 4.5h-26v85h574v-85h-26q-34 0 -64 -4.5t-52 -20t-35.5 -44t-13.5 -75.5v-610h46q91 0 149.5 21t92.5 66t46.5 114t12.5 164v474h364v-85q-34 0 -64 -4.5 t-52.5 -20t-35.5 -44t-13 -75.5v-248q0 -60 -8 -117t-28 -108t-54.5 -93t-88 -73t-127.5 -48t-173 -17h-67v-272q0 -47 13.5 -75.5t35.5 -43.5t52 -20t64 -5h26v-84h-574v84h26q35 0 64.5 5t52 20t35.5 43.5t13 75.5v272h-67q-99 0 -173.5 17t-127.5 48t-87.5 73t-54.5 93 t-28 108t-8 117v248q0 47 -13 75.5t-35 44t-52 20t-65 4.5z" />
<glyph unicode="&#x471;" horiz-adv-x="1392" d="M36 992v84h370v-659q0 -143 76.5 -221t220.5 -87v1416h120v-1412q94 12 159.5 52.5t106.5 101.5t59 141t18 172q0 84 -12.5 148t-35 111t-54.5 78.5t-70 49.5q0 30 9 52.5t25.5 37.5t37.5 23t44 8q80 0 126.5 -112.5t46.5 -337.5q0 -77 -9.5 -152t-30.5 -143.5t-56 -128 t-86 -105.5t-120 -77.5t-158 -43.5v-470h-120v462q-123 1 -214.5 30t-152 83t-90 131.5t-29.5 175.5v455q0 44 -15 71t-39.5 41.5t-56 19.5t-64.5 5h-6z" />
<glyph unicode="&#x472;" horiz-adv-x="1489" d="M113 720q0 350 164 542.5t470 192.5q293 0 460.5 -196.5t167.5 -540.5q0 -343 -168 -540.5t-462 -197.5q-305 0 -468.5 195.5t-163.5 544.5zM333 699q7 -611 412 -611q400 0 409 611q-120 -75 -235 -75q-77 0 -217.5 64.5t-219.5 64.5q-77 0 -149 -54zM335 799 q119 74 235 74q76 0 215 -64t219 -64q77 0 148 54q-24 548 -405 548q-391 0 -412 -548z" />
<glyph unicode="&#x473;" horiz-adv-x="1158" d="M111 540q0 556 471 556q466 0 466 -556q0 -560 -472 -560q-465 0 -465 560zM303 508q9 -424 277 -424q266 0 275 424q-83 -46 -143 -46t-156.5 42t-149.5 42q-54 0 -103 -38zM305 609q83 46 141 46q61 0 158 -42.5t149 -42.5q54 0 100 39q-18 381 -275 381t-273 -381z " />
<glyph unicode="&#x474;" horiz-adv-x="1392" d="M0 1348v85h552v-85h-46q-121 0 -121 -96q0 -26 17 -74l220 -652q45 -133 90 -329q48 219 79 329l157 550q61 217 139.5 293.5t197.5 76.5q118 0 118 -103q0 -66 -66 -93q-29 47 -81 47q-58 0 -99.5 -51t-86.5 -191l-321 -1055h-147l-433 1243q-38 105 -143 105h-26z" />
<glyph unicode="&#x475;" horiz-adv-x="1176" d="M8 992v84h502v-84h-26q-120 0 -120 -97q0 -29 15 -74l136 -379q71 -195 89 -302h7q61 276 96 386l59 198q65 215 127.5 289.5t182.5 74.5q121 0 121 -102q0 -65 -67 -93q-35 59 -80 59q-49 0 -82.5 -38t-84.5 -204l-221 -710h-183l-322 885q-39 107 -143 107h-6z" />
<glyph unicode="&#x476;" horiz-adv-x="1392" d="M0 1348v85h552v-85h-46q-121 0 -121 -96q0 -26 17 -74l220 -652q45 -133 90 -329q48 219 79 329l157 550q61 217 139.5 293.5t197.5 76.5q118 0 118 -103q0 -66 -66 -93q-29 47 -81 47q-58 0 -99.5 -51t-86.5 -191l-321 -1055h-147l-433 1243q-38 105 -143 105h-26z M274 1848v21h195q79 -165 171 -295v-27h-98q-158 132 -268 301zM630 1848v21h194q78 -165 171 -295v-27h-98q-157 132 -267 301z" />
<glyph unicode="&#x477;" horiz-adv-x="1176" d="M8 992v84h502v-84h-26q-120 0 -120 -97q0 -29 15 -74l136 -379q71 -195 89 -302h7q61 276 96 386l59 198q65 215 127.5 289.5t182.5 74.5q121 0 121 -102q0 -65 -67 -93q-35 59 -80 59q-49 0 -82.5 -38t-84.5 -204l-221 -710h-183l-322 885q-39 107 -143 107h-6z M142 1517v21h195q79 -165 171 -295v-27h-98q-158 132 -268 301zM498 1517v21h194q78 -165 171 -295v-27h-98q-157 132 -267 301z" />
<glyph unicode="&#x478;" horiz-adv-x="2466" d="M113 720q0 352 153 543.5t441 191.5q274 0 431 -196.5t157 -540.5q0 -342 -157 -540t-433 -198q-286 0 -439 194t-153 546zM335 718q0 -630 370 -630q367 0 367 630q0 629 -365 629q-372 0 -372 -629zM1361 992v84h481v-84h-5q-121 0 -121 -97q0 -34 16 -74l143 -365 q74 -190 90 -284h6q11 45 31.5 107.5t42.5 136.5l125 391q17 55 17 86q0 99 -132 99h-6v84h418v-84h-6q-60 0 -88.5 -29.5t-64.5 -127.5l-295 -843q-119 -338 -224 -406t-342 -68h-18v95q333 0 442 395l-362 877q-44 107 -142 107h-6z" />
<glyph unicode="&#x479;" horiz-adv-x="2091" d="M111 540q0 556 451 556q445 0 445 -556q0 -560 -451 -560q-445 0 -445 560zM305 540q0 -456 255 -456q131 0 191.5 108t60.5 348q0 234 -59.5 342t-194.5 108q-132 0 -192.5 -105.5t-60.5 -344.5zM986 992v84h481v-84h-6q-120 0 -120 -97q0 -34 15 -74l143 -365 q75 -190 91 -284h5q11 45 31.5 107.5t43.5 136.5l124 391q18 55 18 86q0 99 -132 99h-6v84h417v-84h-6q-59 0 -87.5 -29.5t-64.5 -127.5l-295 -843q-119 -338 -224.5 -406t-341.5 -68h-18v95q333 0 441 395l-361 877q-44 107 -142 107h-6z" />
<glyph unicode="&#x47a;" horiz-adv-x="1569" d="M113 720q0 628 531 724q20 109 141 109q117 0 140 -109q251 -46 390.5 -237t139.5 -489q0 -295 -138 -487t-392 -239q-24 -114 -140 -114q-119 0 -141 114q-531 93 -531 728zM335 718q0 -526 316 -611q27 84 134 84q102 0 132 -84q315 83 315 611t-315 611 q-26 -88 -132 -88t-134 86q-316 -87 -316 -609z" />
<glyph unicode="&#x47b;" horiz-adv-x="1278" d="M111 540q0 487 408 548q10 94 123 94q109 0 120 -96q406 -67 406 -546q0 -487 -404 -550q-17 -99 -122 -99q-111 0 -123 97q-408 67 -408 552zM305 540q0 -384 219 -442q16 74 118 74q99 0 117 -72q214 58 214 440q0 373 -214 433q-18 -71 -117 -71q-102 0 -118 73 q-219 -56 -219 -435z" />
<glyph unicode="&#x47c;" horiz-adv-x="1970" d="M117 722q0 353 133 542t374 189q121 0 199.5 -55t78.5 -128q0 -124 -134 -124q-38 122 -78.5 161.5t-107.5 39.5q-243 0 -243 -629q0 -605 322 -605q160 0 318 198h13q158 -198 318 -198q322 0 322 605q0 629 -243 629q-69 0 -109 -42.5t-78 -158.5q-132 0 -132 124 q0 72 78 127.5t199 55.5q241 0 374 -189t133 -542q0 -742 -500 -742q-204 0 -368 139q-165 -139 -370 -139q-499 0 -499 742zM662 1827q18 236 229 236q69 0 224.5 -55t265.5 -55h14v-126h-41q-122 0 -279 54.5t-214 54.5q-94 0 -104 -84l-4 -25h-91zM883 1515v63 q126 36 126 98q0 21 -48 46t-48 66q0 70 94 70q113 0 113 -104q0 -177 -237 -239z" />
<glyph unicode="&#x47d;" horiz-adv-x="1583" d="M102 532q0 564 377 564q129 0 201.5 -50.5t72.5 -122.5q0 -109 -139 -109q0 101 -29 141.5t-108 40.5q-100 0 -140 -106t-40 -356q0 -444 227 -444q177 0 265 175h12q88 -175 264 -175q226 0 226 444q0 250 -40.5 356t-140.5 106q-78 0 -107.5 -40.5t-29.5 -141.5 q-138 0 -138 109q0 73 73 123t199 50q379 0 379 -564q0 -262 -106.5 -407t-303.5 -145q-173 0 -281 100q-105 -100 -281 -100q-197 0 -304.5 144t-107.5 408zM417 1528q18 236 229 236q69 0 224.5 -55t265.5 -55h15v-126h-41q-123 0 -280 55t-214 55q-94 0 -104 -85l-4 -25 h-91zM638 1216v63q126 36 126 98q0 21 -48 46t-48 67q0 69 94 69q113 0 113 -104q0 -177 -237 -239z" />
<glyph unicode="&#x47e;" horiz-adv-x="1970" d="M115 709q0 357 134 550.5t373 193.5q121 0 201.5 -55.5t80.5 -127.5q0 -124 -134 -124q-60 201 -190 201q-243 0 -243 -629q0 -605 322 -605q136 0 222 63v473h207v-454q114 -82 243 -82q301 0 301 605q0 629 -245 629q-134 0 -187 -201q-128 0 -128 112q0 79 93 137 t238 58q451 0 451 -723q0 -750 -544 -750q-204 0 -343 118q-150 -118 -353 -118q-499 0 -499 729zM576 1734v26h815v-26l-81 -169h-33l-49 101h-180l-48 -101h-35l-48 101h-180l-49 -101h-33z" />
<glyph unicode="&#x47f;" horiz-adv-x="1631" d="M0 998q90 84 182 84q114 0 190.5 -145.5t257.5 -754.5l173 394q-92 289 -177 500h191q117 -305 293 -898q113 124 188 311t75 323q0 137 -103 163q0 121 113 121q138 0 138 -194q0 -202 -129.5 -470t-311.5 -432h-105q-61 220 -132 450l-197 -450h-146q-171 584 -250 770 t-143 186q-37 0 -71 -21zM408 1389v26h814v-26l-80 -169h-35l-48 101h-180l-48 -101h-34l-48 101h-181l-49 -101h-33z" />
<glyph unicode="&#x480;" horiz-adv-x="1231" d="M115 718q0 340 170.5 537.5t473.5 197.5q194 0 299.5 -61.5t105.5 -163.5q0 -63 -49 -101.5t-125 -38.5q0 115 -62 187t-173 72q-418 0 -418 -629q0 -605 418 -605q98 0 182 36h9v-400q0 -144 164 -144h26v-84h-584v84h26q165 0 165 144v231h-19q-289 0 -449 197.5 t-160 540.5z" />
<glyph unicode="&#x481;" horiz-adv-x="987" d="M111 532q0 564 447 564q147 0 248 -56.5t101 -148.5q0 -127 -179 -127q0 232 -170 232q-136 0 -194.5 -113t-58.5 -349q0 -423 304 -423q94 0 166 44h4v-634h-189v459h-22q-457 0 -457 552z" />
<glyph unicode="&#x482;" horiz-adv-x="1222" d="M102 536l69 121l281 -161l194 339l-278 161l69 122l279 -161l179 307l124 -71l-178 -310l281 -161l-72 -120l-278 160l-196 -339l279 -162l-70 -121l-279 161l-177 -307l-126 73l176 308z" />
<glyph unicode="&#x483;" horiz-adv-x="1118" d="M197 1249q0 57 21 75.5t75 18.5h440q10 92 96 92q96 0 96 -102q0 -56 -21 -76t-77 -20h-440q-13 -93 -96 -93q-94 0 -94 105z" />
<glyph unicode="&#x484;" horiz-adv-x="1158" d="M239 1228v126h14q112 0 265 55.5t225 55.5q211 0 228 -237h-90l-4 26q-13 85 -105 85q-59 0 -213.5 -55.5t-279.5 -55.5h-40z" />
<glyph unicode="&#x485;" horiz-adv-x="1158" d="M471 1433q0 124 125 124q95 0 95 -74q0 -39 -48.5 -60t-48.5 -44q0 -50 115 -90v-75q-238 60 -238 219z" />
<glyph unicode="&#x486;" horiz-adv-x="1158" d="M471 1214v75q115 40 115 90q0 22 -48 44t-48 60q0 74 94 74q125 0 125 -124q0 -159 -238 -219z" />
<glyph unicode="&#x487;" horiz-adv-x="0" d="M-368 1525q10 118 66 177.5t164 59.5q79 0 225 -55t264 -55h15v-127h-41q-134 0 -278.5 55.5t-215.5 55.5q-39 0 -68.5 -20.5t-35.5 -64.5l-4 -26h-91z" />
<glyph unicode="&#x488;" horiz-adv-x="1984" d="M40 450q13 190 205 190t209 -190h-79q-6 86 -130 86q-128 0 -130 -86h-75zM215 -40q13 191 204 191q193 0 209 -191h-78q-7 86 -131 86q-128 0 -130 -86h-74zM215 927q13 191 204 191q193 0 209 -191h-78q-6 86 -131 86q-128 0 -130 -86h-74zM777 -313q14 191 204 191 q192 0 209 -191h-78q-8 87 -131 87q-127 0 -130 -87h-74zM777 1206q13 190 204 190q192 0 209 -190h-78q-7 87 -131 87q-127 0 -130 -87h-74zM1345 -40q13 191 204 191q192 0 209 -191h-78q-7 86 -131 86q-128 0 -130 -86h-74zM1345 927q13 191 204 191q192 0 209 -191h-78 q-6 86 -131 86q-128 0 -130 -86h-74zM1532 450q12 190 205 190q191 0 208 -190h-78q-7 86 -130 86q-129 0 -132 -86h-73z" />
<glyph unicode="&#x489;" horiz-adv-x="1918" d="M40 554v95q206 -49 343 -69v-136l-14 -11q-152 40 -329 121zM233 -54q172 107 291 194l96 -96l-2 -16q-137 -79 -317 -149zM318 1178l65 69q105 -168 195 -291l-96 -97l-16 2q-83 146 -148 317zM853 -377q49 205 68 343h136l11 -14q-40 -153 -120 -329h-95zM853 1132 q42 157 120 329h95q-49 -206 -68 -343h-137zM1298 998l2 15q147 84 318 149l68 -66q-172 -107 -291 -194zM1339 84l96 96l16 -2q80 -137 148 -316l-65 -69q-108 172 -195 291zM1536 502v136l13 11q157 -42 330 -121v-95q-206 49 -343 69z" />
<glyph unicode="&#x48a;" horiz-adv-x="1612" d="M76 0v84h26q165 0 165 144v984q0 136 -165 136h-26v85h585v-85h-27q-165 0 -165 -144v-794l673 754v40q0 144 -165 144h-25v85h584v-85h-27q-164 0 -164 -144v-973q0 -69 32 -104t134 -35h81v-10l-129 -503h-165l167 421h-513v84h25q165 0 165 144v795l-673 -754v-41 q0 -144 165 -144h27v-84h-585zM431 1818h167q8 -99 49 -140.5t158 -41.5q190 0 206 182h171q-26 -271 -381 -271t-370 271z" />
<glyph unicode="&#x48b;" horiz-adv-x="1380" d="M46 0v84h27q164 0 164 135v636q0 137 -164 137h-27v84h570v-84h-26q-165 0 -165 -135v-502l531 494v6q0 137 -165 137h-6v84h550v-84h-27q-164 0 -164 -135v-637q0 -61 30 -94.5t134 -33.5h81v-10l-127 -503h-162l166 421h-502v84h27q165 0 165 135v499l-531 -490v-9 q0 -135 165 -135h26v-84h-570zM325 1488h167q8 -99 48 -141.5t159 -42.5q188 0 207 184h170q-27 -272 -381 -272q-355 0 -370 272z" />
<glyph unicode="&#x48c;" horiz-adv-x="1212" d="M76 0v84h26q165 0 165 136v908h-191v98h191v299h202v-299h341v-98h-341v-335h127q538 0 538 -395q0 -186 -126.5 -292t-367.5 -106h-564zM469 96h137q159 0 235 66.5t76 224.5q0 169 -78.5 240.5t-262.5 71.5h-107v-603z" />
<glyph unicode="&#x48d;" horiz-adv-x="1194" d="M46 0v84h27q164 0 164 135v706h-191v94h191v274h188v-274h293v-94h-293v-327h195q252 0 358 -71.5t106 -219.5q0 -140 -108 -223.5t-308 -83.5h-622zM425 92h205q136 0 193.5 52.5t57.5 173.5q0 188 -263 188h-193v-414z" />
<glyph unicode="&#x48e;" horiz-adv-x="1212" d="M76 0v84h26q165 0 165 144v984q0 136 -165 136h-26v85h564q494 0 494 -420q0 -268 -215 -385l111 -157l-80 -54l-121 173q-100 -32 -233 -32h-127v-339q0 -135 165 -135h67v-84h-625zM469 653h107q115 0 186 29l-126 183l80 54l127 -180q74 83 74 266q0 177 -74 254.5 t-237 77.5h-137v-684z" />
<glyph unicode="&#x48f;" horiz-adv-x="1231" d="M26 992v84h351l21 -181h8q96 201 306 201q410 0 410 -556q0 -373 -183 -498l99 -140l-81 -55l-106 153q-56 -20 -139 -20q-209 0 -306 177h-8q8 -208 8 -228v-192q0 -135 164 -135h6v-84h-540v84h16q165 0 165 145v1108q0 137 -165 137h-26zM406 540q0 -232 64.5 -331.5 t209.5 -99.5q51 0 84 13l-120 173l80 54l119 -171q84 103 84 364q0 425 -249 425q-147 0 -209.5 -96t-62.5 -331z" />
<glyph unicode="&#x490;" horiz-adv-x="1091" d="M76 0v84h26q34 0 64 5t52.5 20t35.5 43.5t13 75.5v976q0 47 -13 75.5t-35.5 44t-52.5 20t-64 4.5h-26v85h650q59 0 95.5 12t58.5 35.5t32 57.5t15 76l8 70h105l-12 -351h-559v-1113q0 -44 13.5 -71t36 -41.5t52.5 -19t63 -4.5h67v-84h-625z" />
<glyph unicode="&#x491;" horiz-adv-x="892" d="M46 0v84h27q33 0 63 4.5t52.5 18.5t35.5 40.5t13 71.5v634q0 44 -13 71t-35.5 41.5t-52.5 19.5t-63 5h-27v86h544q34 0 57.5 8t39.5 26.5t26 50t17 78.5l11 65h98v-320h-414v-765q0 -45 13.5 -71.5t36 -40.5t52.5 -18.5t63 -4.5h46v-84h-590z" />
<glyph unicode="&#x492;" horiz-adv-x="1126" d="M46 691v98h221v415q0 144 -165 144h-26v85h998l12 -351h-105l-8 70q-12 105 -57.5 143t-143.5 38h-303v-544h312v-98h-312v-471q0 -136 165 -136h67v-84h-625v84h26q165 0 165 144v463h-221z" />
<glyph unicode="&#x493;" horiz-adv-x="919" d="M46 0v84h27q164 0 164 135v279h-191v94h191v263q0 137 -164 137h-27v84h833v-321h-98l-11 66q-16 104 -46 133.5t-94 29.5h-205v-392h236v-94h-236v-279q0 -135 165 -135h46v-84h-590z" />
<glyph unicode="&#x494;" horiz-adv-x="1321" d="M76 0v84h26q165 0 165 144v976q0 144 -165 144h-26v85h998l12 -351h-105l-8 70q-12 105 -57.5 143t-143.5 38h-303v-558q73 12 180 12q255 0 430 -163.5t175 -468.5q0 -323 -148 -490t-418 -167q-204 0 -308.5 58t-104.5 155q0 145 169 145q0 -247 244 -247 q364 0 364 542q0 255 -139 386t-347 131q-51 0 -97 -6v-442q0 -136 165 -136h67v-84h-625z" />
<glyph unicode="&#x495;" horiz-adv-x="1101" d="M46 0v84h27q164 0 164 135v636q0 137 -164 137h-27v84h833v-321h-98l-11 66q-16 104 -46 133.5t-94 29.5h-205v-396q68 14 143 14q223 0 353.5 -133.5t130.5 -392.5q0 -274 -122.5 -416t-327.5 -142q-339 0 -339 187q0 128 149 128q0 -218 200 -218q245 0 245 454 q0 429 -319 429q-72 0 -113 -8v-271q0 -135 165 -135h46v-84h-590z" />
<glyph unicode="&#x496;" horiz-adv-x="2077" d="M0 0v84h6q137 0 225 161l188 339q52 93 103 132t150 43q-43 27 -173 282.5t-236 255.5q-97 0 -119 -113q-96 24 -96 135q0 127 163 127q122 0 205 -94.5t192 -313t149 -245.5t132 -27v446q0 136 -165 136h-6v85h529v-85h-6q-165 0 -165 -144v-438q91 0 131 26.5t149 245 t192.5 313.5t205.5 95q163 0 163 -127q0 -111 -96 -135q-22 113 -119 113q-107 0 -236.5 -255.5t-172.5 -282.5q98 -4 149.5 -43t102.5 -132l189 -339q89 -161 250 -161h31v-505h-92q0 195 -35.5 279t-177.5 146q-104 47 -174 185l-184 349q-47 90 -91.5 113t-184.5 23v-446 q0 -144 165 -144h6v-84h-529v84h6q165 0 165 135v455q-139 0 -184 -23t-93 -113l-183 -349q-67 -129 -146 -159t-255 -30h-28z" />
<glyph unicode="&#x497;" horiz-adv-x="1846" d="M6 0v84h6q124 0 212 161l105 184q96 169 265 175q-43 24 -154 186t-191 162q-91 0 -113 -113q-96 23 -96 126q0 123 173 123q109 0 162 -51t166 -218.5t148.5 -187t105.5 -19.5v243q0 137 -144 137h-9v84h480v-84h-6q-145 0 -145 -127v-253q72 0 107 20t147.5 187 t165.5 218t162 51q173 0 173 -123q0 -103 -96 -126q-21 113 -113 113q-80 0 -191 -162t-154 -186q170 -6 265 -175l105 -188q83 -149 218 -149h40v-513h-98l-11 146q-9 137 -48 194t-139 96.5t-161 173.5l-93 194q-40 85 -99 110.5t-180 25.5v-300q0 -135 145 -135h6v-84 h-480v84h9q144 0 144 144v291q-137 0 -189 -30.5t-91 -105.5l-98 -194q-54 -109 -115 -149t-226 -40h-70z" />
<glyph unicode="&#x498;" horiz-adv-x="1210" d="M90 226q0 75 45 112t124 37q0 -53 17 -104t52.5 -92t89.5 -66t130 -25q70 0 129 17t100.5 55t64.5 99.5t23 152.5q0 62 -22 114t-65.5 88.5t-107.5 56.5t-149 20h-170v102h170q67 0 124.5 21.5t100 62t67 98t24.5 128.5q0 59 -14.5 105t-46.5 78.5t-83 49t-123 16.5 q-84 0 -137.5 -24.5t-84 -65.5t-41 -95t-10.5 -113q-36 0 -67.5 5.5t-55 21t-37 40.5t-13.5 63q0 58 28.5 107.5t85 85t140 56t192.5 20.5q105 0 193 -19.5t151 -60.5t98.5 -104.5t35.5 -150.5q0 -78 -25.5 -138t-69.5 -104t-102.5 -73t-126.5 -44v-10q56 -7 119.5 -24.5 t118 -55.5t90.5 -100.5t36 -158.5q0 -117 -43.5 -199t-117.5 -134t-171.5 -76t-205.5 -24q-128 0 -215.5 23.5t-142 59t-78.5 79.5t-24 87zM432 -355q0 29 14 52q44 -16 82 -16q85 0 85 86q0 109 -137 233h106q178 -119 178 -247q0 -190 -197 -190q-131 0 -131 82z" />
<glyph unicode="&#x499;" horiz-adv-x="980" d="M80 197q0 128 148 128q0 -53 14 -98.5t41.5 -78.5t69 -52.5t97.5 -19.5q115 0 170.5 63.5t55.5 173.5q0 102 -62 149.5t-172 47.5h-187v108h189q51 0 89 15.5t63 41.5t37.5 60.5t12.5 74.5t-9.5 74.5t-30.5 60.5t-56 41.5t-84 15.5q-101 0 -154 -58t-53 -159 q-80 0 -119.5 28.5t-39.5 92.5q0 36 21.5 70t66.5 60t115 42t166 16q87 0 155 -18.5t115.5 -52t72.5 -82.5t25 -110q0 -48 -14.5 -89.5t-41.5 -74.5t-64.5 -57.5t-82.5 -39.5v-10q52 -13 95.5 -33t75 -50.5t49 -71t17.5 -94.5q0 -70 -24.5 -129.5t-77 -105t-133.5 -71 t-196 -25.5q-108 0 -177.5 21t-110 52.5t-56.5 70t-16 73.5zM317 -355q0 29 14 52q44 -16 82 -16q85 0 85 86q0 109 -137 233h106q178 -119 178 -247q0 -190 -197 -190q-131 0 -131 82z" />
<glyph unicode="&#x49a;" horiz-adv-x="1487" d="M76 0v84h26q165 0 165 135v993q0 136 -165 136h-26v85h585v-85h-27q-165 0 -165 -144v-438q105 0 145.5 24t150.5 245t193.5 316t205.5 95q163 0 163 -127q0 -111 -97 -135q-22 113 -118 113q-107 0 -236.5 -255.5t-172.5 -282.5q97 -4 149.5 -43t103.5 -132l204 -371 q71 -129 235 -129h30v-505h-92q0 195 -35.5 279t-177.5 146q-104 47 -174 185l-184 349q-45 86 -93 111t-200 25v-446q0 -144 165 -144h27v-84h-585z" />
<glyph unicode="&#x49b;" horiz-adv-x="1288" d="M36 0v84h37q164 0 164 144v627q0 137 -164 137h-37v84h560v-84h-6q-165 0 -165 -127v-253q85 0 120.5 24t142 184.5t163 214t164.5 53.5q173 0 173 -123q0 -103 -96 -126q-21 113 -113 113q-80 0 -191 -162t-154 -186q146 -1 245 -175l102 -182q86 -155 216 -155h46v-513 h-99l-10 146q-10 140 -50.5 196t-136 96t-164.5 172l-99 194q-48 94 -98.5 115t-160.5 21v-300q0 -135 165 -135h6v-84h-560z" />
<glyph unicode="&#x49c;" horiz-adv-x="1465" d="M76 0v84h26q165 0 165 135v993q0 136 -165 136h-26v85h585v-85h-27q-165 0 -165 -144v-438h117v326h121v-271q0 2 3 6q27 32 175 325.5t339 293.5q163 0 163 -127q0 -111 -96 -135q-22 113 -119 113q-106 0 -235 -255t-175 -283q98 -4 149.5 -42.5t103.5 -132.5l189 -339 q90 -161 225 -161h6v-84h-28q-172 0 -252.5 29t-149.5 160l-182 349q-53 101 -116 121v-310h-121v325h-117v-446q0 -144 165 -144h27v-84h-585z" />
<glyph unicode="&#x49d;" horiz-adv-x="1294" d="M36 0v84h37q164 0 164 144v627q0 137 -164 137h-37v84h560v-84h-6q-165 0 -165 -127v-253h107v241h114v-215q29 35 108.5 183.5t142.5 207.5t179 59q173 0 173 -123q0 -103 -97 -126q-21 113 -112 113q-56 0 -99.5 -44t-114 -156t-102.5 -148q120 -1 215 -175l105 -184 q91 -161 224 -161h6v-84h-70q-159 0 -230 37.5t-131 151.5l-98 194q-53 106 -99 123v-231h-114v244h-107v-300q0 -135 165 -135h6v-84h-560z" />
<glyph unicode="&#x49e;" horiz-adv-x="1405" d="M76 0v84h26q165 0 165 135v879h-191v99h191v15q0 136 -165 136h-26v85h585v-85h-27q-165 0 -165 -144v-7h192v-99h-192v-332q105 0 145.5 24t150.5 245t193.5 316t205.5 95q163 0 163 -127q0 -111 -97 -135q-22 113 -118 113q-107 0 -236.5 -255.5t-172.5 -282.5 q97 -4 149.5 -43t103.5 -132l188 -339q89 -161 225 -161h6v-84h-28q-176 0 -255 30t-146 159l-184 349q-45 86 -93 111t-200 25v-446q0 -144 165 -144h27v-84h-585z" />
<glyph unicode="&#x49f;" horiz-adv-x="1234" d="M36 0v84h37q164 0 164 144v962h-183v95h183v19q0 137 -164 137h-17v84h369v-240h259v-95h-259v-578q85 0 120.5 24t142 184.5t163 214t164.5 53.5q173 0 173 -123q0 -103 -96 -126q-21 113 -113 113q-80 0 -191 -162t-154 -186q151 -2 245 -175l105 -184 q91 -161 224 -161h6v-84h-70q-162 0 -232 38.5t-129 150.5l-99 194q-42 83 -88.5 109.5t-170.5 26.5v-300q0 -135 165 -135h6v-84h-560z" />
<glyph unicode="&#x4a0;" horiz-adv-x="1575" d="M40 1193l8 240h783v-85h-26q-165 0 -165 -144v-438q105 0 145 24t150.5 245t193.5 316t206 95q162 0 162 -127q0 -111 -96 -135q-21 113 -118 113q-107 0 -237 -255.5t-173 -282.5q97 -4 149.5 -43t103.5 -132l188 -339q89 -161 226 -161h5v-84h-28q-175 0 -254 30 t-147 159l-183 349q-45 86 -93 111t-200 25v-446q0 -144 165 -144h26v-84h-584v84h26q164 0 164 135v1122h-158q-71 0 -98.5 -26t-42.5 -101l-4 -21h-94z" />
<glyph unicode="&#x4a1;" horiz-adv-x="1421" d="M40 837l8 239h735v-84h-6q-165 0 -165 -127v-253q78 0 115 21t148.5 187t164.5 217t162 51q173 0 173 -123q0 -103 -96 -126q-22 113 -113 113q-80 0 -191 -162t-154 -186q150 -2 244 -175l105 -184q91 -161 225 -161h6v-84h-70q-160 0 -231 37.5t-131 151.5l-98 194 q-43 86 -93.5 111t-165.5 25v-300q0 -135 165 -135h6v-84h-561v84h37q164 0 164 144v758h-148q-71 0 -98.5 -26t-42.5 -101l-4 -22h-90z" />
<glyph unicode="&#x4a2;" horiz-adv-x="1591" d="M76 0v84h26q165 0 165 144v984q0 136 -165 136h-26v85h585v-85h-27q-165 0 -165 -144v-405h653v405q0 144 -165 144h-26v85h584v-85h-25q-165 0 -165 -144v-976q0 -144 165 -144h40v-505h-93q0 421 -307 421h-199v84h26q165 0 165 144v471h-653v-471q0 -144 165 -144h27 v-84h-585z" />
<glyph unicode="&#x4a3;" horiz-adv-x="1380" d="M46 0v84h27q164 0 164 135v636q0 137 -164 137h-27v84h550v-84h-6q-165 0 -165 -135v-259h531v257q0 137 -165 137h-6v84h550v-84h-27q-164 0 -164 -135v-633q0 -132 149 -132h42v-513h-98l-11 146q-21 275 -194 275h-247v84h6q165 0 165 135v287h-531v-287 q0 -135 165 -135h6v-84h-550z" />
<glyph unicode="&#x4a4;" horiz-adv-x="1762" d="M76 0v84h26q165 0 165 144v984q0 136 -165 136h-26v85h585v-85h-27q-165 0 -165 -144v-405h653v405q0 144 -165 144h-26v85h783l8 -341h-102l-15 122q-8 39 -18.5 63.5t-36.5 44t-85 19.5h-140v-1122q0 -135 165 -135h25v-84h-584v84h26q165 0 165 144v471h-653v-471 q0 -144 165 -144h27v-84h-585z" />
<glyph unicode="&#x4a5;" horiz-adv-x="1567" d="M46 0v84h27q164 0 164 135v636q0 137 -164 137h-27v84h550v-84h-6q-165 0 -165 -135v-259h531v257q0 137 -165 137h-6v84h734l9 -297h-99l-8 80q-6 67 -30.5 97t-105.5 30h-141v-767q0 -135 164 -135h27v-84h-550v84h6q165 0 165 135v287h-531v-287q0 -135 165 -135h6 v-84h-550z" />
<glyph unicode="&#x4a6;" horiz-adv-x="2115" d="M76 0v84h26q165 0 165 144v984q0 136 -165 136h-26v85h1379v-85h-26q-165 0 -165 -144v-429q73 12 180 12q254 0 429.5 -163.5t175.5 -468.5q0 -323 -148 -490t-418 -167q-204 0 -308.5 58t-104.5 155q0 145 169 145q0 -247 244 -247q363 0 363 542q0 255 -138.5 386 t-346.5 131q-51 0 -97 -6v-443q0 -135 165 -135h26v-84h-584v84h26q164 0 164 144v1105h-592v-1105q0 -144 165 -144h27v-84h-585z" />
<glyph unicode="&#x4a7;" horiz-adv-x="1780" d="M46 0v84h27q164 0 164 135v636q0 137 -164 137h-27v84h1249v-84h-27q-165 0 -165 -135v-269q68 14 144 14q223 0 353 -133.5t130 -392.5q0 -274 -122.5 -416t-326.5 -142q-339 0 -339 187q0 128 148 128q0 -218 201 -218q245 0 245 454q0 429 -320 429q-71 0 -113 -8 v-271q0 -135 165 -135h27v-84h-550v84h6q164 0 164 135v765h-490v-765q0 -135 165 -135h6v-84h-550z" />
<glyph unicode="&#x4a8;" horiz-adv-x="1485" d="M113 720q0 350 164 542.5t470 192.5q228 0 228 -97q0 -51 -36 -67q-91 56 -192 56q-412 0 -412 -629q0 -630 410 -630q57 0 86 8q-205 226 -205 542q0 256 99 395t280 139q180 0 275 -137.5t95 -390.5q0 -384 -279 -568q69 -50 154 -50q95 0 145 60q42 -19 42 -66 q0 -42 -53 -72t-135 -30q-177 0 -312 86q-96 -24 -192 -24q-305 0 -468.5 195.5t-163.5 544.5zM849 644q0 -286 145 -475q158 140 158 469q0 425 -147 425q-156 0 -156 -419z" />
<glyph unicode="&#x4a9;" horiz-adv-x="1250" d="M111 540q0 556 517 556q173 0 173 -77q0 -38 -33 -62q-83 33 -146 33q-164 0 -240.5 -105t-76.5 -345q0 -239 78 -347.5t243 -108.5q27 0 54 4q-156 147 -156 402q0 169 85.5 265t227.5 96q138 0 220.5 -94.5t82.5 -262.5q0 -292 -196 -427q51 -23 117 -23q61 0 99 34 q37 -16 37 -50q0 -88 -151 -88q-124 0 -245 62q-83 -22 -181 -22q-509 0 -509 560zM718 492q0 -211 113 -343q115 94 115 345q0 253 -111 253q-117 0 -117 -255z" />
<glyph unicode="&#x4aa;" horiz-adv-x="1231" d="M115 718q0 163 41 298.5t122 232.5t201.5 150.5t279.5 53.5q102 0 178 -17t126.5 -47.5t75.5 -71.5t25 -89q0 -32 -13 -58t-36.5 -44.5t-55.5 -28t-69 -9.5q0 47 -12.5 93t-40.5 82.5t-72.5 60t-109.5 23.5q-114 0 -193.5 -42t-129.5 -122t-72.5 -197t-22.5 -268 q0 -134 23.5 -245.5t74.5 -191.5t130 -124t190 -44q73 0 129.5 14t99.5 37.5t76 54.5t58 64q17 -11 27.5 -29.5t10.5 -48.5q0 -38 -26 -78t-78.5 -72t-134 -53.5t-193.5 -21.5q-150 0 -263.5 53t-190.5 150t-116 233.5t-39 301.5zM555 -355q0 29 14 52q44 -16 82 -16 q85 0 85 86q0 109 -137 233h106q178 -119 178 -247q0 -190 -197 -190q-131 0 -131 82z" />
<glyph unicode="&#x4ab;" horiz-adv-x="987" d="M111 532q0 161 33.5 269t94 174t142.5 93.5t177 27.5q62 0 124.5 -12.5t112.5 -38t81 -64t31 -90.5q0 -70 -45 -98.5t-134 -28.5q0 47 -8 89.5t-27 74t-51.5 50t-83.5 18.5q-58 0 -104.5 -21.5t-80 -74.5t-51 -142.5t-17.5 -223.5q0 -214 71 -318.5t233 -104.5 q93 0 162.5 39t103.5 101q15 -12 24.5 -31.5t9.5 -47.5q0 -34 -21.5 -68t-64 -61.5t-106 -45t-149.5 -17.5q-100 0 -184 31t-145 97.5t-94.5 171t-33.5 252.5zM421 -355q0 29 14 52q44 -16 82 -16q85 0 85 86q0 109 -137 233h106q178 -119 178 -247q0 -190 -197 -190 q-131 0 -131 82z" />
<glyph unicode="&#x4ac;" horiz-adv-x="1229" d="M40 1082l10 351h1130l10 -351h-104l-10 86q-19 165 -167 165h-195l-2 -1114q0 -135 173 -135h40v-505h-92q0 421 -295 421h-237v84h46q165 0 165 135v1114h-193q-145 0 -164 -165l-11 -86h-104z" />
<glyph unicode="&#x4ad;" horiz-adv-x="1097" d="M40 755l12 321h994l11 -321h-98l-9 66q-12 82 -38 122.5t-104 40.5h-164v-760q0 -132 155 -132h56v-513h-98l-10 146q-19 275 -189 275h-293v84h26q165 0 165 135v765h-167q-65 0 -94 -30t-46 -133l-11 -66h-98z" />
<glyph unicode="&#x4ae;" horiz-adv-x="1254" d="M-10 1348v85h552v-85h-75q-27 0 -44 -4.5t-27 -13.5t-13.5 -20.5t-3.5 -24.5q0 -29 12.5 -57t24.5 -50l148 -269q35 -61 59.5 -121.5t40.5 -107.5q9 22 22.5 48.5t29.5 56t33.5 61.5t35.5 63l128 231q20 34 28.5 65t8.5 55q0 44 -31.5 66t-89.5 22h-59v85h490v-85h-23 q-22 0 -41 -7t-38.5 -25t-40.5 -48t-47 -75l-337 -595v-370q0 -47 13 -75.5t35.5 -43.5t52 -20t63.5 -5h47v-84h-625v84h47q33 0 63 4.5t52.5 18.5t35.5 40.5t13 71.5v379l-371 645q-17 28 -31.5 48t-31 33t-36 18.5t-44.5 5.5h-26z" />
<glyph unicode="&#x4af;" horiz-adv-x="1162" d="M8 992v84h502v-84h-26q-120 0 -120 -97q0 -29 15 -74l136 -379q71 -195 89 -302h7q6 29 99 276l145 391q18 51 18 86q0 99 -132 99h-15v84h430v-84h-24q-63 0 -90.5 -33t-62.5 -124l-313 -825v-261q0 -144 165 -144h26v-84h-570v84h26q164 0 164 136v263l-320 881 q-39 107 -143 107h-6z" />
<glyph unicode="&#x4b0;" horiz-adv-x="1254" d="M-10 1348v85h552v-85h-75q-88 0 -88 -63q0 -40 37 -107l148 -269q54 -100 100 -229q19 48 121 229l128 231q37 64 37 120q0 88 -121 88h-59v85h490v-85h-23q-79 0 -167 -155l-337 -595v-100h280v-98h-280v-172q0 -144 164 -144h47v-84h-625v84h47q164 0 164 135v181h-281 v98h281v100l-371 645q-61 105 -143 105h-26z" />
<glyph unicode="&#x4b1;" horiz-adv-x="1162" d="M8 992v84h502v-84h-26q-120 0 -120 -97q0 -29 15 -74l136 -379q71 -195 89 -302h7q6 29 99 276l145 391q18 51 18 86q0 99 -132 99h-15v84h430v-84h-24q-63 0 -90.5 -33t-62.5 -124l-313 -825v-10h257v-94h-257v-157q0 -144 165 -144h26v-84h-570v84h26q164 0 164 136 v165h-255v94h255v4l-320 881q-39 107 -143 107h-6z" />
<glyph unicode="&#x4b2;" horiz-adv-x="1421" d="M16 0v84h12q65 0 106 26t103 114l335 481l-331 538q-65 105 -172 105h-27v85h544v-85h-6q-114 0 -114 -57q0 -42 48 -119l181 -293l190 289q50 77 50 123q0 57 -108 57h-6v85h439v-85h-17q-99 0 -199 -144l-291 -419l345 -557q87 -140 200 -144h60v-505h-92 q0 421 -309 421h-191v84h11q120 0 120 67q0 32 -66 138l-199 320l-222 -330q-52 -76 -52 -132q0 -63 130 -63h6v-84h-478z" />
<glyph unicode="&#x4b3;" horiz-adv-x="1227" d="M10 0v84h18q72 0 115 25.5t104 103.5l253 327l-253 345q-78 107 -173 107h-26v84h510v-84h-6q-115 0 -115 -59q0 -27 47 -92l132 -180l104 149q50 73 50 123q0 59 -108 59h-5v84h439v-84h-18q-68 0 -107.5 -27.5t-95.5 -101.5l-207 -275l295 -397q74 -99 173 -99h46v-513 h-98l-10 146q-19 275 -195 275h-247v84h10q120 0 120 67q0 36 -76 138l-134 180l-140 -196q-54 -75 -54 -126q0 -63 124 -63h6v-84h-478z" />
<glyph unicode="&#x4b4;" horiz-adv-x="1792" d="M40 1082l10 351h971l11 -351h-105l-10 86q-18 165 -166 165h-100v-1233h672v1104q0 144 -165 144h-16v85h574v-85h-26q-165 0 -165 -134v-986q0 -144 165 -144h40v-505h-92q0 421 -309 421h-1072v84h26q165 0 165 136v1113h-129q-145 0 -164 -165l-11 -86h-104z" />
<glyph unicode="&#x4b5;" horiz-adv-x="1635" d="M40 755l12 321h875l12 -321h-98l-10 66q-12 83 -38.5 123t-101.5 40h-107v-892h626v765q0 135 -164 135h-12v84h556v-84h-27q-165 0 -165 -135v-633q0 -127 146 -132h46v-513h-98l-11 146q-21 275 -194 275h-1063v84h7q164 0 164 136v764h-106q-65 0 -94 -30t-46 -133 l-11 -66h-98z" />
<glyph unicode="&#x4b6;" horiz-adv-x="1517" d="M42 1348v85h584v-85h-26q-165 0 -165 -144v-313q0 -236 235 -236q162 0 378 104v445q0 144 -165 144h-26v85h584v-85h-26q-165 0 -165 -144v-976q0 -73 33.5 -108.5t131.5 -35.5h40v-505h-92q0 421 -295 421h-211v84h26q165 0 165 144v423q-240 -125 -442 -125 q-373 0 -373 363v323q0 136 -164 136h-27z" />
<glyph unicode="&#x4b7;" horiz-adv-x="1284" d="M30 992v84h530v-84h-6q-165 0 -165 -135v-211q0 -144 161 -144q136 0 309 88v265q0 137 -164 137h-7v84h551v-84h-27q-164 0 -164 -135v-638q0 -127 145 -127h46v-513h-99l-10 146q-19 275 -195 275h-267v84h27q164 0 164 135v285q-205 -135 -380 -135q-131 0 -204.5 69 t-73.5 188v229q0 137 -165 137h-6z" />
<glyph unicode="&#x4b8;" horiz-adv-x="1517" d="M42 1348v85h584v-85h-26q-165 0 -165 -144v-313q0 -236 235 -236h10v341h121v-328q98 19 247 91v445q0 144 -165 144h-26v85h584v-85h-26q-165 0 -165 -144v-985q0 -135 165 -135h26v-84h-584v84h26q165 0 165 144v423q-168 -83 -247 -103v-339h-121v319l-36 -2 q-411 -22 -411 363v323q0 136 -164 136h-27z" />
<glyph unicode="&#x4b9;" horiz-adv-x="1284" d="M30 992v84h530v-84h-6q-165 0 -165 -135v-211q0 -144 161 -144h16v226h114v-211q62 16 179 73v265q0 137 -164 137h-7v84h551v-84h-27q-164 0 -164 -135v-638q0 -135 164 -135h27v-84h-571v84h27q164 0 164 135v285q-121 -76 -179 -96v-230h-114v197q-42 -6 -87 -6 q-131 0 -204.5 69t-73.5 188v229q0 137 -165 137h-6z" />
<glyph unicode="&#x4ba;" horiz-adv-x="1517" d="M76 0v84h26q165 0 165 144v986q0 134 -165 134h-26v85h585v-85h-27q-165 0 -165 -144v-421q241 124 442 124q374 0 374 -363v-324q0 -136 164 -136h26v-84h-584v84h26q165 0 165 144v314q0 237 -235 237q-162 0 -378 -105v-446q0 -144 165 -144h27v-84h-585z" />
<glyph unicode="&#x4bb;" horiz-adv-x="1284" d="M46 0v84h27q164 0 164 135v638q0 135 -164 135h-27v84h570v-84h-26q-165 0 -165 -135v-285q206 135 380 135q133 0 206 -70t73 -187v-230q0 -136 165 -136h5v-84h-530v84h6q165 0 165 135v210q0 145 -160 145q-136 0 -310 -88v-266q0 -136 165 -136h6v-84h-550z" />
<glyph unicode="&#x4bc;" horiz-adv-x="1621" d="M20 879q0 157 137 157q37 0 65 -23q-21 -41 -21 -102q0 -124 150 -124q19 319 183 493.5t429 174.5q548 0 548 -725v-58h-939q22 -557 430 -557q205 0 417 154q16 -28 16 -60q0 -97 -134.5 -163t-310.5 -66q-610 0 -641 692q-329 0 -329 207zM572 787h726 q-4 560 -341 560q-348 0 -385 -560z" />
<glyph unicode="&#x4bd;" horiz-adv-x="1282" d="M20 718q0 145 124 145q38 0 67 -22q-22 -45 -22 -98q0 -59 26.5 -85t107.5 -26q43 464 441 464q200 0 309 -124.5t109 -355.5v-92h-668q6 -417 298 -417q190 0 288 140q38 -21 38 -69q0 -73 -97.5 -135.5t-255.5 -62.5q-215 0 -339.5 142.5t-126.5 401.5q-299 0 -299 194 zM517 632h462q0 356 -219 356q-220 0 -243 -356z" />
<glyph unicode="&#x4be;" horiz-adv-x="1621" d="M20 879q0 157 137 157q37 0 65 -23q-21 -41 -21 -102q0 -124 150 -124q19 319 183 493.5t429 174.5q548 0 548 -725v-58h-939q22 -557 430 -557q205 0 417 154q16 -28 16 -60q0 -146 -265 -209q-149 -98 -149 -421h-92q0 177 -47.5 284.5t-176.5 168.5q-338 146 -356 640 q-329 0 -329 207zM572 787h726q-4 560 -341 560q-348 0 -385 -560z" />
<glyph unicode="&#x4bf;" horiz-adv-x="1282" d="M20 718q0 145 124 145q38 0 67 -22q-22 -45 -22 -98q0 -59 26.5 -85t107.5 -26q43 464 441 464q200 0 309 -124.5t109 -355.5v-92h-668q6 -417 298 -417q190 0 288 140q38 -21 38 -69q0 -53 -57.5 -106.5t-157.5 -75.5q-62 -51 -80 -128.5t-18 -288.5h-92 q0 211 -29.5 298t-133.5 147q-251 124 -251 500q-299 0 -299 194zM517 632h462q0 356 -219 356q-220 0 -243 -356z" />
<glyph unicode="&#x4c0;" horiz-adv-x="736" d="M76 0v84h26q34 0 64 5t52.5 20t35.5 43.5t13 75.5v976q0 47 -13 75.5t-35.5 44t-52.5 20t-64 4.5h-26v85h585v-85h-27q-33 0 -63.5 -4.5t-52.5 -20t-35.5 -44t-13.5 -75.5v-976q0 -47 13.5 -75.5t35.5 -43.5t52.5 -20t63.5 -5h27v-84h-585z" />
<glyph unicode="&#x4c1;" horiz-adv-x="1964" d="M0 0v84h6q68 0 123 38t102 123l188 339q23 41 45 73t51 53.5t66.5 34t90.5 14.5q-23 20 -42 46.5t-40 62.5t-45 83t-55 108q-62 122 -115.5 180t-111.5 58q-27 0 -47.5 -9t-35 -24.5t-23.5 -36.5t-13 -43q-19 4 -36.5 14.5t-30.5 28t-21 41t-8 51.5q0 27 9 50.5t28 40 t50.5 26.5t75.5 10q59 0 108 -23.5t91.5 -66t81 -102.5t76.5 -136q56 -111 93.5 -185.5t62.5 -105.5q13 -16 25.5 -27.5t30.5 -19t44 -11t65 -3.5v446q0 44 -13.5 71t-36 42t-52 19t-63.5 4h-6v85h529v-85h-6q-34 0 -64 -4.5t-52.5 -20t-35.5 -44t-13 -75.5v-438 q40 0 65.5 3.5t43 11t30.5 19t26 27.5q25 31 62.5 105.5t92.5 185.5q39 76 77.5 136t81 102.5t91.5 66t108 23.5q44 0 75.5 -10t50.5 -26.5t28 -40t9 -50.5q0 -28 -8 -51.5t-21 -41t-31 -28t-36 -14.5q-4 22 -13 43t-23.5 36.5t-35 24.5t-47.5 9q-59 0 -112 -58t-115 -180 q-31 -61 -55 -108t-45 -83t-40 -62.5t-42 -46.5q53 -2 90.5 -14.5t66.5 -34t51 -53.5t44 -73l189 -339q47 -85 102 -123t123 -38h6v-84h-29q-96 0 -159.5 8t-106.5 29t-73.5 57.5t-60.5 94.5l-184 349q-23 45 -43 72t-48 41t-71 18.5t-114 4.5v-446q0 -47 13 -75.5 t35.5 -43.5t52.5 -20t64 -5h6v-84h-529v84h6q34 0 63.5 4.5t52 18.5t36 40.5t13.5 71.5v455q-71 0 -114 -4.5t-71 -18.5t-48 -41t-44 -72l-183 -349q-30 -58 -60.5 -94.5t-73.5 -57.5t-107 -29t-160 -8h-28zM607 1819h166q5 -56 18.5 -92t38 -56t61.5 -28t89 -8q43 0 79 9.5 t62.5 30.5t43 56.5t22.5 87.5h171q-6 -61 -30 -111t-70 -86t-115 -55.5t-167 -19.5q-101 0 -169.5 18.5t-111.5 54t-63 86t-25 113.5z" />
<glyph unicode="&#x4c2;" horiz-adv-x="1765" d="M6 0v84h6q67 0 116.5 38.5t95.5 122.5l105 184q45 84 108 127t157 48q-20 13 -37.5 30.5t-36 41t-40 54t-49.5 69.5q-25 38 -47 67t-44 48t-44 28.5t-47 9.5t-44.5 -9t-33 -24.5t-22.5 -36.5t-13 -43q-18 4 -36 13.5t-31 25.5t-21 38t-8 49q0 55 43.5 89t129.5 34 q57 0 99 -16.5t74.5 -45.5t62.5 -71.5t65 -95.5q51 -77 86 -129t61 -75q11 -12 23 -20t26.5 -13t34.5 -7.5t50 -2.5v243q0 44 -12 71t-32 41.5t-46 19.5t-54 5h-9v84h480v-84h-6q-28 0 -54.5 -4.5t-46.5 -18t-32 -38.5t-12 -66v-253q30 0 50 2.5t35 7.5t26.5 13t22.5 20 q26 23 60.5 75t86.5 129q35 53 65 95.5t62.5 71.5t74 45.5t99.5 16.5q86 0 129.5 -34t43.5 -89q0 -27 -8 -49t-21 -38t-31 -25.5t-36 -13.5q-4 22 -12.5 43t-22.5 36.5t-33 24.5t-45 9q-24 0 -46.5 -9.5t-44 -28.5t-44 -48t-47.5 -67q-28 -39 -49.5 -69.5t-40 -54t-36 -41 t-37.5 -30.5q94 -5 157 -48t108 -127l105 -184q46 -84 95.5 -122.5t116.5 -38.5h6v-84h-70q-77 0 -128.5 8t-88.5 29t-65.5 57.5t-59.5 94.5l-98 194q-22 44 -47 70.5t-57.5 41.5t-74.5 19.5t-100 4.5v-300q0 -45 12 -71.5t32 -40.5t46.5 -18.5t54.5 -4.5h6v-84h-480v84h9 q29 0 55 5t45.5 20t31.5 43.5t12 75.5v291q-57 0 -99.5 -4.5t-75 -19.5t-57.5 -41.5t-48 -70.5l-98 -194q-30 -58 -58 -94.5t-65 -57.5t-89 -29t-129 -8h-70zM508 1488h166q5 -56 18.5 -92t38 -56t61.5 -28t89 -8q43 0 79 9.5t62.5 30.5t43 56.5t22.5 87.5h171 q-6 -61 -30 -111t-70 -86t-115 -55.5t-167 -19.5q-101 0 -169.5 18.5t-111.5 54t-63 86t-25 113.5z" />
<glyph unicode="&#x4c3;" horiz-adv-x="1392" d="M76 0v84h26q165 0 165 135v993q0 136 -165 136h-26v85h585v-85h-27q-165 0 -165 -144v-438q105 0 145.5 24t150.5 245t193.5 316t205.5 95q163 0 163 -127q0 -111 -97 -135q-22 113 -118 113q-64 0 -118 -65t-142.5 -237.5t-123.5 -207.5q271 -11 433 -177.5t162 -454.5 q0 -323 -148 -490t-418 -167q-203 0 -308.5 58t-105.5 155q0 145 169 145q0 -247 245 -247q363 0 363 542q0 255 -138.5 386t-347.5 131q-90 0 -165 -15v-425q0 -144 165 -144h27v-84h-585z" />
<glyph unicode="&#x4c4;" horiz-adv-x="1227" d="M36 0v84h37q164 0 164 144v627q0 137 -164 137h-37v84h550v-84h-6q-155 0 -155 -127v-253q65 0 101.5 25t145 187t161.5 213t163 51q172 0 172 -123q0 -103 -96 -126q-21 113 -113 113q-80 0 -177.5 -145t-145.5 -181h19q226 0 374.5 -141t148.5 -405 q0 -273 -136.5 -417.5t-353.5 -144.5q-339 0 -339 187q0 128 149 128q0 -218 201 -218q285 0 285 458q0 216 -101.5 329t-258.5 113q-131 0 -199 -21v-275q0 -135 165 -135h6v-84h-560z" />
<glyph unicode="&#x4c5;" horiz-adv-x="1409" d="M0 126q0 123 88 123q0 -34 28 -64t70 -30q58 0 102.5 44t95.5 226.5t81.5 447t30.5 393.5q0 82 -161 82h-30v85h1028v-85h-27q-164 0 -164 -144v-976q0 -69 32.5 -102.5t133.5 -33.5h81v-10l-129 -503h-164l166 421h-513v84h26q164 0 164 144v1105h-327 q-17 -364 -81 -742t-152.5 -491.5t-217.5 -113.5q-161 0 -161 140z" />
<glyph unicode="&#x4c6;" horiz-adv-x="1260" d="M0 126q0 123 88 123q0 -34 28 -64t70 -30q70 0 121.5 69.5t103 305t51.5 337.5q0 125 -165 125h-27v84h944v-84h-26q-165 0 -165 -135v-626q0 -67 30.5 -103t134.5 -36h80v-10l-126 -503h-163l167 421h-482v84h6q165 0 165 135v765h-259q-33 -316 -92.5 -575t-135 -341 t-187.5 -82q-161 0 -161 140z" />
<glyph unicode="&#x4c7;" horiz-adv-x="1571" d="M76 0v84h26q165 0 165 144v984q0 136 -165 136h-26v85h585v-85h-27q-165 0 -165 -144v-405h653v405q0 144 -165 144h-26v85h584v-85h-25q-165 0 -165 -144v-1035q0 -651 -570 -651q-408 0 -408 177q0 106 120 121q98 -201 299 -201q356 0 356 552v532h-653v-471 q0 -144 165 -144h27v-84h-585z" />
<glyph unicode="&#x4c8;" horiz-adv-x="1363" d="M46 0v84h27q164 0 164 135v636q0 137 -164 137h-27v84h550v-84h-6q-165 0 -165 -135v-259h531v257q0 137 -165 137h-6v84h550v-84h-27q-164 0 -164 -135v-833q0 -245 -114 -375.5t-323 -130.5q-173 0 -271.5 48t-98.5 127q0 104 115 116q71 -196 251 -196q253 0 253 410 v483h-531v-287q0 -135 165 -135h6v-84h-550z" />
<glyph unicode="&#x4c9;" horiz-adv-x="1591" d="M76 0v84h26q165 0 165 144v984q0 136 -165 136h-26v85h585v-85h-27q-165 0 -165 -144v-405h653v405q0 144 -165 144h-26v85h584v-85h-25q-165 0 -165 -144v-973q0 -69 32.5 -104t134.5 -35h80v-10l-128 -503h-165l167 421h-515v84h26q165 0 165 144v471h-653v-471 q0 -144 165 -144h27v-84h-585z" />
<glyph unicode="&#x4ca;" horiz-adv-x="1380" d="M46 0v84h27q164 0 164 135v636q0 137 -164 137h-27v84h550v-84h-6q-165 0 -165 -135v-259h531v257q0 137 -165 137h-6v84h550v-84h-27q-164 0 -164 -135v-626q0 -67 30 -103t134 -36h81v-10l-127 -503h-162l166 421h-481v84h6q165 0 165 135v287h-531v-287 q0 -135 165 -135h6v-84h-550z" />
<glyph unicode="&#x4cb;" horiz-adv-x="1517" d="M42 1348v85h584v-85h-26q-165 0 -165 -144v-313q0 -236 235 -236q162 0 378 104v445q0 144 -165 144h-26v85h584v-85h-26q-165 0 -165 -144v-985q0 -135 165 -135h26v-84h-196q-310 0 -310 -421h-92v505h40q162 0 165 144v423q-240 -125 -442 -125q-373 0 -373 363v323 q0 136 -164 136h-27z" />
<glyph unicode="&#x4cc;" horiz-adv-x="1284" d="M30 992v84h530v-84h-6q-165 0 -165 -135v-211q0 -144 161 -144q136 0 309 88v265q0 137 -164 137h-7v84h551v-84h-27q-164 0 -164 -135v-638q0 -135 164 -135h27v-84h-276q-168 0 -186 -275l-11 -146h-98v513h46q145 0 145 127v285q-205 -135 -380 -135q-131 0 -204.5 69 t-73.5 188v229q0 137 -165 137h-6z" />
<glyph unicode="&#x4cd;" horiz-adv-x="1882" d="M76 0v84h26q165 0 165 135v993q0 136 -165 136h-26v85h458l416 -1148l411 1148h445v-85h-25q-165 0 -165 -144v-984q0 -61 31.5 -94.5t135.5 -33.5h80v-10l-129 -503h-164l167 421h-465v84h7q85 0 114.5 30.5t29.5 96.5v1072l-460 -1283h-108l-466 1279v-1051 q0 -75 28.5 -109.5t116.5 -34.5h6v-84h-464z" />
<glyph unicode="&#x4ce;" horiz-adv-x="1579" d="M46 0v84h27q164 0 164 135v636q0 137 -164 137h-27v84h429l318 -811l331 811h410v-84h-27q-164 0 -164 -135v-637q0 -61 30 -94.5t134 -33.5h81v-10l-127 -503h-163l167 421h-481v84h6q164 0 164 135v642h-14l-349 -861h-92l-339 861h-15v-642q0 -135 165 -135h5v-84 h-469z" />
<glyph unicode="&#x4cf;" horiz-adv-x="736" d="M76 0v84h26q34 0 64 5t52.5 20t35.5 43.5t13 75.5v976q0 47 -13 75.5t-35.5 44t-52.5 20t-64 4.5h-26v85h585v-85h-27q-33 0 -63.5 -4.5t-52.5 -20t-35.5 -44t-13.5 -75.5v-976q0 -47 13.5 -75.5t35.5 -43.5t52.5 -20t63.5 -5h27v-84h-585z" />
<glyph unicode="&#x4d0;" horiz-adv-x="1415" d="M0 0v84h38q30 0 50.5 6.5t37 24t31.5 48t34 78.5l445 1192h157l454 -1242q11 -31 23.5 -51.5t29 -33t38 -17.5t51.5 -5h26v-84h-552v84h46q121 0 121 96q0 17 -4.5 34.5t-12.5 40.5l-80 224h-527l-77 -210q-9 -24 -13.5 -47t-4.5 -40q0 -51 32.5 -74.5t100.5 -23.5h46 v-84h-490zM337 1819h166q5 -56 18.5 -92t38 -56t61.5 -28t89 -8q43 0 79 9.5t62.5 30.5t43 56.5t22.5 87.5h171q-6 -61 -30 -111t-70 -86t-115 -55.5t-167 -19.5q-101 0 -169.5 18.5t-111.5 54t-63 86t-25 113.5zM444 580h453l-125 351q-31 89 -57 167t-43 151 q-7 -37 -16 -70.5t-20 -69t-24.5 -74t-31.5 -85.5z" />
<glyph unicode="&#x4d1;" horiz-adv-x="1129" d="M100 301q0 160 113.5 237t344.5 84l166 6v121q0 54 -6 99.5t-25.5 78t-56 51t-98.5 18.5q-58 0 -93.5 -16.5t-56 -45.5t-27 -69.5t-6.5 -87.5q-84 0 -127.5 28.5t-43.5 98.5q0 52 28.5 88t78 59t115 34t140.5 11q92 0 160.5 -18.5t114.5 -59.5t69 -107t23 -162v-521 q0 -42 7 -69.5t21.5 -44t38.5 -23.5t58 -7h6v-84h-272l-31 172h-17q-31 -42 -60.5 -77t-64.5 -60.5t-80 -40t-107 -14.5q-67 0 -124.5 19.5t-99 59t-65 100t-23.5 142.5zM178 1488h166q5 -56 18.5 -92t38 -56t61.5 -28t89 -8q43 0 79 9.5t62.5 30.5t43 56.5t22.5 87.5h171 q-6 -61 -30 -111t-70 -86t-115 -55.5t-167 -19.5q-101 0 -169.5 18.5t-111.5 54t-63 86t-25 113.5zM295 291q0 -94 39.5 -140.5t123.5 -46.5q60 0 109.5 19.5t84.5 56t53.5 88t18.5 115.5v163l-128 -6q-85 -4 -142.5 -21t-93 -48t-50.5 -76t-15 -104z" />
<glyph unicode="&#x4d2;" horiz-adv-x="1415" d="M0 0v84h38q30 0 50.5 6.5t37 24t31.5 48t34 78.5l445 1192h157l454 -1242q11 -31 23.5 -51.5t29 -33t38 -17.5t51.5 -5h26v-84h-552v84h46q121 0 121 96q0 17 -4.5 34.5t-12.5 40.5l-80 224h-527l-77 -210q-9 -24 -13.5 -47t-4.5 -40q0 -51 32.5 -74.5t100.5 -23.5h46 v-84h-490zM415 1712q0 31 8 52.5t21.5 35t32.5 19.5t40 6q22 0 40.5 -6t32.5 -19.5t22 -35t8 -52.5t-8 -52.5t-22 -35t-32.5 -19.5t-40.5 -6q-44 0 -73 25.5t-29 87.5zM444 580h453l-125 351q-31 89 -57 167t-43 151q-7 -37 -16 -70.5t-20 -69t-24.5 -74t-31.5 -85.5z M796 1712q0 31 8 52.5t22 35t32.5 19.5t39.5 6q22 0 40.5 -6t33 -19.5t22 -35t7.5 -52.5t-7.5 -52.5t-22 -35t-33 -19.5t-40.5 -6q-44 0 -73 25.5t-29 87.5z" />
<glyph unicode="&#x4d3;" horiz-adv-x="1129" d="M100 301q0 160 113.5 237t344.5 84l166 6v121q0 54 -6 99.5t-25.5 78t-56 51t-98.5 18.5q-58 0 -93.5 -16.5t-56 -45.5t-27 -69.5t-6.5 -87.5q-84 0 -127.5 28.5t-43.5 98.5q0 52 28.5 88t78 59t115 34t140.5 11q92 0 160.5 -18.5t114.5 -59.5t69 -107t23 -162v-521 q0 -42 7 -69.5t21.5 -44t38.5 -23.5t58 -7h6v-84h-272l-31 172h-17q-31 -42 -60.5 -77t-64.5 -60.5t-80 -40t-107 -14.5q-67 0 -124.5 19.5t-99 59t-65 100t-23.5 142.5zM252 1381q0 31 8 52.5t21.5 35t32.5 19.5t40 6q22 0 40.5 -6t32.5 -19.5t22 -35t8 -52.5t-8 -52.5 t-22 -35t-32.5 -19.5t-40.5 -6q-44 0 -73 25.5t-29 87.5zM295 291q0 -94 39.5 -140.5t123.5 -46.5q60 0 109.5 19.5t84.5 56t53.5 88t18.5 115.5v163l-128 -6q-85 -4 -142.5 -21t-93 -48t-50.5 -76t-15 -104zM633 1381q0 31 8 52.5t22 35t32.5 19.5t39.5 6q22 0 40.5 -6 t33 -19.5t22 -35t7.5 -52.5t-7.5 -52.5t-22 -35t-33 -19.5t-40.5 -6q-44 0 -73 25.5t-29 87.5z" />
<glyph unicode="&#x4d4;" horiz-adv-x="1909" d="M0 0v84h32q53 0 95 37.5t84 119.5l580 1098l-157 9v85h1112l10 -351h-104l-10 86q-4 33 -15 62.5t-32 51.5t-53 36t-77 15h-337v-534h484v-98h-484v-601h387q47 0 81 13t56.5 36t35 52.5t18.5 63.5l14 86h105l-15 -351h-1075v84h25q34 0 63.5 4.5t51.5 18.5t35.5 40.5 t14.5 71.5v260h-461l-111 -210q-17 -32 -24.5 -60.5t-7.5 -45.5q0 -41 31 -60t90 -19h46v-84h-488zM515 580h410v753h-28q-25 -55 -65 -136.5t-90.5 -180t-108.5 -210t-118 -226.5z" />
<glyph unicode="&#x4d5;" horiz-adv-x="1687" d="M100 301q0 160 113.5 237t344.5 84l166 6v121q0 54 -6 99.5t-25.5 78t-56 51t-98.5 18.5q-58 0 -93.5 -16.5t-56 -45.5t-27 -69.5t-6.5 -87.5q-84 0 -127.5 28.5t-43.5 98.5q0 52 28.5 88t78 59t115 34t140.5 11q114 0 191.5 -29t121.5 -94q112 123 311 123 q97 0 174.5 -30.5t131.5 -91t83 -150t29 -208.5v-92h-669q2 -109 21 -188t57 -130t96 -75t137 -24q44 0 85 10.5t77 30t65 45t48 54.5q14 -6 26.5 -24.5t12.5 -44.5q0 -30 -22 -65t-65 -64t-108 -49t-152 -20q-147 0 -249.5 58t-158.5 171q-19 -45 -52 -86.5t-80.5 -73 t-109 -50.5t-135.5 -19q-67 0 -124.5 19.5t-99 59t-65 100t-23.5 142.5zM295 291q0 -94 39.5 -140.5t123.5 -46.5q60 0 109.5 19.5t84.5 56t53.5 88t18.5 115.5v121v26v16l-128 -6q-85 -4 -142.5 -21t-93 -48t-50.5 -76t-15 -104zM923 632h462q0 79 -12 145t-37.5 113 t-67 72.5t-102.5 25.5q-112 0 -172 -90.5t-71 -265.5z" />
<glyph unicode="&#x4d6;" horiz-adv-x="1250" d="M76 0v84h26q33 0 63 4.5t52.5 18.5t36 40.5t13.5 71.5v985q0 47 -13 75.5t-35.5 44t-52.5 20t-64 4.5h-26v85h1012l10 -351h-104l-10 86q-4 33 -15.5 63t-32.5 52.5t-52.5 36t-76.5 13.5h-338v-534h485v-98h-485v-601h388q48 0 81.5 13t56 36t35.5 52.5t18 63.5l13 86 h105l-14 -351h-1076zM251 1819h166q5 -56 18.5 -92t38 -56t61.5 -28t89 -8q43 0 79 9.5t62.5 30.5t43 56.5t22.5 87.5h171q-6 -61 -30 -111t-70 -86t-115 -55.5t-167 -19.5q-101 0 -169.5 18.5t-111.5 54t-63 86t-25 113.5z" />
<glyph unicode="&#x4d7;" horiz-adv-x="1074" d="M111 530q0 281 115.5 423.5t329.5 142.5q97 0 174.5 -30.5t131 -91t82.5 -150t29 -208.5v-92h-668q2 -109 22 -188t57.5 -130t92.5 -75t127 -24q52 0 96.5 11.5t80.5 31.5t64 45t46 52q14 -6 26 -24.5t12 -44.5q0 -30 -21.5 -65t-65.5 -64t-110.5 -49t-155.5 -20 q-109 0 -195.5 37t-146.5 107.5t-91.5 173t-31.5 232.5zM174 1488h166q5 -56 18.5 -92t38 -56t61.5 -28t89 -8q43 0 79 9.5t62.5 30.5t43 56.5t22.5 87.5h171q-6 -61 -30 -111t-70 -86t-115 -55.5t-167 -19.5q-101 0 -169.5 18.5t-111.5 54t-63 86t-25 113.5zM309 632h461 q0 79 -11.5 145t-37 113t-67.5 72.5t-102 25.5q-112 0 -172.5 -90.5t-70.5 -265.5z" />
<glyph unicode="&#x4d8;" horiz-adv-x="1384" d="M109 726v59h939q-26 536 -430 536q-201 0 -398 -135q-15 27 -15 61q0 89 131 148.5t294 59.5q309 0 474.5 -194t165.5 -547q0 -340 -165 -537t-448 -197q-548 0 -548 746zM321 670q9 -582 341 -582q346 0 386 582h-727z" />
<glyph unicode="&#x4d9;" horiz-adv-x="1074" d="M100 460v92h668q-7 417 -299 417q-187 0 -287 -140q-38 20 -38 68q0 72 97 135.5t257 63.5q218 0 341.5 -145.5t123.5 -404.5q0 -566 -446 -566q-199 0 -308 124t-109 356zM303 444q0 -356 218 -356q222 0 243 356h-461z" />
<glyph unicode="&#x4da;" horiz-adv-x="1384" d="M109 726v59h939q-26 536 -430 536q-201 0 -398 -135q-15 27 -15 61q0 89 131 148.5t294 59.5q309 0 474.5 -194t165.5 -547q0 -340 -165 -537t-448 -197q-548 0 -548 746zM321 670q9 -582 341 -582q346 0 386 582h-727zM377 1712q0 31 8 52.5t21.5 35t32.5 19.5t40 6 q22 0 40.5 -6t32.5 -19.5t22 -35t8 -52.5t-8 -52.5t-22 -35t-32.5 -19.5t-40.5 -6q-44 0 -73 25.5t-29 87.5zM758 1712q0 31 8 52.5t22 35t32.5 19.5t39.5 6q22 0 40.5 -6t33 -19.5t22 -35t7.5 -52.5t-7.5 -52.5t-22 -35t-33 -19.5t-40.5 -6q-44 0 -73 25.5t-29 87.5z" />
<glyph unicode="&#x4db;" horiz-adv-x="1074" d="M100 460v92h668q-7 417 -299 417q-187 0 -287 -140q-38 20 -38 68q0 72 97 135.5t257 63.5q218 0 341.5 -145.5t123.5 -404.5q0 -566 -446 -566q-199 0 -308 124t-109 356zM232 1381q0 31 8 52.5t21.5 35t32.5 19.5t40 6q22 0 40.5 -6t32.5 -19.5t22 -35t8 -52.5 t-8 -52.5t-22 -35t-32.5 -19.5t-40.5 -6q-44 0 -73 25.5t-29 87.5zM303 444q0 -356 218 -356q222 0 243 356h-461zM613 1381q0 31 8 52.5t22 35t32.5 19.5t39.5 6q22 0 40.5 -6t33 -19.5t22 -35t7.5 -52.5t-7.5 -52.5t-22 -35t-33 -19.5t-40.5 -6q-44 0 -73 25.5t-29 87.5z " />
<glyph unicode="&#x4dc;" horiz-adv-x="1964" d="M0 0v84h6q68 0 123 38t102 123l188 339q23 41 45 73t51 53.5t66.5 34t90.5 14.5q-23 20 -42 46.5t-40 62.5t-45 83t-55 108q-62 122 -115.5 180t-111.5 58q-27 0 -47.5 -9t-35 -24.5t-23.5 -36.5t-13 -43q-19 4 -36.5 14.5t-30.5 28t-21 41t-8 51.5q0 27 9 50.5t28 40 t50.5 26.5t75.5 10q59 0 108 -23.5t91.5 -66t81 -102.5t76.5 -136q56 -111 93.5 -185.5t62.5 -105.5q13 -16 25.5 -27.5t30.5 -19t44 -11t65 -3.5v446q0 44 -13.5 71t-36 42t-52 19t-63.5 4h-6v85h529v-85h-6q-34 0 -64 -4.5t-52.5 -20t-35.5 -44t-13 -75.5v-438 q40 0 65.5 3.5t43 11t30.5 19t26 27.5q25 31 62.5 105.5t92.5 185.5q39 76 77.5 136t81 102.5t91.5 66t108 23.5q44 0 75.5 -10t50.5 -26.5t28 -40t9 -50.5q0 -28 -8 -51.5t-21 -41t-31 -28t-36 -14.5q-4 22 -13 43t-23.5 36.5t-35 24.5t-47.5 9q-59 0 -112 -58t-115 -180 q-31 -61 -55 -108t-45 -83t-40 -62.5t-42 -46.5q53 -2 90.5 -14.5t66.5 -34t51 -53.5t44 -73l189 -339q47 -85 102 -123t123 -38h6v-84h-29q-96 0 -159.5 8t-106.5 29t-73.5 57.5t-60.5 94.5l-184 349q-23 45 -43 72t-48 41t-71 18.5t-114 4.5v-446q0 -47 13 -75.5 t35.5 -43.5t52.5 -20t64 -5h6v-84h-529v84h6q34 0 63.5 4.5t52 18.5t36 40.5t13.5 71.5v455q-71 0 -114 -4.5t-71 -18.5t-48 -41t-44 -72l-183 -349q-30 -58 -60.5 -94.5t-73.5 -57.5t-107 -29t-160 -8h-28zM689 1712q0 31 8 52.5t21.5 35t32.5 19.5t40 6q22 0 40.5 -6 t32.5 -19.5t22 -35t8 -52.5t-8 -52.5t-22 -35t-32.5 -19.5t-40.5 -6q-44 0 -73 25.5t-29 87.5zM1070 1712q0 31 8 52.5t22 35t32.5 19.5t39.5 6q22 0 40.5 -6t33 -19.5t22 -35t7.5 -52.5t-7.5 -52.5t-22 -35t-33 -19.5t-40.5 -6q-44 0 -73 25.5t-29 87.5z" />
<glyph unicode="&#x4dd;" horiz-adv-x="1765" d="M6 0v84h6q67 0 116.5 38.5t95.5 122.5l105 184q45 84 108 127t157 48q-20 13 -37.5 30.5t-36 41t-40 54t-49.5 69.5q-25 38 -47 67t-44 48t-44 28.5t-47 9.5t-44.5 -9t-33 -24.5t-22.5 -36.5t-13 -43q-18 4 -36 13.5t-31 25.5t-21 38t-8 49q0 55 43.5 89t129.5 34 q57 0 99 -16.5t74.5 -45.5t62.5 -71.5t65 -95.5q51 -77 86 -129t61 -75q11 -12 23 -20t26.5 -13t34.5 -7.5t50 -2.5v243q0 44 -12 71t-32 41.5t-46 19.5t-54 5h-9v84h480v-84h-6q-28 0 -54.5 -4.5t-46.5 -18t-32 -38.5t-12 -66v-253q30 0 50 2.5t35 7.5t26.5 13t22.5 20 q26 23 60.5 75t86.5 129q35 53 65 95.5t62.5 71.5t74 45.5t99.5 16.5q86 0 129.5 -34t43.5 -89q0 -27 -8 -49t-21 -38t-31 -25.5t-36 -13.5q-4 22 -12.5 43t-22.5 36.5t-33 24.5t-45 9q-24 0 -46.5 -9.5t-44 -28.5t-44 -48t-47.5 -67q-28 -39 -49.5 -69.5t-40 -54t-36 -41 t-37.5 -30.5q94 -5 157 -48t108 -127l105 -184q46 -84 95.5 -122.5t116.5 -38.5h6v-84h-70q-77 0 -128.5 8t-88.5 29t-65.5 57.5t-59.5 94.5l-98 194q-22 44 -47 70.5t-57.5 41.5t-74.5 19.5t-100 4.5v-300q0 -45 12 -71.5t32 -40.5t46.5 -18.5t54.5 -4.5h6v-84h-480v84h9 q29 0 55 5t45.5 20t31.5 43.5t12 75.5v291q-57 0 -99.5 -4.5t-75 -19.5t-57.5 -41.5t-48 -70.5l-98 -194q-30 -58 -58 -94.5t-65 -57.5t-89 -29t-129 -8h-70zM590 1381q0 31 8 52.5t21.5 35t32.5 19.5t40 6q22 0 40.5 -6t32.5 -19.5t22 -35t8 -52.5t-8 -52.5t-22 -35 t-32.5 -19.5t-40.5 -6q-44 0 -73 25.5t-29 87.5zM971 1381q0 31 8 52.5t22 35t32.5 19.5t39.5 6q22 0 40.5 -6t33 -19.5t22 -35t7.5 -52.5t-7.5 -52.5t-22 -35t-33 -19.5t-40.5 -6q-44 0 -73 25.5t-29 87.5z" />
<glyph unicode="&#x4de;" horiz-adv-x="1210" d="M90 226q0 75 45 112t124 37q0 -53 17 -104t52.5 -92t89.5 -66t130 -25q70 0 129 17t100.5 55t64.5 99.5t23 152.5q0 62 -22 114t-65.5 88.5t-107.5 56.5t-149 20h-170v102h170q67 0 124.5 21.5t100 62t67 98t24.5 128.5q0 59 -14.5 105t-46.5 78.5t-83 49t-123 16.5 q-84 0 -137.5 -24.5t-84 -65.5t-41 -95t-10.5 -113q-36 0 -67.5 5.5t-55 21t-37 40.5t-13.5 63q0 58 28.5 107.5t85 85t140 56t192.5 20.5q105 0 193 -19.5t151 -60.5t98.5 -104.5t35.5 -150.5q0 -78 -25.5 -138t-69.5 -104t-102.5 -73t-126.5 -44v-10q56 -7 119.5 -24.5 t118 -55.5t90.5 -100.5t36 -158.5q0 -117 -43.5 -199t-117.5 -134t-171.5 -76t-205.5 -24q-128 0 -215.5 23.5t-142 59t-78.5 79.5t-24 87zM289 1712q0 31 8 52.5t21.5 35t32.5 19.5t40 6q22 0 40.5 -6t32.5 -19.5t22 -35t8 -52.5t-8 -52.5t-22 -35t-32.5 -19.5t-40.5 -6 q-44 0 -73 25.5t-29 87.5zM670 1712q0 31 8 52.5t22 35t32.5 19.5t39.5 6q22 0 40.5 -6t33 -19.5t22 -35t7.5 -52.5t-7.5 -52.5t-22 -35t-33 -19.5t-40.5 -6q-44 0 -73 25.5t-29 87.5z" />
<glyph unicode="&#x4df;" horiz-adv-x="980" d="M80 197q0 128 148 128q0 -53 14 -98.5t41.5 -78.5t69 -52.5t97.5 -19.5q115 0 170.5 63.5t55.5 173.5q0 102 -62 149.5t-172 47.5h-187v108h189q51 0 89 15.5t63 41.5t37.5 60.5t12.5 74.5t-9.5 74.5t-30.5 60.5t-56 41.5t-84 15.5q-101 0 -154 -58t-53 -159 q-80 0 -119.5 28.5t-39.5 92.5q0 36 21.5 70t66.5 60t115 42t166 16q87 0 155 -18.5t115.5 -52t72.5 -82.5t25 -110q0 -48 -14.5 -89.5t-41.5 -74.5t-64.5 -57.5t-82.5 -39.5v-10q52 -13 95.5 -33t75 -50.5t49 -71t17.5 -94.5q0 -70 -24.5 -129.5t-77 -105t-133.5 -71 t-196 -25.5q-108 0 -177.5 21t-110 52.5t-56.5 70t-16 73.5zM175 1381q0 31 8 52.5t21.5 35t32.5 19.5t40 6q22 0 40.5 -6t32.5 -19.5t22 -35t8 -52.5t-8 -52.5t-22 -35t-32.5 -19.5t-40.5 -6q-44 0 -73 25.5t-29 87.5zM556 1381q0 31 8 52.5t22 35t32.5 19.5t39.5 6 q22 0 40.5 -6t33 -19.5t22 -35t7.5 -52.5t-7.5 -52.5t-22 -35t-33 -19.5t-40.5 -6q-44 0 -73 25.5t-29 87.5z" />
<glyph unicode="&#x4e0;" horiz-adv-x="1210" d="M90 226q0 149 169 149q0 -121 77 -204t212 -83q317 0 317 324q0 140 -93 217.5t-262 77.5h-146v82l446 481h-381q-94 0 -125.5 -22t-40.5 -102l-2 -18h-85l10 305h840v-83l-494 -529q556 -15 556 -411q0 -207 -145 -320t-393 -113q-221 0 -340.5 72t-119.5 177z" />
<glyph unicode="&#x4e1;" horiz-adv-x="1097" d="M80 -285q0 128 148 128q0 -96 65.5 -162t179.5 -66q151 0 235.5 100t84.5 285q0 349 -402 349h-46v82l396 484h-364q-63 0 -91 -24t-39 -102l-4 -29h-99l13 316h778v-99l-433 -521q486 -28 486 -440q0 -236 -142.5 -367t-370.5 -131q-195 0 -295 54t-100 143z" />
<glyph unicode="&#x4e2;" horiz-adv-x="1612" d="M76 0v84h26q34 0 64 5t52.5 20t35.5 43.5t13 75.5v984q0 44 -13.5 71t-36 42t-52.5 19t-63 4h-26v85h585v-85h-27q-33 0 -63.5 -4.5t-52.5 -20t-35.5 -44t-13.5 -75.5v-794l673 754v40q0 47 -13 75.5t-35.5 44t-52.5 20t-64 4.5h-25v85h584v-85h-27q-33 0 -63.5 -4.5 t-52.5 -20t-35 -44t-13 -75.5v-985q0 -45 13 -71.5t35.5 -40.5t52.5 -18.5t63 -4.5h27v-84h-584v84h25q34 0 64 5t52.5 20t35.5 43.5t13 75.5v795l-673 -754v-41q0 -47 13.5 -75.5t35.5 -43.5t52.5 -20t63.5 -5h27v-84h-585zM514 1568v118h582v-118h-582z" />
<glyph unicode="&#x4e3;" horiz-adv-x="1380" d="M46 0v84h27q33 0 63 4.5t52.5 18.5t35.5 40.5t13 71.5v636q0 44 -13 71t-35.5 41.5t-52.5 19.5t-63 5h-27v84h570v-84h-26q-33 0 -63 -4.5t-52.5 -18.5t-36 -41t-13.5 -71v-502l531 494v6q0 44 -13.5 71t-36 41.5t-52.5 19.5t-63 5h-6v84h550v-84h-27q-33 0 -63 -4.5 t-52.5 -18.5t-35.5 -41t-13 -71v-638q0 -45 13 -71.5t35.5 -40.5t52.5 -18.5t63 -4.5h27v-84h-571v84h27q33 0 63 4.5t52.5 18.5t36 40.5t13.5 71.5v499l-531 -490v-9q0 -45 13.5 -71.5t36 -40.5t52.5 -18.5t63 -4.5h26v-84h-570zM400 1237v118h582v-118h-582z" />
<glyph unicode="&#x4e4;" horiz-adv-x="1612" d="M76 0v84h26q34 0 64 5t52.5 20t35.5 43.5t13 75.5v984q0 44 -13.5 71t-36 42t-52.5 19t-63 4h-26v85h585v-85h-27q-33 0 -63.5 -4.5t-52.5 -20t-35.5 -44t-13.5 -75.5v-794l673 754v40q0 47 -13 75.5t-35.5 44t-52.5 20t-64 4.5h-25v85h584v-85h-27q-33 0 -63.5 -4.5 t-52.5 -20t-35 -44t-13 -75.5v-985q0 -45 13 -71.5t35.5 -40.5t52.5 -18.5t63 -4.5h27v-84h-584v84h25q34 0 64 5t52.5 20t35.5 43.5t13 75.5v795l-673 -754v-41q0 -47 13.5 -75.5t35.5 -43.5t52.5 -20t63.5 -5h27v-84h-585zM511 1712q0 31 8 52.5t21.5 35t32.5 19.5t40 6 q22 0 40.5 -6t32.5 -19.5t22 -35t8 -52.5t-8 -52.5t-22 -35t-32.5 -19.5t-40.5 -6q-44 0 -73 25.5t-29 87.5zM892 1712q0 31 8 52.5t22 35t32.5 19.5t39.5 6q22 0 40.5 -6t33 -19.5t22 -35t7.5 -52.5t-7.5 -52.5t-22 -35t-33 -19.5t-40.5 -6q-44 0 -73 25.5t-29 87.5z" />
<glyph unicode="&#x4e5;" horiz-adv-x="1380" d="M46 0v84h27q33 0 63 4.5t52.5 18.5t35.5 40.5t13 71.5v636q0 44 -13 71t-35.5 41.5t-52.5 19.5t-63 5h-27v84h570v-84h-26q-33 0 -63 -4.5t-52.5 -18.5t-36 -41t-13.5 -71v-502l531 494v6q0 44 -13.5 71t-36 41.5t-52.5 19.5t-63 5h-6v84h550v-84h-27q-33 0 -63 -4.5 t-52.5 -18.5t-35.5 -41t-13 -71v-638q0 -45 13 -71.5t35.5 -40.5t52.5 -18.5t63 -4.5h27v-84h-571v84h27q33 0 63 4.5t52.5 18.5t36 40.5t13.5 71.5v499l-531 -490v-9q0 -45 13.5 -71.5t36 -40.5t52.5 -18.5t63 -4.5h26v-84h-570zM398 1381q0 31 8 52.5t21.5 35t32.5 19.5 t40 6q22 0 40.5 -6t32.5 -19.5t22 -35t8 -52.5t-8 -52.5t-22 -35t-32.5 -19.5t-40.5 -6q-44 0 -73 25.5t-29 87.5zM779 1381q0 31 8 52.5t22 35t32.5 19.5t39.5 6q22 0 40.5 -6t33 -19.5t22 -35t7.5 -52.5t-7.5 -52.5t-22 -35t-33 -19.5t-40.5 -6q-44 0 -73 25.5t-29 87.5z " />
<glyph unicode="&#x4e6;" horiz-adv-x="1489" d="M113 720q0 167 39 302.5t117.5 231.5t198 148.5t279.5 52.5q152 0 268.5 -52.5t197 -149t121.5 -232t41 -303.5q0 -165 -41 -301.5t-121.5 -233.5t-198 -150t-269.5 -53q-160 0 -278.5 53t-197 150t-117.5 234t-39 303zM335 718q0 -149 22 -266t71 -198t127 -123.5 t190 -42.5t189.5 42.5t126 123.5t70 198t21.5 266t-21.5 266.5t-70 197.5t-125.5 122.5t-188 42.5q-112 0 -190.5 -42.5t-128 -122.5t-71.5 -197.5t-22 -266.5zM446 1712q0 31 8 52.5t21.5 35t32.5 19.5t40 6q22 0 40.5 -6t32.5 -19.5t22 -35t8 -52.5t-8 -52.5t-22 -35 t-32.5 -19.5t-40.5 -6q-44 0 -73 25.5t-29 87.5zM827 1712q0 31 8 52.5t22 35t32.5 19.5t39.5 6q22 0 40.5 -6t33 -19.5t22 -35t7.5 -52.5t-7.5 -52.5t-22 -35t-33 -19.5t-40.5 -6q-44 0 -73 25.5t-29 87.5z" />
<glyph unicode="&#x4e7;" horiz-adv-x="1158" d="M111 540q0 281 119 418.5t352 137.5q109 0 195 -34t146.5 -103t92.5 -173.5t32 -245.5q0 -283 -120 -421.5t-352 -138.5q-109 0 -195 34.5t-146.5 104t-92 175t-31.5 246.5zM278 1381q0 31 8 52.5t21.5 35t32.5 19.5t40 6q22 0 40.5 -6t32.5 -19.5t22 -35t8 -52.5 t-8 -52.5t-22 -35t-32.5 -19.5t-40.5 -6q-44 0 -73 25.5t-29 87.5zM305 540q0 -112 14.5 -197t47.5 -142.5t85.5 -87t127.5 -29.5q76 0 128 29.5t84 87t46.5 142.5t14.5 197t-15 196t-47 140.5t-84.5 85t-128.5 28.5q-75 0 -127 -28.5t-84.5 -85t-47 -140.5t-14.5 -196z M659 1381q0 31 8 52.5t22 35t32.5 19.5t39.5 6q22 0 40.5 -6t33 -19.5t22 -35t7.5 -52.5t-7.5 -52.5t-22 -35t-33 -19.5t-40.5 -6q-44 0 -73 25.5t-29 87.5z" />
<glyph unicode="&#x4e8;" horiz-adv-x="1489" d="M113 720q0 350 164 542.5t470 192.5q293 0 460.5 -196.5t167.5 -540.5q0 -343 -168 -540.5t-462 -197.5q-305 0 -468.5 195.5t-163.5 544.5zM333 699q7 -611 412 -611q400 0 409 611h-821zM335 799h817q-24 548 -405 548q-391 0 -412 -548z" />
<glyph unicode="&#x4e9;" horiz-adv-x="1158" d="M111 540q0 556 471 556q466 0 466 -556q0 -560 -472 -560q-465 0 -465 560zM303 508q9 -424 277 -424q266 0 275 424h-552zM305 609h548q-18 381 -275 381t-273 -381z" />
<glyph unicode="&#x4ea;" horiz-adv-x="1489" d="M113 720q0 350 164 542.5t470 192.5q293 0 460.5 -196.5t167.5 -540.5q0 -343 -168 -540.5t-462 -197.5q-305 0 -468.5 195.5t-163.5 544.5zM333 699q7 -611 412 -611q400 0 409 611h-821zM335 799h817q-24 548 -405 548q-391 0 -412 -548zM452 1712q0 31 8 52.5t21.5 35 t32.5 19.5t40 6q22 0 40.5 -6t32.5 -19.5t22 -35t8 -52.5t-8 -52.5t-22 -35t-32.5 -19.5t-40.5 -6q-44 0 -73 25.5t-29 87.5zM833 1712q0 31 8 52.5t22 35t32.5 19.5t39.5 6q22 0 40.5 -6t33 -19.5t22 -35t7.5 -52.5t-7.5 -52.5t-22 -35t-33 -19.5t-40.5 -6q-44 0 -73 25.5 t-29 87.5z" />
<glyph unicode="&#x4eb;" horiz-adv-x="1158" d="M111 540q0 556 471 556q466 0 466 -556q0 -560 -472 -560q-465 0 -465 560zM285 1381q0 31 8 52.5t21.5 35t32.5 19.5t40 6q22 0 40.5 -6t32.5 -19.5t22 -35t8 -52.5t-8 -52.5t-22 -35t-32.5 -19.5t-40.5 -6q-44 0 -73 25.5t-29 87.5zM303 508q9 -424 277 -424 q266 0 275 424h-552zM305 609h548q-18 381 -275 381t-273 -381zM666 1381q0 31 8 52.5t22 35t32.5 19.5t39.5 6q22 0 40.5 -6t33 -19.5t22 -35t7.5 -52.5t-7.5 -52.5t-22 -35t-33 -19.5t-40.5 -6q-44 0 -73 25.5t-29 87.5z" />
<glyph unicode="&#x4ec;" horiz-adv-x="1229" d="M90 226q0 75 45 112t124 37q0 -53 14.5 -104t46.5 -92.5t82.5 -67t121.5 -25.5q91 0 159 44.5t113.5 123.5t69 187t27.5 233h-554v98h554q-4 138 -24.5 245t-62 180t-105.5 111.5t-155 38.5q-66 0 -116.5 -23.5t-84.5 -61.5t-52 -87.5t-18 -102.5q-74 0 -119 32.5 t-45 94.5q0 50 27 96t81 81t136.5 56t194.5 21q133 0 238.5 -46.5t178 -138t111 -227t38.5 -313.5q0 -169 -39.5 -307.5t-115.5 -236.5t-187.5 -151t-254.5 -53q-122 0 -204.5 22.5t-132.5 58t-71 79t-21 86.5zM287 1712q0 31 8 52.5t21.5 35t32.5 19.5t40 6q22 0 40.5 -6 t32.5 -19.5t22 -35t8 -52.5t-8 -52.5t-22 -35t-32.5 -19.5t-40.5 -6q-44 0 -73 25.5t-29 87.5zM668 1712q0 31 8 52.5t22 35t32.5 19.5t39.5 6q22 0 40.5 -6t33 -19.5t22 -35t7.5 -52.5t-7.5 -52.5t-22 -35t-33 -19.5t-40.5 -6q-44 0 -73 25.5t-29 87.5z" />
<glyph unicode="&#x4ed;" horiz-adv-x="985" d="M80 197q0 128 148 128q0 -53 11.5 -98t36.5 -78t64 -52t95 -19q119 0 177 104t66 308h-445v108h445q-4 114 -22.5 190.5t-50 122.5t-73.5 65.5t-92 19.5q-45 0 -81 -16t-60.5 -44.5t-37 -67t-12.5 -85.5q-70 0 -108.5 27t-38.5 87q0 34 18.5 69.5t60 64t108.5 47 t163 18.5q98 0 176.5 -31t133 -97.5t84 -170.5t29.5 -251q0 -153 -33 -260.5t-91.5 -175.5t-139.5 -99t-178 -31q-108 0 -176 21t-107.5 52.5t-54.5 70t-15 73.5zM186 1381q0 31 8 52.5t21.5 35t32.5 19.5t40 6q22 0 40.5 -6t32.5 -19.5t22 -35t8 -52.5t-8 -52.5t-22 -35 t-32.5 -19.5t-40.5 -6q-44 0 -73 25.5t-29 87.5zM567 1381q0 31 8 52.5t22 35t32.5 19.5t39.5 6q22 0 40.5 -6t33 -19.5t22 -35t7.5 -52.5t-7.5 -52.5t-22 -35t-33 -19.5t-40.5 -6q-44 0 -73 25.5t-29 87.5z" />
<glyph unicode="&#x4ee;" horiz-adv-x="1344" d="M0 1348v85h562v-85h-32q-61 0 -90.5 -23t-29.5 -73q0 -16 3.5 -34t11.5 -40l221 -475q34 -71 59 -141.5t42 -132.5q7 32 16 62t20.5 61.5t25 66.5t30.5 76l189 469q9 25 13.5 47.5t4.5 38.5q0 52 -33 75t-100 23h-42v85h483v-85h-38q-29 0 -49 -6t-36.5 -24t-31.5 -48 t-35 -77l-339 -825q-32 -79 -60.5 -137.5t-57.5 -99t-62 -66.5t-75 -40t-96 -19.5t-125 -5.5h-146v94h110q51 0 99.5 14.5t90 41.5t73.5 64.5t48 82.5l-455 946q-15 30 -28 50t-29 32.5t-36 17.5t-50 5h-26zM422 1568v118h582v-118h-582z" />
<glyph unicode="&#x4ef;" horiz-adv-x="1133" d="M8 992v84h482v-84h-6q-61 0 -90.5 -23.5t-29.5 -73.5q0 -17 3 -34t12 -40l147 -357q14 -35 29 -75.5t28.5 -80t24 -75t14.5 -61.5h6q11 45 30 108t45 136l134 391q9 24 13.5 46.5t4.5 39.5q0 52 -33 75.5t-100 23.5h-6v84h418v-84h-6q-29 0 -50.5 -6.5t-38.5 -24 t-31.5 -48t-32.5 -78.5l-305 -843q-35 -97 -66.5 -170.5t-65.5 -126t-75 -86.5t-93 -54.5t-119.5 -28.5t-156.5 -8h-18v95q102 0 175.5 30.5t127 83.5t89.5 125t60 156l-371 877q-14 31 -26.5 51t-29 33t-37.5 18t-50 5h-6zM311 1237v118h582v-118h-582z" />
<glyph unicode="&#x4f0;" horiz-adv-x="1344" d="M0 1348v85h562v-85h-32q-61 0 -90.5 -23t-29.5 -73q0 -16 3.5 -34t11.5 -40l221 -475q34 -71 59 -141.5t42 -132.5q7 32 16 62t20.5 61.5t25 66.5t30.5 76l189 469q9 25 13.5 47.5t4.5 38.5q0 52 -33 75t-100 23h-42v85h483v-85h-38q-29 0 -49 -6t-36.5 -24t-31.5 -48 t-35 -77l-339 -825q-32 -79 -60.5 -137.5t-57.5 -99t-62 -66.5t-75 -40t-96 -19.5t-125 -5.5h-146v94h110q51 0 99.5 14.5t90 41.5t73.5 64.5t48 82.5l-455 946q-15 30 -28 50t-29 32.5t-36 17.5t-50 5h-26zM423 1712q0 31 8 52.5t21.5 35t32.5 19.5t40 6q22 0 40.5 -6 t32.5 -19.5t22 -35t8 -52.5t-8 -52.5t-22 -35t-32.5 -19.5t-40.5 -6q-44 0 -73 25.5t-29 87.5zM804 1712q0 31 8 52.5t22 35t32.5 19.5t39.5 6q22 0 40.5 -6t33 -19.5t22 -35t7.5 -52.5t-7.5 -52.5t-22 -35t-33 -19.5t-40.5 -6q-44 0 -73 25.5t-29 87.5z" />
<glyph unicode="&#x4f1;" horiz-adv-x="1133" d="M8 992v84h482v-84h-6q-61 0 -90.5 -23.5t-29.5 -73.5q0 -17 3 -34t12 -40l147 -357q14 -35 29 -75.5t28.5 -80t24 -75t14.5 -61.5h6q11 45 30 108t45 136l134 391q9 24 13.5 46.5t4.5 39.5q0 52 -33 75.5t-100 23.5h-6v84h418v-84h-6q-29 0 -50.5 -6.5t-38.5 -24 t-31.5 -48t-32.5 -78.5l-305 -843q-35 -97 -66.5 -170.5t-65.5 -126t-75 -86.5t-93 -54.5t-119.5 -28.5t-156.5 -8h-18v95q102 0 175.5 30.5t127 83.5t89.5 125t60 156l-371 877q-14 31 -26.5 51t-29 33t-37.5 18t-50 5h-6zM313 1381q0 31 8 52.5t21.5 35t32.5 19.5t40 6 q22 0 40.5 -6t32.5 -19.5t22 -35t8 -52.5t-8 -52.5t-22 -35t-32.5 -19.5t-40.5 -6q-44 0 -73 25.5t-29 87.5zM694 1381q0 31 8 52.5t22 35t32.5 19.5t39.5 6q22 0 40.5 -6t33 -19.5t22 -35t7.5 -52.5t-7.5 -52.5t-22 -35t-33 -19.5t-40.5 -6q-44 0 -73 25.5t-29 87.5z" />
<glyph unicode="&#x4f2;" horiz-adv-x="1344" d="M0 1348v85h562v-85h-32q-61 0 -90.5 -23t-29.5 -73q0 -16 3.5 -34t11.5 -40l221 -475q34 -71 59 -141.5t42 -132.5q7 32 16 62t20.5 61.5t25 66.5t30.5 76l189 469q9 25 13.5 47.5t4.5 38.5q0 52 -33 75t-100 23h-42v85h483v-85h-38q-29 0 -49 -6t-36.5 -24t-31.5 -48 t-35 -77l-339 -825q-32 -79 -60.5 -137.5t-57.5 -99t-62 -66.5t-75 -40t-96 -19.5t-125 -5.5h-146v94h110q51 0 99.5 14.5t90 41.5t73.5 64.5t48 82.5l-455 946q-15 30 -28 50t-29 32.5t-36 17.5t-50 5h-26zM406 1547v27q20 32 43.5 69t46.5 76.5t44 77.5t36 72h215v-21 q-11 -18 -30 -42t-43.5 -51.5t-52.5 -56t-56.5 -56t-55.5 -52t-49 -43.5h-98zM767 1547v27q21 32 44.5 69t46.5 76.5t43.5 77.5t36.5 72h215v-21q-11 -18 -30 -42t-43.5 -51.5t-52.5 -56t-56.5 -56t-55.5 -52t-50 -43.5h-98z" />
<glyph unicode="&#x4f3;" horiz-adv-x="1133" d="M8 992v84h482v-84h-6q-61 0 -90.5 -23.5t-29.5 -73.5q0 -17 3 -34t12 -40l147 -357q14 -35 29 -75.5t28.5 -80t24 -75t14.5 -61.5h6q11 45 30 108t45 136l134 391q9 24 13.5 46.5t4.5 39.5q0 52 -33 75.5t-100 23.5h-6v84h418v-84h-6q-29 0 -50.5 -6.5t-38.5 -24 t-31.5 -48t-32.5 -78.5l-305 -843q-35 -97 -66.5 -170.5t-65.5 -126t-75 -86.5t-93 -54.5t-119.5 -28.5t-156.5 -8h-18v95q102 0 175.5 30.5t127 83.5t89.5 125t60 156l-371 877q-14 31 -26.5 51t-29 33t-37.5 18t-50 5h-6zM326 1216v27q20 32 43.5 69t46.5 76.5t44 77.5 t36 72h215v-21q-11 -18 -30 -42t-43.5 -51.5t-52.5 -56t-56.5 -56t-55.5 -52t-49 -43.5h-98zM687 1216v27q21 32 44.5 69t46.5 76.5t43.5 77.5t36.5 72h215v-21q-11 -18 -30 -42t-43.5 -51.5t-52.5 -56t-56.5 -56t-55.5 -52t-50 -43.5h-98z" />
<glyph unicode="&#x4f4;" horiz-adv-x="1517" d="M42 1348v85h584v-85h-26q-34 0 -64 -4.5t-52 -20t-35.5 -44t-13.5 -75.5v-313q0 -123 63 -179.5t172 -56.5q50 0 95 6.5t91 20t92.5 33t99.5 44.5v445q0 47 -13.5 75.5t-35.5 44t-52 20t-64 4.5h-26v85h584v-85h-26q-33 0 -63.5 -4.5t-52.5 -20t-35.5 -44t-13.5 -75.5 v-985q0 -45 13.5 -71.5t36 -40.5t52.5 -18.5t63 -4.5h26v-84h-584v84h26q34 0 64 5t52 20t35.5 43.5t13.5 75.5v423q-54 -27 -103 -49.5t-100.5 -39.5t-109.5 -26.5t-129 -9.5q-185 0 -279 91t-94 272v323q0 44 -13 71t-35.5 42t-52.5 19t-63 4h-27zM465 1712q0 31 8 52.5 t21.5 35t32.5 19.5t40 6q22 0 40.5 -6t32.5 -19.5t22 -35t8 -52.5t-8 -52.5t-22 -35t-32.5 -19.5t-40.5 -6q-44 0 -73 25.5t-29 87.5zM846 1712q0 31 8 52.5t22 35t32.5 19.5t39.5 6q22 0 40.5 -6t33 -19.5t22 -35t7.5 -52.5t-7.5 -52.5t-22 -35t-33 -19.5t-40.5 -6 q-44 0 -73 25.5t-29 87.5z" />
<glyph unicode="&#x4f5;" horiz-adv-x="1284" d="M30 992v84h530v-84h-6q-34 0 -63.5 -4.5t-52 -18.5t-36 -41t-13.5 -71v-211q0 -70 40.5 -107t120.5 -37q38 0 74 5t72 15.5t76 27t87 40.5v265q0 44 -13 71t-35.5 41.5t-52.5 19.5t-63 5h-7v84h551v-84h-27q-33 0 -63 -4.5t-52.5 -18.5t-35.5 -41t-13 -71v-638 q0 -45 13 -71.5t35.5 -40.5t52.5 -18.5t63 -4.5h27v-84h-571v84h27q33 0 63 4.5t52.5 18.5t35.5 40.5t13 71.5v285q-48 -31 -92 -55.5t-89 -42t-93 -27.5t-106 -10q-66 0 -118 18.5t-87.5 51.5t-54 80.5t-18.5 106.5v229q0 44 -13.5 71t-36 41.5t-52 19.5t-63.5 5h-6z M350 1381q0 31 8 52.5t21.5 35t32.5 19.5t40 6q22 0 40.5 -6t32.5 -19.5t22 -35t8 -52.5t-8 -52.5t-22 -35t-32.5 -19.5t-40.5 -6q-44 0 -73 25.5t-29 87.5zM731 1381q0 31 8 52.5t22 35t32.5 19.5t39.5 6q22 0 40.5 -6t33 -19.5t22 -35t7.5 -52.5t-7.5 -52.5t-22 -35 t-33 -19.5t-40.5 -6q-44 0 -73 25.5t-29 87.5z" />
<glyph unicode="&#x4f6;" horiz-adv-x="1126" d="M76 0v84h26q165 0 165 144v976q0 144 -165 144h-26v85h1010v-351h-105l-8 70q-12 107 -59 144t-142 37h-303v-1105q0 -144 155 -144h77v-505h-92q0 421 -310 421h-223z" />
<glyph unicode="&#x4f7;" horiz-adv-x="919" d="M46 0v84h27q164 0 164 135v636q0 137 -164 137h-27v84h833v-321h-98l-11 66q-16 104 -46 133.5t-94 29.5h-205v-760q0 -127 145 -132h66v-513h-98l-10 146q-18 275 -195 275h-287z" />
<glyph unicode="&#x4f8;" horiz-adv-x="1820" d="M76 0v84h26q33 0 63 4.5t52.5 19t36 41.5t13.5 71v984q0 47 -13 75.5t-35.5 44t-52.5 20t-64 4.5h-26v85h625v-85h-67q-33 0 -63 -4t-52.5 -18t-36 -41t-13.5 -71v-421h87q146 0 248 -29t166.5 -81.5t94 -125t29.5 -159.5q0 -88 -30 -161t-91 -126t-154 -82t-219 -29 h-524zM469 96h97q86 0 144.5 18t96 54t54 91t16.5 128q0 84 -19 143.5t-60 96.5t-106 54.5t-156 17.5h-67v-603zM616 1712q0 31 8 52.5t21.5 35t32.5 19.5t40 6q22 0 40.5 -6t32.5 -19.5t22 -35t8 -52.5t-8 -52.5t-22 -35t-32.5 -19.5t-40.5 -6q-44 0 -73 25.5t-29 87.5z M997 1712q0 31 8 52.5t22 35t32.5 19.5t39.5 6q22 0 40.5 -6t33 -19.5t22 -35t7.5 -52.5t-7.5 -52.5t-22 -35t-33 -19.5t-40.5 -6q-44 0 -73 25.5t-29 87.5zM1160 0v84h26q34 0 64 5t52.5 20t35 43.5t12.5 75.5v976q0 47 -12.5 75.5t-35 44t-52.5 20t-64 4.5h-26v85h584v-85 h-26q-33 0 -63.5 -4.5t-52.5 -20t-35.5 -44t-13.5 -75.5v-976q0 -47 13.5 -75.5t35.5 -43.5t52.5 -20t63.5 -5h26v-84h-584z" />
<glyph unicode="&#x4f9;" horiz-adv-x="1658" d="M46 0v84h27q33 0 63 4.5t52.5 18.5t35.5 40.5t13 71.5v636q0 44 -13 71t-35.5 41.5t-52.5 19.5t-63 5h-27v84h570v-84h-26q-33 0 -63 -5t-52.5 -19.5t-36 -41.5t-13.5 -71v-257h135q93 0 176.5 -11t147.5 -42t101.5 -88t37.5 -150q0 -66 -25.5 -122.5t-77 -97.5 t-129.5 -64t-182 -23h-563zM425 92h145q67 0 114.5 12.5t78 39.5t44.5 70t14 104q0 101 -68.5 144.5t-194.5 43.5h-133v-414zM536 1381q0 31 8 52.5t21.5 35t32.5 19.5t40 6q22 0 40.5 -6t32.5 -19.5t22 -35t8 -52.5t-8 -52.5t-22 -35t-32.5 -19.5t-40.5 -6q-44 0 -73 25.5 t-29 87.5zM917 1381q0 31 8 52.5t22 35t32.5 19.5t39.5 6q22 0 40.5 -6t33 -19.5t22 -35t7.5 -52.5t-7.5 -52.5t-22 -35t-33 -19.5t-40.5 -6q-44 0 -73 25.5t-29 87.5zM1061 0v84h7q34 0 63 4.5t51.5 18.5t36 40.5t13.5 71.5v636q0 44 -13.5 71t-36 41.5t-51.5 19.5t-63 5 h-7v84h531v-84h-6q-34 0 -63.5 -4.5t-52.5 -18.5t-36 -41t-13 -71v-638q0 -45 13 -71.5t36 -40.5t52.5 -18.5t63.5 -4.5h6v-84h-531z" />
<glyph unicode="&#x4fa;" horiz-adv-x="1126" d="M46 691v98h221v415q0 144 -165 144h-26v85h998l12 -351h-105l-8 70q-12 105 -57.5 143t-143.5 38h-303v-544h312v-98h-312v-471q0 -136 165 -136h67v-84h-625v84h26q165 0 165 144v463h-221zM339 -285q0 44 30 74q46 -32 104 -32q115 0 115 145v182h113v-182 q0 -297 -209 -297q-153 0 -153 110z" />
<glyph unicode="&#x4fb;" horiz-adv-x="919" d="M46 0v84h27q164 0 164 135v279h-191v94h191v263q0 137 -164 137h-27v84h833v-321h-98l-11 66q-16 104 -46 133.5t-94 29.5h-205v-392h236v-94h-236v-279q0 -135 165 -135h46v-84h-590zM275 -285q0 44 30 74q46 -32 104 -32q115 0 115 145v182h113v-182q0 -297 -209 -297 q-153 0 -153 110z" />
<glyph unicode="&#x4fc;" horiz-adv-x="1324" d="M16 0v84h12q37 0 64 7.5t50 24t45.5 43t49.5 65.5l335 481l-331 538q-36 57 -81.5 81t-90.5 24h-27v85h544v-85h-6q-34 0 -56.5 -4t-35.5 -12t-17.5 -19t-4.5 -22t1 -21t6 -23t14.5 -30.5t26.5 -44.5l181 -293l190 289q22 34 36 64.5t14 58.5q0 17 -8.5 28.5t-22.5 18 t-33.5 8.5t-43.5 2h-6v85h439v-85h-17q-30 0 -54 -6.5t-46.5 -24t-46.5 -44.5t-52 -69l-291 -419l369 -594q44 -59 83.5 -83t77.5 -24h25v-84h-542v84h11q120 0 120 67q0 11 -2.5 21.5t-9.5 25.5t-20 36.5t-34 54.5l-199 320l-222 -330q-9 -12 -18 -28.5t-16.5 -34 t-12.5 -35.5t-5 -34q0 -34 31.5 -48.5t98.5 -14.5h6v-84h-478zM948 -285q0 44 30 74q46 -32 104 -32q115 0 115 145v182h113v-182q0 -297 -209 -297q-153 0 -153 110z" />
<glyph unicode="&#x4fd;" horiz-adv-x="1160" d="M10 0v84h18q37 0 64.5 6t52 20.5t49 39.5t53.5 63l253 327l-253 345q-44 52 -85.5 79.5t-87.5 27.5h-26v84h510v-84h-6q-35 0 -57.5 -4.5t-35 -13t-17.5 -19t-5 -22.5q0 -21 12.5 -41t34.5 -51l132 -180l104 149q23 35 36.5 65.5t13.5 57.5q0 36 -30.5 47.5t-77.5 11.5 h-5v84h439v-84h-18q-29 0 -53 -5t-47 -18.5t-47.5 -39t-55.5 -66.5l-207 -275l295 -397q44 -59 84 -83t77 -24h27v-84h-519v84h10q120 0 120 67q0 11 -2.5 22t-11.5 26.5t-23.5 37t-38.5 52.5l-134 180l-140 -196q-9 -11 -19 -27t-17.5 -32.5t-12.5 -33.5t-5 -33 q0 -34 28.5 -48.5t95.5 -14.5h6v-84h-478zM789 -285q0 44 30 74q46 -32 104 -32q115 0 115 145v182h113v-182q0 -297 -209 -297q-153 0 -153 110z" />
<glyph unicode="&#x4fe;" horiz-adv-x="1324" d="M16 0v84h12q65 0 106 26t103 114l333 479h-405v98h349l-273 442q-66 105 -172 105h-27v85h544v-85h-6q-114 0 -114 -57q0 -42 48 -119l181 -293l190 289q50 77 50 123q0 57 -108 57h-6v85h439v-85h-17q-99 0 -199 -144l-282 -403h418v-98h-377l319 -512q67 -107 161 -107 h25v-84h-542v84h11q120 0 120 67q0 32 -66 138l-199 320l-222 -330q-52 -76 -52 -132q0 -63 130 -63h6v-84h-478z" />
<glyph unicode="&#x4ff;" horiz-adv-x="1160" d="M10 0v84h18q72 0 115 25.5t104 103.5l253 327l-2 2h-345v94h276l-182 249q-78 107 -173 107h-26v84h510v-84h-6q-115 0 -115 -59q0 -27 47 -92l132 -180l104 149q50 73 50 123q0 59 -108 59h-5v84h439v-84h-18q-68 0 -107.5 -27.5t-95.5 -101.5l-170 -227h325v-94h-327 l260 -351q80 -107 161 -107h27v-84h-519v84h10q120 0 120 67q0 36 -76 138l-134 180l-140 -196q-54 -75 -54 -126q0 -63 124 -63h6v-84h-478z" />
<glyph unicode="&#x2000;" horiz-adv-x="1031" />
<glyph unicode="&#x2001;" horiz-adv-x="2063" />
<glyph unicode="&#x2002;" horiz-adv-x="1031" />
<glyph unicode="&#x2003;" horiz-adv-x="2063" />
<glyph unicode="&#x2004;" horiz-adv-x="687" />
<glyph unicode="&#x2005;" horiz-adv-x="515" />
<glyph unicode="&#x2006;" horiz-adv-x="343" />
<glyph unicode="&#x2007;" horiz-adv-x="343" />
<glyph unicode="&#x2008;" horiz-adv-x="257" />
<glyph unicode="&#x2009;" horiz-adv-x="412" />
<glyph unicode="&#x200a;" horiz-adv-x="114" />
<glyph unicode="&#x2010;" horiz-adv-x="622" d="M50 471v151h522v-151h-522z" />
<glyph unicode="&#x2011;" horiz-adv-x="622" d="M50 471v151h522v-151h-522z" />
<glyph unicode="&#x2012;" horiz-adv-x="622" d="M50 471v151h522v-151h-522z" />
<glyph unicode="&#x2013;" horiz-adv-x="1003" d="M-10 479v119h1023v-119h-1023z" />
<glyph unicode="&#x2014;" horiz-adv-x="2007" d="M-10 479v119h2027v-119h-2027z" />
<glyph unicode="&#x2018;" horiz-adv-x="501" d="M113 1042q0 63 17.5 123t57 111t102.5 91.5t152 67.5v-85q-99 -31 -145 -76t-46 -104q0 -19 10.5 -32.5t27.5 -24t35.5 -20t35 -23.5t27.5 -34t11 -50q0 -58 -38 -88.5t-93 -30.5q-31 0 -59 11.5t-49.5 33.5t-33.5 55t-12 75z" />
<glyph unicode="&#x2019;" horiz-adv-x="501" d="M60 865v85q99 31 145 76t46 104q0 20 -11 33t-27.5 23.5t-35 20t-35.5 23.5t-27.5 34t-10.5 50q0 58 37.5 88.5t93.5 30.5q32 0 59 -11.5t49 -33.5t34 -55t12 -75q0 -63 -17.5 -123t-57.5 -111t-102 -91.5t-152 -67.5z" />
<glyph unicode="&#x201a;" horiz-adv-x="501" d="M60 -224q99 31 145 76t46 104q0 20 -11 33t-27.5 23.5t-35 20t-35.5 23.5t-27.5 34t-10.5 50q0 58 37.5 88.5t93.5 30.5q32 0 59 -11.5t49 -33.5t34 -55t12 -75q0 -63 -17.5 -123t-57.5 -111t-102 -91.5t-152 -67.5v85z" />
<glyph unicode="&#x201c;" horiz-adv-x="903" d="M113 1042q0 63 17.5 123t57 111t102.5 91.5t152 67.5v-85q-99 -31 -145 -76t-46 -104q0 -19 10.5 -32.5t27.5 -24t35.5 -20t35 -23.5t27.5 -34t11 -50q0 -58 -38 -88.5t-93 -30.5q-31 0 -59 11.5t-49.5 33.5t-33.5 55t-12 75zM514 1042q0 63 17.5 123t57 111t102.5 91.5 t152 67.5v-85q-98 -31 -144 -76t-46 -104q0 -19 10.5 -32.5t27 -24t35.5 -20t35 -23.5t27 -34t11 -50q0 -58 -37.5 -88.5t-93.5 -30.5q-30 0 -58.5 11.5t-49.5 33.5t-33.5 55t-12.5 75z" />
<glyph unicode="&#x201d;" horiz-adv-x="903" d="M60 865v85q99 31 145 76t46 104q0 20 -11 33t-27.5 23.5t-35 20t-35.5 23.5t-27.5 34t-10.5 50q0 58 37.5 88.5t93.5 30.5q32 0 59 -11.5t49 -33.5t34 -55t12 -75q0 -63 -17.5 -123t-57.5 -111t-102 -91.5t-152 -67.5zM462 865v85q98 31 144.5 76t46.5 104q0 20 -11 33 t-27.5 23.5t-35 20t-35.5 23.5t-27.5 34t-10.5 50q0 58 37 88.5t93 30.5q31 0 59 -11.5t49 -33.5t34 -55t13 -75q0 -63 -17.5 -123t-57.5 -111t-102 -91.5t-152 -67.5z" />
<glyph unicode="&#x201e;" horiz-adv-x="903" d="M60 -224q99 31 145 76t46 104q0 20 -11 33t-27.5 23.5t-35 20t-35.5 23.5t-27.5 34t-10.5 50q0 58 37.5 88.5t93.5 30.5q32 0 59 -11.5t49 -33.5t34 -55t12 -75q0 -63 -17.5 -123t-57.5 -111t-102 -91.5t-152 -67.5v85zM462 -224q98 31 144.5 76t46.5 104q0 20 -11 33 t-27.5 23.5t-35 20t-35.5 23.5t-27.5 34t-10.5 50q0 58 37 88.5t93 30.5q31 0 59 -11.5t49 -33.5t34 -55t13 -75q0 -63 -17.5 -123t-57.5 -111t-102 -91.5t-152 -67.5v85z" />
<glyph unicode="&#x2022;" horiz-adv-x="726" d="M98 714q0 83 20 138.5t55.5 89.5t84.5 48.5t106 14.5q54 0 102 -14.5t84.5 -48.5t57 -89.5t20.5 -138.5q0 -82 -20.5 -137.5t-57 -89.5t-84.5 -49t-102 -15q-57 0 -106 15t-84.5 49t-55.5 89.5t-20 137.5z" />
<glyph unicode="&#x2026;" horiz-adv-x="1721" d="M161 122q0 40 9.5 66t27 41.5t40.5 22.5t49 7t49 -7t40 -22.5t27.5 -41.5t10.5 -66q0 -38 -10.5 -64.5t-27.5 -42t-40 -22.5t-49 -7t-49 7t-40.5 22.5t-27 42t-9.5 64.5zM735 122q0 40 10 66t27 41.5t40 22.5t49 7t49 -7t40 -22.5t27.5 -41.5t10.5 -66q0 -38 -10.5 -64.5 t-27.5 -42t-40 -22.5t-49 -7t-49 7t-40 22.5t-27 42t-10 64.5zM1308 122q0 40 10 66t27 41.5t40 22.5t50 7q25 0 48 -7t40.5 -22.5t27.5 -41.5t10 -66q0 -38 -10 -64.5t-27.5 -42t-40.5 -22.5t-48 -7q-27 0 -50 7t-40 22.5t-27 42t-10 64.5z" />
<glyph unicode="&#x202f;" horiz-adv-x="412" />
<glyph unicode="&#x2039;" horiz-adv-x="668" d="M130 510v64l307 349h101l-203 -381l203 -381h-101z" />
<glyph unicode="&#x203a;" horiz-adv-x="668" d="M132 161l203 381l-203 381h101l307 -349v-64l-307 -349h-101z" />
<glyph unicode="&#x205f;" horiz-adv-x="515" />
<glyph unicode="&#x20ac;" d="M82 536v94h138q-1 23 -2 49.5t-1 46.5v44h-135v95h142q14 168 58.5 280t112 180t152 96t177.5 28q77 0 139 -15t106.5 -42t69 -64t24.5 -81q0 -70 -44.5 -98.5t-129.5 -28.5q0 47 -10 89t-31.5 73.5t-56 49.5t-84.5 18q-52 0 -100 -22.5t-87 -78t-66 -149.5t-37 -235h422 v-95h-425v-48v-46.5t2 -45.5h343v-94h-336q13 -107 42 -188.5t72 -137t99.5 -84t123.5 -28.5q51 0 91 10t70.5 26.5t53.5 38.5t40 46q13 -8 25 -23t12 -45q0 -27 -18.5 -56.5t-55.5 -55t-94 -42.5t-135 -17q-94 0 -180.5 30t-156 96t-117.5 172t-67 258h-146z" />
<glyph unicode="&#x2122;" horiz-adv-x="1675" d="M54 1250l6 183h586l7 -183h-59l-8 48q-4 29 -20.5 49.5t-59.5 21.5h-92v-514q0 -21 6 -33t16.5 -18.5t24.5 -8.5t29 -2h31v-54h-341v54h35q14 0 28 2t24 7.5t16 17t6 29.5v520h-88q-22 -1 -36.5 -6.5t-23.5 -15t-14 -22t-6 -27.5l-8 -48h-59zM686 739v54h21q30 0 53 9.5 t25 46.5v472q-1 19 -7.5 30t-17 17t-25 7.5t-28.5 1.5h-21v56h231l221 -556l227 556h227v-56h-22q-17 0 -31 -2t-24.5 -8t-15.5 -18t-5 -33v-461q0 -21 5 -33t15.5 -18.5t24.5 -8.5t31 -2h22v-54h-297v54q34 0 54.5 9.5t23.5 44.5v448l-227 -556h-70l-227 558v-442 q0 -41 20.5 -51.5t59.5 -10.5v-54h-243z" />
<glyph unicode="&#x25fc;" horiz-adv-x="1078" d="M0 0v1078h1078v-1078h-1078z" />
</font>
</defs>
</svg>
